<?xml version="1.0" encoding="UTF-8"?>
<!DOCTYPE svg PUBLIC "-//W3C//DTD SVG 1.0//EN" "http://www.w3.org/TR/2001/REC-SVG-20010904/DTD/svg10.dtd">
<!-- Creator: CorelDRAW -->
<svg xmlns="http://www.w3.org/2000/svg" xml:space="preserve" width="356px" height="356px" version="1.0" style="shape-rendering:geometricPrecision; text-rendering:geometricPrecision; image-rendering:optimizeQuality; fill-rule:evenodd; clip-rule:evenodd"
viewBox="0 0 356 356"
 xmlns:xlink="http://www.w3.org/1999/xlink"
 xmlns:xodm="http://www.corel.com/coreldraw/odm/2003">
 <defs>
  <style type="text/css">
   <![CDATA[
    .str1 {stroke:#143553;stroke-width:2.78;stroke-miterlimit:22.9256}
    .str0 {stroke:#FEFEFE;stroke-width:0.29;stroke-miterlimit:22.9256}
    .fil19 {fill:none}
    .fil17 {fill:#EBECEC}
    .fil18 {fill:#C5C6C6}
    .fil16 {fill:#E42127}
    .fil6 {fill:#A7A7A8;fill-rule:nonzero}
    .fil0 {fill:#616060;fill-rule:nonzero}
    .fil5 {fill:black;fill-rule:nonzero}
    .fil7 {fill:#143553;fill-rule:nonzero}
    .fil4 {fill:#263138;fill-rule:nonzero}
    .fil8 {fill:#445964;fill-rule:nonzero}
    .fil13 {fill:#5B7287;fill-rule:nonzero}
    .fil2 {fill:#DFDFDF;fill-rule:nonzero}
    .fil10 {fill:#F4F4F4;fill-rule:nonzero}
    .fil3 {fill:#FF725D;fill-rule:nonzero}
    .fil11 {fill:white;fill-rule:nonzero}
    .fil15 {fill:white;fill-rule:nonzero;fill-opacity:0.200000}
    .fil1 {fill:black;fill-rule:nonzero;fill-opacity:0.301961}
    .fil14 {fill:#263138;fill-rule:nonzero;fill-opacity:0.301961}
    .fil12 {fill:white;fill-rule:nonzero;fill-opacity:0.301961}
    .fil9 {fill:black;fill-rule:nonzero;fill-opacity:0.501961}
   ]]>
  </style>
   <clipPath id="id0">
    <path d="M178.23 4.15c98.31,0 178,79.69 178,178 0,98.31 -79.69,178 -178,178 -98.31,0 -178,-79.69 -178,-178 0,-98.31 79.69,-178 178,-178z"/>
   </clipPath>
      <clipPath id="id1">
       <path d="M274.56 204.81c0,0 14.48,10.31 18.27,-1.56 3.77,-11.86 0.84,-18.12 6.49,-19.2 5.66,-1.07 2.59,8.93 3.46,10.78 0.87,1.85 5.67,34.07 5.67,34.07 0,0 1.21,18.54 -18.58,21.66 0,0 -9.97,2.35 -20.74,-5.52 -10.76,-7.87 -26.02,-3.29 -30.52,-8.81 -4.5,-5.53 7.9,-1.93 10.52,-1.82 2.62,0.1 12.84,-0.31 8.35,-5.51 0,0 -22.01,-10.26 -22.76,-11.38 -0.76,-1.12 -1.15,-4.31 3.3,-3.16 4.45,1.15 19.28,7.2 19.28,7.2 0,0 4.48,-1.34 -1.44,-5.53 -5.92,-4.2 -17.55,-13.25 -17.55,-13.25 0,0 -3.37,-3.62 -1.42,-4.75 1.96,-1.14 4.03,-0.67 5.35,0.31 1.32,0.98 19.58,13 19.58,13 0,0 6.39,1.3 2.91,-3.26 -3.48,-4.55 -14.01,-13.38 -14.01,-13.38 0,0 -4.03,-4.99 0.69,-6.05 4.72,-1.05 17.16,11.07 17.16,11.07l5.99 5.09z"/>
      </clipPath>
      <clipPath id="id2">
       <path d="M178.23 4.15c98.31,0 178,79.69 178,178 0,98.31 -79.69,178 -178,178 -98.31,0 -178,-79.69 -178,-178 0,-98.31 79.69,-178 178,-178z"/>
      </clipPath>
 </defs>
 <g id="Layer_x0020_1">
  <metadata id="CorelCorpID_0Corel-Layer"/>
  <g>
  </g>
  <g style="clip-path:url(#id0)">
   <g id="_1701629481776">
    <g>
     <path class="fil0" d="M160.69 257.26c-74.24,0 -134.43,-1.33 -134.43,-2.98 0,-0.66 9.82,-1.27 26.42,-1.76 0.68,1.06 1.88,1.76 3.23,1.76l19.1 0.14c1.62,0 5.29,-2.61 5.86,-4.03 21.96,-0.35 50.83,0.93 79.82,0.93 29,0 58.42,-0.07 80.38,0.28 0.56,1.42 1.94,1.88 3.56,1.88l20.85 0.8c1.35,0 -5.48,0.89 -4.79,-0.17l-4.14 3.27c0,1.64 -21.6,-0.12 -95.86,-0.12z"/>
     <polygon class="fil1" points="52.23,204.06 144.17,162.99 134.63,144.32 130.08,134.14 45.49,188.96 "/>
     <polygon class="fil2" points="112.05,116.48 56.94,141.1 55.43,137.71 110.53,113.1 "/>
     <polygon class="fil2" points="122.66,140.25 67.55,164.86 66.04,161.47 121.15,136.86 "/>
     <polygon class="fil2" points="95.63,160.59 70.63,171.76 69.13,168.39 94.13,157.23 "/>
     <path class="fil3" d="M64.17 176.82l-9.41 4.2c-1.03,0.47 -2.26,0 -2.72,-1.04l-4.2 -9.4c-0.47,-1.04 0,-2.26 1.04,-2.73l9.4 -4.2c1.05,-0.47 2.26,0 2.73,1.04l4.2 9.41c0.46,1.04 -0.01,2.26 -1.04,2.72zm-15.09 -8.54c-0.81,0.36 -1.17,1.3 -0.81,2.1l4.2 9.41c0.36,0.8 1.3,1.16 2.1,0.8l9.41 -4.2c0.8,-0.36 1.16,-1.3 0.8,-2.1l-4.2 -9.4c-0.36,-0.8 -1.3,-1.16 -2.1,-0.81l-9.4 4.2z"/>
     <path class="fil4" d="M63.53 169.14c0,0 -3.02,-3.05 -3.89,15.44 -0.82,17.45 -2.02,42.62 2.17,53.41 0.45,1.17 1.26,2.18 2.33,2.83 0.86,0.53 2.07,1.07 3.63,1.31 3.65,0.57 18.08,0.25 18.08,0.25 0,0 8.18,0 8.31,-6.74 0.1,-5.54 0,-17.6 0,-17.6l-30.63 -48.9z"/>
     <path class="fil5" d="M63.53 169.14c0,0 -3.02,-3.05 -3.89,15.44 -0.82,17.45 -2.02,42.62 2.17,53.41 0.45,1.17 1.26,2.18 2.33,2.83 0.86,0.53 2.07,1.07 3.63,1.31 3.65,0.57 18.08,0.25 18.08,0.25 0,0 8.18,0 8.31,-6.74 0.1,-5.54 0,-17.6 0,-17.6l-30.63 -48.9z"/>
     <path class="fil4" d="M274.71 137.15c0,0 -0.91,3.13 -2.8,3.46 -1.89,0.32 -16.77,0.78 -16.77,0.78l-1.46 2.99 -2.81 0 -2.03 -12.01 1.73 0.36c0.6,0.12 1.09,0.53 1.33,1.08 0.27,0.62 0.84,1.04 1.51,1.11l21.3 2.23z"/>
     <path class="fil6" d="M274.09 137.62c1.11,-0.09 1.91,-1.09 1.76,-2.19 -0.49,-3.43 -2.29,-10.1 -8.92,-11.08 -5.86,-0.88 -10.12,-0.61 -12.37,-0.32 -1.03,0.13 -1.54,1.07 -1.66,2.1 -0.56,4.72 -0.11,10.57 1.25,11.28 1.42,0.75 15.1,0.59 19.94,0.21z"/>
     <path class="fil4" d="M49.93 181.67c0,0 -3.02,-3.06 -3.89,15.43 -0.82,17.46 -2.02,42.62 2.17,53.42 0.46,1.16 1.26,2.17 2.33,2.83 0.86,0.53 2.07,1.06 3.63,1.3 3.65,0.57 18.07,0.25 18.07,0.25 0,0 8.19,0 8.32,-6.74 0.1,-5.54 0,-17.6 0,-17.6l-30.63 -48.89z"/>
     <path class="fil7" d="M267.07 160.04c-2.56,-7.19 -13.56,-19.76 -13.56,-19.76 0,0 -12.94,-31.2 -24.1,-38.56 -11.16,-7.35 -65.67,-6.43 -65.67,-6.43l-2.89 0.04c0,0 -57.77,-0.96 -68.92,6.39 -11.17,7.36 -24.1,38.56 -24.1,38.56 0,0 -12.43,14.2 -13.95,21.05l-6.7 4.41c-1.36,0.89 -2.15,2.42 -2.09,4.04 0.4,11.55 2.63,57.43 6.51,62.58 3.71,4.92 38.78,2.31 48.32,2.3 13.68,-0.03 56.26,-0.59 56.26,-0.59l56.43 -0.13c-15.1,-26.04 16.68,-77.21 16.68,-77.21 0,0 8.53,-13.96 14.46,-13.96 5.92,0 11.08,12.99 11.08,12.99 0,0 5.52,2.4 12.24,4.28z"/>
     <path class="fil8" d="M226.38 103.82c-0.28,-0.49 -0.8,-0.81 -1.36,-0.83l-63.38 -2.72 -0.5 -0.02 -0.01 0.04 -64.86 2.7c-0.57,0.02 -1.09,0.34 -1.37,0.83l-16.52 28.83c-0.56,0.98 0.12,2.19 1.24,2.23 1.81,0.05 4.51,0.07 7.63,-0.05 5.08,-0.22 45.51,-0.12 66.85,-0.05l-0.01 0.05c0,0 2.48,-0.02 6.55,-0.03 4.08,0.01 6.55,0.03 6.55,0.03l-0.01 -0.05c21.34,-0.07 61.77,-0.17 66.85,0.05 3.29,0.13 6.1,0.09 7.91,0.04 1,-0.03 1.6,-1.12 1.1,-1.98l-16.66 -29.07z"/>
     <path class="fil4" d="M46.57 137.15c0,0 0.92,3.13 2.8,3.46 1.89,0.32 16.78,0.78 16.78,0.78l1.46 2.99 2.8 0 2.04 -12.01 -1.74 0.36c-0.59,0.12 -1.09,0.53 -1.33,1.08 -0.26,0.62 -0.84,1.04 -1.51,1.11l-21.3 2.23z"/>
     <polygon class="fil9" points="84.53,129.4 236.52,128.99 238.2,132.01 164.54,132.5 83.1,131.96 "/>
     <path class="fil4" d="M141.65 130.09c0,-1.66 -0.64,-6.37 -2.18,-7.62 -1.19,-0.97 -4.01,-1.26 -5.4,-1.34 -0.05,0 -0.09,0 -0.13,0 -0.74,0.01 -5.67,0.14 -7.14,1.34 -1.55,1.25 -2.19,5.96 -2.19,7.62 0,0.02 0,0.03 0,0.05 0,1.03 0.84,1.87 1.88,1.87l6.22 0 0.85 0 6.22 0c1.03,0 1.87,-0.84 1.87,-1.87 0,-0.02 0,-0.03 0,-0.05z"/>
     <path class="fil5" d="M141.65 130.09c0,-1.66 -0.64,-6.37 -2.18,-7.62 -1.19,-0.97 -4.01,-1.26 -5.4,-1.34 -0.05,0 -0.09,0 -0.13,0 -0.74,0.01 -5.67,0.14 -7.14,1.34 -1.55,1.25 -2.19,5.96 -2.19,7.62 0,0.02 0,0.03 0,0.05 0,1.03 0.84,1.87 1.88,1.87l6.22 0 0.85 0 6.22 0c1.03,0 1.87,-0.84 1.87,-1.87 0,-0.02 0,-0.03 0,-0.05z"/>
     <path class="fil4" d="M134.94 128.87c0,-2.73 -1.05,-10.43 -3.57,-12.48 -1.96,-1.58 -6.57,-2.06 -8.85,-2.19 -0.07,-0.01 -0.14,-0.01 -0.21,-0.01 -1.21,0.02 -9.28,0.23 -11.69,2.2 -2.52,2.05 -3.57,9.75 -3.57,12.48 0,0.02 0,0.05 0,0.08 0,1.69 1.37,3.06 3.06,3.06l10.19 0 1.39 0 10.18 0c1.7,0 3.07,-1.37 3.07,-3.06 0,-0.03 0,-0.06 0,-0.08z"/>
     <path class="fil1" d="M108.29 208.47c0,0 -48.8,-6.42 -50.79,-6.66 -3.01,-0.36 -4.63,1.59 -4.63,3.92 0,1.63 -0.22,7.89 -0.35,11.44 -0.08,2.1 0.98,4.08 2.79,5.15 1.04,0.61 2.44,1.25 4.3,1.8 4.1,1.2 28.83,2.34 33.96,2.57 0.6,0.03 1.18,-0.18 1.64,-0.58 1.84,-1.63 6.78,-6.07 8.34,-8.26 5.09,-7.21 4.74,-9.38 4.74,-9.38zm-25.33 13.33l-23.6 -3.82 0.93 -12.92 32.05 2.91 -9.38 13.83z"/>
     <path class="fil1" d="M53.61 175.29c0,0 -2.42,7.34 12.94,10.76 15.55,3.46 38.56,9.72 38.56,9.72l-12.36 -8.81c0,0 -35.55,-5.93 -36.43,-11.36 -1.01,-6.22 -0.01,-13.21 -0.01,-13.21l-2.7 12.9z"/>
     <path class="fil4" d="M113.6 208.25c0,0 -0.07,-0.01 -0.17,-0.04 -0.13,-0.03 -0.29,-0.06 -0.49,-0.11 -0.44,-0.11 -1.07,-0.27 -1.87,-0.47 -1.62,-0.4 -3.96,-0.98 -6.88,-1.63 -5.83,-1.3 -13.93,-2.9 -22.92,-4.36 -4.5,-0.73 -8.79,-1.41 -12.71,-1.92 -1.95,-0.26 -3.81,-0.52 -5.55,-0.76 -1.74,-0.24 -3.36,-0.48 -4.85,-0.44 -1.47,0.04 -2.82,0.38 -3.77,1.08 -0.97,0.67 -1.63,1.47 -2.08,2.17 -0.89,1.41 -0.88,2.41 -0.92,2.38 0,0 0,-0.23 0.1,-0.66 0.09,-0.43 0.3,-1.05 0.74,-1.78 0.44,-0.71 1.1,-1.52 2.08,-2.23 0.96,-0.73 2.35,-1.09 3.85,-1.14 1.51,-0.04 3.14,0.18 4.87,0.42 1.75,0.23 3.61,0.48 5.56,0.74 3.93,0.49 8.22,1.16 12.72,1.89 9,1.47 17.1,3.09 22.92,4.44 2.91,0.67 5.25,1.28 6.87,1.7 0.79,0.23 1.42,0.4 1.85,0.52 0.21,0.06 0.36,0.1 0.48,0.14 0.11,0.03 0.17,0.05 0.17,0.06z"/>
     <path class="fil4" d="M51.65 189.27c0,0 -0.01,-0.09 -0.02,-0.27 -0.01,-0.21 -0.01,-0.47 -0.03,-0.79 -0.01,-0.68 -0.02,-1.66 0,-2.88 0.03,-2.43 0.16,-5.8 0.49,-9.5 0.33,-3.7 0.79,-7.04 1.19,-9.44 0.2,-1.2 0.38,-2.17 0.52,-2.83 0.06,-0.31 0.11,-0.57 0.16,-0.77 0.04,-0.17 0.06,-0.27 0.07,-0.26 0.01,0 0,0.09 -0.02,0.27 -0.04,0.2 -0.07,0.46 -0.12,0.77 -0.11,0.71 -0.25,1.67 -0.43,2.85 -0.36,2.41 -0.79,5.74 -1.12,9.43 -0.33,3.7 -0.49,7.05 -0.56,9.49 -0.03,1.18 -0.06,2.16 -0.08,2.87 -0.01,0.32 -0.01,0.58 -0.02,0.79 -0.01,0.18 -0.02,0.27 -0.03,0.27z"/>
     <path class="fil4" d="M62.34 156.21c-0.02,0 -0.03,-0.21 -0.02,-0.59 -0.01,-0.19 0,-0.42 0.04,-0.69 0.03,-0.26 0.04,-0.57 0.11,-0.91 0.2,-1.33 0.65,-3.16 1.27,-5.12 0.62,-1.97 1.28,-3.71 1.79,-4.96 0.25,-0.63 0.47,-1.13 0.62,-1.48 0.16,-0.34 0.25,-0.53 0.27,-0.52 0.01,0.01 -0.05,0.2 -0.18,0.56 -0.15,0.4 -0.33,0.9 -0.55,1.5 -0.46,1.26 -1.09,3.01 -1.71,4.98 -0.62,1.95 -1.1,3.76 -1.34,5.07 -0.25,1.32 -0.26,2.16 -0.3,2.16z"/>
     <path class="fil10" d="M65.23 159.56c0,0 -8,-2.92 -9.02,3.29 -1.03,6.21 -0.92,12.38 0.42,14.55 1.34,2.17 13.7,5.13 13.7,5.13l21.38 4.7c0,0 1.53,0.32 0.61,-1.42 -1.04,-1.95 -6.7,-14.44 -9.97,-17.47 -6.04,-5.6 -17.12,-8.78 -17.12,-8.78z"/>
     <path class="fil1" d="M73.12 183.14c0,0 0.04,-14.62 -1.04,-16.25 -1.07,-1.62 -13.66,-7.45 -13.66,-7.45 0,0 1.22,-1.05 3.74,-0.57 2.51,0.48 6.7,1.62 10.17,3.41 3.48,1.78 9.04,4.33 11.12,7.29 0.91,1.28 2.8,4.35 4.6,7.68 2.34,4.33 4.56,8.96 4.56,9.22 0,0.53 0.13,1.01 -1.95,0.57 -4.81,-1.03 -17.54,-3.9 -17.54,-3.9z"/>
     <path class="fil10" d="M85.27 176.64c0,2.86 -2.32,5.18 -5.18,5.18 -2.87,0 -5.19,-2.32 -5.19,-5.18 0,-2.87 2.32,-5.19 5.19,-5.19 2.86,0 5.18,2.32 5.18,5.19z"/>
     <path class="fil4" d="M85.27 176.64c-0.03,0 -0.01,-0.47 -0.21,-1.26 -0.2,-0.77 -0.72,-1.91 -1.89,-2.79 -0.58,-0.44 -1.31,-0.8 -2.15,-0.95 -0.83,-0.14 -1.77,-0.11 -2.66,0.23 -0.45,0.16 -0.88,0.4 -1.28,0.7 -0.4,0.29 -0.77,0.65 -1.07,1.07 -0.63,0.83 -0.97,1.9 -0.99,3 0.02,1.09 0.36,2.16 0.99,2.99 0.3,0.42 0.67,0.78 1.07,1.07 0.4,0.3 0.83,0.54 1.28,0.7 0.89,0.34 1.83,0.37 2.66,0.23 0.84,-0.15 1.57,-0.52 2.15,-0.94 1.17,-0.88 1.69,-2.02 1.89,-2.8 0.2,-0.79 0.18,-1.26 0.21,-1.25 0,0 0.06,0.46 -0.12,1.27 -0.17,0.8 -0.68,1.99 -1.87,2.92 -0.6,0.45 -1.35,0.84 -2.22,1 -0.86,0.15 -1.84,0.13 -2.78,-0.22 -0.47,-0.16 -0.93,-0.41 -1.34,-0.71 -0.43,-0.31 -0.81,-0.69 -1.13,-1.13 -0.66,-0.87 -1.02,-1.99 -1.04,-3.13 0.02,-1.16 0.39,-2.27 1.04,-3.14 0.32,-0.44 0.7,-0.82 1.13,-1.13 0.41,-0.3 0.87,-0.55 1.34,-0.71 0.94,-0.35 1.92,-0.37 2.78,-0.22 0.87,0.16 1.62,0.55 2.22,1.01 1.19,0.92 1.7,2.11 1.87,2.91 0.18,0.81 0.12,1.28 0.12,1.28z"/>
     <path class="fil2" d="M80.09 176.41c1.9,0 3.55,1.06 4.41,2.61 0.4,-0.72 0.62,-1.55 0.62,-2.42 0,-2.79 -2.25,-5.05 -5.03,-5.05 -2.79,0 -5.05,2.26 -5.05,5.05 0,0.87 0.23,1.7 0.63,2.42 0.85,-1.55 2.51,-2.61 4.42,-2.61z"/>
     <path class="fil11" d="M82.32 176.47c0,1.23 -1,2.23 -2.23,2.23 -1.24,0 -2.24,-1 -2.24,-2.23 0,-1.24 1,-2.24 2.24,-2.24 1.23,0 2.23,1 2.23,2.24z"/>
     <path class="fil4" d="M82.32 176.47c-0.02,0 -0.02,-0.2 -0.12,-0.54 -0.09,-0.33 -0.32,-0.8 -0.82,-1.17 -0.48,-0.37 -1.26,-0.57 -2.02,-0.28 -0.75,0.25 -1.39,1.05 -1.39,1.99 0,0.93 0.64,1.72 1.39,1.98 0.76,0.29 1.54,0.09 2.02,-0.28 0.5,-0.37 0.73,-0.84 0.82,-1.17 0.1,-0.34 0.1,-0.53 0.12,-0.53 0.01,0 0.01,0.04 0.02,0.14 0,0.09 -0.01,0.24 -0.04,0.41 -0.07,0.35 -0.29,0.88 -0.81,1.29 -0.5,0.41 -1.36,0.66 -2.2,0.36 -0.84,-0.27 -1.57,-1.16 -1.56,-2.2 -0.01,-1.05 0.72,-1.94 1.56,-2.21 0.84,-0.3 1.7,-0.06 2.2,0.36 0.52,0.41 0.74,0.94 0.81,1.29 0.03,0.17 0.04,0.31 0.04,0.41 -0.01,0.1 -0.01,0.15 -0.02,0.15z"/>
     <path class="fil11" d="M82.04 172.96c-0.09,0.15 -0.56,0.01 -1.27,-0.03 -0.7,-0.05 -1.68,0.03 -2.57,0.5 -0.89,0.48 -1.5,1.24 -1.85,1.86 -0.36,0.61 -0.5,1.08 -0.68,1.06 -0.17,0 -0.34,-0.53 -0.14,-1.38 0.19,-0.84 0.85,-1.98 2.08,-2.64 1.24,-0.65 2.56,-0.57 3.36,-0.26 0.82,0.31 1.16,0.75 1.07,0.89z"/>
     <path class="fil11" d="M83.34 173.78c-0.28,0.19 -0.54,0.31 -0.59,0.26 -0.04,-0.04 0.06,-0.3 0.25,-0.59 0.18,-0.29 0.48,-0.44 0.62,-0.3 0.14,0.14 0,0.43 -0.28,0.63z"/>
     <path class="fil4" d="M161.71 160.33c0,0 -0.07,0 -0.21,0.01 -0.15,0 -0.34,0.01 -0.6,0.01 -0.54,0.01 -1.31,0.01 -2.31,0.02 -2.02,0.01 -4.92,0.02 -8.5,0.03 -7.19,0 -17.1,0 -28.05,0.01 -5.47,-0.01 -10.69,-0.02 -15.44,-0.03 -2.37,-0.01 -4.63,-0.01 -6.73,-0.02 -1.06,0 -2.08,-0.01 -3.06,-0.01 -0.97,-0.06 -1.89,0.21 -2.59,0.75 -1.37,1.16 -2.61,2.2 -3.7,3.12 -0.55,0.45 -1.06,0.88 -1.53,1.27 -0.49,0.38 -1.02,0.61 -1.52,0.73 -0.49,0.12 -0.95,0.13 -1.33,0.1 -0.38,-0.02 -0.71,-0.04 -0.97,-0.06 -0.26,-0.01 -0.46,-0.02 -0.61,-0.03 -0.13,-0.01 -0.2,-0.02 -0.2,-0.02 0,-0.01 0.07,-0.01 0.2,-0.01 0.15,0.01 0.35,0.01 0.61,0.02 0.26,0 0.59,0.01 0.97,0.02 0.39,0.03 0.83,0.01 1.31,-0.12 0.48,-0.12 0.99,-0.35 1.47,-0.72 0.46,-0.4 0.96,-0.83 1.51,-1.29 1.08,-0.93 2.32,-1.98 3.68,-3.15 0.72,-0.57 1.71,-0.86 2.7,-0.8 0.98,-0.01 2,-0.01 3.06,-0.01 2.1,0 4.36,0 6.73,0 4.75,0 9.97,0 15.45,0.01 10.94,0.02 20.85,0.05 28.04,0.07 3.58,0.02 6.48,0.03 8.5,0.05 1,0.01 1.77,0.01 2.32,0.02 0.25,0.01 0.44,0.01 0.59,0.01 0.14,0.01 0.21,0.01 0.21,0.02z"/>
     <path class="fil4" d="M208.55 217.47c-4.53,-3.99 -9.09,-7.73 -11.9,-8.24 -5.11,-0.93 -29.95,-1.43 -37.83,-1.2 -7.88,-0.23 -32.72,0.27 -37.83,1.2 -6.09,1.11 -20.27,19.05 -24.59,20.08 -4.32,1.04 -35.88,-1.26 -38.87,-1.59 -1.08,-0.13 -1.63,0.26 -1.88,0.8 -0.53,1.13 0.33,2.42 1.57,2.46 6.68,0.19 32.46,0.48 37.28,0.4 5.06,-0.09 56.82,-1.04 65.5,-1.2 9.47,0.06 35.52,0.23 50.96,0.34 -1.61,-3.98 -2.33,-8.4 -2.41,-13.05z"/>
     <path class="fil4" d="M150.03 102.41c0.26,0 1.03,4.5 4.67,4.42 3.63,-0.09 12.49,-0.01 12.49,-0.01l0 -5.62 -17.16 1.21z"/>
     <path class="fil6" d="M47.2 137.62c-1.11,-0.09 -1.92,-1.09 -1.76,-2.19 0.49,-3.43 2.28,-10.1 8.91,-11.08 5.87,-0.88 10.12,-0.61 12.37,-0.32 1.03,0.13 1.54,1.07 1.66,2.1 0.57,4.72 0.11,10.57 -1.25,11.28 -1.42,0.75 -15.1,0.59 -19.93,0.21z"/>
     <path class="fil4" d="M93.05 101.2c0,0 -0.01,0.04 -0.05,0.11 -0.04,0.09 -0.1,0.19 -0.16,0.32 -0.16,0.3 -0.37,0.7 -0.65,1.21 -0.58,1.07 -1.4,2.58 -2.41,4.44 -2.07,3.74 -4.91,8.89 -8.05,14.58 -2.58,4.62 -4.95,8.88 -6.84,12.28l-0.01 0.01 -0.02 0.02c-2.28,1.75 -4.16,3.19 -5.49,4.21 -0.64,0.49 -1.15,0.87 -1.52,1.15 -0.16,0.12 -0.3,0.22 -0.4,0.3 -0.09,0.06 -0.14,0.1 -0.15,0.09 0,-0.01 0.05,-0.05 0.13,-0.12 0.1,-0.08 0.23,-0.18 0.39,-0.31 0.35,-0.29 0.85,-0.69 1.48,-1.2 1.32,-1.03 3.18,-2.5 5.44,-4.28l-0.03 0.03c1.88,-3.41 4.24,-7.67 6.8,-12.31 3.17,-5.67 6.03,-10.8 8.11,-14.54 1.04,-1.84 1.89,-3.34 2.49,-4.39 0.29,-0.5 0.52,-0.9 0.68,-1.19 0.08,-0.12 0.14,-0.23 0.19,-0.31 0.04,-0.07 0.06,-0.1 0.07,-0.1z"/>
     <path class="fil4" d="M101.88 98.51c0.01,0.03 -0.46,0.18 -1.19,0.46 -0.73,0.28 -1.73,0.7 -2.68,1.41 -0.94,0.72 -1.63,1.56 -2.1,2.18 -0.48,0.63 -0.75,1.03 -0.78,1.01 -0.03,-0.02 0.19,-0.45 0.63,-1.11 0.44,-0.65 1.12,-1.54 2.1,-2.28 0.98,-0.73 2.02,-1.13 2.77,-1.38 0.76,-0.23 1.24,-0.33 1.25,-0.29z"/>
     <path class="fil1" d="M74.84 134.12l-0.46 0.32c-0.19,-0.23 11.05,23.32 16.34,29.54l3.48 -2.95c-7.5,-7.26 -13.11,-18.55 -19.36,-26.91z"/>
     <path class="fil4" d="M97.13 226.73c0,-0.01 0.1,-0.02 0.27,-0.13 0.16,-0.09 0.4,-0.26 0.7,-0.5 0.6,-0.46 1.44,-1.2 2.51,-2.17 2.14,-1.95 5.16,-4.84 8.8,-8.51 0.9,-0.92 1.85,-1.89 2.82,-2.9 0.98,-1.01 1.91,-2.16 3.11,-3.13 1.19,-0.96 2.58,-1.75 4.11,-2.31 1.54,-0.56 3.2,-0.89 4.91,-1.02 0.85,-0.07 1.72,-0.07 2.6,-0.08 0.87,0 1.75,-0.01 2.65,-0.02 1.79,-0.02 3.61,-0.04 5.47,-0.06 3.72,-0.03 7.57,-0.06 11.51,-0.1 15.77,-0.13 30.04,-0.25 40.38,-0.34 5.17,-0.03 9.34,-0.05 12.24,-0.07 1.44,0 2.56,-0.01 3.33,-0.01 0.37,0 0.66,0.01 0.86,0.01 0.2,0 0.3,0.01 0.3,0.01 0,0 -0.1,0.01 -0.3,0.01 -0.2,0.01 -0.49,0.01 -0.86,0.02 -0.77,0.02 -1.89,0.04 -3.33,0.06 -2.9,0.03 -7.07,0.09 -12.23,0.15 -10.35,0.1 -24.62,0.25 -40.39,0.41 -3.94,0.03 -7.79,0.07 -11.51,0.1 -1.86,0.02 -3.68,0.03 -5.47,0.04 -0.9,0.01 -1.78,0.02 -2.65,0.03 -0.88,0.01 -1.74,0.01 -2.59,0.07 -1.69,0.12 -3.33,0.45 -4.84,0.99 -1.51,0.55 -2.88,1.33 -4.06,2.27 -1.18,0.95 -2.11,2.09 -3.1,3.1 -0.98,1.01 -1.93,1.98 -2.84,2.9 -3.65,3.65 -6.69,6.52 -8.85,8.45 -1.08,0.96 -1.94,1.69 -2.55,2.14 -0.3,0.24 -0.55,0.4 -0.72,0.49 -0.17,0.1 -0.28,0.1 -0.28,0.1z"/>
     <path class="fil12" d="M71.36 198.2c-1.48,-1.46 -2.97,-2.94 -4.73,-4.05 -1.76,-1.11 -4.28,-2.41 -5.87,-1.38 -0.81,0.88 -1.46,1.9 -1.92,3 -0.16,0.37 -0.3,0.81 -0.12,1.18 0.22,0.45 0.8,0.57 1.3,0.63 3.67,0.46 7.33,0.92 10.99,1.38 0.21,0.03 0.48,0.03 0.58,-0.16 0.11,-0.2 -0.06,-0.44 -0.23,-0.6z"/>
     <path class="fil1" d="M114.16 191.25c28.02,7.46 57.64,5.59 86.45,2.26 4.44,-0.51 9.28,-1.25 12.32,-4.54l-98.77 2.28z"/>
     <path class="fil13" d="M218.61 165.41c-10.94,-1.55 -33.96,-2.31 -56.8,-2.3 -22.85,-0.01 -45.86,0.75 -56.81,2.3 -3.43,0.49 -5.66,3.89 -4.69,7.22 0.02,0.03 0.03,0.07 0.04,0.11 1.2,3.93 5.92,16.48 13.44,18.36 3.49,0.88 23.14,1.72 44.11,1.88l0 0.03c1.3,0.01 2.6,0 3.91,0 1.3,0 2.6,0.01 3.9,0l0 -0.03c20.97,-0.16 40.63,-1 44.12,-1.88 1.56,-0.39 3,-1.24 4.31,-2.38 2.7,-7.67 5.94,-14.76 8.74,-20.32 -0.83,-1.55 -2.36,-2.72 -4.27,-2.99z"/>
     <path class="fil4" d="M212.57 193.48c-2.4,0.91 -5.27,1.85 -8.56,2.72 -5.58,1.45 -12.37,2.68 -19.97,3.33 -7.61,0.7 -16,0.86 -24.8,0.82 -8.8,-0.05 -17.2,-0.44 -24.77,-1.44 -7.57,-0.99 -14.29,-2.57 -19.77,-4.41 -5.48,-1.81 -9.71,-3.84 -12.54,-5.38 -0.72,-0.37 -1.34,-0.74 -1.88,-1.05 -0.53,-0.3 -0.98,-0.58 -1.34,-0.81 -0.36,-0.22 -0.63,-0.39 -0.82,-0.51 -0.18,-0.12 -0.27,-0.18 -0.27,-0.18 0,0 0.09,0.04 0.28,0.16 0.2,0.11 0.47,0.27 0.83,0.49 0.37,0.22 0.82,0.49 1.36,0.79 0.55,0.3 1.16,0.66 1.88,1.02 2.85,1.51 7.08,3.52 12.56,5.3 5.47,1.82 12.18,3.38 19.74,4.35 7.56,0.99 15.94,1.38 24.74,1.42 8.8,0.04 17.18,-0.11 24.78,-0.8 7.59,-0.63 14.37,-1.85 19.95,-3.27 3.33,-0.87 6.23,-1.81 8.65,-2.72l-0.05 0.17z"/>
     <path class="fil8" d="M221.33 171.55c-5.99,0.05 -30.41,0.1 -59.63,0.1 -33.72,0 -61.05,-0.06 -61.05,-0.13 0,-0.07 27.33,-0.12 61.05,-0.12 29.26,0 53.71,0.04 59.65,0.1l-0.02 0.05z"/>
     <path class="fil8" d="M222.73 167.8c0,0.07 -27.33,0.13 -61.03,0.13 -33.72,0 -61.05,-0.06 -61.05,-0.13 0,-0.06 27.33,-0.12 61.05,-0.12 33.7,0 61.03,0.06 61.03,0.12z"/>
     <path class="fil8" d="M205.46 164.08c0,0.07 -19.56,0.13 -43.69,0.13 -24.14,0 -43.69,-0.06 -43.69,-0.13 0,-0.07 19.55,-0.12 43.69,-0.12 24.13,0 43.69,0.05 43.69,0.12z"/>
     <path class="fil8" d="M219.56 175.33c-8.13,0.05 -30.97,0.08 -57.86,0.08 -33.72,0 -61.05,-0.05 -61.05,-0.12 0,-0.07 27.33,-0.12 61.05,-0.12 26.93,0 49.79,0.03 57.89,0.08l-0.03 0.08z"/>
     <path class="fil8" d="M217.9 179.1c-6.86,0.05 -29.55,0.09 -56.49,0.09 -32.37,0 -58.61,-0.06 -58.61,-0.13 0,-0.07 26.24,-0.12 58.61,-0.12 26.98,0 49.69,0.03 56.52,0.09l-0.03 0.07z"/>
     <path class="fil8" d="M216.34 182.87c-7.15,0.05 -28.86,0.08 -54.53,0.08 -31.5,0 -57.03,-0.05 -57.03,-0.12 0,-0.07 25.53,-0.12 57.03,-0.12 25.7,0 47.44,0.03 54.56,0.08l-0.03 0.08z"/>
     <path class="fil8" d="M214.9 186.62c-4.83,0.06 -26.77,0.1 -53.09,0.1 -29.88,0 -54.09,-0.05 -54.09,-0.12 0,-0.07 24.21,-0.12 54.09,-0.12 26.36,0 48.31,0.04 53.1,0.1l-0.01 0.04z"/>
     <path class="fil8" d="M212.22 190.37c0,0.07 -22.44,0.12 -50.11,0.12 -27.68,0 -50.11,-0.05 -50.11,-0.12 0,-0.07 22.43,-0.13 50.11,-0.13 27.67,0 50.11,0.06 50.11,0.13z"/>
     <path class="fil11" d="M68.56 229.43c0,0.01 0,0.02 0.01,0.03 0.23,0.82 -0.38,1.72 -1.23,1.71l-7.95 -0.14c-0.62,-0.02 -1.14,-0.63 -1.22,-1.25l-0.05 -0.44c-0.1,-0.78 0.63,-1.5 1.42,-1.44l7.88 0.57c0.53,0.04 0.99,0.45 1.14,0.96z"/>
     <path class="fil8" d="M209.29 224.86c-9.89,0.04 -28.41,0.06 -49.64,0.06 -31.63,0 -57.27,-0.05 -57.27,-0.12 0,-0.07 25.64,-0.13 57.27,-0.13 21.21,0 39.72,0.03 49.62,0.06l0.02 0.13z"/>
     <polygon class="fil8" points="127.63,228.97 124.27,228.97 124.03,224.8 127.88,224.8 "/>
     <polygon class="fil8" points="159.04,228.97 155.69,228.97 155.45,224.8 159.3,224.8 "/>
     <polygon class="fil8" points="190.46,228.97 187.1,228.97 186.86,224.8 190.71,224.8 "/>
     <path class="fil8" d="M208.55 217.45c-4.52,-3.98 -9.08,-7.71 -11.88,-8.22 -5.11,-0.93 -29.95,-1.43 -37.83,-1.2 -7.88,-0.23 -32.72,0.27 -37.83,1.2 -3.92,0.72 -11.19,8.4 -17.02,14.06l105.03 0c-0.29,-1.9 -0.44,-3.85 -0.47,-5.84z"/>
     <path class="fil4" d="M53.46 220.55c-0.01,-0.01 0.08,-0.09 0.26,-0.25 0.2,-0.16 0.46,-0.38 0.79,-0.65 0.72,-0.58 1.73,-1.41 3,-2.44l0.03 -0.02 0.03 0.01c3.94,0.48 9.88,1.21 16.52,2.02 3.23,0.41 6.3,0.8 9.03,1.15l0.02 0 0.02 0.01c3.3,1.82 6.1,3.35 8.09,4.45 0.97,0.54 1.74,0.97 2.29,1.28 0.25,0.15 0.45,0.26 0.6,0.35 0.14,0.08 0.21,0.13 0.21,0.13 -0.01,0.01 -0.08,-0.03 -0.22,-0.09 -0.16,-0.09 -0.37,-0.19 -0.62,-0.32 -0.56,-0.3 -1.35,-0.71 -2.33,-1.23 -2,-1.08 -4.81,-2.59 -8.13,-4.37l0.04 0.01c-2.73,-0.34 -5.8,-0.72 -9.03,-1.12 -6.64,-0.85 -12.57,-1.61 -16.51,-2.11l0.06 -0.02c-1.29,1 -2.32,1.81 -3.04,2.37 -0.35,0.27 -0.62,0.48 -0.82,0.63 -0.19,0.14 -0.29,0.21 -0.29,0.21z"/>
     <path class="fil13" d="M94.35 211.41c0,0 1.62,-2.74 0,-3.44 -1.87,-0.79 -33.02,-4.53 -34.29,-4.64 -2.53,-0.22 -3.45,0.92 -4.04,3.88 -0.59,2.97 -1.9,10.33 0.59,12.46 2.5,2.14 6.42,3.09 14.13,3.57 7.72,0.47 11.77,0.73 15.57,-1.41 3.8,-2.13 8.04,-10.42 8.04,-10.42z"/>
     <path class="fil4" d="M92.75 186.96c-0.08,0.04 -0.52,-0.77 -1.27,-2.24 -0.76,-1.47 -1.83,-3.6 -3.22,-6.19 -0.71,-1.29 -1.48,-2.71 -2.38,-4.18 -0.89,-1.48 -1.87,-3.04 -3.06,-4.54 -0.61,-0.74 -1.23,-1.44 -1.99,-2.07 -0.76,-0.63 -1.59,-1.2 -2.49,-1.71 -0.9,-0.52 -1.86,-1.02 -2.83,-1.53 -0.97,-0.51 -1.95,-1.03 -2.95,-1.52 -2.01,-0.99 -4,-1.85 -5.99,-2.48 -1,-0.31 -1.99,-0.57 -2.97,-0.78 -0.98,-0.22 -1.93,-0.36 -2.83,-0.33 -0.9,0.04 -1.74,0.26 -2.38,0.72 -0.64,0.47 -1.09,1.16 -1.4,1.91 -0.3,0.75 -0.5,1.55 -0.67,2.33 -0.17,0.78 -0.34,1.55 -0.51,2.26 -0.69,2.86 -1.24,5.18 -1.63,6.81 -0.38,1.6 -0.6,2.49 -0.69,2.48 -0.08,-0.02 -0.03,-0.93 0.22,-2.58 0.23,-1.64 0.66,-4 1.24,-6.89 0.13,-0.73 0.28,-1.49 0.43,-2.28 0.15,-0.8 0.32,-1.65 0.65,-2.51 0.32,-0.86 0.86,-1.76 1.71,-2.41 0.85,-0.64 1.93,-0.93 2.98,-0.99 1.05,-0.05 2.1,0.1 3.12,0.31 1.02,0.21 2.06,0.47 3.09,0.79 2.07,0.64 4.14,1.52 6.17,2.52 1.02,0.51 2.02,1.02 2.99,1.54 0.97,0.52 1.92,1.02 2.86,1.57 0.94,0.55 1.84,1.18 2.64,1.86 0.81,0.68 1.52,1.49 2.14,2.27 1.21,1.59 2.17,3.2 3.05,4.72 0.86,1.52 1.6,2.98 2.26,4.3 1.3,2.67 2.25,4.87 2.88,6.4 0.62,1.54 0.9,2.41 0.83,2.44z"/>
     <path class="fil2" d="M64.63 171.29c2.43,0 4.54,1.34 5.63,3.32 0.51,-0.91 0.8,-1.97 0.8,-3.09 0,-3.54 -2.88,-6.42 -6.43,-6.42 -3.54,0 -6.41,2.88 -6.41,6.42 0,1.12 0.28,2.18 0.79,3.09 1.09,-1.98 3.2,-3.32 5.62,-3.32z"/>
     <path class="fil11" d="M67.4 171.31c0,1.53 -1.24,2.77 -2.77,2.77 -1.52,0 -2.76,-1.24 -2.76,-2.77 0,-1.53 1.24,-2.76 2.76,-2.76 1.53,0 2.77,1.23 2.77,2.76z"/>
     <path class="fil4" d="M67.4 171.31c-0.02,0 -0.02,-0.24 -0.13,-0.66 -0.11,-0.41 -0.4,-1.01 -1.01,-1.47 -0.6,-0.46 -1.58,-0.71 -2.53,-0.36 -0.94,0.32 -1.75,1.32 -1.74,2.49 -0.01,1.17 0.8,2.17 1.74,2.49 0.95,0.36 1.93,0.1 2.53,-0.36 0.61,-0.46 0.9,-1.06 1.01,-1.46 0.11,-0.43 0.11,-0.67 0.13,-0.67 0.01,0 0.02,0.06 0.02,0.18 0,0.12 -0.01,0.29 -0.06,0.51 -0.09,0.43 -0.35,1.07 -1,1.58 -0.62,0.51 -1.67,0.81 -2.71,0.44 -0.51,-0.18 -0.99,-0.53 -1.34,-1 -0.36,-0.47 -0.56,-1.08 -0.57,-1.71 0.01,-0.63 0.21,-1.23 0.57,-1.71 0.35,-0.47 0.83,-0.82 1.34,-0.99 1.04,-0.38 2.09,-0.08 2.71,0.43 0.65,0.51 0.91,1.15 1,1.59 0.05,0.21 0.06,0.39 0.06,0.5 0,0.12 -0.01,0.18 -0.02,0.18z"/>
     <path class="fil4" d="M71.06 171.52c-0.04,0 0,-0.57 -0.25,-1.55 -0.25,-0.97 -0.89,-2.39 -2.34,-3.48 -0.72,-0.54 -1.63,-0.99 -2.67,-1.17 -1.03,-0.18 -2.2,-0.14 -3.31,0.28 -0.56,0.19 -1.1,0.49 -1.6,0.86 -0.5,0.36 -0.95,0.82 -1.33,1.34 -0.77,1.03 -1.21,2.36 -1.22,3.72 0.01,1.37 0.45,2.69 1.22,3.72 0.38,0.53 0.83,0.98 1.33,1.34 0.5,0.37 1.04,0.67 1.6,0.86 1.11,0.43 2.28,0.46 3.31,0.28 1.04,-0.17 1.95,-0.63 2.67,-1.17 1.45,-1.09 2.09,-2.51 2.34,-3.47 0.25,-0.99 0.21,-1.56 0.25,-1.56 0,0 0,0.14 0,0.41 0,0.14 0,0.3 -0.04,0.5 -0.03,0.2 -0.05,0.42 -0.12,0.67 -0.22,0.99 -0.85,2.45 -2.33,3.59 -0.73,0.56 -1.66,1.04 -2.73,1.24 -1.07,0.19 -2.28,0.16 -3.43,-0.27 -0.58,-0.2 -1.14,-0.5 -1.66,-0.89 -0.52,-0.37 -0.99,-0.84 -1.38,-1.38 -0.81,-1.07 -1.27,-2.45 -1.28,-3.87 0.01,-1.42 0.47,-2.8 1.28,-3.86 0.39,-0.55 0.86,-1.01 1.38,-1.39 0.52,-0.38 1.08,-0.69 1.66,-0.89 1.15,-0.43 2.36,-0.46 3.43,-0.27 1.07,0.2 2,0.68 2.73,1.24 1.48,1.14 2.11,2.61 2.33,3.59 0.07,0.25 0.09,0.48 0.12,0.67 0.04,0.2 0.04,0.37 0.04,0.5 0,0.27 0,0.41 0,0.41z"/>
     <path class="fil11" d="M67.06 166.97c-0.1,0.16 -0.66,-0.05 -1.55,-0.14 -0.88,-0.09 -2.13,-0.02 -3.28,0.59 -1.14,0.61 -1.91,1.61 -2.32,2.39 -0.42,0.79 -0.57,1.38 -0.75,1.36 -0.15,0 -0.34,-0.65 -0.07,-1.68 0.25,-1 1.07,-2.37 2.56,-3.17 1.48,-0.79 3.08,-0.7 4.05,-0.35 1,0.35 1.44,0.87 1.36,1z"/>
     <path class="fil11" d="M68.67 167.98c-0.29,0.2 -0.56,0.29 -0.63,0.23 -0.07,-0.07 0.01,-0.35 0.2,-0.63 0.19,-0.29 0.5,-0.43 0.66,-0.27 0.17,0.17 0.05,0.48 -0.23,0.67z"/>
     <path class="fil4" d="M105.11 195.77c-0.09,0.34 -8.68,-1.55 -19.18,-4.2 -10.51,-2.65 -18.96,-5.08 -18.87,-5.41 0.08,-0.33 8.67,1.55 19.17,4.2 10.51,2.66 18.96,5.08 18.88,5.41z"/>
     <path class="fil4" d="M54.49 160.64c0,-0.01 0,-0.06 0.01,-0.15 0.01,-0.1 0.03,-0.25 0.07,-0.43 0.09,-0.38 0.24,-0.93 0.59,-1.57 0.35,-0.64 0.94,-1.36 1.83,-1.9 0.22,-0.15 0.48,-0.24 0.73,-0.37 0.26,-0.08 0.53,-0.2 0.82,-0.25 0.29,-0.05 0.58,-0.14 0.9,-0.15 0.31,-0.02 0.63,-0.02 0.96,0.01 1.3,0.11 2.69,0.42 4.17,0.81 1.48,0.4 3.03,0.89 4.65,1.44 3.24,1.13 6.77,2.49 10.36,4.16 0.45,0.21 0.89,0.42 1.32,0.66 0.44,0.23 0.84,0.53 1.22,0.83 0.76,0.6 1.45,1.28 2.04,2.01 1.11,1.53 2.09,3.02 3.05,4.45 1.9,2.85 3.53,5.47 4.86,7.7 1.32,2.23 2.33,4.07 3.02,5.35 0.34,0.64 0.6,1.14 0.77,1.47 0.08,0.17 0.14,0.29 0.2,0.39 0.04,0.09 0.06,0.14 0.06,0.14 -0.01,0 -0.04,-0.04 -0.09,-0.12 -0.05,-0.1 -0.12,-0.23 -0.21,-0.38 -0.2,-0.35 -0.47,-0.84 -0.82,-1.46 -0.71,-1.26 -1.75,-3.08 -3.09,-5.3 -1.34,-2.21 -2.98,-4.82 -4.89,-7.67 -0.96,-1.41 -1.96,-2.92 -3.05,-4.41 -0.58,-0.72 -1.26,-1.38 -2,-1.98 -0.38,-0.29 -0.76,-0.58 -1.19,-0.8 -0.42,-0.23 -0.87,-0.45 -1.31,-0.66 -3.58,-1.66 -7.1,-3.02 -10.32,-4.16 -1.62,-0.56 -3.17,-1.05 -4.64,-1.46 -1.46,-0.39 -2.85,-0.72 -4.13,-0.83 -0.32,-0.03 -0.63,-0.04 -0.93,-0.02 -0.3,0 -0.59,0.08 -0.88,0.13 -0.28,0.06 -0.54,0.16 -0.8,0.24 -0.24,0.12 -0.49,0.21 -0.71,0.35 -0.87,0.51 -1.45,1.21 -1.81,1.83 -0.36,0.62 -0.53,1.16 -0.63,1.53 -0.05,0.18 -0.08,0.32 -0.09,0.42 -0.02,0.09 -0.03,0.15 -0.04,0.15z"/>
     <path class="fil12" d="M52.5 163.34c-0.47,0.16 -3.07,1.78 -4.17,2.4 -1.1,0.61 -2.06,1.59 -2.38,2.81 -0.32,1.21 0.03,2.49 0.38,3.7 1.13,3.94 2.44,11.04 3.58,14.99 0.89,-7.16 1.85,-19.35 2.59,-23.9z"/>
     <path class="fil8" d="M88.13 220.13c-0.01,0.06 -7.41,-0.9 -16.52,-2.17 -9.12,-1.26 -16.5,-2.33 -16.49,-2.4 0.01,-0.07 7.4,0.9 16.52,2.16 9.12,1.26 16.5,2.34 16.49,2.41z"/>
     <path class="fil8" d="M85.78 221.93c0,0.01 -0.11,0.01 -0.31,-0.01 -0.23,-0.03 -0.53,-0.06 -0.89,-0.1 -0.8,-0.1 -1.91,-0.23 -3.26,-0.4 -2.78,-0.32 -6.56,-0.78 -10.74,-1.28 -4.2,-0.49 -8,-0.97 -10.74,-1.35 -1.38,-0.19 -2.49,-0.35 -3.25,-0.47 -0.36,-0.06 -0.65,-0.11 -0.88,-0.14 -0.2,-0.04 -0.31,-0.06 -0.31,-0.08 0,0 0.11,0 0.31,0.02 0.23,0.03 0.53,0.06 0.89,0.1 0.8,0.1 1.91,0.23 3.26,0.39 2.78,0.34 6.56,0.79 10.75,1.29 4.19,0.49 7.99,0.97 10.74,1.35 1.36,0.19 2.48,0.35 3.24,0.47 0.36,0.06 0.65,0.11 0.88,0.15 0.2,0.03 0.31,0.05 0.31,0.06z"/>
     <path class="fil8" d="M80.6 223.29c0.02,0.06 -1.21,-0.04 -3.16,-0.24 -1.96,-0.19 -4.66,-0.49 -7.64,-0.84 -2.98,-0.35 -5.68,-0.68 -7.63,-0.94 -0.94,-0.13 -1.72,-0.23 -2.31,-0.31 -0.54,-0.08 -0.84,-0.14 -0.84,-0.15 0,-0.02 0.31,0 0.86,0.05 0.58,0.06 1.37,0.14 2.32,0.24 1.99,0.22 4.67,0.53 7.63,0.86 2.96,0.36 5.64,0.68 7.63,0.92 0.94,0.12 1.72,0.22 2.31,0.29 0.54,0.07 0.86,0.12 0.83,0.12z"/>
     <path class="fil8" d="M89.86 218.06c-0.01,0.08 -7.8,-0.9 -17.39,-2.15 -9.59,-1.26 -17.36,-2.34 -17.35,-2.41 0.01,-0.07 7.79,0.9 17.39,2.16 9.59,1.26 17.36,2.34 17.35,2.4z"/>
     <path class="fil8" d="M91.21 216.15c-0.01,0.07 -8.07,-0.93 -18,-2.24 -9.94,-1.3 -17.98,-2.42 -17.98,-2.49 0.01,-0.06 8.07,0.94 18.01,2.24 9.93,1.31 17.97,2.43 17.97,2.49z"/>
     <path class="fil8" d="M92.73 213.89c-0.01,0.07 -8.3,-0.96 -18.51,-2.3 -10.22,-1.35 -18.49,-2.49 -18.48,-2.56 0.01,-0.07 8.3,0.97 18.51,2.31 10.21,1.34 18.48,2.49 18.48,2.55z"/>
     <path class="fil8" d="M93.89 211.59c-0.01,0.07 -8.45,-0.99 -18.84,-2.35 -10.39,-1.37 -18.81,-2.53 -18.8,-2.6 0.01,-0.07 8.44,0.98 18.84,2.35 10.39,1.37 18.81,2.53 18.8,2.6z"/>
     <path class="fil8" d="M95.06 209.28c-0.01,0.07 -8.51,-0.99 -18.98,-2.37 -10.48,-1.38 -18.97,-2.55 -18.96,-2.62 0.01,-0.06 8.51,1 18.99,2.38 10.48,1.37 18.96,2.54 18.95,2.61z"/>
     <path class="fil8" d="M67.62 204.02c0.07,0.02 -0.75,4.16 -1.84,9.26 -1.09,5.09 -2.02,9.21 -2.08,9.2 -0.07,-0.02 0.75,-4.16 1.84,-9.26 1.08,-5.09 2.02,-9.21 2.08,-9.2z"/>
     <path class="fil8" d="M64.49 203.5c0.07,0.01 -0.76,4.16 -1.84,9.25 -1.09,5.1 -2.02,9.22 -2.09,9.21 -0.07,-0.02 0.76,-4.16 1.84,-9.26 1.09,-5.09 2.02,-9.22 2.09,-9.2z"/>
     <path class="fil8" d="M61.36 202.98c0.07,0.01 -0.71,3.93 -1.74,8.75 -1.03,4.82 -1.91,8.72 -1.98,8.7 -0.06,-0.01 0.71,-3.93 1.74,-8.75 1.02,-4.82 1.91,-8.72 1.98,-8.7z"/>
     <path class="fil8" d="M57.96 203.69c0.02,0 0,0.19 -0.06,0.53 -0.07,0.38 -0.15,0.86 -0.25,1.42 -0.23,1.25 -0.52,2.88 -0.84,4.68 -0.32,1.83 -0.65,3.49 -0.92,4.68 -0.13,0.6 -0.24,1.08 -0.33,1.41 -0.08,0.33 -0.14,0.51 -0.16,0.51 -0.01,-0.01 0.01,-0.2 0.07,-0.53 0.06,-0.39 0.15,-0.87 0.25,-1.42 0.23,-1.26 0.52,-2.89 0.84,-4.69 0.32,-1.83 0.65,-3.49 0.92,-4.68 0.13,-0.59 0.24,-1.07 0.33,-1.4 0.08,-0.33 0.14,-0.51 0.15,-0.51z"/>
     <path class="fil8" d="M71.24 204.67c0.07,0.01 -0.73,4.01 -1.77,8.93 -1.05,4.92 -1.95,8.89 -2.02,8.88 -0.07,-0.02 0.73,-4.01 1.77,-8.93 1.05,-4.92 1.96,-8.89 2.02,-8.88z"/>
     <path class="fil8" d="M74.84 205.4c0.07,0.01 -0.72,4.02 -1.78,8.95 -1.04,4.93 -1.95,8.92 -2.02,8.9 -0.07,-0.01 0.73,-4.02 1.78,-8.95 1.05,-4.93 1.95,-8.92 2.02,-8.9z"/>
     <path class="fil8" d="M78.56 205.6c0.07,0.01 -0.72,3.98 -1.76,8.87 -1.05,4.89 -1.94,8.84 -2.01,8.82 -0.07,-0.01 0.72,-3.99 1.76,-8.87 1.04,-4.89 1.94,-8.84 2.01,-8.82z"/>
     <path class="fil8" d="M82.21 206.07c0.07,0.02 -0.71,3.97 -1.75,8.83 -1.03,4.86 -1.93,8.79 -1.99,8.77 -0.07,-0.01 0.71,-3.96 1.75,-8.82 1.03,-4.86 1.93,-8.79 1.99,-8.78z"/>
     <path class="fil8" d="M85.82 206.79c0.07,0.01 -0.67,3.71 -1.63,8.25 -0.97,4.55 -1.81,8.22 -1.88,8.21 -0.06,-0.01 0.67,-3.71 1.63,-8.26 0.97,-4.54 1.81,-8.22 1.88,-8.2z"/>
     <path class="fil8" d="M89.51 207.09c0.07,0.02 -0.61,3.47 -1.52,7.72 -0.9,4.25 -1.69,7.68 -1.76,7.67 -0.06,-0.02 0.61,-3.47 1.52,-7.72 0.9,-4.25 1.69,-7.68 1.76,-7.67z"/>
     <path class="fil8" d="M93.14 207.68c0.07,0.02 -0.31,2.06 -0.85,4.57 -0.53,2.51 -1.02,4.53 -1.09,4.52 -0.06,-0.02 0.32,-2.06 0.85,-4.57 0.54,-2.51 1.02,-4.53 1.09,-4.52z"/>
     <path class="fil4" d="M208.78 221.44c-7.72,0.05 -26.96,0.08 -49.48,0.08 -29.33,0 -53.1,-0.05 -53.1,-0.12 0,-0.07 23.77,-0.13 53.1,-0.13 22.51,0 41.75,0.04 49.47,0.08l0.01 0.09z"/>
     <path class="fil4" d="M208.6 219.03c-5.78,0.05 -25.57,0.09 -49.1,0.09 -28.07,0 -50.82,-0.06 -50.82,-0.13 0,-0.07 22.75,-0.12 50.82,-0.12 23.52,0 43.32,0.04 49.1,0.09l0 0.07z"/>
     <path class="fil4" d="M207.15 216.54c0,0.06 -21.52,0.12 -48.06,0.12 -26.55,0 -48.07,-0.06 -48.07,-0.12 0,-0.07 21.52,-0.13 48.07,-0.13 26.54,0 48.06,0.06 48.06,0.13z"/>
     <path class="fil4" d="M205.04 214.08c0,0.07 -20.49,0.12 -45.78,0.12 -25.28,0 -45.78,-0.05 -45.78,-0.12 0,-0.07 20.5,-0.13 45.78,-0.13 25.29,0 45.78,0.06 45.78,0.13z"/>
     <path class="fil4" d="M201.53 211.73c0,0.07 -19,0.13 -42.44,0.13 -23.45,0 -42.44,-0.06 -42.44,-0.13 0,-0.06 18.99,-0.12 42.44,-0.12 23.44,0 42.44,0.06 42.44,0.12z"/>
     <path class="fil14" d="M197.55 209.39c0,0.07 -17.17,0.13 -38.34,0.13 -21.19,0 -38.35,-0.06 -38.35,-0.13 0,-0.06 17.16,-0.12 38.35,-0.12 21.17,0 38.34,0.06 38.34,0.12z"/>
     <path class="fil1" d="M167.19 134.83l-88.93 -0.14c0,0 3.68,4.4 10.46,4.36 6.18,-0.04 66.34,-0.01 76.9,0l0 0c0,0 0.25,0 0.73,0 0.55,0 0.84,0 0.84,0l0 0c9.75,-0.01 61.51,-0.04 66.86,0 5.91,0.04 8.81,-4.22 8.81,-4.22l-75.67 0z"/>
     <path class="fil4" d="M243.18 132.93l-16.83 -29.17c-0.26,-0.46 -0.74,-0.75 -1.27,-0.77l-57.89 -2.48 -5.55 -0.24c-0.67,-0.03 -1.33,-0.03 -2,0l-5.55 0.24 -57.89 2.48c-0.53,0.02 -1.01,0.31 -1.27,0.77l-16.82 29.17c-0.54,0.94 0.03,2.13 1.1,2.29 0.24,0.03 0.5,0.07 0.77,0.1 1.47,0.16 60.19,0.06 80.66,0.02 20.47,0.04 79.2,0.14 80.67,-0.02 0.27,-0.03 0.52,-0.07 0.76,-0.1 1.08,-0.16 1.65,-1.35 1.11,-2.29zm-7.75 -1.23l-74.79 0.51 -74.79 -0.51c-1.18,0 -1.91,-1.28 -1.32,-2.3 3.22,-5.58 11.32,-19.54 12.62,-21.15 2.35,-2.93 38.77,-3.32 58.13,-3.31 0.12,0.03 0.24,0.04 0.36,0.04 1.13,-0.01 2.85,-0.02 5,-0.03 2.15,0.01 3.87,0.02 5,0.03 0.13,0 0.25,-0.01 0.36,-0.04 19.37,-0.01 55.78,0.38 58.13,3.31 1.3,1.61 9.4,15.57 12.62,21.15 0.59,1.02 -0.14,2.3 -1.32,2.3z"/>
     <path class="fil4" d="M179.63 130.09c0,-1.66 0.64,-6.37 2.19,-7.62 1.19,-0.97 4.01,-1.26 5.4,-1.34 0.04,0 0.08,0 0.13,0 0.74,0.01 5.66,0.14 7.14,1.34 1.54,1.25 2.18,5.96 2.18,7.62 0,0.02 0,0.03 0,0.05 0,1.03 -0.84,1.87 -1.87,1.87l-6.22 0 -0.85 0 -6.22 0c-1.04,0 -1.88,-0.84 -1.88,-1.87 0,-0.02 0,-0.03 0,-0.05z"/>
     <path class="fil1" d="M179.63 130.09c0,-1.66 0.64,-6.37 2.19,-7.62 1.19,-0.97 4.01,-1.26 5.4,-1.34 0.04,0 0.08,0 0.13,0 0.74,0.01 5.66,0.14 7.14,1.34 1.54,1.25 2.18,5.96 2.18,7.62 0,0.02 0,0.03 0,0.05 0,1.03 -0.84,1.87 -1.87,1.87l-6.22 0 -0.85 0 -6.22 0c-1.04,0 -1.88,-0.84 -1.88,-1.87 0,-0.02 0,-0.03 0,-0.05z"/>
     <path class="fil4" d="M186.34 128.87c0,-2.73 1.05,-10.43 3.58,-12.48 1.95,-1.58 6.56,-2.06 8.84,-2.19 0.07,-0.01 0.14,-0.01 0.22,-0.01 1.2,0.02 9.27,0.23 11.68,2.2 2.53,2.05 3.58,9.75 3.58,12.48 0,0.02 0,0.05 0,0.08 0,1.69 -1.38,3.06 -3.07,3.06l-10.19 0 -1.39 0 -10.18 0c-1.69,0 -3.07,-1.37 -3.07,-3.06 0,-0.03 0,-0.06 0,-0.08z"/>
     <path class="fil4" d="M207.69 208.25c0,-0.01 0.05,-0.03 0.16,-0.06 0.12,-0.04 0.28,-0.08 0.48,-0.14l0.9 -0.25 -0.01 0.08 -0.88 0.22c-0.2,0.05 -0.36,0.08 -0.48,0.11 -0.11,0.03 -0.17,0.04 -0.17,0.04z"/>
     <path class="fil4" d="M258.95 156.21c-0.05,0 -0.06,-0.84 -0.31,-2.16 -0.24,-1.31 -0.72,-3.12 -1.33,-5.07 -0.62,-1.97 -1.26,-3.72 -1.72,-4.98 -0.21,-0.6 -0.4,-1.1 -0.55,-1.5 -0.12,-0.36 -0.19,-0.55 -0.17,-0.56 0.01,-0.01 0.11,0.18 0.27,0.52 0.15,0.35 0.37,0.85 0.62,1.48 0.5,1.25 1.16,2.99 1.79,4.96 0.62,1.96 1.07,3.79 1.26,5.12 0.07,0.34 0.09,0.65 0.12,0.91 0.03,0.27 0.04,0.5 0.04,0.69 0,0.38 -0.01,0.59 -0.02,0.59z"/>
     <path class="fil4" d="M159.57 160.33c0,-0.01 0.07,-0.01 0.21,-0.02 0.15,0 0.35,0 0.6,-0.01 0.54,-0.01 1.32,-0.01 2.31,-0.02 2.02,-0.02 4.92,-0.03 8.5,-0.05 7.19,-0.02 17.1,-0.05 28.05,-0.07 5.47,-0.01 10.69,-0.01 15.44,-0.01 2.37,0 4.62,0 6.74,0 1.05,0 2.07,0 3.05,0.01 0.88,-0.06 1.77,0.17 2.46,0.63l-0.09 0.15c-0.67,-0.43 -1.5,-0.65 -2.37,-0.59 -0.98,0 -2,0.01 -3.05,0.01 -2.12,0.01 -4.37,0.01 -6.74,0.02 -4.75,0.01 -9.97,0.02 -15.44,0.03 -10.95,-0.01 -20.86,-0.01 -28.05,-0.01 -3.58,-0.01 -6.48,-0.02 -8.5,-0.03 -0.99,-0.01 -1.77,-0.01 -2.31,-0.02 -0.25,0 -0.45,-0.01 -0.6,-0.01 -0.14,-0.01 -0.21,-0.01 -0.21,-0.01z"/>
     <path class="fil4" d="M59.29 228.52c0.25,-0.54 0.8,-0.93 1.88,-0.8 2.99,0.33 34.34,1.04 38.66,0 4.32,-1.04 18.71,-17.38 24.8,-18.49 5.11,-0.93 29.95,-1.43 37.83,-1.2 7.88,-0.23 32.73,0.27 37.83,1.2 2.07,0.38 5.07,2.69 8.29,5.62 -0.2,5.83 0.53,11.38 2.61,16.24l-49.9 -0.91c-13.08,0.09 -57.75,0.37 -62.48,0.43 -5.58,0.09 -31.26,0.56 -37.94,0.37 -1.25,-0.04 -2.11,-1.33 -1.58,-2.46z"/>
     <path class="fil4" d="M171.25 102.41c-0.26,0 -0.04,4.5 -3.68,4.41 -3.63,-0.08 -10.47,0 -10.47,0l-3.01 -5.62 17.16 1.21z"/>
     <path class="fil4" d="M169.64 108.39c0.51,0 0.98,0.24 1.28,0.65 0.87,1.18 2.6,3.62 2.64,4.39 0.07,1.02 -0.51,1.85 -1.56,1.98 -1,0.12 -20.15,0.01 -22.14,0 -0.12,0 -0.24,-0.02 -0.37,-0.05 -0.52,-0.13 -1.87,-0.55 -1.77,-1.49 0.09,-0.84 1.57,-3.41 2.34,-4.71 0.29,-0.48 0.8,-0.77 1.36,-0.77l18.22 0z"/>
     <path class="fil4" d="M228.23 101.2c0.01,0 0.03,0.03 0.08,0.1 0.04,0.08 0.1,0.19 0.18,0.31 0.17,0.29 0.39,0.69 0.69,1.19 0.59,1.05 1.44,2.55 2.48,4.39 2.08,3.74 4.95,8.87 8.11,14.54 2.56,4.64 4.92,8.9 6.8,12.31l-0.02 -0.03c2.26,1.78 4.11,3.25 5.43,4.28 0.63,0.51 1.13,0.91 1.49,1.2 0.16,0.13 0.28,0.23 0.38,0.31 0.09,0.07 0.13,0.11 0.13,0.12 0,0.01 -0.05,-0.03 -0.15,-0.09 -0.1,-0.08 -0.23,-0.18 -0.4,-0.3 -0.36,-0.28 -0.88,-0.66 -1.52,-1.15 -1.33,-1.02 -3.2,-2.46 -5.49,-4.21l-0.01 -0.02 -0.01 -0.01c-1.9,-3.4 -4.27,-7.66 -6.85,-12.28 -3.14,-5.69 -5.98,-10.84 -8.05,-14.58 -1.01,-1.86 -1.83,-3.37 -2.41,-4.44 -0.27,-0.51 -0.49,-0.91 -0.65,-1.21 -0.06,-0.13 -0.11,-0.23 -0.16,-0.32 -0.03,-0.07 -0.05,-0.11 -0.05,-0.11z"/>
     <path class="fil1" d="M246.44 134.12l0.46 0.32c0.08,-0.09 -1.66,3.59 -4.12,8.45 -1.09,0.25 -2.24,0.88 -3.39,1.76 2.35,-3.68 4.65,-7.32 7.05,-10.53z"/>
     <path class="fil4" d="M208.71 212.44c-0.92,-0.95 -1.8,-2.01 -2.89,-2.89 -1.18,-0.94 -2.56,-1.72 -4.07,-2.27 -1.51,-0.54 -3.15,-0.87 -4.84,-0.99 -0.85,-0.06 -1.71,-0.06 -2.58,-0.07 -0.88,-0.01 -1.76,-0.02 -2.66,-0.03 -1.79,-0.01 -3.61,-0.02 -5.47,-0.04 -3.72,-0.03 -7.56,-0.07 -11.51,-0.1 -15.77,-0.16 -30.04,-0.31 -40.38,-0.41 -5.16,-0.06 -9.34,-0.12 -12.24,-0.15 -1.44,-0.02 -2.56,-0.04 -3.33,-0.06 -0.37,-0.01 -0.66,-0.01 -0.86,-0.02 -0.2,0 -0.3,-0.01 -0.3,-0.01 0,0 0.1,-0.01 0.3,-0.01 0.2,0 0.49,-0.01 0.86,-0.01 0.77,0 1.89,0.01 3.33,0.01 2.9,0.02 7.08,0.04 12.24,0.07 10.34,0.09 24.61,0.21 40.38,0.34 3.95,0.04 7.8,0.07 11.51,0.1 1.86,0.02 3.69,0.04 5.47,0.06 0.9,0.01 1.78,0.02 2.66,0.02 0.87,0.01 1.74,0.01 2.6,0.08 1.71,0.13 3.37,0.46 4.9,1.02 1.53,0.56 2.92,1.35 4.12,2.31 1.06,0.87 1.91,1.87 2.78,2.79l-0.02 0.26z"/>
     <path class="fil8" d="M104.36 224.8c0,-0.07 25.65,-0.13 57.27,-0.13 19.87,0 37.37,0.02 47.64,0.06l0.03 0.14c-10.27,0.03 -27.78,0.05 -47.67,0.05 -31.62,0 -57.27,-0.05 -57.27,-0.12z"/>
     <polygon class="fil8" points="193.66,228.97 197.02,228.97 197.25,224.8 193.4,224.8 "/>
     <polygon class="fil8" points="162.24,228.97 165.6,228.97 165.84,224.8 161.99,224.8 "/>
     <polygon class="fil8" points="130.82,228.97 134.18,228.97 134.42,224.8 130.57,224.8 "/>
     <path class="fil8" d="M106.13 223.29c6.08,-5.24 14.27,-13.29 18.48,-14.06 5.11,-0.93 29.96,-1.43 37.83,-1.2 7.88,-0.23 32.73,0.27 37.83,1.2 2.07,0.38 5.08,2.7 8.31,5.64 -0.1,2.89 0.03,5.71 0.44,8.42l-102.89 0z"/>
     <path class="fil4" d="M266.62 159.91c-0.1,-0.35 -0.27,-0.83 -0.58,-1.37 -0.36,-0.62 -0.94,-1.32 -1.82,-1.83 -0.22,-0.14 -0.46,-0.23 -0.7,-0.35 -0.27,-0.08 -0.53,-0.18 -0.81,-0.24 -0.28,-0.05 -0.57,-0.13 -0.88,-0.13 -0.3,-0.02 -0.61,-0.01 -0.93,0.02 -1.15,0.1 -2.39,0.37 -3.69,0.72l-0.33 -0.13c1.42,-0.37 2.75,-0.67 4.01,-0.77 0.32,-0.03 0.64,-0.03 0.95,-0.01 0.32,0.01 0.61,0.1 0.91,0.15 0.29,0.05 0.55,0.17 0.82,0.25 0.25,0.13 0.5,0.22 0.72,0.37 0.9,0.54 1.48,1.26 1.83,1.9 0.31,0.57 0.47,1.07 0.56,1.44l-0.06 -0.02z"/>
     <path class="fil4" d="M108.89 221.4c0,-0.07 23.77,-0.13 53.09,-0.13 20.24,0 37.83,0.03 46.79,0.07l0.01 0.12c-8.95,0.04 -26.55,0.06 -46.8,0.06 -29.32,0 -53.09,-0.05 -53.09,-0.12z"/>
     <path class="fil4" d="M110.97 218.99c0,-0.07 22.75,-0.12 50.81,-0.12 21.05,0 39.1,0.03 46.82,0.08l0 0.09c-7.71,0.05 -25.77,0.08 -46.82,0.08 -28.06,0 -50.81,-0.06 -50.81,-0.13z"/>
     <path class="fil4" d="M114.13 216.54c0,-0.07 21.52,-0.13 48.06,-0.13 22.14,0 40.77,0.04 46.36,0.09l0 0.07c-5.59,0.05 -24.22,0.09 -46.36,0.09 -26.54,0 -48.06,-0.06 -48.06,-0.12z"/>
     <path class="fil4" d="M116.24 214.08c0,-0.07 20.5,-0.13 45.78,-0.13 25.29,0 45.78,0.06 45.78,0.13 0,0.07 -20.49,0.12 -45.78,0.12 -25.28,0 -45.78,-0.05 -45.78,-0.12z"/>
     <path class="fil4" d="M119.75 211.73c0,-0.06 19.01,-0.12 42.44,-0.12 23.45,0 42.45,0.06 42.45,0.12 0,0.07 -19,0.13 -42.45,0.13 -23.43,0 -42.44,-0.06 -42.44,-0.13z"/>
     <path class="fil4" d="M123.74 209.39c0,-0.06 17.16,-0.12 38.34,-0.12 21.18,0 38.35,0.06 38.35,0.12 0,0.07 -17.17,0.13 -38.35,0.13 -21.18,0 -38.34,-0.06 -38.34,-0.13z"/>
     <polygon class="fil4" points="161.26,108.78 159.96,108.78 159.96,106.45 161.26,106.45 "/>
     <path class="fil12" d="M87.95 150.31c0,0 2.35,-0.8 1.88,-2.56 0,0 6.8,3.98 16.05,3.84 9.25,-0.14 43.15,1.94 43.15,1.94l3.88 5.36c0,0 -57.39,-1.33 -59.52,0.06l-5.44 -8.64z"/>
     <path class="fil12" d="M66.42 154.58c-0.48,-0.01 14.62,5.18 16.58,6.82l3.08 -0.68 -10.78 -17.87 -1.23 -0.29c0,0 -3.7,12.04 -7.65,12.02z"/>
     <path class="fil12" d="M102.72 100.25c0.3,0 59.11,-2.52 59.02,-3.29 -0.09,-0.77 -26.23,-0.67 -37.7,0 -11.48,0.68 -21.32,3.29 -21.32,3.29z"/>
     <path class="fil15" d="M78.11 132.93l47.82 -11.8 9.01 -19.75 -38.67 1.61c-0.63,0.02 -0.88,0.22 -1.2,0.76l-16.96 29.18z"/>
     <g>
      <path class="fil16 str0" d="M255.91 159.07c0,0 -5.45,-12.2 -11.38,-12.06 -5.92,0.15 -14.13,13.59 -14.13,13.59 0,0 -31.58,50.87 -14.17,74.78 17.41,23.91 28.62,33.84 56.95,13.93 0.59,-0.59 1.92,-0.07 3.97,-1.79l-0.01 0c-3.2,-0.55 -4.84,-0.77 -11.69,-5.77 -1.47,-0.89 -3.01,-1.56 -4.58,-2.08 -6.09,-1.73 -14.37,-1.44 -19.25,-3.17 -1.21,-0.4 -2.22,-0.95 -2.96,-1.75l-0.01 -0.01 -0.2 -0.23 -0.18 -0.22 0 -0.01c-3.25,-4.28 5.28,-2.19 8.91,-1.6l0.03 0.01 0.16 0.02 0.02 0.01 0.16 0.02 0.02 0 0.15 0.02 0.01 0 0.14 0.02 0.02 0 0.13 0.01 0.01 0.01 0.12 0.01 0.01 0 0.11 0 0.12 0.01 0 0 0.12 0 0.02 0 0.12 0 0.01 0c2.75,0.02 10.69,-0.67 7.74,-4.72l-0.15 -0.2 -0.01 -0.01 -0.18 -0.21 -0.01 -0.01 -0.04 -0.02 -0.08 -0.04 -0.1 -0.04 -0.12 -0.06 -0.15 -0.07 0 0 -0.18 -0.09 -0.2 -0.09 0 0c-3.81,-1.78 -18.63,-8.77 -20.24,-10.09l0 0 -0.07 -0.06 -0.05 -0.06 -0.03 -0.04 0 -0.01 -0.03 -0.05 0 0 -0.03 -0.05 -0.01 -0.01c-0.61,-1.11 -0.77,-3.64 2.81,-2.88l0.01 0.01 0.17 0.03 0.01 0.01 0.18 0.04 0.2 0.05 0.01 0.01 0.2 0.05 0.01 0 0.21 0.07 0.02 0 0.21 0.07 0.03 0 0.22 0.07 0.26 0.09 0.04 0.01 0.23 0.07 0.04 0.02c3.83,1.24 10.57,3.9 14.07,5.31l0.02 0 0.91 0.37 0.02 0.01 0.18 0.07 0.01 0 0.35 0.14 0.01 0.01 0.14 0.06 0.01 0 0.13 0.05 0 0 0.12 0.05 0 0 0.11 0.04 0 0 0.08 0.04 0.07 0.02 0.05 0.03 0.03 0.01 0.01 0 0 0c0.08,-0.02 1.61,-0.51 1.51,-1.78 -0.22,-0.76 -1.01,-1.85 -2.85,-3.38l-1.19 -0.85c-2.72,-1.9 -9.33,-6.44 -13.59,-10.27l-1.61 -1.25c0,0 -0.78,-0.84 -1.34,-1.82 -0.78,-1.04 -1.12,-1.89 -0.76,-2.44 0.79,-1.24 2.69,-1.12 4.17,-0.65 0.55,0.15 1.06,0.38 1.49,0.68l0 0 0.05 0.04 0.01 0 0.05 0.05 0.07 0.04 0 0.01 0.09 0.06 0 0 0.11 0.07 0.01 0.01 0.12 0.09 0.01 0 0.14 0.1 0.02 0.01 0.16 0.11 0.01 0.01 0.18 0.12 0.01 0.01 0.2 0.13 0.01 0.01 0.21 0.14 0.78 0.52 0.02 0.02 0.26 0.17 0.03 0.02 0.27 0.18 0.03 0.02 0.29 0.19 0.02 0.02 0.99 0.66 0.02 0.01 1.07 0.71 0.03 0.02 0.74 0.49 0.04 0.02 0.36 0.25 0.03 0.02 1.59 1.05 0.03 0.02 0.38 0.25 0.03 0.02 1.21 0.8 0.03 0.03 0.39 0.25 0.03 0.02 0.38 0.25 0.03 0.02 0.38 0.25 0.03 0.02 1.96 1.29 0.02 0.02 0.36 0.24 0.02 0.01 0.35 0.23 0.02 0.02 0.34 0.22 0.03 0.02 0.33 0.22 0.02 0.01 0.32 0.21 0.03 0.02 0.31 0.2 0.02 0.02 0.3 0.2 0.02 0.01 0.53 0.35 0.06 0.04 0.02 0.01 0.26 0.18 0.02 0.01 0.25 0.16 0.02 0.01 0.24 0.16 0.01 0.01 0.22 0.15 0.02 0.01 0.21 0.13 0.01 0.01 0.19 0.13 0.01 0.01 0.18 0.11 0.01 0.01 0.15 0.1 0.01 0.01 0.14 0.09 0.01 0 0.12 0.08 0.01 0.01 0.09 0.06 0.01 0.01 0.08 0.05 0 0 0.06 0.04 0 0 0.04 0.02 0 0 0.01 0.01 0.01 0 0 0 0.01 0 0 0 0 0c0.33,0.05 4.92,0.39 2.73,-3l-0.03 -0.04c-3.25,-4.25 -13.09,-12.49 -13.09,-12.49 0,0 -3.75,-4.66 0.65,-5.65 0.38,-0.08 0.8,-0.07 1.27,0.01 4.58,0.04 14.76,9.96 14.76,9.96l5.36 4.55c0.02,0.18 0.27,0.5 0.7,0.88 2.42,1.58 13.44,8.07 16.57,-1.77 2.39,-12.08 1.89,-11.03 2.56,-13.87 1.31,-9.65 1.16,-20.51 7.54,-25.54 6.38,-5.03 -1.46,-7.16 -10.2,-1.51 -8.74,5.65 -33.05,-3.74 -33.05,-3.74z"/>
      <path class="fil17" d="M274.56 204.81c0,0 14.48,10.31 18.27,-1.56 3.77,-11.86 0.84,-18.12 6.49,-19.2 5.66,-1.07 2.59,8.93 3.46,10.78 0.87,1.85 5.67,34.07 5.67,34.07 0,0 1.21,18.54 -18.58,21.66 0,0 -9.97,2.35 -20.74,-5.52 -10.76,-7.87 -26.02,-3.29 -30.52,-8.81 -4.5,-5.53 7.9,-1.93 10.52,-1.82 2.62,0.1 12.84,-0.31 8.35,-5.51 0,0 -22.01,-10.26 -22.76,-11.38 -0.76,-1.12 -1.15,-4.31 3.3,-3.16 4.45,1.15 19.28,7.2 19.28,7.2 0,0 4.48,-1.34 -1.44,-5.53 -5.92,-4.2 -17.55,-13.25 -17.55,-13.25 0,0 -3.37,-3.62 -1.42,-4.75 1.96,-1.14 4.03,-0.67 5.35,0.31 1.32,0.98 19.58,13 19.58,13 0,0 6.39,1.3 2.91,-3.26 -3.48,-4.55 -14.01,-13.38 -14.01,-13.38 0,0 -4.03,-4.99 0.69,-6.05 4.72,-1.05 17.16,11.07 17.16,11.07l5.99 5.09z"/>
     </g>
     <g style="clip-path:url(#id1)">
      <g>
       <path id="_1" class="fil18" d="M312.3 241.04c0,0 -60.27,-12.1 -77.93,-25.83 -17.66,-13.74 3.78,32.6 3.78,32.6l48.5 17.29 25.65 -24.06z"/>
      </g>
     </g>
     <g style="clip-path:url(#id2)">
      <path class="fil19 str1" d="M274.56 204.81c0,0 14.48,10.31 18.27,-1.56 3.77,-11.86 0.84,-18.12 6.49,-19.2 5.66,-1.07 2.59,8.93 3.46,10.78 0.87,1.85 5.67,34.07 5.67,34.07 0,0 1.21,18.54 -18.58,21.66 0,0 -9.97,2.35 -20.74,-5.52 -10.76,-7.87 -26.02,-3.29 -30.52,-8.81 -4.5,-5.53 7.9,-1.93 10.52,-1.82 2.62,0.1 12.84,-0.31 8.35,-5.51 0,0 -22.01,-10.26 -22.76,-11.38 -0.76,-1.12 -1.15,-4.31 3.3,-3.16 4.45,1.15 19.28,7.2 19.28,7.2 0,0 4.48,-1.34 -1.44,-5.53 -5.92,-4.2 -17.55,-13.25 -17.55,-13.25 0,0 -3.37,-3.62 -1.42,-4.75 1.96,-1.14 4.03,-0.67 5.35,0.31 1.32,0.98 19.58,13 19.58,13 0,0 6.39,1.3 2.91,-3.26 -3.48,-4.55 -14.01,-13.38 -14.01,-13.38 0,0 -4.03,-4.99 0.69,-6.05 4.72,-1.05 17.16,11.07 17.16,11.07l5.99 5.09z"/>
      <path class="fil17 str1" d="M295.38 256.85c0,0 19.33,-0.01 21.74,-20.77l13.09 6.88c0,0 -8.05,19.56 -26.41,24.05l-8.42 -10.16z"/>
     </g>
    </g>
   </g>
  </g>
  <path class="fil19" d="M178.23 4.15c98.31,0 178,79.69 178,178 0,98.31 -79.69,178 -178,178 -98.31,0 -178,-79.69 -178,-178 0,-98.31 79.69,-178 178,-178z"/>
 </g>
</svg>
