<?xml version="1.0" encoding="UTF-8"?>
<!DOCTYPE svg PUBLIC "-//W3C//DTD SVG 1.0//EN" "http://www.w3.org/TR/2001/REC-SVG-20010904/DTD/svg10.dtd">
<!-- Creator: CorelDRAW -->
<svg xmlns="http://www.w3.org/2000/svg" xml:space="preserve" width="356px" height="356px" version="1.0" style="shape-rendering:geometricPrecision; text-rendering:geometricPrecision; image-rendering:optimizeQuality; fill-rule:evenodd; clip-rule:evenodd"
viewBox="0 0 356 356"
 xmlns:xlink="http://www.w3.org/1999/xlink"
 xmlns:xodm="http://www.corel.com/coreldraw/odm/2003">
 <defs>
  <style type="text/css">
   <![CDATA[
    .str0 {stroke:#043254;stroke-width:1.25;stroke-miterlimit:22.9256}
    .str2 {stroke:#FEFEFE;stroke-width:1.39;stroke-linecap:round;stroke-miterlimit:22.9256}
    .str1 {stroke:#143553;stroke-width:2.09;stroke-linecap:round;stroke-miterlimit:22.9256}
    .fil4 {fill:none}
    .fil22 {fill:none;fill-rule:nonzero}
    .fil2 {fill:#FEFEFE}
    .fil0 {fill:#E42127}
    .fil5 {fill:#143553}
    .fil3 {fill:#043254}
    .fil6 {fill:#E42127}
    .fil1 {fill:#FDFCFC}
    .fil8 {fill:#A7A7A8;fill-rule:nonzero}
    .fil11 {fill:#B6B4B4;fill-rule:nonzero}
    .fil9 {fill:#A9A7A7;fill-rule:nonzero}
    .fil10 {fill:#888685;fill-rule:nonzero}
    .fil16 {fill:#143553;fill-rule:nonzero}
    .fil7 {fill:#263138;fill-rule:nonzero}
    .fil14 {fill:#36464F;fill-rule:nonzero}
    .fil25 {fill:#445964;fill-rule:nonzero}
    .fil24 {fill:#5B7287;fill-rule:nonzero}
    .fil15 {fill:#C6C6C6;fill-rule:nonzero}
    .fil23 {fill:#DBDBDB;fill-rule:nonzero}
    .fil21 {fill:#DFDFDF;fill-rule:nonzero}
    .fil26 {fill:#F4F4F4;fill-rule:nonzero}
    .fil12 {fill:#FFC626;fill-rule:nonzero}
    .fil20 {fill:white;fill-rule:nonzero}
    .fil13 {fill:black;fill-rule:nonzero;fill-opacity:0.101961}
    .fil19 {fill:white;fill-rule:nonzero;fill-opacity:0.101961}
    .fil18 {fill:black;fill-rule:nonzero;fill-opacity:0.301961}
    .fil17 {fill:white;fill-rule:nonzero;fill-opacity:0.600000}
   ]]>
  </style>
   <clipPath id="id0">
    <path d="M178.23 4.15c98.31,0 178,79.69 178,178 0,98.31 -79.69,178 -178,178 -98.31,0 -178,-79.69 -178,-178 0,-98.31 79.69,-178 178,-178z"/>
   </clipPath>
     <clipPath id="id1">
      <path d="M173.81 88.2l15.98 0 0 19.52 60.26 0 0 -19.52 16.26 0c2.66,0 4.83,2.25 4.83,4.99l0 155.68 -102.16 0 0 -155.68c0,-2.74 2.17,-4.99 4.83,-4.99z"/>
     </clipPath>
     <clipPath id="id2">
      <path d="M178.23 4.15c98.31,0 178,79.69 178,178 0,98.31 -79.69,178 -178,178 -98.31,0 -178,-79.69 -178,-178 0,-98.31 79.69,-178 178,-178z"/>
     </clipPath>
    <clipPath id="id3" style="clip-rule:nonzero">
     <path d="M34.87 236.31c0.52,1.02 4.16,4.77 4.89,5.29 0.73,0.52 5.1,1.25 5.61,0.96 0.51,-0.3 3.28,-6.35 3.21,-7.37 -0.08,-1.02 -5.83,-12.1 -6.85,-11.88 -1.03,0.22 -6.57,3.64 -6.86,4.74 -0.29,1.09 -0.56,7.17 0,8.26z"/>
    </clipPath>
    <clipPath id="id4" style="clip-rule:nonzero">
     <path d="M178.23 4.15c98.31,0 178,79.69 178,178 0,98.31 -79.69,178 -178,178 -98.31,0 -178,-79.69 -178,-178 0,-98.31 79.69,-178 178,-178z"/>
    </clipPath>
    <clipPath id="id5" style="clip-rule:nonzero">
     <path d="M50.62 235.7c1.28,-0.44 27.63,-1.24 32.8,-1.24 5.18,0 39.23,0.8 41.56,1.61 2.33,0.8 -2.92,14.65 -4.96,15.67 -2.04,1.02 -34.85,3.65 -37.11,3.65 -2.26,0 -27.86,-3.62 -29.4,-4.64 -1.53,-1.02 -5.01,-14.32 -2.89,-15.05z"/>
    </clipPath>
    <clipPath id="id6" style="clip-rule:nonzero">
     <path d="M178.23 4.15c98.31,0 178,79.69 178,178 0,98.31 -79.69,178 -178,178 -98.31,0 -178,-79.69 -178,-178 0,-98.31 79.69,-178 178,-178z"/>
    </clipPath>
 </defs>
 <g id="Layer_x0020_1">
  <metadata id="CorelCorpID_0Corel-Layer"/>
  <g>
  </g>
  <g style="clip-path:url(#id0)">
   <g id="_2549787299376">
    <path class="fil0" d="M246.1 132.02l5.54 -7.61 -2.8 -5.82 -5.98 -1.19 -5.82 8.13 -1.2 -0.69c0,0 -1.59,-8.15 2.08,-11.08 3.67,-2.93 9.34,-3.6 9.34,-3.6l21.34 -28.73c0,0 -2.53,-9.27 2.22,-12.36 4.74,-3.1 8.42,-3.62 8.42,-3.62l1.21 0.58 -6.06 8.18 2.61 5.41 6.56 0.96 5.48 -7.74 1.07 0.78c0,0 2.83,8.66 -3.44,11.76 -6.27,3.11 -8.31,2.49 -8.31,2.49l-21.35 29.75c0,0 4.49,10.3 -4.59,13.97l-5.22 1.29 -1.1 -0.86z"/>
    <g>
     <path class="fil1" d="M204.48 152.59c-1.35,-1.85 -2.95,-2.55 -2.29,-5.97 0.4,-2.11 1.81,-4.08 2.69,-5.04 -7.34,2.13 -11.05,12.84 -0.97,12.84 0.37,-1.44 0.02,-0.63 0.57,-1.83z"/>
     <path class="fil2" d="M173.81 88.2l15.98 0 0 19.52 60.26 0 0 -19.52 16.26 0c2.66,0 4.83,2.25 4.83,4.99l0 155.68 -102.16 0 0 -155.68c0,-2.74 2.17,-4.99 4.83,-4.99z"/>
    </g>
    <g style="clip-path:url(#id1)">
     <g>
      <rect class="fil3" x="166.4" y="88.18" width="107.31" height="28.79"/>
     </g>
    </g>
    <g style="clip-path:url(#id2)">
     <path class="fil4 str0" d="M173.81 88.2l15.98 0 0 19.52 60.26 0 0 -19.52 16.26 0c2.66,0 4.83,2.25 4.83,4.99l0 155.68 -102.16 0 0 -155.68c0,-2.74 2.17,-4.99 4.83,-4.99z"/>
     <path class="fil5" d="M195.7 88.72l12.06 0c-0.06,-0.23 -0.1,-0.47 -0.1,-0.72l0 -1.15c0,-1.37 1.08,-2.48 2.41,-2.48l19.98 0c1.32,0 2.41,1.11 2.41,2.48l0 1.15c0,0.25 -0.04,0.49 -0.11,0.72l12.07 0c1.14,0 2.07,0.96 2.07,2.13l0 11.01c0,1.17 -0.93,2.13 -2.07,2.13l-48.72 0c-1.14,0 -2.07,-0.96 -2.07,-2.13l0 -11.01c0,-1.17 0.93,-2.13 2.07,-2.13z"/>
     <rect class="fil6" x="177.79" y="130.75" width="12.98" height="14.24"/>
     <rect class="fil6" x="177.79" y="151.19" width="12.98" height="14.24"/>
     <rect class="fil6" x="177.79" y="173.24" width="12.98" height="14.24"/>
     <rect class="fil6" x="177.79" y="195.29" width="12.98" height="14.24"/>
     <rect class="fil6" x="177.79" y="217.34" width="12.98" height="14.24"/>
     <line class="fil4 str1" x1="196.91" y1="139.25" x2="262.09" y2= "139.25" />
     <line class="fil4 str1" x1="197.86" y1="160.92" x2="260.91" y2= "160.92" />
     <line class="fil4 str1" x1="197.62" y1="181.14" x2="262.33" y2= "181.14" />
     <line class="fil4 str1" x1="197.15" y1="204.28" x2="262.33" y2= "204.28" />
     <line class="fil4 str1" x1="196.91" y1="226.69" x2="261.62" y2= "226.69" />
     <polyline class="fil4 str2" points="180.26,137.88 183.41,140.41 192.17,132.65 "/>
     <polyline class="fil4 str2" points="180.13,158.92 183.27,161.45 192.04,153.69 "/>
     <polyline class="fil4 str2" points="180.52,180.3 183.66,182.82 192.43,175.07 "/>
     <polyline class="fil4 str2" points="181.39,202.84 184.54,205.37 193.3,197.61 "/>
     <polyline class="fil4 str2" points="181.25,223.88 184.4,226.41 193.17,218.65 "/>
    </g>
    <g>
     <path class="fil7" d="M85.84 204.22c0,0 0.67,2.27 2.04,2.51 1.37,0.24 12.18,0.57 12.18,0.57l1.06 2.17 2.04 0 1.48 -8.72 -1.26 0.26c-0.44,0.09 -0.8,0.38 -0.97,0.79l0 0c-0.19,0.44 -0.61,0.75 -1.1,0.8l-15.47 1.62z"/>
     <path class="fil8" d="M86.29 204.56c-0.8,-0.06 -1.39,-0.79 -1.27,-1.59 0.35,-2.49 1.66,-7.33 6.47,-8.05 4.26,-0.63 7.35,-0.44 8.99,-0.23 0.75,0.1 1.12,0.77 1.2,1.52 0.41,3.43 0.08,7.68 -0.9,8.2 -1.04,0.55 -10.97,0.43 -14.49,0.15z"/>
    </g>
    <path class="fil9" d="M273.95 216.22c-2.52,-1.26 -4.96,-2.37 -7.23,-3.27 -0.43,-1.58 -0.85,-2.83 -1.21,-3.77l1.29 0c1.93,1.01 3.89,2.09 5.85,3.22 0.42,0.24 0.83,0.51 1.22,0.8 0.02,0.08 0.03,0.15 0.04,0.22 0.01,0.14 0.02,0.28 0.02,0.42l0.02 2.38zm-8.39 -3.71c-2.04,-0.75 -3.93,-1.3 -5.6,-1.59 1.23,-1.01 2.83,-1.65 4.48,-1.74 0.32,0.82 0.71,1.92 1.12,3.33zm-38.38 -0.56c-0.51,-1.04 -1.42,-1.86 -2.6,-2.34 0.81,-0.28 1.66,-0.43 2.53,-0.43l3.72 0c1.7,0 3.17,0.6 4.14,1.6 -2.63,0.17 -5.24,0.56 -7.79,1.17z"/>
    <path class="fil10" d="M188.75 212.94l-0.01 0c3.83,-2.61 8.06,-5.25 12.41,-7.51 0,0 0,0 0,0 -4.34,2.26 -8.57,4.9 -12.4,7.51z"/>
    <path class="fil11" d="M182.4 212.94l-15.6 0c1.21,-2.22 3.84,-3.76 6.57,-3.76l3.72 0c0.63,0 1.22,0.08 1.77,0.23 1.85,0.51 3.18,1.82 3.54,3.53z"/>
    <path class="fil12" d="M102.3 205.06l-0.38 1.29c0,0 3.19,2.41 3.31,2.55 0.12,0.14 -0.08,0.82 -0.08,0.82l3.23 0 0 -4.66c0,0 -1.04,0.57 -1.51,0.65 -0.46,0.07 -4.57,-0.65 -4.57,-0.65z"/>
    <path class="fil13" d="M102.3 205.06l-0.37 1.29c0,0 3.18,2.41 3.3,2.55 0.11,0.14 -0.08,0.82 -0.08,0.82l3.23 0 0 -4.66c0,0 -1.04,0.57 -1.51,0.65 -0.46,0.07 -4.57,-0.65 -4.57,-0.65z"/>
    <path class="fil7" d="M161.44 255.69c0.34,12.47 5.3,27.76 16.34,27.76 1.08,0 15.87,0.29 16.84,-0.04 8.9,-2.95 14.17,-19.19 13.17,-33.49 -0.78,-11.15 -4.32,-23.63 -13.63,-25.13 -0.62,-0.1 -16.17,0 -16.84,0 -11.15,0 -16.25,17.48 -15.88,30.9z"/>
    <path class="fil14" d="M179.17 255.69c0.34,12.47 5.29,27.76 16.34,27.76 11.04,0 16.09,-17.67 14.98,-33.53 -0.83,-11.89 -4.67,-25.13 -15.45,-25.13 -11.15,0 -16.25,17.48 -15.87,30.9z"/>
    <path class="fil15" d="M183.76 255.33c0.28,9.6 3.98,21.37 12.14,21.37 8.16,0 11.86,-13.6 11,-25.82 -0.64,-9.15 -3.5,-19.34 -11.47,-19.34 -8.24,0 -11.97,13.46 -11.67,23.79z"/>
    <path class="fil7" d="M198.04 233.61c-0.17,3.9 -0.76,16.33 -1.6,16.33 -0.72,0 -2.81,-11.73 -3.55,-15.97 0.88,-0.46 1.84,-0.72 2.89,-0.72 0.81,0 1.56,0.13 2.26,0.36z"/>
    <path class="fil7" d="M194.91 250.68c-0.45,0.34 -4.45,-5.27 -7.36,-9.47 0.7,-1.89 1.57,-3.57 2.62,-4.9 1.89,4.82 5.35,13.92 4.74,14.37z"/>
    <path class="fil7" d="M194.15 252.13c-0.2,0.51 -4.5,-1.46 -8.37,-3.35 0.2,-1.58 0.49,-3.15 0.87,-4.65 3.55,3.29 7.75,7.37 7.5,8z"/>
    <path class="fil7" d="M193.75 253.88c0.04,0.58 -4.31,1.41 -8.26,2.04 -0.01,-0.23 -0.02,-0.45 -0.03,-0.69 -0.04,-1.24 -0.01,-2.54 0.07,-3.86 3.95,0.82 8.17,1.85 8.22,2.51z"/>
    <path class="fil7" d="M186.72 264.06c-0.46,-1.72 -0.79,-3.53 -1,-5.32 3.79,-1.75 8.21,-3.65 8.54,-3.04 0.32,0.6 -4.23,5.16 -7.54,8.36z"/>
    <path class="fil7" d="M191.41 272.99c-1.43,-1.3 -2.59,-3.18 -3.49,-5.36 2.43,-4.15 6.6,-11.03 7.24,-10.6 0.67,0.45 -2.69,12.3 -3.75,15.96z"/>
    <path class="fil7" d="M199.93 273.77c-1.07,0.79 -2.28,1.22 -3.62,1.22 -0.52,0 -1.02,-0.06 -1.5,-0.17 0.13,-3.26 0.73,-16.79 1.62,-16.79 0.7,0 2.73,11.32 3.5,15.74z"/>
    <path class="fil7" d="M204.64 265.88c-0.57,1.95 -1.31,3.7 -2.21,5.12 -1.89,-4.83 -4.93,-12.89 -4.36,-13.33 0.42,-0.31 3.8,4.29 6.57,8.21z"/>
    <path class="fil7" d="M205.95 258.74c-0.13,1.47 -0.34,2.89 -0.61,4.26 -3.1,-2.92 -6.28,-6.11 -6.05,-6.68 0.17,-0.45 3.37,0.9 6.66,2.42z"/>
    <path class="fil7" d="M206.1 252.45c0.06,1.32 0.06,2.64 0,3.96 -3.28,-0.7 -6.33,-1.49 -6.37,-2.06 -0.04,-0.51 3.08,-1.25 6.37,-1.9z"/>
    <path class="fil7" d="M205.93 249.95c-3.17,1.51 -6.36,2.85 -6.64,2.32 -0.28,-0.52 3.03,-4.16 5.94,-7.21 0.33,1.6 0.55,3.25 0.7,4.89z"/>
    <path class="fil7" d="M204.32 241.52c0,0 -0.01,0 0,0.01 -2.35,4.06 -5.65,9.53 -6.23,9.13 -0.63,-0.42 2.01,-10.6 3.16,-14.88 1.33,1.46 2.33,3.47 3.07,5.74z"/>
    <path class="fil7" d="M36.4 255.69c0.34,12.47 5.3,27.76 16.34,27.76 1.08,0 15.87,0.29 16.84,-0.04 8.9,-2.95 14.17,-19.19 13.17,-33.49 -0.78,-11.15 -4.32,-23.63 -13.63,-25.13 -0.62,-0.1 -16.17,0 -16.85,0 -11.15,0 -16.24,17.48 -15.87,30.9z"/>
    <path class="fil14" d="M54.12 255.69c0.35,12.47 5.3,27.76 16.34,27.76 11.05,0 16.1,-17.67 14.99,-33.53 -0.83,-11.89 -4.67,-25.13 -15.45,-25.13 -11.15,0 -16.25,17.48 -15.88,30.9z"/>
    <path class="fil15" d="M58.72 255.33c0.28,9.6 3.98,21.37 12.14,21.37 8.16,0 11.86,-13.6 11,-25.82 -0.64,-9.15 -3.5,-19.34 -11.47,-19.34 -8.24,0 -11.97,13.46 -11.67,23.79z"/>
    <path class="fil7" d="M73 233.61c-0.17,3.9 -0.76,16.33 -1.6,16.33 -0.72,0 -2.81,-11.73 -3.55,-15.97 0.88,-0.46 1.84,-0.72 2.88,-0.72 0.81,0 1.57,0.13 2.27,0.36z"/>
    <path class="fil7" d="M69.87 250.68c-0.45,0.34 -4.45,-5.27 -7.36,-9.47 0.7,-1.89 1.57,-3.57 2.62,-4.9 1.88,4.82 5.35,13.92 4.74,14.37z"/>
    <path class="fil7" d="M69.11 252.13c-0.2,0.51 -4.5,-1.46 -8.38,-3.35 0.2,-1.58 0.5,-3.15 0.88,-4.65 3.54,3.29 7.75,7.37 7.5,8z"/>
    <path class="fil7" d="M68.7 253.88c0.05,0.58 -4.3,1.41 -8.25,2.04 -0.02,-0.23 -0.03,-0.45 -0.03,-0.69 -0.04,-1.24 -0.02,-2.54 0.07,-3.86 3.95,0.82 8.17,1.85 8.21,2.51z"/>
    <path class="fil7" d="M61.68 264.06c-0.46,-1.72 -0.79,-3.53 -1,-5.32 3.78,-1.75 8.21,-3.65 8.54,-3.04 0.32,0.6 -4.24,5.16 -7.54,8.36z"/>
    <path class="fil7" d="M66.37 272.99c-1.43,-1.3 -2.6,-3.18 -3.49,-5.36 2.43,-4.15 6.6,-11.03 7.24,-10.6 0.67,0.45 -2.69,12.3 -3.75,15.96z"/>
    <path class="fil7" d="M74.89 273.77c-1.07,0.79 -2.28,1.22 -3.63,1.22 -0.51,0 -1.01,-0.06 -1.49,-0.17 0.13,-3.26 0.73,-16.79 1.62,-16.79 0.69,0 2.73,11.32 3.5,15.74z"/>
    <path class="fil7" d="M79.6 265.88c-0.57,1.95 -1.31,3.7 -2.21,5.12 -1.9,-4.83 -4.94,-12.89 -4.36,-13.33 0.42,-0.31 3.8,4.29 6.57,8.21z"/>
    <path class="fil7" d="M80.91 258.74c-0.14,1.47 -0.34,2.89 -0.61,4.26 -3.1,-2.92 -6.28,-6.11 -6.06,-6.68 0.18,-0.45 3.37,0.9 6.67,2.42z"/>
    <path class="fil7" d="M81.05 252.45c0.06,1.32 0.07,2.64 0.01,3.96 -3.28,-0.7 -6.33,-1.49 -6.37,-2.06 -0.04,-0.51 3.08,-1.25 6.36,-1.9z"/>
    <path class="fil7" d="M80.89 249.95c-3.18,1.51 -6.36,2.85 -6.64,2.32 -0.29,-0.52 3.02,-4.16 5.94,-7.21 0.33,1.6 0.55,3.25 0.7,4.89z"/>
    <path class="fil7" d="M79.27 241.52c0,0 0,0 0.01,0.01 -2.35,4.06 -5.66,9.53 -6.24,9.13 -0.62,-0.42 2.02,-10.6 3.17,-14.88 1.32,1.46 2.33,3.47 3.06,5.74z"/>
    <path class="fil7" d="M275.19 255.69c0.35,12.47 5.3,27.76 16.34,27.76 1.09,0 15.87,0.29 16.84,-0.04 8.9,-2.95 14.17,-19.19 13.17,-33.49 -0.78,-11.15 -4.32,-23.63 -13.63,-25.13 -0.62,-0.1 -16.17,0 -16.84,0 -11.15,0 -16.25,17.48 -15.88,30.9z"/>
    <path class="fil14" d="M292.92 255.69c0.34,12.47 5.3,27.76 16.34,27.76 11.04,0 16.09,-17.67 14.98,-33.53 -0.83,-11.89 -4.67,-25.13 -15.45,-25.13 -11.15,0 -16.24,17.48 -15.87,30.9z"/>
    <path class="fil15" d="M297.51 255.33c0.29,9.6 3.98,21.37 12.14,21.37 8.16,0 11.86,-13.6 11.01,-25.82 -0.64,-9.15 -3.51,-19.34 -11.48,-19.34 -8.24,0 -11.97,13.46 -11.67,23.79z"/>
    <path class="fil7" d="M311.79 233.61c-0.17,3.9 -0.75,16.33 -1.6,16.33 -0.71,0 -2.81,-11.73 -3.55,-15.97 0.89,-0.46 1.85,-0.72 2.89,-0.72 0.81,0 1.57,0.13 2.26,0.36z"/>
    <path class="fil7" d="M308.66 250.68c-0.45,0.34 -4.45,-5.27 -7.35,-9.47 0.69,-1.89 1.56,-3.57 2.62,-4.9 1.88,4.82 5.34,13.92 4.73,14.37z"/>
    <path class="fil7" d="M307.9 252.13c-0.2,0.51 -4.5,-1.46 -8.37,-3.35 0.2,-1.58 0.49,-3.15 0.88,-4.65 3.54,3.29 7.74,7.37 7.49,8z"/>
    <path class="fil7" d="M307.5 253.88c0.04,0.58 -4.31,1.41 -8.26,2.04 -0.01,-0.23 -0.02,-0.45 -0.03,-0.69 -0.04,-1.24 -0.01,-2.54 0.07,-3.86 3.95,0.82 8.17,1.85 8.22,2.51z"/>
    <path class="fil7" d="M300.47 264.06c-0.45,-1.72 -0.79,-3.53 -1,-5.32 3.79,-1.75 8.21,-3.65 8.54,-3.04 0.32,0.6 -4.23,5.16 -7.54,8.36z"/>
    <path class="fil7" d="M305.17 272.99c-1.44,-1.3 -2.6,-3.18 -3.5,-5.36 2.43,-4.15 6.6,-11.03 7.24,-10.6 0.67,0.45 -2.69,12.3 -3.74,15.96z"/>
    <path class="fil7" d="M313.69 273.77c-1.08,0.79 -2.28,1.22 -3.63,1.22 -0.52,0 -1.02,-0.06 -1.5,-0.17 0.13,-3.26 0.73,-16.79 1.62,-16.79 0.7,0 2.74,11.32 3.51,15.74z"/>
    <path class="fil7" d="M318.39 265.88c-0.57,1.95 -1.31,3.7 -2.21,5.12 -1.89,-4.83 -4.93,-12.89 -4.35,-13.33 0.42,-0.31 3.79,4.29 6.56,8.21z"/>
    <path class="fil7" d="M319.7 258.74c-0.13,1.47 -0.34,2.89 -0.61,4.26 -3.1,-2.92 -6.27,-6.11 -6.05,-6.68 0.18,-0.45 3.37,0.9 6.66,2.42z"/>
    <path class="fil7" d="M319.85 252.45c0.06,1.32 0.06,2.64 0.01,3.96 -3.28,-0.7 -6.34,-1.49 -6.38,-2.06 -0.03,-0.51 3.08,-1.25 6.37,-1.9z"/>
    <path class="fil7" d="M319.68 249.95c-3.17,1.51 -6.35,2.85 -6.64,2.32 -0.28,-0.52 3.03,-4.16 5.94,-7.21 0.33,1.6 0.56,3.25 0.7,4.89z"/>
    <path class="fil7" d="M318.07 241.52c0,0 0,0 0,0.01 -2.35,4.06 -5.65,9.53 -6.23,9.13 -0.63,-0.42 2.02,-10.6 3.16,-14.88 1.33,1.46 2.33,3.47 3.07,5.74z"/>
    <path class="fil16" d="M210.64 274.27l74.46 0c0,0 6.8,-11.08 7.19,-12.83 0.39,-1.75 -1.3,-37.04 16.93,-37.04 15.88,0 15.17,35.42 15.17,35.42l1.95 -2.98 0.43 -5.17 -1.23 -3.06c0,0 2.33,-21.73 1.23,-24.72 -1.09,-2.99 -10.79,-15.53 -11.44,-16.18 -0.66,-0.66 -11.37,-2.48 -12.1,-3.14 -0.73,-0.65 -30.7,-25.37 -44.04,-28.28 -13.34,-2.92 -42.45,-5.25 -61.15,-5.25 -18.7,0 -61.47,5.05 -64.97,6.22 -3.5,1.17 -35.58,31.3 -35.58,31.3 0,0 -34.19,4.4 -38.78,5.42 -4.59,1.02 -22.02,12.61 -22.74,14.07 -0.73,1.46 -2.99,17.71 -2.99,17.71 0,0 -1.75,4.01 -1.83,4.96 -0.07,0.95 2.12,16.4 2.41,17.21 0.29,0.8 3.5,4.44 4.23,4.73 0.73,0.3 122.14,1.9 123.63,1.61 1.49,-0.29 8.49,-2.34 9.66,-3.11 1.16,-0.78 3.41,-46.37 24.31,-46.37 18.17,0 16.71,34.83 15.25,49.48z"/>
    <path class="fil13" d="M109.05 273.8c-33.53,-0.42 -70.86,-0.98 -71.26,-1.14 -0.73,-0.29 -3.94,-3.93 -4.23,-4.73 -0.29,-0.81 -2.48,-16.26 -2.4,-17.21 0.07,-0.94 1.81,-4.96 1.81,-4.96 0,0 2.26,-16.26 2.99,-17.71 0.73,-1.46 18.15,-13.05 22.75,-14.07 4.59,-1.03 38.79,-5.42 38.79,-5.42 0,0 -30.98,6.93 -32.57,8.31 -1.6,1.39 -13.59,14.45 -14.97,16.38 -1.39,1.94 -1.6,16.62 -2.04,17.83 -0.43,1.22 -3.35,8.81 -3.64,10.11 -0.29,1.32 1.01,6.57 1.45,7 0.43,0.43 60.51,5.39 63.32,5.61z"/>
    <path class="fil13" d="M210.64 274.27c1.33,-13.3 2.65,-43.22 -10.71,-48.63 6.82,1.24 16.34,12.42 16.74,41.63l68.43 7 -74.46 0z"/>
    <path class="fil17" d="M283.35 255.39c0.67,-7.04 2.06,-14.04 4.5,-20.71 0.63,-1.66 1.29,-3.31 2.1,-4.89 0.79,-1.6 1.67,-3.15 2.71,-4.61 1,-1.47 2.17,-2.84 3.49,-4.05 0.65,-0.63 1.38,-1.15 2.1,-1.69 0.77,-0.47 1.53,-0.97 2.37,-1.31 1.65,-0.73 3.44,-1.19 5.24,-1.23 1.8,-0.11 3.63,0.15 5.32,0.8 3.41,1.32 6.01,4.09 7.85,7.12 1.86,3.05 3.12,6.41 4.08,9.81 0.94,3.42 1.59,6.91 1.91,10.43 -0.43,-3.5 -1.19,-6.97 -2.21,-10.34 -1.03,-3.36 -2.33,-6.67 -4.21,-9.63 -1.87,-2.93 -4.37,-5.6 -7.63,-6.83 -1.61,-0.61 -3.35,-0.85 -5.08,-0.74 -1.73,0.06 -3.43,0.5 -5,1.21 -0.81,0.32 -1.53,0.8 -2.28,1.24 -0.69,0.52 -1.41,1.01 -2.03,1.62 -1.29,1.16 -2.44,2.5 -3.43,3.94 -2.04,2.85 -3.53,6.07 -4.83,9.33 -1.27,3.28 -2.26,6.67 -3.07,10.11 -0.82,3.43 -1.49,6.91 -1.9,10.42z"/>
    <path class="fil17" d="M170.43 255.39c0.64,-6.88 2,-13.72 4.34,-20.25 1.15,-3.28 2.65,-6.44 4.55,-9.36 0.97,-1.45 2.05,-2.82 3.29,-4.07 1.25,-1.22 2.64,-2.32 4.2,-3.16 1.57,-0.8 3.28,-1.34 5.03,-1.58 1.75,-0.17 3.53,-0.13 5.25,0.3 3.46,0.82 6.43,3.04 8.61,5.75 2.21,2.71 3.8,5.85 5.05,9.07 1.21,3.25 2.12,6.61 2.66,10.02 -0.65,-3.39 -1.66,-6.71 -2.96,-9.9 -1.3,-3.18 -2.93,-6.25 -5.14,-8.87 -2.19,-2.6 -5.04,-4.73 -8.36,-5.49 -1.64,-0.4 -3.35,-0.43 -5.03,-0.26 -1.68,0.24 -3.3,0.77 -4.81,1.54 -1.49,0.8 -2.84,1.85 -4.06,3.02 -1.2,1.21 -2.27,2.55 -3.24,3.96 -1.88,2.86 -3.36,5.98 -4.57,9.2 -1.23,3.22 -2.18,6.54 -2.97,9.89 -0.79,3.36 -1.43,6.76 -1.84,10.19z"/>
    <path class="fil17" d="M211.66 229.63c4.75,-1.37 9.49,-2.79 14.26,-4.13l0.01 0 0.01 0 26.6 -2.54 26.62 -2.36 -0.04 0.01 8.72 -3.01 8.73 -2.96 -8.67 3.13 -8.69 3.09 -0.01 0.01 -0.02 0 -26.6 2.52 -26.62 2.35 0.02 0c-4.76,1.33 -9.55,2.59 -14.32,3.89z"/>
    <path class="fil17" d="M101.29 208.57l-14.45 6.17 -14.46 6.12 0.07 -0.06 -5.77 10.81 -0.14 -0.23c13.95,0.12 27.9,0.17 41.84,0.36l-0.1 0.03 16.62 -9.77 0.02 -0.02 0.01 0 20.71 -6.16 20.74 -6.1 -20.67 6.32 -20.68 6.24 0.03 -0.01 -16.58 9.84 -0.05 0.03 -0.05 0c-13.95,-0.08 -27.9,-0.3 -41.84,-0.45l-0.26 0 0.12 -0.23 5.81 -10.79 0.02 -0.04 0.05 -0.02 14.5 -6.04 14.51 -6z"/>
    <path class="fil18" d="M100.22 208.56l-29.16 6.92 -3.63 0.89c-0.61,0.15 -1.2,0.32 -1.8,0.48l-0.42 0.14c-0.07,0.03 -0.15,0.04 -0.21,0.08l-0.15 0.13c-0.21,0.15 -0.42,0.43 -0.63,0.64 -1.62,1.87 -3.11,3.89 -4.64,5.86 -3.01,3.98 -5.99,7.99 -8.96,12 2.84,-4.11 5.72,-8.19 8.69,-12.2 1.49,-2.01 2.98,-4.01 4.62,-5.92 0.22,-0.24 0.39,-0.48 0.68,-0.7l0.2 -0.17c0.07,-0.05 0.15,-0.06 0.23,-0.09l0.47 -0.16c0.6,-0.17 1.21,-0.34 1.81,-0.49l3.64 -0.91c4.86,-1.15 9.73,-2.28 14.6,-3.36 4.88,-1.08 9.77,-2.13 14.66,-3.14z"/>
    <path class="fil18" d="M194.27 209.72l-8.86 2.8 -8.88 2.75 -17.74 5.58c-2.96,0.92 -5.92,1.85 -8.85,2.85 -1.47,0.45 -2.82,1.21 -4.21,1.91l-4.14 2.1 -8.29 4.21 -8.32 4.15 8.22 -4.34 8.26 -4.28 4.13 -2.14c1.38,-0.7 2.73,-1.48 4.23,-1.96 2.93,-1.02 5.88,-1.97 8.83,-2.92l17.79 -5.44 8.91 -2.67 8.92 -2.6z"/>
    <path class="fil18" d="M216.67 264.99l8.56 -0.18 8.56 -0.12 17.12 -0.26 17.12 -0.17 8.56 -0.13 2.14 -0.04 1.07 -0.03c0.17,-0.02 0.37,-0.01 0.51,-0.04 0.16,0 0.27,-0.19 0.4,-0.3 0.95,-1.05 1.79,-2.21 2.64,-3.36 -0.82,1.17 -1.63,2.35 -2.56,3.44 -0.13,0.11 -0.23,0.3 -0.43,0.33 -0.21,0.05 -0.37,0.04 -0.55,0.06l-1.07 0.06 -2.14 0.09 -8.56 0.22 -17.13 0.3 -17.12 0.12 -8.56 0.04 -8.56 -0.03z"/>
    <path class="fil18" d="M276.69 207.64c0.9,4.35 1.79,8.71 2.64,13.06l0 0.03 0 0.03 -1.71 10.34 -1.75 10.34c-1.17,6.88 -2.42,13.76 -3.7,20.63 1.05,-6.91 2.14,-13.81 3.3,-20.7l1.74 -10.34 1.8 -10.32 0 0.06c-0.8,-4.37 -1.57,-8.75 -2.32,-13.13z"/>
    <path class="fil18" d="M229.45 208.51c-1.07,5.72 -2.17,11.44 -3.31,17.15l0 -0.04c-0.07,6.23 -0.16,12.46 -0.29,18.69l-0.21 9.35 -0.27 9.34 0.01 -9.35 0.08 -9.34c0.07,-6.23 0.18,-12.46 0.3,-18.69l0 -0.02 0 -0.02c1.2,-5.7 2.42,-11.39 3.69,-17.07z"/>
    <path class="fil18" d="M293.47 203.36c0.62,1.85 1.17,3.72 1.73,5.59 0.52,1.88 1.08,3.74 1.57,5.63l0.01 0.05 -0.01 0.05c-0.3,1.37 -0.59,2.75 -0.93,4.12 -0.32,1.37 -0.65,2.73 -1.01,4.1 0.21,-1.4 0.46,-2.78 0.72,-4.16 0.25,-1.39 0.54,-2.77 0.81,-4.15l0.01 0.1c-0.55,-1.87 -1.02,-3.76 -1.53,-5.64 -0.47,-1.89 -0.95,-3.78 -1.37,-5.69z"/>
    <polygon class="fil18" points="215.11,242.11 223.95,241.44 232.79,240.83 250.48,239.62 268.18,238.56 277.02,238.04 285.88,237.58 277.04,238.25 268.19,238.86 250.51,240.06 232.81,241.12 223.96,241.65 "/>
    <path class="fil18" d="M265.54 210.24c0.17,0.72 0.31,1.44 0.47,2.17l-0.12 -0.09c1.38,-0.16 2.76,-0.33 4.15,-0.46 1.38,-0.14 2.77,-0.27 4.15,-0.36l-0.17 0.24 -0.42 -2 0.19 0.14c-1.53,0.09 -3.07,0.18 -4.61,0.21 1.52,-0.23 3.05,-0.4 4.58,-0.57l0.15 -0.01 0.04 0.15 0.46 1.99 0.05 0.22 -0.23 0.03c-1.38,0.14 -2.77,0.26 -4.16,0.36 -1.38,0.12 -2.77,0.19 -4.16,0.27l-0.11 0.01 -0.01 -0.1c-0.08,-0.73 -0.18,-1.47 -0.25,-2.2z"/>
    <path class="fil18" d="M40.63 239.84c-0.53,2.88 -1.22,5.71 -1.9,8.55l-0.27 1.06 -0.06 0.26 -0.04 0.13c0,0.07 0,-0.02 -0.05,-0.01 0,0.16 0.03,0.36 0.04,0.54 0.06,0.74 0.13,1.47 0.17,2.22 0.1,1.48 0.18,2.96 0.21,4.42 -0.21,-1.44 -0.37,-2.87 -0.52,-4.29 -0.08,-0.71 -0.14,-1.43 -0.2,-2.14l-0.05 -0.55c-0.03,-0.08 -0.01,-0.26 0,-0.28l0.03 -0.13 0.07 -0.27 0.25 -1.07c0.72,-2.83 1.44,-5.65 2.32,-8.44z"/>
    <path class="fil18" d="M149.4 239.84c0.59,1.45 1.11,2.92 1.64,4.39 0.49,1.48 1.02,2.94 1.47,4.43l0.02 0.04 -0.01 0.03c-0.01,1.11 -0.01,2.22 -0.05,3.33 -0.03,1.11 -0.08,2.22 -0.15,3.33 -0.08,-1.11 -0.12,-2.22 -0.15,-3.33 -0.04,-1.11 -0.05,-2.22 -0.06,-3.33l0.01 0.06c-0.51,-1.47 -0.96,-2.96 -1.44,-4.45 -0.44,-1.49 -0.89,-2.98 -1.28,-4.5z"/>
    <path class="fil18" d="M31.19 251.37l8.24 8.2 -0.05 -0.02 29.47 0.98c4.91,0.16 9.82,0.36 14.73,0.48l14.74 -0.03 58.96 0.14 -0.02 0 11.97 -2.89 -11.94 3.04 0 0 -0.01 0 -58.97 0.14 -14.74 -0.03c-4.91,-0.13 -9.82,-0.36 -14.73,-0.54l-29.46 -1.15 -0.03 -0.01 -0.02 -0.01 -8.14 -8.3z"/>
    <path class="fil7" d="M236.98 207.39c0.98,1 39.37,-1.26 40.25,-1.36 0.87,-0.1 15.55,-2.91 16.23,-3.59 0.68,-0.69 -23.33,-17.99 -25.37,-18.86 -2.04,-0.88 -24.28,-2.34 -27.34,-1.1 -2.4,0.97 -4.89,23.77 -3.77,24.91z"/>
    <path class="fil14" d="M239.48 206.34c0.89,0.91 35.96,-1.16 36.76,-1.25 0.8,-0.08 14.22,-2.66 14.84,-3.28 0.62,-0.62 -21.32,-16.43 -23.18,-17.23 -1.87,-0.8 -22.18,-2.13 -24.98,-1 -2.19,0.88 -4.47,21.71 -3.44,22.76z"/>
    <path class="fil19" d="M263.85 183.95l-24.31 14.95c0.42,-4.39 1.2,-9.66 2.09,-12.75l4.85 -2.98c4.69,-0.14 12.55,0.29 17.37,0.78z"/>
    <path class="fil19" d="M282.87 195.07l-17.3 10.64c-3.16,0.17 -6.69,0.34 -10.11,0.49l23.16 -14.25c1.43,1.04 2.87,2.1 4.25,3.12z"/>
    <path class="fil19" d="M289.98 200.61l-4.25 2.61c-1.02,0.23 -2.08,0.45 -3.13,0.67l6.51 -4.01c0.32,0.27 0.62,0.51 0.87,0.73z"/>
    <path class="fil7" d="M266.24 184.24c0.68,0.1 8.62,20.59 8.47,21 -0.14,0.4 1.57,0.07 1.42,-0.03 -0.14,-0.1 -8.69,-19.87 -8.44,-20.7 0.14,-0.44 -1.45,-0.27 -1.45,-0.27z"/>
    <path class="fil7" d="M100.22 208.56c0.97,0.01 91.69,1.16 94.05,1.16 2.37,0 35.11,-1.58 35.51,-1.79 0.4,-0.22 3.61,-23.99 2.63,-25.93 -0.26,-0.53 -44.22,-2.8 -49.62,-2.8 -5.39,0 -49.62,1.93 -51.95,2.34 -2.34,0.4 -32.23,27 -30.62,27.02z"/>
    <path class="fil14" d="M103.04 207.41c0.92,0.01 86.16,1.1 88.38,1.1 2.23,0 33.9,-1.49 34.28,-1.69 0.37,-0.21 2.51,-21.23 1.59,-23.05 -0.25,-0.5 -42.47,-2.63 -47.54,-2.63 -5.07,0 -46.63,1.81 -48.82,2.19 -2.19,0.38 -29.4,24.06 -27.89,24.08z"/>
    <path class="fil19" d="M167.53 181.53l-42.53 26.16c-7.85,-0.1 -14.42,-0.18 -18.27,-0.23l40.74 -25.06c6.55,-0.3 13.95,-0.62 20.06,-0.87zm27.44 0.21l0 0 -42.75 26.29c3.1,0.04 6.16,0.08 9.13,0.12l42.23 -25.97c-2.92,-0.15 -5.85,-0.3 -8.61,-0.44zm16.84 25.88l0 0c3.92,-0.19 7.6,-0.38 10.19,-0.54l4.09 -2.52c0.2,-1.54 0.44,-3.74 0.66,-6.13l-14.94 9.19zm4.66 -24.72l0 0 -41.33 25.42c0.69,0.01 1.36,0.01 2.01,0.02l41.19 -25.33c-0.61,-0.03 -1.23,-0.07 -1.87,-0.11zm-77.7 -0.07l0 0 0 0 -29.01 17.83c-1.59,1.43 -3.01,2.74 -4.13,3.82l35.39 -21.76c-0.78,0.03 -1.53,0.07 -2.25,0.11z"/>
    <path class="fil20" d="M136.08 232.28c-1.26,1.26 0.98,9.13 2.92,9.72 1.94,0.58 15.26,-1.27 16.72,-1.66 1.46,-0.38 16.43,-4.86 17.69,-6.22 1.26,-1.36 2.43,-12.54 1.07,-13.31 -1.36,-0.78 -23.81,5.05 -26.24,5.73 -2.44,0.68 -11.09,4.67 -12.16,5.74z"/>
    <path class="fil20" d="M34.87 236.31c0.52,1.02 4.16,4.77 4.89,5.29 0.73,0.52 5.1,1.25 5.61,0.96 0.51,-0.3 3.28,-6.35 3.21,-7.37 -0.08,-1.02 -5.83,-12.1 -6.85,-11.88 -1.03,0.22 -6.57,3.64 -6.86,4.74 -0.29,1.09 -0.56,7.17 0,8.26z"/>
   </g>
   <g style="clip-path:url(#id3)">
    <g>
     <g>
      <path id="_1" class="fil21" d="M37.05 228c1.63,0 3.04,0.91 3.78,2.24 0.34,-0.62 0.53,-1.32 0.53,-2.08 0,-2.38 -1.93,-4.32 -4.31,-4.32 -2.39,0 -4.32,1.94 -4.32,4.32 0,0.76 0.19,1.46 0.53,2.08 0.74,-1.33 2.16,-2.24 3.79,-2.24z"/>
      <path class="fil20" d="M38.91 228.02c0,1.03 -0.84,1.86 -1.86,1.86 -1.03,0 -1.86,-0.83 -1.86,-1.86 0,-1.03 0.83,-1.86 1.86,-1.86 1.02,0 1.86,0.83 1.86,1.86z"/>
      <path class="fil7" d="M38.91 228.02c-0.02,0 -0.02,-0.17 -0.09,-0.45 -0.08,-0.27 -0.27,-0.67 -0.69,-0.98 -0.4,-0.31 -1.05,-0.48 -1.69,-0.25 -0.63,0.22 -1.18,0.9 -1.17,1.68 -0.01,0.79 0.54,1.46 1.17,1.68 0.64,0.23 1.29,0.06 1.69,-0.25 0.42,-0.31 0.61,-0.71 0.69,-0.98 0.07,-0.28 0.07,-0.45 0.09,-0.45 0,0 0.01,0.04 0.01,0.12 0,0.08 -0.01,0.2 -0.04,0.34 -0.06,0.29 -0.24,0.73 -0.67,1.07 -0.42,0.34 -1.13,0.54 -1.82,0.29 -0.35,-0.12 -0.67,-0.35 -0.91,-0.67 -0.24,-0.32 -0.38,-0.73 -0.38,-1.15 0,-0.42 0.14,-0.83 0.38,-1.15 0.24,-0.32 0.56,-0.55 0.91,-0.67 0.69,-0.25 1.4,-0.05 1.82,0.29 0.43,0.35 0.61,0.78 0.67,1.07 0.03,0.14 0.04,0.26 0.04,0.34 0,0.08 -0.01,0.12 -0.01,0.12z"/>
      <path class="fil7" d="M41.36 228.16c-0.02,0 0.01,-0.38 -0.16,-1.04 -0.17,-0.65 -0.6,-1.6 -1.58,-2.34 -0.48,-0.36 -1.09,-0.67 -1.79,-0.79 -0.7,-0.12 -1.48,-0.1 -2.23,0.19 -0.37,0.13 -0.74,0.33 -1.07,0.58 -0.34,0.24 -0.64,0.55 -0.9,0.9 -0.52,0.69 -0.81,1.58 -0.82,2.5 0.01,0.92 0.3,1.81 0.82,2.51 0.26,0.35 0.56,0.65 0.9,0.9 0.33,0.25 0.7,0.44 1.07,0.57 0.75,0.29 1.53,0.31 2.23,0.19 0.7,-0.12 1.31,-0.42 1.79,-0.78 0.98,-0.74 1.41,-1.69 1.58,-2.34 0.17,-0.66 0.14,-1.05 0.16,-1.05 0.01,0 0.01,0.1 0.01,0.28 0,0.09 -0.01,0.2 -0.03,0.33 -0.02,0.14 -0.03,0.29 -0.08,0.45 -0.15,0.67 -0.57,1.65 -1.57,2.42 -0.49,0.38 -1.11,0.7 -1.83,0.83 -0.72,0.13 -1.54,0.11 -2.31,-0.18 -0.39,-0.13 -0.77,-0.34 -1.12,-0.6 -0.35,-0.25 -0.66,-0.56 -0.93,-0.93 -0.54,-0.72 -0.85,-1.64 -0.86,-2.6 0.01,-0.95 0.32,-1.88 0.86,-2.6 0.27,-0.36 0.58,-0.68 0.93,-0.93 0.35,-0.26 0.73,-0.46 1.12,-0.59 0.77,-0.3 1.59,-0.32 2.31,-0.19 0.72,0.14 1.34,0.46 1.83,0.83 1,0.77 1.42,1.76 1.57,2.42 0.05,0.17 0.06,0.32 0.08,0.45 0.02,0.13 0.03,0.24 0.03,0.34 0,0.18 0,0.27 -0.01,0.27z"/>
      <path class="fil20" d="M38.68 225.1c-0.07,0.11 -0.45,-0.03 -1.05,-0.09 -0.59,-0.07 -1.43,-0.01 -2.2,0.39 -0.77,0.42 -1.28,1.09 -1.56,1.61 -0.29,0.53 -0.38,0.93 -0.51,0.92 -0.1,0 -0.22,-0.44 -0.04,-1.13 0.17,-0.68 0.72,-1.6 1.71,-2.14 1.01,-0.52 2.08,-0.47 2.73,-0.23 0.68,0.24 0.97,0.58 0.92,0.67z"/>
      <path class="fil20" d="M39.76 225.78c-0.19,0.13 -0.38,0.2 -0.43,0.15 -0.04,-0.04 0.02,-0.23 0.14,-0.42 0.13,-0.2 0.34,-0.29 0.45,-0.18 0.11,0.11 0.03,0.32 -0.16,0.45z"/>
     </g>
    </g>
   </g>
   <g style="clip-path:url(#id4)">
    <path class="fil22" d="M34.87 236.31c0.52,1.02 4.16,4.77 4.89,5.29 0.73,0.52 5.1,1.25 5.61,0.96 0.51,-0.3 3.28,-6.35 3.21,-7.37 -0.08,-1.02 -5.83,-12.1 -6.85,-11.88 -1.03,0.22 -6.57,3.64 -6.86,4.74 -0.29,1.09 -0.56,7.17 0,8.26z"/>
    <path class="fil23" d="M35.2 235.96c-0.05,0.73 1.88,2.98 2.11,3.26 -1.09,-1.15 -2.17,-2.39 -2.44,-2.91 -0.57,-1.09 -0.29,-7.17 0,-8.26 0.3,-1.09 5.84,-4.52 6.85,-4.74 -1.11,0.49 -5.52,4.1 -5.76,5 -0.23,0.88 -0.71,6.87 -0.76,7.65z"/>
    <path class="fil24" d="M50.62 235.7c1.28,-0.44 27.63,-1.24 32.8,-1.24 5.18,0 39.23,0.8 41.56,1.61 2.33,0.8 -2.92,14.65 -4.96,15.67 -2.04,1.02 -34.85,3.65 -37.11,3.65 -2.26,0 -27.86,-3.62 -29.4,-4.64 -1.53,-1.02 -5.01,-14.32 -2.89,-15.05z"/>
   </g>
   <g style="clip-path:url(#id5)">
    <g>
     <g>
      <path id="_1_0" class="fil25" d="M141.46 238.89c0,0.07 -25.92,0.12 -57.88,0.12 -31.97,0 -57.88,-0.05 -57.88,-0.12 0,-0.06 25.91,-0.12 57.88,-0.12 31.96,0 57.88,0.06 57.88,0.12z"/>
      <path class="fil25" d="M141.46 235.37c0,0.06 -25.92,0.11 -57.88,0.11 -31.97,0 -57.88,-0.05 -57.88,-0.11 0,-0.07 25.91,-0.12 57.88,-0.12 31.96,0 57.88,0.05 57.88,0.12z"/>
      <path class="fil25" d="M141.46 242.47c0,0.06 -25.92,0.11 -57.88,0.11 -31.97,0 -57.88,-0.05 -57.88,-0.11 0,-0.07 25.91,-0.12 57.88,-0.12 31.96,0 57.88,0.05 57.88,0.12z"/>
      <path class="fil25" d="M138.89 246.04c0,0.07 -24.89,0.12 -55.58,0.12 -30.69,0 -55.57,-0.05 -55.57,-0.12 0,-0.07 24.88,-0.12 55.57,-0.12 30.69,0 55.58,0.05 55.58,0.12z"/>
      <path class="fil25" d="M137.76 249.61c0,0.07 -24.21,0.12 -54.07,0.12 -29.87,0 -54.08,-0.05 -54.08,-0.12 0,-0.06 24.21,-0.11 54.08,-0.11 29.86,0 54.07,0.05 54.07,0.11z"/>
      <path class="fil25" d="M134.97 253.19c0,0.06 -22.96,0.12 -51.28,0.12 -28.33,0 -51.29,-0.06 -51.29,-0.12 0,-0.07 22.96,-0.12 51.29,-0.12 28.32,0 51.28,0.05 51.28,0.12z"/>
     </g>
    </g>
   </g>
   <g style="clip-path:url(#id6)">
    <path class="fil22" d="M50.62 235.7c1.28,-0.44 27.63,-1.24 32.8,-1.24 5.18,0 39.23,0.8 41.56,1.61 2.33,0.8 -2.92,14.65 -4.96,15.67 -2.04,1.02 -34.85,3.65 -37.11,3.65 -2.26,0 -27.86,-3.62 -29.4,-4.64 -1.53,-1.02 -5.01,-14.32 -2.89,-15.05z"/>
    <path class="fil7" d="M54.12 267.27c0.8,0 67.14,0 68.6,0 1.45,0 -5.98,-4.45 -7.15,-4.52 -1.17,-0.07 -54.96,0 -56.06,0 -1.09,0 -6.63,4.52 -5.39,4.52z"/>
    <g>
     <path class="fil7" d="M261.22 203.71c0,0 -0.87,2.97 -2.66,3.28 -1.79,0.31 -15.91,0.74 -15.91,0.74l-1.38 2.84 -2.66 0 -1.93 -11.39 1.65 0.34c0.56,0.11 1.03,0.5 1.26,1.02l0 0c0.25,0.59 0.79,0.99 1.43,1.06l20.2 2.11z"/>
     <path class="fil8" d="M260.62 204.16c1.05,-0.09 1.82,-1.04 1.67,-2.08 -0.46,-3.25 -2.17,-9.58 -8.45,-10.51 -5.56,-0.83 -9.6,-0.58 -11.73,-0.3 -0.98,0.13 -1.46,1.01 -1.58,1.99 -0.53,4.47 -0.1,10.02 1.19,10.7 1.35,0.71 14.32,0.56 18.9,0.2z"/>
    </g>
    <path class="fil26" d="M46.7 234.96c0,1.93 -1.56,3.49 -3.48,3.49 -1.93,0 -3.49,-1.56 -3.49,-3.49 0,-1.92 1.56,-3.48 3.49,-3.48 1.92,0 3.48,1.56 3.48,3.48z"/>
    <path class="fil7" d="M46.7 234.96c-0.02,0 0,-0.31 -0.14,-0.84 -0.14,-0.52 -0.49,-1.29 -1.27,-1.88 -0.39,-0.29 -0.88,-0.54 -1.44,-0.63 -0.56,-0.1 -1.2,-0.08 -1.8,0.15 -0.3,0.11 -0.59,0.27 -0.86,0.47 -0.27,0.19 -0.51,0.44 -0.72,0.72 -0.41,0.56 -0.65,1.28 -0.66,2.01 0.01,0.74 0.25,1.46 0.66,2.01 0.21,0.29 0.45,0.53 0.72,0.73 0.27,0.2 0.56,0.36 0.86,0.47 0.61,0.23 1.24,0.24 1.8,0.15 0.56,-0.1 1.05,-0.34 1.44,-0.63 0.78,-0.6 1.13,-1.36 1.27,-1.88 0.14,-0.54 0.12,-0.85 0.14,-0.85 0,0 0.04,0.31 -0.08,0.86 -0.11,0.54 -0.46,1.34 -1.26,1.96 -0.4,0.31 -0.9,0.57 -1.49,0.68 -0.58,0.1 -1.24,0.09 -1.87,-0.15 -0.32,-0.11 -0.62,-0.27 -0.9,-0.48 -0.29,-0.21 -0.55,-0.46 -0.76,-0.76 -0.44,-0.58 -0.69,-1.33 -0.7,-2.11 0.01,-0.77 0.26,-1.52 0.7,-2.11 0.21,-0.29 0.47,-0.55 0.76,-0.75 0.28,-0.21 0.58,-0.38 0.9,-0.48 0.63,-0.24 1.29,-0.25 1.87,-0.15 0.59,0.11 1.09,0.37 1.49,0.67 0.8,0.63 1.15,1.43 1.26,1.96 0.12,0.55 0.08,0.86 0.08,0.86z"/>
    <path class="fil21" d="M43.22 234.81c1.27,0 2.39,0.71 2.97,1.76 0.26,-0.48 0.42,-1.04 0.42,-1.63 0,-1.87 -1.52,-3.39 -3.39,-3.39 -1.88,0 -3.39,1.52 -3.39,3.39 0,0.59 0.15,1.15 0.41,1.63 0.58,-1.05 1.7,-1.76 2.98,-1.76z"/>
    <path class="fil20" d="M44.72 234.85c0,0.83 -0.68,1.5 -1.5,1.5 -0.83,0 -1.51,-0.67 -1.51,-1.5 0,-0.83 0.68,-1.5 1.51,-1.5 0.82,0 1.5,0.67 1.5,1.5z"/>
    <path class="fil7" d="M44.72 234.85c-0.02,0 -0.02,-0.14 -0.08,-0.36 -0.06,-0.22 -0.22,-0.54 -0.55,-0.79 -0.32,-0.25 -0.85,-0.38 -1.36,-0.19 -0.51,0.17 -0.94,0.71 -0.93,1.34 -0.01,0.63 0.42,1.16 0.93,1.34 0.51,0.19 1.04,0.05 1.36,-0.19 0.33,-0.25 0.49,-0.57 0.55,-0.79 0.06,-0.23 0.06,-0.36 0.08,-0.36 0,0 0.01,0.03 0.01,0.1 0,0.06 0,0.15 -0.03,0.27 -0.04,0.24 -0.19,0.59 -0.54,0.87 -0.34,0.28 -0.92,0.45 -1.48,0.24 -0.57,-0.18 -1.06,-0.78 -1.05,-1.48 -0.01,-0.7 0.48,-1.3 1.05,-1.49 0.56,-0.2 1.14,-0.03 1.48,0.25 0.35,0.28 0.5,0.63 0.54,0.86 0.03,0.12 0.03,0.22 0.03,0.28 0,0.07 -0.01,0.1 -0.01,0.1z"/>
    <path class="fil20" d="M44.53 232.49c-0.06,0.1 -0.38,0.01 -0.85,-0.02 -0.47,-0.03 -1.13,0.02 -1.73,0.34 -0.6,0.32 -1.01,0.84 -1.25,1.25 -0.24,0.41 -0.34,0.72 -0.46,0.71 -0.1,0 -0.22,-0.35 -0.09,-0.93 0.13,-0.56 0.57,-1.33 1.4,-1.77 0.83,-0.44 1.72,-0.38 2.26,-0.18 0.55,0.21 0.78,0.51 0.72,0.6z"/>
    <path class="fil20" d="M45.4 233.04c-0.19,0.13 -0.36,0.21 -0.39,0.18 -0.03,-0.03 0.04,-0.21 0.16,-0.4 0.13,-0.2 0.32,-0.29 0.42,-0.2 0.1,0.09 0.01,0.29 -0.19,0.42z"/>
    <g>
     <path class="fil26" d="M147.93 237.95c-2.33,-1.15 -3.28,-3.96 -2.14,-6.28 1.15,-2.33 3.96,-3.28 6.28,-2.14 2.32,1.15 3.28,3.96 2.14,6.28 -1.15,2.33 -3.96,3.28 -6.28,2.14z"/>
     <path class="fil7" d="M147.93 237.95c0.01,-0.03 0.37,0.18 1.1,0.33 0.71,0.15 1.84,0.18 3.02,-0.42 0.58,-0.3 1.17,-0.74 1.62,-1.36 0.45,-0.62 0.8,-1.4 0.88,-2.26 0.05,-0.43 0.04,-0.87 -0.05,-1.31 -0.07,-0.45 -0.22,-0.89 -0.44,-1.3 -0.43,-0.84 -1.15,-1.55 -2.04,-2 -0.89,-0.43 -1.9,-0.57 -2.82,-0.39 -0.46,0.07 -0.9,0.22 -1.3,0.43 -0.4,0.21 -0.77,0.46 -1.08,0.76 -0.63,0.59 -1.03,1.34 -1.25,2.08 -0.21,0.73 -0.21,1.47 -0.09,2.11 0.25,1.3 0.96,2.18 1.51,2.66 0.56,0.48 0.95,0.64 0.94,0.67 0,0 -0.41,-0.14 -1,-0.61 -0.57,-0.46 -1.33,-1.34 -1.61,-2.69 -0.13,-0.66 -0.14,-1.42 0.07,-2.19 0.22,-0.77 0.63,-1.55 1.29,-2.18 0.32,-0.31 0.7,-0.58 1.12,-0.8 0.42,-0.22 0.88,-0.38 1.36,-0.46 0.97,-0.19 2.02,-0.04 2.96,0.41 0.93,0.47 1.69,1.22 2.13,2.1 0.23,0.43 0.39,0.89 0.46,1.36 0.09,0.46 0.11,0.93 0.05,1.37 -0.09,0.9 -0.46,1.71 -0.94,2.35 -0.48,0.64 -1.09,1.1 -1.7,1.39 -1.23,0.6 -2.39,0.54 -3.11,0.37 -0.73,-0.18 -1.08,-0.42 -1.08,-0.42z"/>
     <path class="fil21" d="M150.18 233.83c-0.76,1.54 -2.28,2.47 -3.89,2.54 0.43,0.61 1.01,1.12 1.72,1.48 2.26,1.11 5,0.18 6.11,-2.08 1.11,-2.26 0.18,-4.99 -2.08,-6.11 -0.71,-0.35 -1.47,-0.49 -2.22,-0.46 0.93,1.32 1.12,3.08 0.36,4.63z"/>
     <path class="fil20" d="M149.24 235.62c-1,-0.49 -1.41,-1.7 -0.92,-2.71 0.5,-1 1.71,-1.41 2.71,-0.92 1,0.5 1.41,1.71 0.92,2.71 -0.49,1 -1.7,1.41 -2.71,0.92z"/>
     <path class="fil7" d="M149.24 235.62c0.01,-0.02 0.17,0.06 0.48,0.12 0.31,0.06 0.79,0.06 1.28,-0.2 0.49,-0.24 0.97,-0.79 1.04,-1.52 0.09,-0.71 -0.3,-1.56 -1.06,-1.92 -0.75,-0.38 -1.66,-0.18 -2.17,0.33 -0.53,0.5 -0.68,1.21 -0.58,1.75 0.1,0.55 0.4,0.93 0.63,1.13 0.23,0.21 0.39,0.29 0.38,0.31 0,0.01 -0.04,-0.01 -0.12,-0.04 -0.08,-0.04 -0.19,-0.1 -0.32,-0.2 -0.26,-0.2 -0.6,-0.58 -0.72,-1.17 -0.14,-0.57 0,-1.37 0.59,-1.93 0.55,-0.57 1.57,-0.81 2.41,-0.39 0.85,0.41 1.28,1.36 1.17,2.15 -0.09,0.81 -0.64,1.4 -1.18,1.65 -0.54,0.25 -1.05,0.22 -1.36,0.13 -0.16,-0.03 -0.28,-0.08 -0.36,-0.13 -0.07,-0.04 -0.11,-0.06 -0.11,-0.07z"/>
     <path class="fil20" d="M152.2 236.8c-0.09,-0.14 0.21,-0.47 0.53,-1.02 0.32,-0.55 0.65,-1.38 0.62,-2.29 -0.03,-0.91 -0.41,-1.72 -0.76,-2.24 -0.36,-0.54 -0.68,-0.84 -0.6,-0.99 0.07,-0.12 0.57,-0.06 1.18,0.45 0.61,0.49 1.27,1.48 1.31,2.74 0.04,1.27 -0.56,2.3 -1.13,2.83 -0.58,0.54 -1.08,0.64 -1.15,0.52z"/>
     <path class="fil20" d="M151.02 237.52c-0.05,-0.3 -0.04,-0.56 0.02,-0.58 0.05,-0.02 0.22,0.17 0.38,0.44 0.16,0.27 0.16,0.56 -0.01,0.62 -0.17,0.06 -0.35,-0.17 -0.39,-0.48z"/>
     <g>
      <path class="fil21" d="M162.07 230.43c-0.97,1.97 -2.91,3.14 -4.95,3.24 0.54,0.78 1.28,1.43 2.19,1.88 2.87,1.41 6.36,0.23 7.77,-2.65 1.42,-2.87 0.24,-6.35 -2.64,-7.77 -0.91,-0.45 -1.88,-0.64 -2.83,-0.59 1.18,1.67 1.43,3.93 0.46,5.89z"/>
      <path class="fil20" d="M160.94 232.67c-1.24,-0.61 -1.75,-2.11 -1.14,-3.35 0.61,-1.24 2.11,-1.76 3.35,-1.14 1.24,0.61 1.75,2.11 1.14,3.35 -0.61,1.24 -2.11,1.75 -3.35,1.14z"/>
      <path class="fil7" d="M160.94 232.67c0.01,-0.02 0.2,0.08 0.59,0.15 0.38,0.08 0.98,0.09 1.59,-0.23 0.62,-0.3 1.22,-1 1.31,-1.91 0.11,-0.89 -0.38,-1.94 -1.33,-2.4 -0.94,-0.48 -2.08,-0.22 -2.72,0.41 -0.66,0.63 -0.85,1.53 -0.71,2.2 0.12,0.68 0.5,1.15 0.78,1.4 0.3,0.26 0.5,0.36 0.49,0.38 -0.01,0 -0.06,-0.01 -0.15,-0.06 -0.1,-0.04 -0.23,-0.12 -0.39,-0.25 -0.32,-0.24 -0.73,-0.72 -0.89,-1.44 -0.16,-0.71 0.01,-1.69 0.73,-2.38 0.35,-0.34 0.82,-0.6 1.35,-0.69 0.52,-0.1 1.1,-0.02 1.61,0.23 0.51,0.25 0.92,0.66 1.16,1.14 0.25,0.47 0.33,1 0.27,1.49 -0.11,0.99 -0.77,1.72 -1.43,2.02 -0.67,0.32 -1.3,0.28 -1.69,0.18 -0.19,-0.05 -0.34,-0.11 -0.43,-0.16 -0.1,-0.05 -0.15,-0.08 -0.14,-0.08z"/>
      <path class="fil7" d="M159.31 235.55c0.01,-0.03 0.46,0.23 1.36,0.42 0.88,0.18 2.29,0.23 3.76,-0.51 0.72,-0.37 1.45,-0.92 2.01,-1.7 0.56,-0.76 1,-1.73 1.1,-2.8 0.06,-0.53 0.04,-1.08 -0.06,-1.63 -0.1,-0.56 -0.28,-1.11 -0.56,-1.62 -0.53,-1.04 -1.43,-1.93 -2.53,-2.48 -1.11,-0.54 -2.36,-0.71 -3.51,-0.5 -0.57,0.1 -1.12,0.29 -1.62,0.55 -0.5,0.25 -0.95,0.57 -1.33,0.95 -0.79,0.73 -1.29,1.66 -1.56,2.57 -0.27,0.92 -0.26,1.84 -0.11,2.63 0.31,1.62 1.2,2.71 1.88,3.29 0.7,0.6 1.19,0.8 1.17,0.83 -0.01,0.01 -0.12,-0.05 -0.34,-0.16 -0.11,-0.06 -0.24,-0.13 -0.39,-0.23 -0.15,-0.1 -0.32,-0.21 -0.49,-0.37 -0.71,-0.57 -1.65,-1.67 -1.99,-3.32 -0.16,-0.82 -0.18,-1.76 0.09,-2.72 0.27,-0.94 0.78,-1.91 1.59,-2.67 0.4,-0.39 0.87,-0.73 1.38,-0.99 0.52,-0.28 1.08,-0.47 1.68,-0.57 1.19,-0.23 2.49,-0.05 3.65,0.51 1.15,0.57 2.08,1.5 2.63,2.58 0.28,0.53 0.47,1.1 0.57,1.68 0.1,0.57 0.13,1.14 0.05,1.69 -0.11,1.11 -0.57,2.11 -1.15,2.9 -0.59,0.79 -1.35,1.35 -2.09,1.72 -1.52,0.74 -2.96,0.67 -3.85,0.45 -0.23,-0.04 -0.42,-0.11 -0.59,-0.17 -0.17,-0.05 -0.31,-0.11 -0.42,-0.16 -0.22,-0.11 -0.34,-0.16 -0.33,-0.17z"/>
      <path class="fil20" d="M164.6 234.13c-0.09,-0.14 0.3,-0.52 0.73,-1.21 0.43,-0.67 0.87,-1.72 0.83,-2.89 -0.04,-1.18 -0.54,-2.2 -1.01,-2.84 -0.47,-0.66 -0.89,-1.01 -0.81,-1.16 0.07,-0.12 0.67,-0.01 1.4,0.62 0.71,0.61 1.5,1.82 1.55,3.34 0.04,1.52 -0.66,2.78 -1.34,3.43 -0.68,0.68 -1.28,0.83 -1.35,0.71z"/>
      <path class="fil20" d="M163.13 235.02c-0.04,-0.31 -0.01,-0.57 0.07,-0.6 0.09,-0.02 0.28,0.16 0.44,0.42 0.16,0.27 0.14,0.58 -0.06,0.65 -0.2,0.07 -0.4,-0.16 -0.45,-0.47z"/>
     </g>
    </g>
    <g>
     <path class="fil24" d="M54.01 255.8c0,0 0.59,-1.4 -0.23,-1.63 -0.93,-0.25 -15.94,0 -16.55,0.03 -1.21,0.05 -1.57,0.65 -1.66,2.1 -0.09,1.44 -0.23,5.02 1.09,5.87 1.32,0.85 3.24,1.04 6.92,0.77 3.69,-0.28 5.63,-0.41 7.3,-1.67 1.66,-1.26 3.13,-5.47 3.13,-5.47z"/>
     <path class="fil25" d="M51.63 260.34c0,0.03 -3.57,0.05 -7.97,0.04 -4.41,0 -7.98,-0.03 -7.98,-0.07 0,-0.03 3.57,-0.05 7.98,-0.04 4.4,0 7.97,0.03 7.97,0.07z"/>
     <path class="fil25" d="M50.63 261.35c0,0 -0.05,0.01 -0.15,0.01 -0.11,0 -0.25,0.01 -0.43,0.01 -0.38,0.01 -0.91,0.02 -1.57,0.03 -1.33,0.02 -3.16,0.05 -5.17,0.09 -2.02,0.03 -3.86,0.05 -5.18,0.05 -0.67,0 -1.2,-0.01 -1.57,-0.01 -0.18,-0.01 -0.32,-0.01 -0.43,-0.01 -0.1,-0.01 -0.15,-0.01 -0.15,-0.02 0,0 0.05,0 0.15,-0.01 0.11,0 0.25,0 0.43,-0.01 0.38,-0.01 0.92,-0.01 1.57,-0.02 1.34,-0.03 3.16,-0.06 5.18,-0.09 2.02,-0.04 3.85,-0.06 5.17,-0.06 0.67,0 1.2,0.01 1.57,0.01 0.18,0.01 0.32,0.01 0.43,0.02 0.1,0 0.15,0 0.15,0.01z"/>
     <path class="fil25" d="M48.26 262.32c0.02,0.03 -0.57,0.07 -1.51,0.1 -0.94,0.03 -2.24,0.07 -3.68,0.09 -1.43,0.03 -2.73,0.05 -3.67,0.05 -0.46,0 -0.83,0.01 -1.12,0.01 -0.26,-0.01 -0.41,-0.01 -0.41,-0.02 0,-0.01 0.15,-0.02 0.41,-0.03 0.28,-0.01 0.66,-0.02 1.11,-0.04 0.96,-0.02 2.25,-0.05 3.68,-0.08 1.43,-0.03 2.72,-0.05 3.68,-0.07 0.45,0 0.83,0 1.11,-0.01 0.26,0 0.42,0 0.4,0z"/>
     <path class="fil25" d="M52.31 259.25c0,0.03 -3.75,0.08 -8.38,0.1 -4.63,0.03 -8.38,0.02 -8.38,-0.01 0,-0.04 3.75,-0.08 8.38,-0.11 4.63,-0.02 8.38,-0.01 8.38,0.02z"/>
     <path class="fil25" d="M52.83 258.25c0,0.04 -3.89,0.09 -8.68,0.11 -4.79,0.03 -8.68,0.02 -8.68,-0.01 0,-0.04 3.89,-0.08 8.68,-0.11 4.79,-0.02 8.68,-0.02 8.68,0.01z"/>
     <path class="fil25" d="M53.4 257.09c0,0.03 -3.99,0.08 -8.92,0.1 -4.93,0.03 -8.93,0.02 -8.93,-0.01 0,-0.03 4,-0.08 8.93,-0.11 4.93,-0.02 8.92,-0.02 8.92,0.02z"/>
     <path class="fil25" d="M53.8 255.92c0,0.03 -4.06,0.08 -9.08,0.1 -5.01,0.03 -9.08,0.03 -9.08,-0.01 0,-0.03 4.07,-0.08 9.08,-0.11 5.02,-0.02 9.08,-0.02 9.08,0.02z"/>
     <path class="fil25" d="M54.21 254.75c0,0.03 -4.1,0.08 -9.15,0.11 -5.06,0.02 -9.16,0.02 -9.16,-0.02 0,-0.03 4.1,-0.08 9.16,-0.1 5.05,-0.03 9.15,-0.02 9.15,0.01z"/>
     <path class="fil25" d="M40.86 254.04c0.03,0 -0.09,2.02 -0.27,4.5 -0.19,2.49 -0.36,4.5 -0.39,4.5 -0.04,0 0.08,-2.02 0.27,-4.51 0.18,-2.48 0.36,-4.5 0.39,-4.49z"/>
     <path class="fil25" d="M39.34 253.99c0.04,0 -0.09,2.02 -0.27,4.51 -0.18,2.48 -0.36,4.5 -0.39,4.49 -0.04,0 0.09,-2.02 0.27,-4.5 0.18,-2.49 0.36,-4.5 0.39,-4.5z"/>
     <path class="fil25" d="M36.26 254.5c0.01,0 0.01,0.1 0.01,0.26 -0.01,0.19 -0.02,0.42 -0.03,0.69 -0.03,0.61 -0.06,1.4 -0.1,2.27 -0.03,0.89 -0.08,1.7 -0.13,2.28 -0.02,0.29 -0.04,0.52 -0.06,0.69 -0.02,0.16 -0.04,0.25 -0.04,0.25 -0.01,0 -0.01,-0.09 -0.01,-0.26 0.01,-0.19 0.02,-0.41 0.03,-0.69 0.02,-0.61 0.06,-1.4 0.09,-2.27 0.04,-0.89 0.08,-1.7 0.13,-2.28 0.03,-0.29 0.05,-0.52 0.07,-0.69 0.02,-0.16 0.03,-0.25 0.04,-0.25z"/>
     <path class="fil25" d="M42.62 254.11c0.03,0 -0.08,1.95 -0.26,4.35 -0.18,2.39 -0.35,4.34 -0.38,4.33 -0.04,0 0.08,-1.94 0.26,-4.34 0.18,-2.4 0.35,-4.35 0.38,-4.34z"/>
     <path class="fil25" d="M44.37 254.22c0.04,0 -0.08,1.95 -0.26,4.36 -0.18,2.4 -0.35,4.35 -0.38,4.35 -0.03,0 0.08,-1.96 0.26,-4.36 0.18,-2.41 0.35,-4.35 0.38,-4.35z"/>
     <path class="fil25" d="M46.15 254.07c0.03,0 -0.09,1.94 -0.26,4.32 -0.18,2.39 -0.35,4.32 -0.38,4.31 -0.03,0 0.08,-1.93 0.26,-4.32 0.17,-2.38 0.34,-4.31 0.38,-4.31z"/>
     <path class="fil25" d="M47.91 254.06c0.03,0 -0.08,1.93 -0.26,4.3 -0.17,2.37 -0.34,4.29 -0.37,4.29 -0.04,-0.01 0.08,-1.93 0.25,-4.3 0.18,-2.37 0.35,-4.29 0.38,-4.29z"/>
     <path class="fil25" d="M49.67 254.16c0.03,0.01 -0.08,1.81 -0.24,4.03 -0.17,2.21 -0.32,4.01 -0.36,4.01 -0.03,-0.01 0.07,-1.81 0.24,-4.02 0.16,-2.22 0.32,-4.02 0.36,-4.02z"/>
     <path class="fil25" d="M51.43 254.07c0.04,0 -0.06,1.68 -0.21,3.76 -0.16,2.07 -0.31,3.75 -0.34,3.75 -0.03,-0.01 0.06,-1.69 0.22,-3.76 0.15,-2.08 0.3,-3.75 0.33,-3.75z"/>
     <path class="fil25" d="M53.19 254.11c0.04,0.01 -0.01,1 -0.1,2.22 -0.09,1.23 -0.19,2.22 -0.22,2.22 -0.04,-0.01 0.01,-1 0.1,-2.22 0.09,-1.23 0.19,-2.22 0.22,-2.22z"/>
    </g>
    <g>
     <path class="fil24" d="M144.79 254.44c0,0 -0.59,-1.4 0.22,-1.63 0.94,-0.25 15.95,0 16.56,0.03 1.21,0.05 1.57,0.65 1.66,2.1 0.09,1.44 0.23,5.02 -1.09,5.87 -1.32,0.85 -3.24,1.04 -6.93,0.77 -3.69,-0.28 -5.63,-0.41 -7.29,-1.67 -1.66,-1.26 -3.13,-5.47 -3.13,-5.47z"/>
     <path class="fil25" d="M147.17 258.98c0,0.03 3.57,0.05 7.97,0.04 4.41,0 7.98,-0.03 7.98,-0.07 0,-0.03 -3.57,-0.05 -7.98,-0.04 -4.4,0 -7.97,0.03 -7.97,0.07z"/>
     <path class="fil25" d="M148.17 259.99c0,0 0.05,0.01 0.15,0.01 0.11,0 0.25,0.01 0.42,0.01 0.39,0.01 0.92,0.02 1.57,0.03 1.34,0.02 3.16,0.05 5.18,0.09 2.02,0.03 3.85,0.05 5.18,0.05 0.66,0 1.2,-0.01 1.57,-0.01 0.17,-0.01 0.32,-0.01 0.43,-0.01 0.09,-0.01 0.14,-0.01 0.14,-0.02 0,0 -0.05,0 -0.14,-0.01 -0.11,0 -0.26,0 -0.43,-0.01 -0.39,-0.01 -0.92,-0.01 -1.57,-0.02 -1.34,-0.03 -3.16,-0.06 -5.18,-0.09 -2.02,-0.04 -3.85,-0.06 -5.18,-0.06 -0.66,0 -1.2,0.01 -1.57,0.01 -0.17,0.01 -0.31,0.01 -0.42,0.02 -0.1,0 -0.15,0 -0.15,0.01z"/>
     <path class="fil25" d="M150.53 260.96c-0.01,0.03 0.58,0.07 1.52,0.1 0.94,0.03 2.24,0.07 3.67,0.09 1.44,0.03 2.74,0.05 3.68,0.05 0.46,0 0.83,0.01 1.11,0.01 0.27,-0.01 0.41,-0.01 0.41,-0.02 0,-0.01 -0.14,-0.02 -0.4,-0.03 -0.29,-0.01 -0.66,-0.02 -1.12,-0.04 -0.96,-0.02 -2.25,-0.05 -3.67,-0.08 -1.43,-0.03 -2.72,-0.05 -3.68,-0.07 -0.46,0 -0.83,0 -1.11,-0.01 -0.26,0 -0.42,0 -0.41,0z"/>
     <path class="fil25" d="M146.48 257.89c0,0.03 3.76,0.08 8.39,0.1 4.63,0.03 8.38,0.02 8.38,-0.01 0,-0.04 -3.75,-0.08 -8.38,-0.11 -4.63,-0.02 -8.39,-0.01 -8.39,0.02z"/>
     <path class="fil25" d="M145.97 256.89c0,0.04 3.88,0.09 8.68,0.11 4.79,0.03 8.68,0.02 8.68,-0.01 0,-0.04 -3.89,-0.08 -8.68,-0.11 -4.79,-0.02 -8.68,-0.02 -8.68,0.01z"/>
     <path class="fil25" d="M145.4 255.73c0,0.03 3.99,0.08 8.92,0.1 4.93,0.03 8.92,0.02 8.92,-0.01 0,-0.03 -3.99,-0.08 -8.92,-0.11 -4.93,-0.02 -8.92,-0.02 -8.92,0.02z"/>
     <path class="fil25" d="M144.99 254.56c0,0.03 4.07,0.08 9.09,0.1 5.01,0.03 9.08,0.03 9.08,-0.01 0,-0.03 -4.07,-0.08 -9.08,-0.11 -5.02,-0.02 -9.09,-0.02 -9.09,0.02z"/>
     <path class="fil25" d="M144.59 253.39c0,0.03 4.1,0.08 9.15,0.11 5.06,0.02 9.16,0.02 9.16,-0.02 0,-0.03 -4.1,-0.08 -9.16,-0.1 -5.05,-0.03 -9.15,-0.02 -9.15,0.01z"/>
     <path class="fil25" d="M157.94 252.68c-0.04,0 0.09,2.02 0.27,4.5 0.18,2.49 0.36,4.5 0.39,4.5 0.03,0 -0.09,-2.02 -0.27,-4.51 -0.19,-2.48 -0.36,-4.5 -0.39,-4.49z"/>
     <path class="fil25" d="M159.45 252.63c-0.03,0 0.09,2.02 0.28,4.51 0.18,2.48 0.36,4.5 0.39,4.49 0.03,0 -0.09,-2.02 -0.27,-4.5 -0.19,-2.49 -0.36,-4.5 -0.4,-4.5z"/>
     <path class="fil25" d="M162.54 253.14c-0.01,0 -0.01,0.1 -0.01,0.26 0.01,0.19 0.02,0.42 0.03,0.69 0.03,0.61 0.06,1.4 0.09,2.27 0.04,0.89 0.08,1.7 0.13,2.28 0.03,0.29 0.05,0.52 0.07,0.69 0.02,0.16 0.03,0.25 0.04,0.25 0.01,0 0.01,-0.09 0.01,-0.26 -0.01,-0.18 -0.02,-0.41 -0.03,-0.69 -0.03,-0.61 -0.06,-1.4 -0.1,-2.27 -0.03,-0.89 -0.08,-1.7 -0.13,-2.28 -0.02,-0.29 -0.04,-0.52 -0.06,-0.69 -0.02,-0.16 -0.04,-0.25 -0.04,-0.25z"/>
     <path class="fil25" d="M156.18 252.75c-0.03,0 0.08,1.95 0.26,4.35 0.18,2.39 0.35,4.34 0.38,4.33 0.03,0 -0.08,-1.94 -0.26,-4.34 -0.18,-2.4 -0.35,-4.35 -0.38,-4.34z"/>
     <path class="fil25" d="M154.42 252.86c-0.03,0 0.09,1.95 0.27,4.36 0.17,2.4 0.34,4.35 0.38,4.35 0.03,0 -0.09,-1.96 -0.27,-4.36 -0.17,-2.41 -0.34,-4.35 -0.38,-4.35z"/>
     <path class="fil25" d="M152.65 252.71c-0.03,0 0.08,1.94 0.26,4.32 0.18,2.39 0.35,4.32 0.38,4.31 0.03,0 -0.08,-1.93 -0.26,-4.32 -0.18,-2.38 -0.35,-4.31 -0.38,-4.31z"/>
     <path class="fil25" d="M150.89 252.7c-0.04,0 0.08,1.93 0.25,4.3 0.18,2.37 0.35,4.29 0.38,4.29 0.03,0 -0.08,-1.93 -0.26,-4.3 -0.17,-2.37 -0.34,-4.29 -0.37,-4.29z"/>
     <path class="fil25" d="M149.13 252.8c-0.03,0.01 0.08,1.81 0.24,4.03 0.16,2.21 0.32,4.01 0.35,4.01 0.04,-0.01 -0.07,-1.81 -0.23,-4.02 -0.17,-2.22 -0.33,-4.02 -0.36,-4.02z"/>
     <path class="fil25" d="M147.36 252.71c-0.03,0 0.07,1.68 0.22,3.76 0.15,2.07 0.3,3.75 0.34,3.75 0.03,-0.01 -0.07,-1.69 -0.22,-3.76 -0.15,-2.08 -0.3,-3.75 -0.34,-3.75z"/>
     <path class="fil25" d="M145.6 252.75c-0.03,0.01 0.02,1 0.11,2.22 0.09,1.23 0.19,2.22 0.22,2.22 0.03,-0.01 -0.01,-1 -0.1,-2.22 -0.09,-1.23 -0.19,-2.22 -0.23,-2.22z"/>
    </g>
    <g>
     <path class="fil25" d="M47.49 272.94c4.96,-4.28 11.64,-10.85 15.08,-11.48 4.17,-0.76 24.45,-1.17 30.89,-0.98 6.43,-0.19 26.71,0.22 30.88,0.98 3.2,0.59 9.13,6.85 13.89,11.48 -30.25,0 -60.49,0 -90.74,0z"/>
     <path class="fil7" d="M49.73 271.39c0,-0.05 19.41,-0.1 43.35,-0.1 23.94,0 43.35,0.05 43.35,0.1 0,0.06 -19.41,0.11 -43.35,0.11 -23.94,0 -43.35,-0.05 -43.35,-0.11z"/>
     <path class="fil7" d="M51.44 269.43c0,-0.05 18.57,-0.1 41.48,-0.1 22.91,0 41.48,0.05 41.48,0.1 0,0.06 -18.57,0.1 -41.48,0.1 -22.91,0 -41.48,-0.04 -41.48,-0.1z"/>
     <path class="fil7" d="M54.02 267.42c0,-0.05 17.56,-0.1 39.23,-0.1 21.68,0 39.24,0.05 39.24,0.1 0,0.06 -17.56,0.11 -39.24,0.11 -21.67,0 -39.23,-0.05 -39.23,-0.11z"/>
     <path class="fil7" d="M55.74 265.42c0,-0.06 16.73,-0.1 37.37,-0.1 20.64,0 37.37,0.04 37.37,0.1 0,0.05 -16.73,0.1 -37.37,0.1 -20.64,0 -37.37,-0.05 -37.37,-0.1z"/>
     <path class="fil7" d="M58.6 263.51c0,-0.06 15.52,-0.11 34.65,-0.11 19.14,0 34.65,0.05 34.65,0.11 0,0.05 -15.51,0.1 -34.65,0.1 -19.13,0 -34.65,-0.05 -34.65,-0.1z"/>
     <path class="fil7" d="M61.85 261.59c0,-0.05 14.02,-0.1 31.31,-0.1 17.29,0 31.3,0.05 31.3,0.1 0,0.06 -14.01,0.11 -31.3,0.11 -17.29,0 -31.31,-0.05 -31.31,-0.11z"/>
    </g>
   </g>
  </g>
  <path class="fil4" d="M178.23 4.15c98.31,0 178,79.69 178,178 0,98.31 -79.69,178 -178,178 -98.31,0 -178,-79.69 -178,-178 0,-98.31 79.69,-178 178,-178z"/>
 </g>
</svg>
