<?xml version="1.0" encoding="UTF-8"?>
<!DOCTYPE svg PUBLIC "-//W3C//DTD SVG 1.0//EN" "http://www.w3.org/TR/2001/REC-SVG-20010904/DTD/svg10.dtd">
<!-- Creator: CorelDRAW -->
<svg xmlns="http://www.w3.org/2000/svg" xml:space="preserve" width="356px" height="356px" version="1.0" style="shape-rendering:geometricPrecision; text-rendering:geometricPrecision; image-rendering:optimizeQuality; fill-rule:evenodd; clip-rule:evenodd"
viewBox="0 0 356 356"
 xmlns:xlink="http://www.w3.org/1999/xlink"
 xmlns:xodm="http://www.corel.com/coreldraw/odm/2003">
 <defs>
  <style type="text/css">
   <![CDATA[
    .str2 {stroke:#043254;stroke-width:2.78;stroke-miterlimit:22.9256}
    .str3 {stroke:#043254;stroke-width:5.79;stroke-miterlimit:22.9256}
    .str0 {stroke:#043254;stroke-width:5.79;stroke-miterlimit:22.9256}
    .str1 {stroke:#043254;stroke-width:1.25;stroke-miterlimit:22.9256}
    .fil4 {fill:none}
    .fil0 {fill:#2B2A29}
    .fil1 {fill:#E42127}
    .fil2 {fill:#043254}
    .fil3 {fill:#616060;fill-rule:nonzero}
   ]]>
  </style>
   <clipPath id="id0">
    <path d="M178.23 4.15c98.31,0 178,79.69 178,178 0,98.31 -79.69,178 -178,178 -98.31,0 -178,-79.69 -178,-178 0,-98.31 79.69,-178 178,-178z"/>
   </clipPath>
 </defs>
 <g id="Layer_x0020_1">
  <metadata id="CorelCorpID_0Corel-Layer"/>
  <g>
  </g>
  <g style="clip-path:url(#id0)">
   <g id="_2549781183840">
    <rect class="fil0" transform="matrix(0.826899 0.463325 -0.463325 0.826899 124.209 229.278)" width="81.77" height="14.25" rx="7.12" ry="7.12"/>
    <path class="fil1" d="M247.79 218.48l-1.47 1.11c-0.18,0.08 -0.44,0.03 -0.67,0.01 -0.68,-0.05 -1.47,-0.36 -2.16,-0.37 -1.25,-0.58 -11.12,-6.49 -11.88,-6.22 -2.3,5.62 -6.34,9.92 -8.62,14.94 2.32,1.2 4.68,2.73 7.31,4.22 2.29,1.29 5.53,2.29 5.79,5.44 0.46,5.54 -0.96,11.36 3.67,18.76 4.97,7.94 15.09,17.91 34.44,12.92 -0.07,-0.32 -1.88,-5.45 -18.38,-14.22l-3.17 -1.66c-0.83,-3.66 -0.01,-11.08 1.01,-15.53 0.55,-2.39 -0.52,-1.73 1.84,-3.08 2.16,-1.23 4.64,-2.64 6.84,-3.9 2.44,-1.39 4.75,-3.57 7.97,-2.11 3.98,1.8 20,7.35 22.72,7.74 0.92,-1.39 -2.57,-13.77 -15.34,-20.32 -9.02,-5.08 -21.72,-4.17 -29.9,2.27z"/>
    <path class="fil1" d="M90.62 123.27c2.82,-0.84 9.69,3.96 12.1,5.33 6.9,3.91 6.26,2.52 6.25,11.96 0,10.03 1.36,10.68 -4.33,13.89 -2.31,1.3 -9.83,6.1 -11.61,6.52 -2.97,0.71 -9.93,-4.21 -12.27,-5.54 -6.78,-3.87 -5.96,-2.84 -5.96,-11.94 0.01,-9.55 -1.34,-10.62 4.23,-13.68 2.5,-1.37 9.23,-5.84 11.59,-6.54zm-23.1 15.95c-2.15,19.33 17.51,32.97 34.47,25.25 6.47,-2.94 4.27,-3.93 11.13,0.05 2.93,1.71 7.27,4.52 10.31,5.84l5.12 -5.66c2.49,-2.38 8.2,-3.46 10.77,-5.24 -0.08,-0.17 -16.2,-9.42 -19.29,-11.34l-2.71 -1.25c-0.31,-1.47 -0.77,-1.31 -0.92,-3.86 -0.11,-1.76 0.04,-2.68 -0.32,-4.4 -0.14,-1.04 -0.7,-11.68 -11.5,-17.52 -15.69,-8.46 -35.04,0.09 -37.06,18.13z"/>
    <path class="fil1" d="M83.92 137.54c1.28,-0.7 6.79,-4.25 7.86,-4.3 1.16,-0.05 6.35,3.38 8.08,4.05 0.06,10.78 1.08,8.76 -4.02,11.77 -4.28,2.52 -2.95,2.91 -8.62,-0.4 -4.07,-2.39 -3.38,-0.56 -3.3,-11.12zm6.88 -11.62c-2.03,0.6 -7.81,4.44 -9.96,5.62 -4.79,2.63 -3.63,3.55 -3.63,11.75 -0.01,7.82 -0.72,6.95 5.11,10.27 2.01,1.14 8,5.37 10.55,4.76 1.53,-0.36 7.99,-4.49 9.98,-5.6 4.89,-2.76 3.72,-3.32 3.72,-11.94 0.01,-8.12 0.56,-6.92 -5.37,-10.28 -2.08,-1.18 -7.97,-5.3 -10.4,-4.58z"/>
    <path class="fil2 str0" d="M164.76 131.56c-1.55,3.1 -7.17,17.67 -5.07,20.98 13.54,-5.81 19.6,5.39 19.69,10.54 5.58,-5.01 23.6,-2.1 18.75,14.43 5.56,0.23 14.75,0.68 17.3,6.22 15.29,-6.17 28.72,-31.71 15.2,-53.92 -15.32,-25.18 -52.16,-25.46 -65.87,1.75z"/>
    <path class="fil2 str1" d="M171.32 141.43c-1,-3.79 6.52,-12.15 8.94,-14.62 4.43,-4.53 8.67,-6.87 13.53,-9.36 -4.37,-0.05 -11.13,4.52 -14.81,7.75 -4.31,3.76 -8.1,8.75 -10.71,15.31l3.05 0.92z"/>
    <path class="fil2 str0" d="M260.04 200.11c-1.9,-2.14 -2.9,-5.65 -4.14,-8.38 -2.97,-6.55 -0.71,0.86 4.15,-12.59 2.69,-7.42 -3.27,-16.95 0.47,-18.56 2.81,-6.44 6.23,-3.59 10.43,-6.91 1.18,-3.53 0.25,-13.25 0.51,-17.68 -1.47,-0.73 -3.66,-1.49 -5.44,-2.18 -2.12,-0.82 -4.18,-2.26 -4.78,-2.49 -4.2,-1.76 -2.3,-0.44 -5,-8.21 -4.76,-13.73 -7.47,-9.15 -4.08,-16.9 1.21,-2.77 2.93,-5.85 3.62,-8.7 -1.62,-1.83 -3.4,-3.47 -5.22,-5.3 -1.01,-1.01 -1.69,-1.65 -2.68,-2.68 -2.52,-2.62 -1.78,-1.99 -3.46,-2.19 -2.58,0.59 -5.58,2.6 -8.17,3.46 -3.24,1.07 -5.48,-1.11 -8.15,-2.48 -2.77,-1.44 -5.05,-2.48 -8.13,-3.56 -1.49,-0.53 -2.96,-0.96 -4.49,-1.37 -2.71,-0.71 -2.61,-1.23 -4.05,-1.81 -3.28,-2.89 -2.21,0.69 -4.32,-4.9 -0.71,-1.9 -1.34,-4.04 -2.35,-5.83l-13.63 0c-1.69,2.03 -3.02,9.1 -4.78,10.99 -1.24,1.33 -9.23,3.34 -11.7,4.38 -2.33,0.98 -9.44,4.99 -10.95,4.95 -2.16,-0.06 -8.85,-3.91 -11.75,-4.66l-11.13 11.11c0.86,2.82 4.49,9.11 4.7,11.36 0.19,2.08 -3.86,8.72 -5,11.4 -5.38,12.64 0.07,10.49 -13.02,15.26l-3.02 1.53c0.88,1.32 21.29,12.45 23.29,12.87 1.27,-1.76 1.69,-2.92 2.77,-4.58 5.05,-13.49 -0.39,-13.52 18.32,-32.97 43.02,-39.41 99.32,16.22 68.04,65.94 -3.7,5.44 -7.93,9.29 -13.39,12.46 -1.9,1.1 -1.45,0.34 -1.72,2.57 10.63,0.11 16.19,3.12 15.35,14.02 7.79,2.78 7.72,7.15 12.78,3.1 1.9,-1.53 9.1,-8.65 10.12,-10.47z"/>
    <path class="fil1" d="M139.32 159.46l93.48 53.97 -9.81 14.52 -103.7 -59.74c0,0 10.32,-11.98 20.03,-8.75z"/>
    <path class="fil2 str0" d="M182.75 193.22c2.45,-3.72 2.66,-5.03 4.93,-9.01 2.48,-4.34 5.83,-9.71 -0.67,-12.98 -3.71,-1.39 -7.27,-0.13 -8.72,2.12 -1.25,1.94 -4.48,7.2 -5.03,9.15 5.54,5.11 7.89,3.03 9.49,10.72z"/>
    <path class="fil2 str0" d="M186.68 220.84c7.11,3.45 10.22,-5.71 14.36,-12.63 4.45,-7.46 11.01,-15.85 3.21,-19.67 -1.78,-0.89 -6.16,-2.2 -9.23,2.92l-11.07 19.17c-2.57,4.51 -1.09,8.73 2.73,10.21z"/>
    <path class="fil2 str0" d="M220.01 205.12c-2.71,-1.65 -6.7,-1.04 -8.47,0.9l-9.78 16.55c-1.78,4.25 0.44,7.78 3.46,8.97 3.34,1.54 6.69,0.06 8.22,-2.15 1.48,-2.15 3.16,-5.39 4.47,-7.73 2.16,-3.86 9.56,-13.67 2.1,-16.54z"/>
    <path class="fil3" d="M126.76 294.37c-48.59,-27.05 -87.49,-49.84 -86.89,-50.92 0.24,-0.43 6.89,2.75 17.93,8.47l20.01 10.58c14.49,7.77 32.14,17.42 51.11,27.98 23.66,13.18 46.54,28.1 70.24,40.14 10.69,6.37 16.89,10.35 16.65,10.79 -0.6,1.07 -40.47,-19.99 -89.05,-47.04z"/>
    <path class="fil2 str2" d="M159.21 303.86l11.56 -20.51 -54.46 -31.25c-1.84,0.61 -1.26,0.53 -3.12,3.88 -2.02,3.66 -7.42,11.77 -7.34,14.68 0.1,4.14 4.18,5.41 7.1,7.14 6.63,3.9 43.6,25.86 46.26,26.06z"/>
    <path class="fil2 str2" d="M159.82 231.28c-2.88,4.76 -9.5,5.41 -4.2,-3.72 15.62,-26.9 -20.44,-25.39 -21,-32.79 -0.21,-2.86 2.26,-4.84 5.26,-3.87l19.84 11.37c13.29,7.5 16.85,-4.47 13.46,-9.57 -1.41,-2.13 -3.66,-3.05 -5.88,-4.36 -4.44,-2.61 -8.57,-4.88 -12.97,-7.5 -9.66,-5.76 -20.88,-9.5 -28.73,1.69 -3,4.29 -5.61,8.23 -8.44,12.52 -13.35,20.29 4.68,28.36 1.5,49.52 2.73,2.14 47.42,27.63 51.33,29.84 2.44,1.38 4.35,2.56 6.54,3.77 4.57,2.53 14.96,-6.71 17.92,-10.23 4.79,-5.71 11.07,-18.71 13.37,-27.43 -10.72,-0.45 -12.09,-6.4 -14.81,-11.11 -9.82,0.86 -13.94,-1.52 -17.39,-8.22 -11.58,-3.34 -2.88,-10.1 -15.8,10.09z"/>
    <circle class="fil4 str3" cx="120.93" cy="268.85" r="5.67"/>
    <path class="fil2 str0" d="M166.09 178.64c11.88,-19.42 -9.05,-23.42 -13.57,-7.82 0.48,0.39 12.52,7.34 13.57,7.82z"/>
   </g>
  </g>
  <path class="fil4" d="M178.23 4.15c98.31,0 178,79.69 178,178 0,98.31 -79.69,178 -178,178 -98.31,0 -178,-79.69 -178,-178 0,-98.31 79.69,-178 178,-178z"/>
 </g>
</svg>
