<?xml version="1.0" encoding="UTF-8"?>
<!DOCTYPE svg PUBLIC "-//W3C//DTD SVG 1.0//EN" "http://www.w3.org/TR/2001/REC-SVG-20010904/DTD/svg10.dtd">
<!-- Creator: CorelDRAW -->
<svg xmlns="http://www.w3.org/2000/svg" xml:space="preserve" width="356px" height="356px" version="1.0" style="shape-rendering:geometricPrecision; text-rendering:geometricPrecision; image-rendering:optimizeQuality; fill-rule:evenodd; clip-rule:evenodd"
viewBox="0 0 356 356"
 xmlns:xlink="http://www.w3.org/1999/xlink"
 xmlns:xodm="http://www.corel.com/coreldraw/odm/2003">
 <defs>
  <style type="text/css">
   <![CDATA[
    .str0 {stroke:#143553;stroke-width:2.78;stroke-miterlimit:22.9256}
    .str1 {stroke:#FEFEFE;stroke-width:0.29;stroke-miterlimit:22.9256}
    .fil20 {fill:none}
    .fil16 {fill:#FEFEFE}
    .fil17 {fill:#E42127}
    .fil19 {fill:#B02827}
    .fil18 {fill:#143553}
    .fil6 {fill:#A7A7A8;fill-rule:nonzero}
    .fil0 {fill:#616060;fill-rule:nonzero}
    .fil5 {fill:black;fill-rule:nonzero}
    .fil8 {fill:#143553;fill-rule:nonzero}
    .fil4 {fill:#263138;fill-rule:nonzero}
    .fil7 {fill:#445964;fill-rule:nonzero}
    .fil13 {fill:#5B7287;fill-rule:nonzero}
    .fil2 {fill:#DFDFDF;fill-rule:nonzero}
    .fil10 {fill:#F4F4F4;fill-rule:nonzero}
    .fil3 {fill:#FF725D;fill-rule:nonzero}
    .fil11 {fill:white;fill-rule:nonzero}
    .fil15 {fill:white;fill-rule:nonzero;fill-opacity:0.200000}
    .fil1 {fill:black;fill-rule:nonzero;fill-opacity:0.301961}
    .fil14 {fill:#263138;fill-rule:nonzero;fill-opacity:0.301961}
    .fil12 {fill:white;fill-rule:nonzero;fill-opacity:0.301961}
    .fil9 {fill:black;fill-rule:nonzero;fill-opacity:0.501961}
   ]]>
  </style>
   <clipPath id="id0">
    <path d="M178.23 4.15c98.31,0 178,79.69 178,178 0,98.31 -79.69,178 -178,178 -98.31,0 -178,-79.69 -178,-178 0,-98.31 79.69,-178 178,-178z"/>
   </clipPath>
     <clipPath id="id1">
      <path d="M277.47 175.87c4.43,0 3.32,4.45 0.74,4.45 -1,0 -1.02,-0.18 -1.85,-0.37 -1.13,-2.35 -0.47,-4.08 1.11,-4.08zm-7.78 12.24c0,1.6 -0.45,2.08 -1.12,3.33 -1.82,-0.15 -3.12,-0.99 -4.57,-1.73 -2.32,-1.17 -6.82,-3.9 -8.03,0.62 0.67,0.91 5.34,2.92 6.79,3.59l18 8.34c2.29,0.98 2.65,2.07 2.65,-2.29 0,-2.57 -9.27,-4.52 -9.27,-5.93 0,-1.95 1.22,-3.07 2.57,-3.73 1.96,-0.96 2.9,-0.51 3.7,-2.6 6.83,-17.73 -1.64,-18.07 -5.43,-13.59 -1.09,1.28 -1.96,2.68 -2.97,4.08 -5.33,7.38 -2.69,5.87 -2.35,9.22 0.01,0.21 0.03,0.44 0.03,0.69z"/>
     </clipPath>
     <clipPath id="id2">
      <path d="M178.23 4.15c98.31,0 178,79.69 178,178 0,98.31 -79.69,178 -178,178 -98.31,0 -178,-79.69 -178,-178 0,-98.31 79.69,-178 178,-178z"/>
     </clipPath>
 </defs>
 <g id="Layer_x0020_1">
  <metadata id="CorelCorpID_0Corel-Layer"/>
  <g>
  </g>
  <g style="clip-path:url(#id0)">
   <g id="_2549756680016">
    <g>
     <path class="fil0" d="M178.23 258.95c-75.57,0 -136.85,-1.36 -136.85,-3.03 0,-0.67 10.01,-1.29 26.9,-1.79 0.69,1.08 1.91,1.79 3.29,1.79l19.44 0.14c1.65,0 5.39,-2.66 5.96,-4.11 22.35,-0.35 51.75,0.95 81.26,0.95 29.51,0 59.47,-0.07 81.82,0.28 0.57,1.45 1.97,1.92 3.62,1.92l21.23 0.82c1.37,0 2.59,-0.71 3.29,-1.79 16.89,0.5 26.89,1.12 26.89,1.79 0,1.67 -61.26,3.03 -136.85,3.03z"/>
     <g>
      <polygon class="fil1" points="67.82,204.79 161.42,162.99 151.7,143.98 147.07,133.62 60.96,189.43 "/>
      <polygon class="fil2" points="128.71,115.65 72.62,140.7 71.07,137.25 127.17,112.2 "/>
      <polygon class="fil2" points="139.51,139.84 83.42,164.89 81.88,161.44 137.97,136.39 "/>
      <polygon class="fil2" points="112,160.55 86.55,171.91 85.02,168.49 110.47,157.12 "/>
      <path class="fil3" d="M79.97 177.07l-9.57 4.27c-1.06,0.48 -2.3,0 -2.77,-1.06l-4.28 -9.57c-0.47,-1.06 0.01,-2.3 1.06,-2.78l9.57 -4.27c1.06,-0.47 2.31,0 2.78,1.06l4.27 9.57c0.48,1.06 0,2.31 -1.06,2.78zm-15.36 -8.69l0 0c-0.82,0.36 -1.18,1.32 -0.82,2.14l4.28 9.57c0.36,0.81 1.32,1.18 2.13,0.82l9.58 -4.28c0.81,-0.36 1.18,-1.32 0.81,-2.14l-4.27 -9.57c-0.36,-0.82 -1.32,-1.18 -2.14,-0.82l-9.57 4.28z"/>
      <path class="fil4" d="M79.33 169.25c0,0 -3.08,-3.11 -3.97,15.72 -0.83,17.76 -2.05,43.38 2.22,54.37 0.46,1.19 1.28,2.21 2.36,2.88 0.88,0.54 2.11,1.08 3.7,1.33 3.72,0.58 18.4,0.25 18.4,0.25 0,0 8.33,0 8.46,-6.85 0.1,-5.65 0,-17.93 0,-17.93l-31.17 -49.77z"/>
      <path class="fil5" d="M79.33 169.25c0,0 -3.08,-3.11 -3.97,15.72 -0.83,17.76 -2.05,43.38 2.22,54.37 0.46,1.19 1.28,2.21 2.36,2.88 0.88,0.54 2.11,1.08 3.7,1.33 3.72,0.58 18.4,0.25 18.4,0.25 0,0 8.33,0 8.46,-6.85 0.1,-5.65 0,-17.93 0,-17.93l-31.17 -49.77z"/>
      <path class="fil4" d="M248.95 169.25c0,0 -3.08,-3.11 -3.97,15.72 -0.83,17.76 -2.05,43.38 2.21,54.37 0.47,1.19 1.29,2.21 2.37,2.88 0.88,0.54 2.11,1.08 3.7,1.33 3.72,0.58 18.4,0.25 18.4,0.25 0,0 8.33,0 8.46,-6.85 0.1,-5.65 0,-17.93 0,-17.93l-31.17 -49.77z"/>
      <path class="fil5" d="M248.95 169.25c0,0 -3.08,-3.11 -3.97,15.72 -0.83,17.76 -2.05,43.38 2.21,54.37 0.47,1.19 1.29,2.21 2.37,2.88 0.88,0.54 2.11,1.08 3.7,1.33 3.72,0.58 18.4,0.25 18.4,0.25 0,0 8.33,0 8.46,-6.85 0.1,-5.65 0,-17.93 0,-17.93l-31.17 -49.77z"/>
      <path class="fil4" d="M294.3 136.69c0,0 -0.94,3.18 -2.86,3.51 -1.92,0.33 -17.07,0.8 -17.07,0.8l-1.49 3.05 -2.85 0 -2.08 -12.23 1.77 0.36c0.61,0.13 1.11,0.54 1.35,1.11l0 0c0.27,0.62 0.86,1.06 1.54,1.13l21.69 2.27z"/>
      <path class="fil6" d="M293.66 137.16c1.13,-0.09 1.95,-1.1 1.79,-2.22 -0.5,-3.5 -2.33,-10.28 -9.07,-11.29 -5.97,-0.89 -10.31,-0.62 -12.6,-0.32 -1.05,0.13 -1.56,1.09 -1.69,2.14 -0.57,4.8 -0.11,10.75 1.28,11.48 1.44,0.77 15.37,0.6 20.29,0.21z"/>
      <path class="fil4" d="M290.87 182c0,0 3.08,-3.11 3.97,15.71 0.83,17.77 2.05,43.39 -2.22,54.38 -0.46,1.18 -1.28,2.2 -2.36,2.87 -0.88,0.55 -2.11,1.09 -3.7,1.34 -3.72,0.58 -18.4,0.25 -18.4,0.25 0,0 -8.34,0 -8.46,-6.86 -0.11,-5.65 0,-17.92 0,-17.92l31.17 -49.77z"/>
      <path class="fil7" d="M290.87 182c0,0 -0.04,0.08 -0.14,0.25 -0.1,0.16 -0.24,0.39 -0.43,0.7 -0.39,0.63 -0.96,1.55 -1.7,2.74 -1.49,2.4 -3.66,5.89 -6.4,10.29 -5.5,8.8 -13.28,21.25 -22.4,35.85l0.02 -0.06c0,5.34 0,10.96 0,16.76 0.01,0.73 -0.03,1.46 0.09,2.17 0.11,0.71 0.34,1.41 0.69,2.04 0.7,1.27 1.93,2.21 3.29,2.77 2.75,1.24 5.88,0.87 8.94,0.98 3.22,0.03 6.41,0.04 9.55,-0.04 1.57,-0.06 3.14,-0.09 4.64,-0.36 0.75,-0.15 1.48,-0.38 2.17,-0.7 0.69,-0.32 1.35,-0.7 1.88,-1.21 0.54,-0.51 0.99,-1.13 1.29,-1.8 0.16,-0.33 0.26,-0.7 0.38,-1.05 0.12,-0.35 0.24,-0.7 0.35,-1.06 0.13,-0.35 0.22,-0.71 0.31,-1.07 0.08,-0.36 0.17,-0.72 0.26,-1.07 0.19,-0.72 0.31,-1.44 0.44,-2.16 0.29,-1.43 0.44,-2.87 0.64,-4.29 0.08,-0.71 0.14,-1.42 0.21,-2.12 0.06,-0.7 0.14,-1.4 0.18,-2.1 0.39,-5.57 0.44,-10.89 0.41,-15.86 -0.04,-4.97 -0.19,-9.6 -0.35,-13.83 -0.16,-4.22 -0.33,-8.04 -0.49,-11.4 -0.18,-3.35 -0.45,-6.23 -0.82,-8.56 -0.38,-2.33 -0.84,-4.14 -1.5,-5.2 -0.17,-0.26 -0.34,-0.47 -0.53,-0.61 -0.19,-0.14 -0.39,-0.19 -0.54,-0.17 -0.32,0.03 -0.44,0.19 -0.44,0.17 0,0 0.03,-0.03 0.09,-0.08 0.07,-0.04 0.18,-0.1 0.35,-0.12 0.16,-0.02 0.37,0.03 0.56,0.17 0.2,0.14 0.38,0.35 0.55,0.62 0.68,1.06 1.16,2.87 1.55,5.2 0.39,2.34 0.67,5.22 0.87,8.58 0.17,3.35 0.36,7.17 0.53,11.4 0.17,4.22 0.33,8.85 0.38,13.83 0.04,4.97 0,10.29 -0.39,15.88 -0.04,0.7 -0.11,1.4 -0.18,2.1 -0.07,0.71 -0.12,1.42 -0.21,2.13 -0.19,1.42 -0.34,2.86 -0.63,4.3 -0.13,0.73 -0.25,1.45 -0.45,2.17 -0.08,0.36 -0.17,0.72 -0.26,1.08 -0.08,0.37 -0.17,0.73 -0.3,1.08 -0.12,0.36 -0.24,0.72 -0.36,1.08 -0.12,0.35 -0.22,0.72 -0.38,1.06 -0.32,0.7 -0.78,1.35 -1.35,1.88 -0.56,0.54 -1.24,0.93 -1.95,1.26 -0.7,0.32 -1.45,0.56 -2.22,0.71 -1.54,0.29 -3.11,0.31 -4.68,0.37 -3.15,0.09 -6.34,0.08 -9.56,0.05 -1.54,-0.02 -3.07,-0.05 -4.59,-0.07 -1.54,-0.04 -3.05,-0.34 -4.46,-0.93 -1.39,-0.59 -2.66,-1.56 -3.4,-2.89 -0.37,-0.66 -0.6,-1.38 -0.71,-2.12 -0.13,-0.74 -0.09,-1.48 -0.09,-2.2 0,-5.81 0,-11.43 0,-16.77l0 -0.04 0.02 -0.02c9.16,-14.59 16.96,-27.02 22.48,-35.82 2.77,-4.38 4.96,-7.86 6.46,-10.24 0.75,-1.19 1.33,-2.1 1.73,-2.72 0.19,-0.3 0.34,-0.54 0.44,-0.7 0.11,-0.15 0.16,-0.23 0.16,-0.23z"/>
      <path class="fil4" d="M65.48 182c0,0 -3.08,-3.11 -3.96,15.71 -0.84,17.77 -2.06,43.39 2.21,54.38 0.46,1.18 1.28,2.2 2.37,2.87 0.88,0.55 2.11,1.09 3.7,1.34 3.71,0.58 18.4,0.25 18.4,0.25 0,0 8.33,0 8.46,-6.86 0.1,-5.65 0,-17.92 0,-17.92l-31.18 -49.77z"/>
      <path class="fil8" d="M293.73 165.78l-6.82 -4.48c-1.55,-6.97 -14.2,-21.43 -14.2,-21.43 0,0 -13.17,-31.76 -24.53,-39.25 -11.36,-7.49 -66.85,-6.54 -66.85,-6.54l-2.94 0.04c0,0 -58.8,-0.99 -70.16,6.5 -11.36,7.49 -24.53,39.25 -24.53,39.25 0,0 -12.65,14.46 -14.2,21.43l-6.82 4.48c-1.38,0.91 -2.19,2.47 -2.13,4.12 0.42,11.76 2.68,58.46 6.62,63.7 3.78,5.01 39.49,2.35 49.19,2.34 13.93,-0.02 57.28,-0.59 57.28,-0.59l63.71 -0.16c7.23,-0.77 46.98,4.09 51.89,-1.59 4.28,-4.97 6.2,-51.94 6.62,-63.7 0.06,-1.65 -0.75,-3.21 -2.13,-4.12z"/>
      <path class="fil7" d="M245.1 102.75c-0.29,-0.5 -0.81,-0.81 -1.39,-0.84l-64.52 -2.76 0 0 -0.51 -0.03 0 0.05 -66.03 2.74c-0.58,0.03 -1.1,0.34 -1.39,0.84l-16.82 29.36c-0.57,0.99 0.12,2.22 1.26,2.26 1.85,0.05 4.59,0.08 7.77,-0.05 5.17,-0.22 46.33,-0.12 68.05,-0.05l-0.01 0.05c0,0 2.52,-0.01 6.67,-0.03 4.15,0.02 6.67,0.03 6.67,0.03l-0.01 -0.05c21.72,-0.07 62.87,-0.17 68.04,0.05 3.35,0.14 6.21,0.1 8.05,0.04 1.02,-0.03 1.63,-1.13 1.13,-2.01l-16.96 -29.6z"/>
      <path class="fil4" d="M62.06 136.69c0,0 0.93,3.18 2.86,3.51 1.92,0.33 17.07,0.8 17.07,0.8l1.48 3.05 2.86 0 2.07 -12.23 -1.77 0.36c-0.6,0.13 -1.11,0.54 -1.35,1.11l0 0c-0.27,0.62 -0.86,1.06 -1.54,1.13l-21.68 2.27z"/>
      <polygon class="fil9" points="100.7,128.79 255.42,128.37 257.12,131.46 182.15,131.94 99.24,131.41 "/>
      <path class="fil4" d="M158.85 129.5c0,-1.7 -0.66,-6.48 -2.23,-7.76 -1.21,-0.99 -4.08,-1.28 -5.49,-1.36 -0.05,0 -0.09,-0.01 -0.14,0 -0.75,0 -5.76,0.14 -7.27,1.36 -1.57,1.28 -2.22,6.06 -2.22,7.76 0,0.01 0,0.03 0,0.05 0,1.05 0.85,1.9 1.91,1.9l6.33 0 0.87 0 6.33 0c1.05,0 1.91,-0.85 1.91,-1.9 0,-0.02 0,-0.04 0,-0.05z"/>
      <path class="fil5" d="M158.85 129.5c0,-1.7 -0.66,-6.48 -2.23,-7.76 -1.21,-0.99 -4.08,-1.28 -5.49,-1.36 -0.05,0 -0.09,-0.01 -0.14,0 -0.75,0 -5.76,0.14 -7.27,1.36 -1.57,1.28 -2.22,6.06 -2.22,7.76 0,0.01 0,0.03 0,0.05 0,1.05 0.85,1.9 1.91,1.9l6.33 0 0.87 0 6.33 0c1.05,0 1.91,-0.85 1.91,-1.9 0,-0.02 0,-0.04 0,-0.05z"/>
      <path class="fil4" d="M152.01 128.25c0.01,-2.77 -1.06,-10.61 -3.63,-12.7 -1.99,-1.61 -6.69,-2.09 -9,-2.23 -0.08,0 -0.15,0 -0.22,0 -1.23,0.01 -9.44,0.23 -11.9,2.23 -2.57,2.09 -3.64,9.93 -3.64,12.7 0,0.03 0,0.06 0,0.08 0,1.73 1.4,3.12 3.12,3.12l10.37 0 1.42 0 10.36 0c1.73,0 3.12,-1.39 3.12,-3.12 0,-0.02 0,-0.05 0,-0.08z"/>
      <path class="fil1" d="M124.88 209.28c0,0 -49.67,-6.53 -51.69,-6.77 -3.07,-0.38 -4.72,1.61 -4.72,3.98 0,1.67 -0.22,8.03 -0.35,11.65 -0.08,2.14 1,4.16 2.84,5.24 1.06,0.63 2.48,1.27 4.37,1.83 4.18,1.23 29.36,2.39 34.57,2.62 0.62,0.03 1.21,-0.18 1.67,-0.59 1.88,-1.65 6.91,-6.17 8.49,-8.41 5.19,-7.33 4.82,-9.55 4.82,-9.55l0 0 0 0zm-25.78 13.58l0 0 -24.02 -3.89 0.95 -13.15 32.62 2.96 -9.55 14.08z"/>
      <path class="fil1" d="M69.22 175.51c0,0 -2.46,7.47 13.17,10.95 15.83,3.52 39.26,9.9 39.26,9.9l-12.58 -8.97c0,0 -36.19,-6.03 -37.09,-11.57 -1.03,-6.33 0,-13.44 0,-13.44l-2.76 13.13z"/>
      <path class="fil4" d="M130.29 209.06c0,0 -0.06,-0.01 -0.17,-0.04 -0.13,-0.03 -0.29,-0.07 -0.5,-0.12 -0.45,-0.11 -1.09,-0.27 -1.9,-0.47 -1.65,-0.41 -4.04,-1 -7.01,-1.66 -5.93,-1.33 -14.17,-2.95 -23.33,-4.44 -4.58,-0.74 -8.95,-1.43 -12.93,-1.95 -1.99,-0.27 -3.88,-0.53 -5.66,-0.77 -1.76,-0.25 -3.42,-0.49 -4.93,-0.45 -1.5,0.03 -2.87,0.38 -3.84,1.09 -0.98,0.69 -1.66,1.5 -2.11,2.21 -0.91,1.45 -0.9,2.45 -0.95,2.43 0,0 0,-0.24 0.1,-0.67 0.1,-0.44 0.32,-1.08 0.76,-1.81 0.45,-0.73 1.12,-1.56 2.12,-2.27 0.98,-0.75 2.39,-1.12 3.92,-1.16 1.53,-0.05 3.19,0.18 4.96,0.42 1.77,0.23 3.67,0.49 5.66,0.75 3.99,0.51 8.36,1.19 12.94,1.93 9.16,1.49 17.41,3.14 23.33,4.52 2.97,0.68 5.35,1.3 7,1.73 0.8,0.22 1.44,0.4 1.88,0.53 0.21,0.05 0.37,0.1 0.49,0.14 0.11,0.03 0.17,0.05 0.17,0.06z"/>
      <path class="fil4" d="M67.23 189.74c0,0 -0.01,-0.09 -0.02,-0.28 -0.01,-0.21 -0.01,-0.47 -0.02,-0.8 -0.02,-0.69 -0.02,-1.69 -0.01,-2.93 0.03,-2.48 0.16,-5.9 0.5,-9.67 0.33,-3.77 0.8,-7.16 1.21,-9.61 0.21,-1.22 0.38,-2.21 0.52,-2.89 0.07,-0.31 0.12,-0.57 0.17,-0.78 0.04,-0.17 0.06,-0.27 0.07,-0.27 0.01,0 0,0.1 -0.02,0.28 -0.03,0.21 -0.07,0.47 -0.12,0.79 -0.11,0.72 -0.26,1.7 -0.44,2.9 -0.36,2.45 -0.8,5.84 -1.14,9.6 -0.33,3.76 -0.49,7.18 -0.57,9.65 -0.03,1.21 -0.06,2.21 -0.08,2.93 -0.01,0.33 -0.01,0.59 -0.02,0.8 -0.01,0.19 -0.02,0.28 -0.03,0.28z"/>
      <path class="fil4" d="M78.11 156.09c-0.02,0 -0.03,-0.21 -0.02,-0.6 -0.01,-0.2 0,-0.43 0.04,-0.7 0.03,-0.27 0.05,-0.59 0.11,-0.93 0.21,-1.36 0.66,-3.21 1.3,-5.21 0.63,-2.01 1.3,-3.79 1.82,-5.06 0.25,-0.64 0.47,-1.15 0.63,-1.5 0.16,-0.35 0.26,-0.54 0.27,-0.53 0.02,0 -0.05,0.21 -0.18,0.57 -0.15,0.41 -0.33,0.92 -0.56,1.52 -0.47,1.29 -1.11,3.08 -1.74,5.07 -0.63,2 -1.11,3.83 -1.36,5.17 -0.25,1.35 -0.26,2.2 -0.31,2.2z"/>
      <path class="fil10" d="M81.06 159.5c0,0 -8.15,-2.97 -9.19,3.34 -1.04,6.32 -0.94,12.61 0.43,14.82 1.37,2.21 13.95,5.22 13.95,5.22l21.76 4.78c0,0 1.56,0.33 0.62,-1.45 -1.06,-1.98 -6.82,-14.69 -10.15,-17.78 -6.15,-5.7 -17.42,-8.93 -17.42,-8.93z"/>
      <path class="fil1" d="M89.09 183.5c0,0 0.03,-14.89 -1.06,-16.54 -1.1,-1.65 -13.91,-7.59 -13.91,-7.59 0,0 1.24,-1.06 3.81,-0.57 2.56,0.49 6.82,1.65 10.36,3.46 3.53,1.82 9.2,4.42 11.31,7.42 0.92,1.31 2.85,4.44 4.68,7.82 2.39,4.41 4.65,9.13 4.65,9.39 0,0.54 0.13,1.03 -1.99,0.58 -4.9,-1.05 -17.85,-3.97 -17.85,-3.97z"/>
      <path class="fil10" d="M101.45 176.88c0,2.91 -2.36,5.28 -5.27,5.28 -2.92,0 -5.28,-2.37 -5.28,-5.28 0,-2.92 2.36,-5.28 5.28,-5.28 2.91,0 5.27,2.36 5.27,5.28z"/>
      <path class="fil4" d="M101.45 176.88c-0.03,0 0,-0.47 -0.21,-1.28 -0.2,-0.79 -0.74,-1.95 -1.93,-2.85 -0.58,-0.43 -1.33,-0.8 -2.18,-0.95 -0.85,-0.14 -1.8,-0.12 -2.71,0.23 -0.46,0.16 -0.9,0.4 -1.3,0.71 -0.42,0.29 -0.79,0.66 -1.09,1.09 -0.64,0.85 -0.99,1.93 -1,3.05 0.01,1.12 0.36,2.2 1,3.04 0.3,0.43 0.67,0.8 1.08,1.1 0.41,0.3 0.85,0.55 1.31,0.71 0.91,0.34 1.86,0.37 2.71,0.23 0.86,-0.15 1.6,-0.52 2.19,-0.96 1.18,-0.89 1.72,-2.06 1.92,-2.85 0.21,-0.8 0.18,-1.28 0.21,-1.27 0,0 0.07,0.47 -0.11,1.3 -0.18,0.81 -0.7,2.02 -1.92,2.96 -0.6,0.47 -1.36,0.86 -2.25,1.03 -0.88,0.15 -1.88,0.13 -2.83,-0.22 -0.48,-0.17 -0.94,-0.42 -1.37,-0.74 -0.43,-0.31 -0.82,-0.69 -1.14,-1.14 -0.67,-0.88 -1.05,-2.02 -1.06,-3.19 0.01,-1.17 0.39,-2.31 1.06,-3.19 0.32,-0.45 0.71,-0.84 1.14,-1.15 0.43,-0.31 0.89,-0.56 1.37,-0.73 0.95,-0.36 1.95,-0.38 2.83,-0.22 0.89,0.16 1.65,0.56 2.25,1.02 1.22,0.95 1.74,2.16 1.92,2.97 0.18,0.83 0.11,1.3 0.11,1.3z"/>
      <path class="fil2" d="M96.18 176.65c1.93,0 3.62,1.07 4.49,2.66 0.41,-0.73 0.64,-1.57 0.64,-2.47 0,-2.83 -2.3,-5.13 -5.13,-5.13 -2.84,0 -5.13,2.3 -5.13,5.13 0,0.9 0.23,1.74 0.63,2.47 0.87,-1.59 2.56,-2.66 4.5,-2.66z"/>
      <path class="fil11" d="M98.45 176.7c0,1.26 -1.02,2.28 -2.27,2.28 -1.26,0 -2.28,-1.02 -2.28,-2.28 0,-1.25 1.02,-2.27 2.28,-2.27 1.25,0 2.27,1.02 2.27,2.27z"/>
      <path class="fil4" d="M98.45 176.7c-0.02,0.01 -0.02,-0.2 -0.12,-0.54 -0.1,-0.33 -0.33,-0.82 -0.83,-1.19 -0.49,-0.37 -1.29,-0.58 -2.06,-0.29 -0.76,0.26 -1.42,1.08 -1.41,2.02 -0.01,0.95 0.65,1.76 1.41,2.03 0.77,0.29 1.57,0.08 2.06,-0.29 0.5,-0.37 0.73,-0.86 0.83,-1.19 0.1,-0.34 0.1,-0.55 0.12,-0.55 0.01,0 0.01,0.06 0.02,0.15 0,0.1 -0.01,0.24 -0.04,0.42 -0.07,0.36 -0.29,0.89 -0.82,1.31 -0.52,0.43 -1.39,0.68 -2.25,0.37 -0.85,-0.28 -1.6,-1.18 -1.58,-2.25 -0.02,-1.06 0.73,-1.96 1.58,-2.24 0.86,-0.31 1.73,-0.06 2.25,0.37 0.53,0.42 0.75,0.95 0.82,1.31 0.03,0.18 0.04,0.32 0.04,0.42 -0.01,0.09 -0.01,0.14 -0.02,0.14z"/>
      <path class="fil11" d="M98.17 173.13c-0.1,0.16 -0.57,0.02 -1.3,-0.02 -0.71,-0.06 -1.7,0.02 -2.61,0.5 -0.91,0.49 -1.53,1.27 -1.89,1.9 -0.36,0.62 -0.51,1.09 -0.7,1.08 -0.16,0 -0.34,-0.54 -0.13,-1.41 0.19,-0.85 0.87,-2.01 2.12,-2.69 1.26,-0.66 2.6,-0.57 3.41,-0.26 0.84,0.32 1.19,0.77 1.1,0.9z"/>
      <path class="fil11" d="M99.49 173.97c-0.29,0.2 -0.55,0.32 -0.6,0.27 -0.05,-0.05 0.06,-0.31 0.25,-0.61 0.19,-0.29 0.49,-0.44 0.63,-0.3 0.15,0.14 0.01,0.44 -0.28,0.64z"/>
      <path class="fil4" d="M179.26 160.28c0,0 -0.07,0.01 -0.2,0.01 -0.15,0 -0.36,0.01 -0.62,0.01 -0.55,0.01 -1.34,0.01 -2.35,0.02 -2.05,0.01 -5.01,0.02 -8.65,0.03 -7.32,0 -17.41,0.01 -28.55,0.01 -5.58,-0.01 -10.89,-0.02 -15.72,-0.03 -2.42,-0.01 -4.71,-0.01 -6.86,-0.02 -1.07,0 -2.11,-0.01 -3.11,-0.01 -0.99,-0.07 -1.93,0.21 -2.63,0.77 -1.4,1.17 -2.66,2.23 -3.77,3.16 -0.56,0.47 -1.08,0.9 -1.56,1.3 -0.5,0.39 -1.04,0.62 -1.54,0.74 -0.5,0.13 -0.97,0.14 -1.36,0.1 -0.39,-0.02 -0.72,-0.03 -0.99,-0.05 -0.26,-0.01 -0.47,-0.02 -0.62,-0.03 -0.13,-0.01 -0.2,-0.02 -0.2,-0.02 0,-0.01 0.07,-0.01 0.21,-0.01 0.15,0 0.35,0.01 0.61,0.01 0.27,0.01 0.6,0.02 0.99,0.03 0.4,0.02 0.85,0.01 1.34,-0.12 0.48,-0.13 1,-0.36 1.49,-0.74 0.47,-0.41 0.98,-0.84 1.53,-1.31 1.11,-0.95 2.37,-2.02 3.76,-3.21 0.73,-0.58 1.74,-0.88 2.74,-0.81 1,-0.01 2.04,-0.01 3.11,-0.01 2.15,0 4.44,0 6.86,0 4.83,0 10.14,0 15.72,0.01 11.14,0.02 21.23,0.05 28.55,0.06 3.64,0.03 6.6,0.04 8.65,0.06 1.01,0.01 1.8,0.01 2.35,0.02 0.26,0.01 0.47,0.01 0.62,0.01 0.13,0.01 0.2,0.01 0.2,0.02z"/>
      <path class="fil4" d="M281.35 229.7c-0.26,-0.56 -0.82,-0.95 -1.92,-0.83 -3.04,0.35 -34.95,1.06 -39.35,0 -4.39,-1.05 -19.05,-17.68 -25.25,-18.81 -5.2,-0.95 -30.49,-1.46 -38.51,-1.23 -8.02,-0.23 -33.31,0.28 -38.51,1.23 -6.2,1.13 -20.63,19.38 -25.02,20.44 -4.4,1.06 -36.53,-1.28 -39.58,-1.63 -1.09,-0.12 -1.65,0.27 -1.91,0.83 -0.54,1.14 0.34,2.46 1.6,2.5 6.8,0.19 33.04,0.49 37.95,0.4 5.15,-0.09 57.84,-1.06 66.67,-1.22 13.31,0.09 58.79,0.38 63.6,0.45 5.68,0.08 31.82,0.56 38.62,0.37 1.27,-0.04 2.15,-1.36 1.61,-2.5z"/>
      <path class="fil4" d="M167.38 101.32c0.26,0 1.05,4.59 4.74,4.5 3.7,-0.09 12.73,0 12.73,0l0 -5.73 -17.47 1.23z"/>
      <path class="fil6" d="M62.7 137.16c-1.13,-0.09 -1.95,-1.1 -1.79,-2.22 0.49,-3.5 2.33,-10.28 9.07,-11.29 5.97,-0.89 10.3,-0.62 12.59,-0.32 1.05,0.13 1.57,1.09 1.69,2.14 0.58,4.8 0.12,10.75 -1.27,11.48 -1.45,0.77 -15.37,0.6 -20.29,0.21z"/>
      <path class="fil4" d="M109.37 100.09c0.01,0 -0.01,0.04 -0.05,0.12 -0.04,0.08 -0.1,0.19 -0.16,0.32 -0.16,0.3 -0.38,0.71 -0.66,1.23 -0.59,1.09 -1.43,2.62 -2.46,4.51 -2.1,3.82 -4.99,9.06 -8.19,14.85 -2.62,4.7 -5.04,9.04 -6.97,12.5l-0.01 0.02 -0.01 0.01c-2.33,1.78 -4.24,3.25 -5.59,4.29 -0.65,0.49 -1.17,0.89 -1.55,1.17 -0.17,0.12 -0.3,0.22 -0.41,0.3 -0.09,0.07 -0.14,0.1 -0.14,0.09 -0.01,0 0.04,-0.04 0.12,-0.11 0.11,-0.09 0.24,-0.2 0.4,-0.33 0.36,-0.29 0.87,-0.7 1.51,-1.21 1.34,-1.06 3.23,-2.55 5.53,-4.36l-0.02 0.03c1.91,-3.47 4.31,-7.81 6.92,-12.53 3.22,-5.77 6.13,-11 8.26,-14.8 1.06,-1.88 1.92,-3.4 2.52,-4.47 0.3,-0.52 0.53,-0.92 0.7,-1.22 0.08,-0.12 0.14,-0.22 0.19,-0.31 0.04,-0.07 0.07,-0.1 0.07,-0.1z"/>
      <path class="fil4" d="M118.36 97.35c0.01,0.04 -0.46,0.19 -1.21,0.47 -0.74,0.29 -1.76,0.72 -2.73,1.44 -0.96,0.72 -1.66,1.58 -2.14,2.21 -0.48,0.64 -0.76,1.05 -0.79,1.03 -0.03,-0.01 0.2,-0.46 0.65,-1.13 0.45,-0.66 1.14,-1.56 2.13,-2.32 1,-0.74 2.06,-1.15 2.82,-1.4 0.77,-0.24 1.26,-0.33 1.27,-0.3z"/>
      <path class="fil1" d="M90.84 133.6l-0.47 0.33c-0.19,-0.24 11.25,23.74 16.63,30.06l3.54 -3c-7.63,-7.39 -13.34,-18.88 -19.7,-27.39z"/>
      <path class="fil4" d="M113.53 227.87c0,-0.01 0.1,-0.02 0.27,-0.12 0.17,-0.11 0.41,-0.28 0.71,-0.52 0.61,-0.47 1.48,-1.22 2.56,-2.21 2.18,-1.98 5.25,-4.92 8.95,-8.66 0.93,-0.93 1.89,-1.92 2.88,-2.96 1,-1.02 1.95,-2.19 3.16,-3.18 1.22,-0.98 2.63,-1.79 4.19,-2.35 1.56,-0.57 3.25,-0.91 4.99,-1.04 0.87,-0.07 1.76,-0.07 2.65,-0.08 0.89,-0.01 1.79,-0.01 2.7,-0.02 1.82,-0.02 3.68,-0.04 5.57,-0.06 3.78,-0.03 7.7,-0.07 11.71,-0.11 16.05,-0.13 30.59,-0.25 41.11,-0.34 5.26,-0.03 9.51,-0.05 12.46,-0.07 1.46,0 2.6,-0.01 3.39,-0.01 0.38,0.01 0.67,0.01 0.88,0.01 0.2,0 0.3,0.01 0.3,0.01 0,0 -0.1,0.01 -0.3,0.01 -0.21,0.01 -0.5,0.01 -0.88,0.02 -0.79,0.02 -1.93,0.03 -3.39,0.06 -2.95,0.04 -7.2,0.09 -12.46,0.15 -10.52,0.11 -25.05,0.25 -41.11,0.42 -4.01,0.03 -7.93,0.07 -11.71,0.1 -1.89,0.02 -3.75,0.03 -5.57,0.05 -0.91,0.01 -1.81,0.01 -2.7,0.02 -0.89,0.01 -1.77,0.01 -2.63,0.07 -1.73,0.13 -3.39,0.46 -4.93,1.02 -1.54,0.55 -2.94,1.35 -4.14,2.3 -1.19,0.97 -2.14,2.13 -3.15,3.16 -1,1.03 -1.96,2.02 -2.89,2.95 -3.72,3.72 -6.82,6.64 -9.01,8.6 -1.1,0.98 -1.97,1.72 -2.6,2.19 -0.3,0.23 -0.55,0.39 -0.73,0.49 -0.17,0.1 -0.28,0.1 -0.28,0.1z"/>
      <path class="fil12" d="M87.29 198.83c-1.5,-1.49 -3.02,-2.99 -4.81,-4.12 -1.79,-1.14 -4.36,-2.46 -5.98,-1.41 -0.82,0.9 -1.48,1.94 -1.96,3.05 -0.16,0.39 -0.29,0.83 -0.11,1.2 0.23,0.47 0.82,0.58 1.33,0.65 3.72,0.47 7.45,0.94 11.18,1.4 0.21,0.03 0.48,0.03 0.59,-0.16 0.11,-0.2 -0.07,-0.45 -0.24,-0.61z"/>
      <path class="fil1" d="M130.86 191.75c28.53,7.6 58.67,5.7 88,2.31 4.53,-0.52 9.45,-1.28 12.54,-4.63l-100.54 2.32z"/>
      <path class="fil13" d="M237.19 165.45c-11.14,-1.57 -34.57,-2.36 -57.83,-2.34 -23.25,-0.02 -46.68,0.77 -57.82,2.34 -3.5,0.49 -5.77,3.96 -4.77,7.35 0.01,0.04 0.02,0.08 0.03,0.12 1.22,4 6.03,16.77 13.68,18.69 3.55,0.88 23.56,1.74 44.91,1.91l0 0.03c1.32,0 2.65,0 3.97,-0.01 1.33,0.01 2.66,0.01 3.98,0.01l0 -0.03c21.35,-0.17 41.36,-1.03 44.91,-1.91 7.65,-1.92 12.46,-14.69 13.67,-18.69 0.02,-0.04 0.03,-0.08 0.04,-0.12 0.99,-3.39 -1.28,-6.86 -4.77,-7.35z"/>
      <path class="fil4" d="M240.01 189.91c0,0 -0.1,0.06 -0.29,0.17 -0.21,0.1 -0.5,0.25 -0.88,0.45 -0.39,0.19 -0.86,0.44 -1.42,0.72 -0.29,0.14 -0.59,0.31 -0.92,0.46 -0.33,0.14 -0.68,0.3 -1.06,0.47 -2.98,1.39 -7.43,3.11 -13.11,4.61 -5.69,1.48 -12.6,2.73 -20.34,3.39 -7.73,0.72 -16.28,0.88 -25.24,0.84 -8.96,-0.05 -17.51,-0.45 -25.22,-1.47 -7.7,-1 -14.54,-2.62 -20.12,-4.48 -5.58,-1.85 -9.88,-3.92 -12.77,-5.48 -0.73,-0.38 -1.35,-0.76 -1.9,-1.07 -0.55,-0.31 -1.01,-0.59 -1.37,-0.82 -0.36,-0.23 -0.64,-0.41 -0.84,-0.53 -0.18,-0.12 -0.27,-0.18 -0.27,-0.18 0,0 0.1,0.05 0.29,0.16 0.19,0.12 0.48,0.28 0.84,0.5 0.37,0.23 0.83,0.5 1.39,0.8 0.55,0.31 1.18,0.68 1.91,1.05 2.89,1.54 7.2,3.57 12.78,5.4 5.57,1.84 12.4,3.43 20.09,4.42 7.7,1 16.24,1.4 25.19,1.44 8.95,0.04 17.49,-0.11 25.22,-0.81 7.73,-0.65 14.63,-1.88 20.31,-3.33 5.68,-1.48 10.14,-3.17 13.12,-4.53 0.38,-0.16 0.73,-0.32 1.07,-0.46 0.33,-0.15 0.63,-0.31 0.91,-0.45 0.57,-0.27 1.05,-0.51 1.44,-0.7 0.38,-0.18 0.68,-0.33 0.88,-0.43 0.2,-0.09 0.31,-0.14 0.31,-0.14z"/>
      <path class="fil7" d="M241.38 171.67c0,0.07 -27.82,0.13 -62.13,0.13 -34.32,0 -62.13,-0.06 -62.13,-0.13 0,-0.07 27.81,-0.12 62.13,-0.12 34.31,0 62.13,0.05 62.13,0.12z"/>
      <path class="fil7" d="M241.38 167.89c0,0.07 -27.82,0.12 -62.13,0.12 -34.32,0 -62.13,-0.05 -62.13,-0.12 0,-0.07 27.81,-0.13 62.13,-0.13 34.31,0 62.13,0.06 62.13,0.13z"/>
      <path class="fil7" d="M223.8 164.1c0,0.07 -19.92,0.13 -44.47,0.13 -24.57,0 -44.48,-0.06 -44.48,-0.13 0,-0.07 19.91,-0.13 44.48,-0.13 24.55,0 44.47,0.06 44.47,0.13z"/>
      <path class="fil7" d="M241.38 175.51c0,0.07 -27.82,0.13 -62.13,0.13 -34.32,0 -62.13,-0.06 -62.13,-0.13 0,-0.07 27.81,-0.13 62.13,-0.13 34.31,0 62.13,0.06 62.13,0.13z"/>
      <path class="fil7" d="M238.62 179.35c0,0.07 -26.71,0.12 -59.66,0.12 -32.95,0 -59.66,-0.05 -59.66,-0.12 0,-0.07 26.71,-0.13 59.66,-0.13 32.95,0 59.66,0.06 59.66,0.13z"/>
      <path class="fil7" d="M237.41 183.18c0,0.07 -25.99,0.13 -58.04,0.13 -32.07,0 -58.06,-0.06 -58.06,-0.13 0,-0.07 25.99,-0.12 58.06,-0.12 32.05,0 58.04,0.05 58.04,0.12z"/>
      <path class="fil7" d="M234.42 187.02c0,0.07 -24.66,0.13 -55.06,0.13 -30.41,0 -55.06,-0.06 -55.06,-0.13 0,-0.07 24.65,-0.13 55.06,-0.13 30.4,0 55.06,0.06 55.06,0.13z"/>
      <path class="fil7" d="M230.69 190.86c0,0.07 -22.85,0.12 -51.01,0.12 -28.18,0 -51.02,-0.05 -51.02,-0.12 0,-0.07 22.84,-0.13 51.02,-0.13 28.16,0 51.01,0.06 51.01,0.13z"/>
      <path class="fil11" d="M84.44 230.62c0,0.01 0.01,0.02 0.01,0.03 0.24,0.83 -0.38,1.76 -1.25,1.74l-8.09 -0.14c-0.63,-0.02 -1.16,-0.64 -1.24,-1.27l-0.06 -0.45c-0.09,-0.8 0.65,-1.53 1.45,-1.47l8.03 0.59c0.54,0.04 1.01,0.45 1.15,0.97z"/>
      <path class="fil7" d="M235.47 225.9c0,0.08 -26.11,0.13 -58.3,0.13 -32.2,0 -58.3,-0.05 -58.3,-0.13 0,-0.07 26.1,-0.12 58.3,-0.12 32.19,0 58.3,0.05 58.3,0.12z"/>
      <polygon class="fil7" points="144.57,230.15 141.15,230.15 140.91,225.9 144.83,225.9 "/>
      <polygon class="fil7" points="176.55,230.15 173.13,230.15 172.89,225.9 176.81,225.9 "/>
      <polygon class="fil7" points="208.53,230.15 205.11,230.15 204.87,225.9 208.79,225.9 "/>
      <path class="fil7" d="M233.66 224.37c-6.18,-5.33 -14.52,-13.53 -18.81,-14.31 -5.2,-0.95 -30.49,-1.46 -38.51,-1.23 -8.02,-0.23 -33.31,0.28 -38.51,1.23 -3.99,0.73 -11.38,8.54 -17.32,14.31 37.72,0 75.43,0 113.15,0z"/>
      <path class="fil4" d="M69.07 221.57c-0.01,0 0.09,-0.08 0.27,-0.24 0.2,-0.16 0.47,-0.39 0.81,-0.67 0.72,-0.59 1.76,-1.43 3.05,-2.48l0.02 -0.02 0.04 0.01c4.01,0.49 10.06,1.23 16.82,2.06 3.28,0.42 6.4,0.81 9.18,1.17l0.02 0 0.02 0.01c3.36,1.85 6.21,3.41 8.24,4.53 0.99,0.55 1.77,0.99 2.33,1.3 0.26,0.15 0.46,0.27 0.62,0.36 0.14,0.08 0.2,0.13 0.2,0.13 0,0.01 -0.08,-0.03 -0.22,-0.1 -0.16,-0.08 -0.37,-0.19 -0.63,-0.32 -0.57,-0.3 -1.37,-0.72 -2.37,-1.25 -2.04,-1.1 -4.9,-2.63 -8.28,-4.45l0.04 0.01c-2.78,-0.34 -5.9,-0.73 -9.19,-1.14 -6.75,-0.86 -12.79,-1.64 -16.8,-2.15l0.06 -0.02c-1.31,1.02 -2.36,1.84 -3.1,2.42 -0.35,0.27 -0.63,0.48 -0.83,0.64 -0.2,0.14 -0.3,0.21 -0.3,0.2z"/>
      <path class="fil13" d="M110.69 212.28c0,0 1.66,-2.8 0,-3.5 -1.9,-0.81 -33.61,-4.62 -34.9,-4.73 -2.57,-0.23 -3.5,0.93 -4.11,3.95 -0.6,3.02 -1.93,10.51 0.61,12.69 2.53,2.18 6.52,3.14 14.37,3.62 7.86,0.49 11.99,0.75 15.86,-1.42 3.86,-2.18 8.17,-10.61 8.17,-10.61z"/>
      <path class="fil4" d="M109.07 187.39c-0.09,0.04 -0.53,-0.78 -1.3,-2.28 -0.77,-1.49 -1.86,-3.67 -3.28,-6.31 -0.72,-1.31 -1.5,-2.75 -2.41,-4.25 -0.91,-1.5 -1.91,-3.1 -3.12,-4.62 -0.62,-0.75 -1.25,-1.46 -2.03,-2.1 -0.77,-0.65 -1.62,-1.22 -2.53,-1.75 -0.92,-0.53 -1.9,-1.03 -2.88,-1.56 -0.99,-0.52 -1.99,-1.04 -3.01,-1.54 -2.04,-1.01 -4.07,-1.88 -6.1,-2.52 -1.01,-0.33 -2.02,-0.59 -3.01,-0.8 -1,-0.22 -1.97,-0.36 -2.89,-0.33 -0.91,0.03 -1.76,0.26 -2.42,0.73 -0.65,0.47 -1.11,1.17 -1.42,1.94 -0.31,0.77 -0.51,1.58 -0.69,2.37 -0.17,0.79 -0.34,1.58 -0.52,2.31 -0.69,2.91 -1.26,5.27 -1.65,6.92 -0.39,1.64 -0.61,2.54 -0.7,2.53 -0.09,-0.02 -0.03,-0.95 0.21,-2.62 0.24,-1.67 0.68,-4.07 1.27,-7.02 0.14,-0.74 0.28,-1.51 0.43,-2.32 0.16,-0.81 0.34,-1.67 0.67,-2.56 0.33,-0.87 0.87,-1.79 1.74,-2.45 0.87,-0.65 1.96,-0.95 3.03,-1 1.07,-0.05 2.14,0.1 3.18,0.31 1.04,0.21 2.09,0.48 3.15,0.8 2.1,0.65 4.21,1.55 6.28,2.57 1.04,0.51 2.05,1.04 3.04,1.57 0.99,0.53 1.96,1.03 2.92,1.6 0.95,0.56 1.86,1.19 2.68,1.89 0.82,0.69 1.55,1.52 2.17,2.31 1.24,1.62 2.22,3.26 3.1,4.81 0.89,1.54 1.63,3.02 2.31,4.37 1.33,2.71 2.3,4.95 2.93,6.51 0.63,1.57 0.93,2.46 0.85,2.49z"/>
      <path class="fil2" d="M80.45 171.43c2.47,0 4.61,1.37 5.73,3.39 0.51,-0.93 0.8,-2.01 0.8,-3.15 0,-3.61 -2.92,-6.53 -6.53,-6.53 -3.61,0 -6.54,2.92 -6.54,6.53 0,1.14 0.3,2.22 0.81,3.15 1.11,-2.02 3.26,-3.39 5.73,-3.39z"/>
      <path class="fil11" d="M83.27 171.46c0,1.55 -1.27,2.81 -2.82,2.81 -1.56,0 -2.82,-1.26 -2.82,-2.81 0,-1.56 1.26,-2.82 2.82,-2.82 1.55,0 2.82,1.26 2.82,2.82z"/>
      <path class="fil4" d="M83.27 171.46c-0.03,0 -0.02,-0.25 -0.14,-0.68 -0.12,-0.41 -0.4,-1.02 -1.03,-1.49 -0.61,-0.47 -1.61,-0.73 -2.57,-0.37 -0.96,0.33 -1.78,1.35 -1.77,2.54 -0.01,1.19 0.81,2.2 1.77,2.53 0.96,0.36 1.96,0.1 2.57,-0.36 0.63,-0.47 0.91,-1.08 1.03,-1.5 0.12,-0.42 0.11,-0.67 0.14,-0.67 0,0 0.01,0.06 0.01,0.18 0.01,0.12 -0.01,0.3 -0.06,0.52 -0.09,0.44 -0.36,1.09 -1.01,1.61 -0.63,0.51 -1.71,0.82 -2.76,0.44 -0.52,-0.18 -1.02,-0.53 -1.37,-1.01 -0.36,-0.48 -0.57,-1.1 -0.57,-1.74 0,-0.64 0.21,-1.26 0.57,-1.74 0.35,-0.49 0.85,-0.84 1.37,-1.02 1.05,-0.38 2.13,-0.07 2.76,0.45 0.65,0.51 0.92,1.17 1.01,1.61 0.05,0.22 0.07,0.4 0.06,0.52 0,0.12 -0.01,0.18 -0.01,0.18z"/>
      <path class="fil4" d="M86.98 171.67c-0.03,0.01 0.01,-0.58 -0.25,-1.58 -0.25,-0.98 -0.91,-2.42 -2.38,-3.54 -0.73,-0.54 -1.65,-1.01 -2.71,-1.19 -1.06,-0.18 -2.25,-0.15 -3.38,0.29 -0.57,0.19 -1.11,0.49 -1.62,0.87 -0.51,0.37 -0.97,0.83 -1.35,1.36 -0.79,1.05 -1.24,2.4 -1.25,3.79 0.01,1.39 0.46,2.74 1.25,3.79 0.38,0.53 0.84,0.99 1.35,1.37 0.5,0.37 1.05,0.67 1.62,0.87 1.13,0.43 2.32,0.47 3.38,0.29 1.06,-0.19 1.98,-0.65 2.71,-1.19 1.47,-1.12 2.13,-2.56 2.38,-3.54 0.26,-1 0.22,-1.59 0.25,-1.59 0.01,0 0.01,0.15 0.01,0.42 0,0.14 -0.01,0.31 -0.04,0.51 -0.03,0.2 -0.05,0.43 -0.12,0.68 -0.23,1 -0.87,2.49 -2.37,3.66 -0.75,0.57 -1.69,1.06 -2.79,1.26 -1.08,0.19 -2.31,0.16 -3.49,-0.28 -0.59,-0.2 -1.16,-0.51 -1.68,-0.9 -0.53,-0.38 -1.02,-0.86 -1.41,-1.41 -0.83,-1.09 -1.29,-2.49 -1.3,-3.94 0.01,-1.44 0.47,-2.84 1.3,-3.93 0.39,-0.56 0.88,-1.03 1.41,-1.41 0.52,-0.39 1.09,-0.7 1.68,-0.9 1.18,-0.44 2.41,-0.47 3.49,-0.28 1.1,0.2 2.04,0.69 2.79,1.26 1.5,1.16 2.14,2.65 2.37,3.66 0.07,0.25 0.09,0.48 0.12,0.68 0.03,0.2 0.04,0.37 0.04,0.5 0,0.28 0,0.42 -0.01,0.42z"/>
      <path class="fil11" d="M82.92 167.03c-0.1,0.17 -0.68,-0.04 -1.58,-0.13 -0.9,-0.1 -2.17,-0.02 -3.34,0.6 -1.16,0.62 -1.94,1.64 -2.36,2.43 -0.43,0.81 -0.58,1.4 -0.76,1.39 -0.16,0 -0.35,-0.67 -0.08,-1.71 0.26,-1.02 1.09,-2.42 2.6,-3.23 1.52,-0.8 3.14,-0.71 4.14,-0.36 1.02,0.36 1.46,0.89 1.38,1.01z"/>
      <path class="fil11" d="M84.55 168.07c-0.29,0.2 -0.57,0.3 -0.64,0.23 -0.07,-0.07 0.02,-0.35 0.21,-0.65 0.19,-0.29 0.51,-0.42 0.68,-0.26 0.17,0.16 0.04,0.48 -0.25,0.68z"/>
      <path class="fil4" d="M121.65 196.36c-0.09,0.34 -8.83,-1.58 -19.52,-4.28 -10.7,-2.7 -19.3,-5.16 -19.21,-5.5 0.08,-0.34 8.82,1.57 19.52,4.27 10.69,2.7 19.29,5.17 19.21,5.51z"/>
      <path class="fil4" d="M70.12 160.59c0,0 0,-0.05 0.01,-0.15 0.01,-0.1 0.03,-0.25 0.08,-0.44 0.08,-0.38 0.24,-0.94 0.6,-1.59 0.35,-0.65 0.94,-1.39 1.86,-1.94 0.22,-0.15 0.48,-0.25 0.73,-0.37 0.27,-0.08 0.55,-0.2 0.84,-0.26 0.3,-0.05 0.6,-0.14 0.92,-0.15 0.32,-0.02 0.64,-0.01 0.97,0.01 1.33,0.11 2.75,0.43 4.25,0.83 1.5,0.4 3.09,0.9 4.74,1.47 3.3,1.14 6.88,2.52 10.54,4.22 0.46,0.22 0.91,0.44 1.35,0.68 0.45,0.23 0.85,0.54 1.24,0.84 0.77,0.62 1.47,1.3 2.07,2.05 1.13,1.55 2.13,3.07 3.11,4.52 1.93,2.91 3.59,5.58 4.94,7.85 1.35,2.27 2.38,4.14 3.08,5.44 0.35,0.65 0.61,1.16 0.79,1.5 0.08,0.17 0.14,0.3 0.19,0.4 0.05,0.09 0.07,0.14 0.06,0.14 0,0 -0.03,-0.04 -0.08,-0.13 -0.06,-0.1 -0.13,-0.22 -0.22,-0.38 -0.2,-0.36 -0.48,-0.85 -0.83,-1.48 -0.72,-1.29 -1.78,-3.14 -3.14,-5.4 -1.37,-2.26 -3.04,-4.91 -4.99,-7.81 -0.97,-1.44 -1.99,-2.98 -3.1,-4.49 -0.59,-0.73 -1.28,-1.41 -2.04,-2.01 -0.38,-0.3 -0.77,-0.59 -1.2,-0.82 -0.44,-0.24 -0.89,-0.45 -1.34,-0.67 -3.64,-1.69 -7.22,-3.08 -10.51,-4.23 -1.64,-0.57 -3.22,-1.08 -4.71,-1.49 -1.49,-0.4 -2.91,-0.73 -4.21,-0.85 -0.32,-0.03 -0.64,-0.04 -0.95,-0.02 -0.31,0.01 -0.6,0.09 -0.89,0.14 -0.29,0.05 -0.55,0.16 -0.82,0.24 -0.25,0.12 -0.5,0.21 -0.72,0.35 -0.89,0.53 -1.48,1.24 -1.85,1.87 -0.36,0.63 -0.53,1.18 -0.63,1.55 -0.05,0.19 -0.08,0.34 -0.1,0.43 -0.02,0.1 -0.03,0.15 -0.04,0.15z"/>
      <path class="fil12" d="M68.1 163.35c-0.48,0.16 -3.13,1.81 -4.25,2.43 -1.12,0.63 -2.1,1.62 -2.42,2.86 -0.33,1.24 0.03,2.55 0.38,3.77 1.16,4.02 2.49,11.24 3.65,15.26 0.9,-7.28 1.88,-19.7 2.64,-24.32z"/>
      <path class="fil7" d="M104.37 221.15c-0.01,0.07 -7.54,-0.92 -16.82,-2.2 -9.29,-1.28 -16.8,-2.38 -16.79,-2.45 0.01,-0.07 7.54,0.91 16.82,2.2 9.28,1.28 16.8,2.38 16.79,2.45z"/>
      <path class="fil7" d="M101.97 222.99c0,0.01 -0.11,0 -0.32,-0.02 -0.23,-0.02 -0.53,-0.06 -0.9,-0.1 -0.81,-0.1 -1.94,-0.23 -3.32,-0.4 -2.82,-0.34 -6.68,-0.79 -10.93,-1.3 -4.28,-0.51 -8.14,-0.99 -10.94,-1.38 -1.39,-0.19 -2.52,-0.36 -3.3,-0.48 -0.37,-0.06 -0.67,-0.11 -0.9,-0.15 -0.2,-0.03 -0.31,-0.06 -0.31,-0.07 0,0 0.11,0 0.32,0.02 0.23,0.03 0.53,0.06 0.9,0.1 0.82,0.1 1.94,0.23 3.32,0.4 2.83,0.34 6.68,0.8 10.94,1.31 4.27,0.5 8.14,0.99 10.93,1.37 1.4,0.2 2.52,0.36 3.3,0.49 0.37,0.05 0.67,0.1 0.9,0.14 0.2,0.04 0.31,0.06 0.31,0.07z"/>
      <path class="fil7" d="M96.7 224.37c0.03,0.06 -1.23,-0.04 -3.22,-0.24 -1.99,-0.2 -4.74,-0.51 -7.77,-0.86 -3.04,-0.36 -5.78,-0.7 -7.77,-0.95 -0.96,-0.14 -1.75,-0.24 -2.35,-0.32 -0.55,-0.09 -0.86,-0.14 -0.85,-0.16 0,-0.01 0.31,0.01 0.86,0.06 0.6,0.06 1.4,0.14 2.36,0.24 2.03,0.23 4.76,0.54 7.78,0.88 3.01,0.36 5.74,0.69 7.76,0.93 0.97,0.12 1.76,0.22 2.35,0.3 0.55,0.07 0.88,0.12 0.85,0.12z"/>
      <path class="fil7" d="M106.13 219.05c-0.01,0.07 -7.94,-0.91 -17.7,-2.2 -9.77,-1.28 -17.68,-2.38 -17.67,-2.45 0.01,-0.07 7.93,0.92 17.7,2.2 9.76,1.29 17.68,2.38 17.67,2.45z"/>
      <path class="fil7" d="M107.5 217.11c-0.01,0.07 -8.22,-0.96 -18.33,-2.29 -10.11,-1.32 -18.3,-2.46 -18.29,-2.53 0.01,-0.07 8.22,0.95 18.33,2.28 10.11,1.33 18.3,2.47 18.29,2.54z"/>
      <path class="fil7" d="M109.04 214.81c-0.01,0.07 -8.44,-0.99 -18.84,-2.35 -10.39,-1.37 -18.81,-2.54 -18.8,-2.6 0.01,-0.07 8.44,0.98 18.84,2.34 10.39,1.37 18.81,2.54 18.8,2.61z"/>
      <path class="fil7" d="M110.23 212.46c-0.01,0.07 -8.6,-1 -19.17,-2.4 -10.59,-1.39 -19.16,-2.57 -19.15,-2.64 0.01,-0.07 8.6,1 19.18,2.39 10.58,1.39 19.15,2.58 19.14,2.65z"/>
      <path class="fil7" d="M111.42 210.11c0,0.07 -8.66,-1.01 -19.32,-2.41 -10.67,-1.41 -19.31,-2.6 -19.3,-2.67 0.01,-0.07 8.66,1.01 19.33,2.42 10.66,1.4 19.3,2.59 19.29,2.66z"/>
      <path class="fil7" d="M83.49 204.76c0.07,0.01 -0.77,4.23 -1.88,9.42 -1.1,5.19 -2.05,9.38 -2.12,9.36 -0.07,-0.01 0.77,-4.23 1.88,-9.42 1.1,-5.18 2.05,-9.38 2.12,-9.36z"/>
      <path class="fil7" d="M80.3 204.23c0.07,0.01 -0.77,4.23 -1.87,9.42 -1.11,5.18 -2.06,9.38 -2.13,9.36 -0.07,-0.01 0.77,-4.23 1.88,-9.42 1.1,-5.19 2.05,-9.38 2.12,-9.36z"/>
      <path class="fil7" d="M77.11 203.69c0.07,0.02 -0.72,4.01 -1.76,8.91 -1.05,4.91 -1.95,8.88 -2.02,8.86 -0.07,-0.01 0.72,-4 1.77,-8.91 1.04,-4.9 1.95,-8.87 2.01,-8.86z"/>
      <path class="fil7" d="M73.66 204.42c0.01,0 -0.01,0.19 -0.06,0.53 -0.07,0.4 -0.16,0.88 -0.26,1.45 -0.23,1.28 -0.53,2.94 -0.86,4.77 -0.33,1.87 -0.66,3.55 -0.93,4.76 -0.14,0.61 -0.25,1.1 -0.34,1.43 -0.08,0.34 -0.14,0.52 -0.16,0.52 -0.01,0 0.01,-0.2 0.06,-0.54 0.08,-0.39 0.16,-0.88 0.26,-1.44 0.23,-1.28 0.53,-2.94 0.86,-4.77 0.33,-1.87 0.66,-3.55 0.93,-4.76 0.14,-0.61 0.25,-1.1 0.34,-1.44 0.08,-0.33 0.14,-0.52 0.16,-0.51z"/>
      <path class="fil7" d="M87.17 205.42c0.07,0.01 -0.73,4.08 -1.8,9.09 -1.07,5 -1.99,9.05 -2.06,9.03 -0.06,-0.01 0.75,-4.08 1.81,-9.09 1.07,-5 1.99,-9.05 2.05,-9.03z"/>
      <path class="fil7" d="M90.84 206.16c0.07,0.01 -0.74,4.09 -1.81,9.11 -1.07,5.02 -1.99,9.08 -2.06,9.06 -0.07,-0.01 0.74,-4.09 1.81,-9.11 1.07,-5.02 1.99,-9.08 2.06,-9.06z"/>
      <path class="fil7" d="M94.62 206.36c0.07,0.01 -0.73,4.06 -1.79,9.03 -1.06,4.98 -1.97,9 -2.04,8.98 -0.07,-0.01 0.73,-4.05 1.79,-9.03 1.06,-4.98 1.97,-9 2.04,-8.98z"/>
      <path class="fil7" d="M98.34 206.85c0.07,0.01 -0.73,4.03 -1.78,8.98 -1.05,4.95 -1.96,8.95 -2.03,8.93 -0.07,-0.01 0.73,-4.03 1.78,-8.98 1.05,-4.95 1.96,-8.95 2.03,-8.93z"/>
      <path class="fil7" d="M102.01 207.57c0.07,0.02 -0.67,3.78 -1.66,8.41 -0.99,4.63 -1.84,8.37 -1.91,8.35 -0.07,-0.01 0.68,-3.78 1.66,-8.41 0.99,-4.62 1.84,-8.36 1.91,-8.35z"/>
      <path class="fil7" d="M105.77 207.88c0.07,0.02 -0.62,3.53 -1.55,7.86 -0.91,4.33 -1.72,7.82 -1.79,7.8 -0.06,-0.01 0.63,-3.53 1.55,-7.85 0.92,-4.33 1.72,-7.82 1.79,-7.81z"/>
      <path class="fil7" d="M109.46 208.48c0.07,0.02 -0.31,2.1 -0.86,4.65 -0.54,2.56 -1.04,4.61 -1.1,4.6 -0.07,-0.01 0.31,-2.1 0.86,-4.65 0.54,-2.55 1.04,-4.61 1.1,-4.6z"/>
      <path class="fil4" d="M230.86 222.45c0,0.06 -24.2,0.12 -54.05,0.12 -29.85,0 -54.05,-0.06 -54.05,-0.12 0,-0.08 24.2,-0.13 54.05,-0.13 29.85,0 54.05,0.05 54.05,0.13z"/>
      <path class="fil4" d="M228.74 220c0,0.07 -23.16,0.12 -51.73,0.12 -28.57,0 -51.72,-0.05 -51.72,-0.12 0,-0.07 23.15,-0.13 51.72,-0.13 28.57,0 51.73,0.06 51.73,0.13z"/>
      <path class="fil4" d="M225.52 217.49c0,0.07 -21.91,0.13 -48.92,0.13 -27.03,0 -48.93,-0.06 -48.93,-0.13 0,-0.07 21.9,-0.12 48.93,-0.12 27.01,0 48.92,0.05 48.92,0.12z"/>
      <path class="fil4" d="M223.38 214.99c0,0.07 -20.87,0.13 -46.6,0.13 -25.75,0 -46.61,-0.06 -46.61,-0.13 0,-0.07 20.86,-0.12 46.61,-0.12 25.73,0 46.6,0.05 46.6,0.12z"/>
      <path class="fil4" d="M219.8 212.61c0,0.07 -19.35,0.13 -43.2,0.13 -23.87,0 -43.21,-0.06 -43.21,-0.13 0,-0.07 19.34,-0.13 43.21,-0.13 23.85,0 43.2,0.06 43.2,0.13z"/>
      <path class="fil14" d="M215.75 210.22c0,0.07 -17.48,0.13 -39.03,0.13 -21.57,0 -39.04,-0.06 -39.04,-0.13 0,-0.07 17.47,-0.12 39.04,-0.12 21.55,0 39.03,0.05 39.03,0.12z"/>
      <path class="fil1" d="M184.85 134.32l-90.53 -0.14c0,0 3.75,4.48 10.65,4.44 6.29,-0.04 67.52,-0.01 78.27,0l0 0c0,0 0.26,0 0.75,0 0.56,0 0.86,0 0.86,0l0 0c9.92,-0.01 62.61,-0.04 68.06,0 6.01,0.04 8.96,-4.3 8.96,-4.3l-77.02 0z"/>
      <path class="fil4" d="M262.19 132.39l-17.12 -29.69c-0.27,-0.47 -0.76,-0.76 -1.29,-0.79l-58.93 -2.52 -5.66 -0.24c-0.67,-0.03 -1.35,-0.03 -2.03,0l-5.65 0.24 -58.93 2.52c-0.54,0.03 -1.02,0.32 -1.29,0.79l-17.13 29.69c-0.55,0.95 0.03,2.17 1.13,2.33 0.24,0.04 0.5,0.07 0.78,0.1 1.49,0.17 61.27,0.06 82.11,0.02 20.84,0.04 80.62,0.15 82.11,-0.02 0.28,-0.03 0.54,-0.06 0.78,-0.1 1.09,-0.16 1.67,-1.37 1.12,-2.33zm-7.88 -1.25l0 0 -76.13 0.52 -76.13 -0.52c-1.2,-0.01 -1.95,-1.31 -1.35,-2.35 3.28,-5.68 11.53,-19.89 12.85,-21.53 2.39,-2.98 39.46,-3.37 59.17,-3.37 0.12,0.03 0.24,0.05 0.37,0.05 1.15,-0.01 2.9,-0.02 5.09,-0.03 2.19,0.01 3.93,0.02 5.09,0.03 0.12,0 0.25,-0.02 0.36,-0.05 19.72,0 56.78,0.39 59.18,3.37 1.32,1.64 9.56,15.85 12.84,21.53 0.6,1.04 -0.14,2.34 -1.34,2.35z"/>
      <path class="fil4" d="M197.51 129.5c0,-1.7 0.65,-6.48 2.22,-7.76 1.21,-0.99 4.08,-1.28 5.5,-1.36 0.04,0 0.09,-0.01 0.13,0 0.76,0 5.77,0.14 7.27,1.36 1.57,1.28 2.23,6.06 2.22,7.76 0,0.01 0,0.03 0,0.05 0,1.05 -0.85,1.9 -1.9,1.9l-6.33 0 -0.87 0 -6.33 0c-1.06,0 -1.91,-0.85 -1.91,-1.9 0,-0.02 0,-0.04 0,-0.05z"/>
      <path class="fil1" d="M197.51 129.5c0,-1.7 0.65,-6.48 2.22,-7.76 1.21,-0.99 4.08,-1.28 5.5,-1.36 0.04,0 0.09,-0.01 0.13,0 0.76,0 5.77,0.14 7.27,1.36 1.57,1.28 2.23,6.06 2.22,7.76 0,0.01 0,0.03 0,0.05 0,1.05 -0.85,1.9 -1.9,1.9l-6.33 0 -0.87 0 -6.33 0c-1.06,0 -1.91,-0.85 -1.91,-1.9 0,-0.02 0,-0.04 0,-0.05z"/>
      <path class="fil4" d="M204.34 128.25c0,-2.77 1.07,-10.61 3.64,-12.7 1.98,-1.61 6.68,-2.09 9,-2.23 0.07,0 0.15,0 0.22,0 1.23,0.01 9.44,0.23 11.9,2.23 2.57,2.09 3.64,9.93 3.64,12.7 0,0.03 0,0.06 0,0.08 -0.01,1.73 -1.4,3.12 -3.13,3.12l-10.36 0 -1.42 0 -10.37 0c-1.72,0 -3.12,-1.39 -3.12,-3.12 0,-0.02 0,-0.05 0,-0.08z"/>
      <path class="fil1" d="M231.47 209.28l0 0c0,0 -0.36,2.22 4.82,9.55 1.59,2.24 6.62,6.76 8.5,8.41 0.45,0.41 1.05,0.62 1.66,0.59 5.22,-0.23 30.4,-1.39 34.58,-2.62 1.89,-0.56 3.31,-1.2 4.37,-1.83 1.84,-1.08 2.92,-3.1 2.84,-5.24 -0.13,-3.62 -0.36,-9.98 -0.36,-11.65 0,-2.37 -1.64,-4.36 -4.71,-3.98 -2.02,0.24 -51.7,6.77 -51.7,6.77l0 0zm16.24 -0.5l0 0 32.62 -2.96 0.94 13.15 -24.01 3.89 -9.55 -14.08z"/>
      <path class="fil1" d="M287.13 175.51c0,0 2.46,7.47 -13.17,10.95 -15.83,3.52 -39.25,9.9 -39.25,9.9l12.58 -8.97c0,0 36.18,-6.03 37.08,-11.57 1.03,-6.33 0.01,-13.44 0.01,-13.44l2.75 13.13z"/>
      <path class="fil4" d="M226.07 209.06c0,-0.01 0.05,-0.03 0.16,-0.06 0.13,-0.04 0.29,-0.09 0.49,-0.14 0.45,-0.13 1.08,-0.31 1.89,-0.53 1.65,-0.43 4.03,-1.05 6.99,-1.73 5.93,-1.38 14.17,-3.03 23.33,-4.52 4.59,-0.74 8.95,-1.42 12.95,-1.93 1.99,-0.26 3.88,-0.52 5.66,-0.75 1.77,-0.24 3.43,-0.47 4.96,-0.42 1.53,0.04 2.93,0.41 3.92,1.16 0.99,0.71 1.67,1.54 2.11,2.27 0.45,0.73 0.66,1.37 0.76,1.81 0.1,0.43 0.1,0.67 0.1,0.67 -0.04,0.02 -0.03,-0.98 -0.94,-2.43 -0.45,-0.71 -1.13,-1.52 -2.11,-2.21 -0.97,-0.71 -2.34,-1.06 -3.85,-1.09 -1.51,-0.04 -3.16,0.2 -4.93,0.45 -1.77,0.24 -3.66,0.5 -5.65,0.77 -3.99,0.52 -8.36,1.21 -12.94,1.95 -9.15,1.49 -17.4,3.11 -23.33,4.44 -2.97,0.66 -5.35,1.25 -7.01,1.66 -0.81,0.2 -1.45,0.36 -1.89,0.47 -0.21,0.05 -0.38,0.09 -0.5,0.12 -0.11,0.03 -0.17,0.04 -0.17,0.04z"/>
      <path class="fil4" d="M289.12 189.74c-0.01,0 -0.02,-0.09 -0.02,-0.28 -0.01,-0.21 -0.02,-0.47 -0.03,-0.8 -0.02,-0.72 -0.04,-1.72 -0.07,-2.93 -0.08,-2.47 -0.24,-5.89 -0.57,-9.65 -0.34,-3.76 -0.78,-7.15 -1.14,-9.6 -0.19,-1.2 -0.34,-2.18 -0.45,-2.9 -0.04,-0.32 -0.08,-0.58 -0.11,-0.79 -0.03,-0.18 -0.03,-0.28 -0.03,-0.28 0.01,0 0.04,0.1 0.08,0.27 0.04,0.21 0.09,0.47 0.16,0.78 0.14,0.68 0.32,1.67 0.52,2.89 0.41,2.45 0.88,5.84 1.22,9.61 0.33,3.77 0.47,7.19 0.49,9.67 0.02,1.24 0.02,2.24 0,2.93 -0.01,0.33 -0.02,0.59 -0.02,0.8 -0.01,0.19 -0.02,0.28 -0.03,0.28z"/>
      <path class="fil4" d="M278.25 156.09c-0.05,0 -0.06,-0.85 -0.31,-2.2 -0.25,-1.34 -0.73,-3.17 -1.36,-5.17 -0.63,-1.99 -1.28,-3.78 -1.75,-5.07 -0.22,-0.6 -0.41,-1.11 -0.56,-1.52 -0.13,-0.36 -0.19,-0.57 -0.18,-0.57 0.02,-0.01 0.12,0.18 0.28,0.53 0.15,0.35 0.37,0.86 0.63,1.5 0.51,1.27 1.19,3.05 1.82,5.06 0.63,2 1.09,3.85 1.29,5.21 0.07,0.34 0.08,0.66 0.12,0.93 0.03,0.27 0.04,0.5 0.04,0.7 0,0.39 0,0.6 -0.02,0.6z"/>
      <path class="fil10" d="M275.3 159.5c0,0 8.15,-2.97 9.19,3.34 1.04,6.32 0.93,12.61 -0.44,14.82 -1.36,2.21 -13.94,5.22 -13.94,5.22l-21.76 4.78c0,0 -1.56,0.33 -0.62,-1.45 1.05,-1.98 6.82,-14.69 10.15,-17.78 6.14,-5.7 17.42,-8.93 17.42,-8.93z"/>
      <path class="fil1" d="M267.27 183.5c0,0 -0.04,-14.89 1.06,-16.54 1.09,-1.65 13.91,-7.59 13.91,-7.59 0,0 -1.25,-1.06 -3.81,-0.57 -2.56,0.49 -6.82,1.65 -10.36,3.46 -3.54,1.82 -9.2,4.42 -11.32,7.42 -0.92,1.31 -2.84,4.44 -4.68,7.82 -2.38,4.41 -4.64,9.13 -4.64,9.39 0,0.54 -0.13,1.03 1.98,0.58 4.9,-1.05 17.86,-3.97 17.86,-3.97z"/>
      <path class="fil10" d="M254.9 176.88c0,2.91 2.37,5.28 5.28,5.28 2.92,0 5.28,-2.37 5.28,-5.28 0,-2.92 -2.36,-5.28 -5.28,-5.28 -2.91,0 -5.28,2.36 -5.28,5.28z"/>
      <path class="fil4" d="M254.9 176.88c0,0 -0.06,-0.47 0.12,-1.3 0.18,-0.81 0.7,-2.02 1.91,-2.97 0.61,-0.46 1.37,-0.86 2.26,-1.02 0.88,-0.16 1.87,-0.14 2.83,0.22 0.48,0.17 0.94,0.42 1.37,0.73 0.43,0.31 0.82,0.7 1.14,1.15 0.67,0.88 1.04,2.02 1.05,3.19 -0.01,1.17 -0.38,2.31 -1.05,3.19 -0.32,0.45 -0.71,0.83 -1.14,1.14 -0.43,0.32 -0.89,0.57 -1.37,0.74 -0.96,0.35 -1.95,0.37 -2.83,0.22 -0.89,-0.17 -1.66,-0.56 -2.26,-1.03 -1.21,-0.94 -1.73,-2.15 -1.91,-2.96 -0.18,-0.83 -0.12,-1.3 -0.12,-1.3 0.04,-0.01 0.01,0.47 0.22,1.27 0.2,0.79 0.73,1.96 1.92,2.85 0.59,0.44 1.33,0.81 2.19,0.96 0.84,0.14 1.8,0.11 2.71,-0.23 0.46,-0.16 0.9,-0.41 1.3,-0.71 0.41,-0.3 0.78,-0.67 1.09,-1.1 0.63,-0.84 0.99,-1.92 1,-3.04 -0.01,-1.12 -0.37,-2.2 -1,-3.05 -0.31,-0.43 -0.68,-0.8 -1.09,-1.09 -0.4,-0.31 -0.84,-0.55 -1.3,-0.71 -0.91,-0.35 -1.87,-0.37 -2.71,-0.23 -0.86,0.15 -1.6,0.52 -2.19,0.95 -1.19,0.9 -1.72,2.06 -1.92,2.85 -0.21,0.81 -0.18,1.28 -0.22,1.28z"/>
      <path class="fil2" d="M260.18 176.65c-1.94,0 -3.62,1.07 -4.5,2.66 -0.4,-0.73 -0.63,-1.57 -0.63,-2.47 0,-2.83 2.3,-5.13 5.13,-5.13 2.83,0 5.13,2.3 5.13,5.13 0,0.9 -0.23,1.74 -0.63,2.47 -0.88,-1.59 -2.56,-2.66 -4.5,-2.66z"/>
      <path class="fil11" d="M257.9 176.7c0,1.26 1.02,2.28 2.28,2.28 1.26,0 2.27,-1.02 2.27,-2.28 0,-1.25 -1.01,-2.27 -2.27,-2.27 -1.26,0 -2.28,1.02 -2.28,2.27z"/>
      <path class="fil4" d="M257.9 176.7c0,0 -0.01,-0.05 -0.01,-0.14 -0.01,-0.1 0,-0.24 0.04,-0.42 0.07,-0.36 0.29,-0.89 0.82,-1.31 0.51,-0.43 1.39,-0.68 2.24,-0.37 0.86,0.28 1.6,1.18 1.59,2.24 0.01,1.07 -0.73,1.97 -1.59,2.25 -0.85,0.31 -1.73,0.06 -2.24,-0.37 -0.53,-0.42 -0.75,-0.95 -0.82,-1.31 -0.04,-0.18 -0.05,-0.32 -0.04,-0.42 0,-0.09 0.01,-0.15 0.01,-0.15 0.03,0 0.03,0.21 0.12,0.55 0.1,0.33 0.33,0.82 0.84,1.19 0.49,0.37 1.29,0.58 2.06,0.29 0.76,-0.27 1.42,-1.08 1.41,-2.03 0.01,-0.94 -0.65,-1.76 -1.41,-2.02 -0.77,-0.29 -1.57,-0.08 -2.06,0.29 -0.51,0.37 -0.74,0.86 -0.84,1.19 -0.09,0.34 -0.09,0.55 -0.12,0.54z"/>
      <path class="fil11" d="M258.19 173.13c-0.09,-0.13 0.26,-0.58 1.09,-0.9 0.82,-0.31 2.16,-0.4 3.42,0.26 1.25,0.68 1.92,1.84 2.12,2.69 0.2,0.87 0.02,1.41 -0.14,1.41 -0.18,0.01 -0.33,-0.46 -0.7,-1.08 -0.35,-0.63 -0.97,-1.41 -1.88,-1.9 -0.91,-0.48 -1.91,-0.56 -2.62,-0.5 -0.72,0.04 -1.2,0.18 -1.29,0.02z"/>
      <path class="fil11" d="M256.87 173.97c-0.29,-0.2 -0.43,-0.5 -0.29,-0.64 0.15,-0.14 0.44,0.01 0.63,0.3 0.19,0.3 0.3,0.56 0.26,0.61 -0.05,0.05 -0.31,-0.07 -0.6,-0.27z"/>
      <path class="fil4" d="M177.09 160.28c0,-0.01 0.07,-0.01 0.21,-0.02 0.15,0 0.35,0 0.61,-0.01 0.55,-0.01 1.34,-0.01 2.35,-0.02 2.06,-0.02 5.01,-0.03 8.66,-0.06 7.32,-0.01 17.4,-0.04 28.55,-0.06 5.57,-0.01 10.88,-0.01 15.72,-0.01 2.41,0 4.71,0 6.85,0 1.08,0 2.12,0 3.11,0.01 1.01,-0.07 2.02,0.23 2.75,0.81 1.39,1.19 2.65,2.26 3.75,3.21 0.55,0.47 1.07,0.9 1.54,1.31 0.48,0.38 1,0.61 1.49,0.74 0.49,0.13 0.94,0.14 1.33,0.12 0.39,-0.01 0.72,-0.02 1,-0.03 0.26,0 0.46,-0.01 0.61,-0.01 0.14,0 0.21,0 0.21,0.01 0,0 -0.07,0.01 -0.21,0.02 -0.15,0.01 -0.35,0.02 -0.61,0.03 -0.27,0.02 -0.61,0.03 -0.99,0.05 -0.39,0.04 -0.86,0.03 -1.36,-0.1 -0.51,-0.12 -1.04,-0.35 -1.55,-0.74 -0.47,-0.4 -0.99,-0.83 -1.55,-1.3 -1.11,-0.93 -2.38,-1.99 -3.77,-3.16 -0.71,-0.56 -1.65,-0.84 -2.64,-0.77 -0.99,0 -2.03,0.01 -3.11,0.01 -2.14,0.01 -4.44,0.01 -6.85,0.02 -4.84,0.01 -10.15,0.02 -15.72,0.03 -11.15,0 -21.23,-0.01 -28.55,-0.01 -3.65,-0.01 -6.6,-0.02 -8.66,-0.03 -1.01,-0.01 -1.8,-0.01 -2.35,-0.02 -0.26,0 -0.46,-0.01 -0.61,-0.01 -0.14,0 -0.21,-0.01 -0.21,-0.01z"/>
      <path class="fil4" d="M75.01 229.7c0.26,-0.56 0.81,-0.95 1.92,-0.83 3.04,0.35 34.95,1.06 39.34,0 4.4,-1.05 19.05,-17.68 25.25,-18.81 5.2,-0.95 30.49,-1.46 38.51,-1.23 8.02,-0.23 33.31,0.28 38.51,1.23 6.2,1.13 20.63,19.38 25.03,20.44 4.4,1.06 36.53,-1.28 39.57,-1.63 1.1,-0.12 1.66,0.27 1.91,0.83 0.55,1.14 -0.33,2.46 -1.6,2.5 -6.8,0.19 -33.04,0.49 -37.95,0.4 -5.15,-0.09 -57.84,-1.06 -66.66,-1.22 -13.31,0.09 -58.79,0.38 -63.61,0.45 -5.68,0.08 -31.82,0.56 -38.62,0.37 -1.26,-0.04 -2.14,-1.36 -1.6,-2.5z"/>
      <path class="fil4" d="M188.98 101.32c-0.26,0 -0.05,4.58 -3.75,4.5 -3.7,-0.09 -10.66,0 -10.66,0l-3.06 -5.73 17.47 1.23z"/>
      <path class="fil4" d="M187.34 107.4c0.52,0 1,0.25 1.3,0.67 0.88,1.2 2.65,3.69 2.69,4.47 0.07,1.04 -0.52,1.88 -1.59,2.01 -1.01,0.12 -20.52,0.01 -22.53,0 -0.13,0 -0.25,-0.01 -0.38,-0.04 -0.53,-0.14 -1.91,-0.57 -1.81,-1.52 0.1,-0.86 1.6,-3.47 2.39,-4.8 0.29,-0.49 0.81,-0.79 1.38,-0.79l18.55 0z"/>
      <path class="fil4" d="M246.98 100.09c0.01,0 0.03,0.03 0.07,0.1 0.06,0.09 0.12,0.19 0.19,0.31 0.17,0.3 0.41,0.7 0.7,1.22 0.61,1.07 1.47,2.59 2.53,4.47 2.12,3.8 5.04,9.03 8.26,14.8 2.6,4.72 5,9.06 6.92,12.53l-0.03 -0.03c2.3,1.81 4.2,3.3 5.53,4.36 0.65,0.51 1.15,0.92 1.52,1.21 0.16,0.13 0.29,0.24 0.39,0.33 0.09,0.07 0.13,0.11 0.13,0.11 -0.01,0.01 -0.05,-0.02 -0.15,-0.09 -0.1,-0.08 -0.24,-0.18 -0.41,-0.3 -0.37,-0.28 -0.89,-0.68 -1.55,-1.17 -1.35,-1.04 -3.26,-2.51 -5.58,-4.29l-0.02 -0.01 -0.01 -0.02c-1.92,-3.46 -4.34,-7.8 -6.96,-12.5 -3.2,-5.79 -6.09,-11.03 -8.2,-14.85 -1.03,-1.89 -1.86,-3.42 -2.46,-4.51 -0.27,-0.52 -0.49,-0.93 -0.65,-1.23 -0.07,-0.13 -0.12,-0.24 -0.17,-0.32 -0.03,-0.08 -0.05,-0.12 -0.05,-0.12z"/>
      <path class="fil1" d="M265.52 133.6l0.47 0.33c0.19,-0.24 -11.25,23.74 -16.64,30.06l-3.54 -3c7.64,-7.39 13.34,-18.88 19.71,-27.39z"/>
      <path class="fil4" d="M242.83 227.87c0,0 -0.11,0 -0.29,-0.1 -0.17,-0.1 -0.42,-0.26 -0.73,-0.49 -0.62,-0.47 -1.49,-1.21 -2.59,-2.19 -2.2,-1.96 -5.3,-4.88 -9.01,-8.6 -0.93,-0.93 -1.9,-1.92 -2.89,-2.95 -1.01,-1.03 -1.96,-2.19 -3.16,-3.16 -1.2,-0.95 -2.59,-1.75 -4.13,-2.3 -1.54,-0.56 -3.21,-0.89 -4.93,-1.02 -0.87,-0.06 -1.74,-0.06 -2.63,-0.07 -0.89,-0.01 -1.79,-0.01 -2.7,-0.02 -1.82,-0.02 -3.68,-0.03 -5.57,-0.05 -3.79,-0.03 -7.71,-0.07 -11.72,-0.1 -16.05,-0.17 -30.58,-0.31 -41.11,-0.42 -5.25,-0.06 -9.5,-0.11 -12.46,-0.15 -1.46,-0.03 -2.6,-0.04 -3.38,-0.06 -0.38,-0.01 -0.68,-0.01 -0.88,-0.02 -0.2,0 -0.3,-0.01 -0.3,-0.01 0,0 0.1,-0.01 0.3,-0.01 0.21,0 0.5,0 0.88,-0.01 0.78,0 1.92,0.01 3.39,0.01 2.95,0.02 7.2,0.04 12.45,0.07 10.53,0.09 25.06,0.21 41.11,0.34 4.02,0.04 7.93,0.08 11.72,0.11 1.89,0.02 3.75,0.04 5.57,0.06 0.91,0.01 1.81,0.01 2.7,0.02 0.89,0.01 1.77,0.01 2.64,0.08 1.75,0.13 3.43,0.47 4.99,1.04 1.56,0.56 2.98,1.37 4.19,2.35 1.22,0.99 2.16,2.16 3.17,3.18 0.99,1.04 1.95,2.03 2.87,2.96 3.7,3.74 6.78,6.68 8.95,8.66 1.09,0.99 1.95,1.74 2.56,2.21 0.31,0.24 0.55,0.41 0.72,0.52 0.17,0.1 0.27,0.11 0.27,0.12z"/>
      <path class="fil12" d="M269.06 198.83c1.51,-1.49 3.03,-2.99 4.81,-4.12 1.79,-1.14 4.36,-2.46 5.98,-1.41 0.82,0.9 1.49,1.94 1.96,3.05 0.16,0.39 0.3,0.83 0.12,1.2 -0.23,0.47 -0.82,0.58 -1.33,0.65 -3.73,0.47 -7.45,0.94 -11.18,1.4 -0.22,0.03 -0.49,0.03 -0.59,-0.16 -0.12,-0.2 0.06,-0.45 0.23,-0.61z"/>
      <path class="fil11" d="M271.91 230.62c0,0.01 0,0.02 -0.01,0.03 -0.23,0.83 0.39,1.76 1.25,1.74l8.1 -0.14c0.63,-0.02 1.16,-0.64 1.23,-1.27l0.06 -0.45c0.1,-0.8 -0.64,-1.53 -1.44,-1.47l-8.03 0.59c-0.54,0.04 -1.01,0.45 -1.16,0.97z"/>
      <path class="fil7" d="M120.89 225.9c0,-0.07 26.1,-0.12 58.29,-0.12 32.21,0 58.31,0.05 58.31,0.12 0,0.08 -26.1,0.13 -58.31,0.13 -32.19,0 -58.29,-0.05 -58.29,-0.13z"/>
      <polygon class="fil7" points="211.79,230.15 215.2,230.15 215.45,225.9 211.53,225.9 "/>
      <polygon class="fil7" points="179.8,230.15 183.22,230.15 183.46,225.9 179.55,225.9 "/>
      <polygon class="fil7" points="147.82,230.15 151.24,230.15 151.48,225.9 147.56,225.9 "/>
      <path class="fil7" d="M122.69 224.37c6.19,-5.33 14.52,-13.53 18.81,-14.31 5.2,-0.95 30.49,-1.46 38.51,-1.23 8.02,-0.23 33.31,0.28 38.51,1.23 3.99,0.73 11.39,8.54 17.33,14.31 -37.72,0 -75.44,0 -113.16,0z"/>
      <path class="fil4" d="M287.29 221.57c-0.01,0.01 -0.11,-0.06 -0.3,-0.2 -0.21,-0.16 -0.48,-0.37 -0.83,-0.64 -0.74,-0.58 -1.79,-1.4 -3.1,-2.42l0.06 0.02c-4.01,0.51 -10.05,1.29 -16.81,2.15 -3.29,0.41 -6.41,0.8 -9.19,1.14l0.04 -0.01c-3.38,1.82 -6.24,3.35 -8.28,4.45 -1,0.53 -1.79,0.95 -2.36,1.25 -0.26,0.13 -0.47,0.24 -0.63,0.32 -0.15,0.07 -0.22,0.11 -0.23,0.1 0,0 0.07,-0.05 0.21,-0.13 0.15,-0.09 0.36,-0.21 0.61,-0.36 0.56,-0.31 1.35,-0.75 2.34,-1.3 2.03,-1.12 4.87,-2.68 8.23,-4.53l0.02 -0.01 0.02 0c2.78,-0.36 5.9,-0.75 9.19,-1.17 6.76,-0.83 12.81,-1.57 16.82,-2.06l0.03 -0.01 0.03 0.02c1.29,1.05 2.32,1.89 3.05,2.48 0.34,0.28 0.61,0.51 0.81,0.67 0.18,0.16 0.27,0.24 0.27,0.24z"/>
      <path class="fil4" d="M245.66 212.28c0,0 -1.65,-2.8 0,-3.5 1.9,-0.81 33.62,-4.62 34.91,-4.73 2.57,-0.23 3.5,0.93 4.1,3.95 0.61,3.02 1.94,10.51 -0.6,12.69 -2.54,2.18 -6.52,3.14 -14.38,3.62 -7.85,0.49 -11.98,0.75 -15.85,-1.42 -3.87,-2.18 -8.18,-10.61 -8.18,-10.61z"/>
      <path class="fil4" d="M247.29 187.39c-0.08,-0.03 0.21,-0.92 0.85,-2.49 0.63,-1.56 1.6,-3.8 2.93,-6.51 0.67,-1.35 1.41,-2.83 2.3,-4.37 0.89,-1.55 1.87,-3.19 3.11,-4.81 0.62,-0.79 1.34,-1.62 2.17,-2.31 0.81,-0.7 1.73,-1.33 2.68,-1.89 0.96,-0.57 1.93,-1.07 2.92,-1.6 0.99,-0.53 2,-1.06 3.03,-1.57 2.08,-1.02 4.18,-1.92 6.29,-2.57 1.05,-0.32 2.11,-0.59 3.15,-0.8 1.03,-0.21 2.1,-0.36 3.17,-0.31 1.07,0.05 2.17,0.35 3.04,1 0.87,0.66 1.41,1.58 1.73,2.45 0.34,0.89 0.51,1.75 0.67,2.56 0.15,0.81 0.3,1.58 0.44,2.32 0.58,2.95 1.02,5.35 1.26,7.02 0.25,1.67 0.3,2.6 0.22,2.62 -0.09,0.01 -0.31,-0.89 -0.7,-2.53 -0.4,-1.65 -0.96,-4.01 -1.66,-6.92 -0.17,-0.73 -0.35,-1.52 -0.52,-2.31 -0.18,-0.79 -0.37,-1.6 -0.68,-2.37 -0.31,-0.77 -0.77,-1.47 -1.42,-1.94 -0.66,-0.47 -1.52,-0.7 -2.43,-0.73 -0.92,-0.03 -1.88,0.11 -2.88,0.33 -1,0.21 -2.01,0.47 -3.02,0.8 -2.02,0.64 -4.05,1.51 -6.1,2.52 -1.02,0.5 -2.02,1.02 -3,1.54 -0.99,0.53 -1.97,1.03 -2.88,1.56 -0.92,0.53 -1.76,1.1 -2.53,1.75 -0.79,0.64 -1.42,1.35 -2.04,2.1 -1.2,1.52 -2.2,3.12 -3.11,4.62 -0.91,1.5 -1.7,2.94 -2.42,4.25 -1.42,2.64 -2.51,4.82 -3.28,6.31 -0.76,1.5 -1.21,2.32 -1.29,2.28z"/>
      <path class="fil2" d="M275.91 171.43c-2.47,0 -4.62,1.37 -5.73,3.39 -0.52,-0.93 -0.81,-2.01 -0.81,-3.15 0,-3.61 2.93,-6.53 6.54,-6.53 3.61,0 6.53,2.92 6.53,6.53 0,1.14 -0.29,2.22 -0.81,3.15 -1.11,-2.02 -3.26,-3.39 -5.72,-3.39z"/>
      <path class="fil11" d="M273.09 171.46c0,1.55 1.26,2.81 2.82,2.81 1.55,0 2.81,-1.26 2.81,-2.81 0,-1.56 -1.26,-2.82 -2.81,-2.82 -1.56,0 -2.82,1.26 -2.82,2.82z"/>
      <path class="fil4" d="M273.09 171.46c-0.01,0 -0.01,-0.06 -0.02,-0.18 0,-0.12 0.01,-0.3 0.06,-0.52 0.09,-0.44 0.36,-1.1 1.02,-1.61 0.63,-0.52 1.7,-0.83 2.76,-0.45 0.52,0.18 1.01,0.53 1.36,1.02 0.37,0.48 0.57,1.1 0.58,1.74 -0.01,0.64 -0.21,1.26 -0.58,1.74 -0.35,0.48 -0.84,0.83 -1.36,1.01 -1.06,0.38 -2.13,0.07 -2.76,-0.44 -0.66,-0.52 -0.93,-1.17 -1.02,-1.61 -0.05,-0.22 -0.06,-0.4 -0.06,-0.52 0.01,-0.12 0.01,-0.18 0.02,-0.18 0.03,0 0.02,0.25 0.14,0.67 0.11,0.42 0.4,1.03 1.03,1.5 0.6,0.46 1.6,0.72 2.57,0.36 0.95,-0.33 1.78,-1.34 1.77,-2.53 0.01,-1.19 -0.82,-2.21 -1.77,-2.54 -0.97,-0.36 -1.97,-0.1 -2.57,0.37 -0.63,0.47 -0.92,1.08 -1.03,1.49 -0.12,0.43 -0.11,0.68 -0.14,0.68z"/>
      <path class="fil4" d="M269.37 171.67c-0.01,0 -0.01,-0.14 0,-0.42 0,-0.13 0,-0.3 0.04,-0.5 0.02,-0.2 0.05,-0.43 0.12,-0.68 0.23,-1.01 0.87,-2.5 2.37,-3.66 0.74,-0.57 1.69,-1.06 2.78,-1.26 1.09,-0.19 2.32,-0.16 3.49,0.28 0.59,0.2 1.16,0.51 1.69,0.9 0.53,0.38 1.01,0.85 1.41,1.41 0.82,1.09 1.29,2.49 1.3,3.93 -0.01,1.45 -0.48,2.85 -1.3,3.94 -0.4,0.55 -0.88,1.03 -1.41,1.41 -0.53,0.39 -1.1,0.7 -1.69,0.9 -1.17,0.44 -2.4,0.47 -3.49,0.28 -1.09,-0.2 -2.04,-0.69 -2.78,-1.26 -1.5,-1.17 -2.14,-2.66 -2.37,-3.66 -0.07,-0.25 -0.1,-0.48 -0.12,-0.68 -0.04,-0.2 -0.04,-0.37 -0.04,-0.51 -0.01,-0.27 -0.01,-0.42 0,-0.42 0.04,0 0,0.59 0.25,1.59 0.26,0.98 0.91,2.42 2.39,3.54 0.73,0.54 1.65,1 2.71,1.19 1.05,0.18 2.24,0.14 3.37,-0.29 0.57,-0.2 1.12,-0.5 1.63,-0.87 0.51,-0.38 0.97,-0.84 1.35,-1.37 0.79,-1.05 1.23,-2.4 1.25,-3.79 -0.02,-1.39 -0.46,-2.74 -1.25,-3.79 -0.38,-0.53 -0.85,-0.99 -1.35,-1.36 -0.51,-0.38 -1.06,-0.68 -1.63,-0.87 -1.13,-0.44 -2.32,-0.47 -3.37,-0.29 -1.06,0.18 -1.98,0.65 -2.71,1.19 -1.48,1.12 -2.13,2.56 -2.39,3.54 -0.25,1 -0.21,1.59 -0.25,1.58z"/>
      <path class="fil11" d="M273.44 167.04c-0.09,-0.13 0.36,-0.66 1.38,-1.02 0.99,-0.35 2.62,-0.44 4.13,0.36 1.51,0.81 2.34,2.21 2.6,3.23 0.27,1.04 0.09,1.71 -0.07,1.71 -0.19,0.01 -0.33,-0.58 -0.77,-1.39 -0.41,-0.79 -1.19,-1.81 -2.35,-2.43 -1.17,-0.62 -2.45,-0.7 -3.34,-0.6 -0.91,0.09 -1.48,0.3 -1.58,0.14z"/>
      <path class="fil11" d="M271.8 168.07c-0.28,-0.2 -0.41,-0.52 -0.24,-0.68 0.17,-0.16 0.48,-0.03 0.68,0.26 0.18,0.3 0.27,0.58 0.2,0.65 -0.07,0.07 -0.35,-0.03 -0.64,-0.23z"/>
      <path class="fil4" d="M234.71 196.36c-0.09,-0.34 8.52,-2.81 19.21,-5.51 10.7,-2.7 19.44,-4.61 19.52,-4.27 0.09,0.34 -8.51,2.8 -19.21,5.5 -10.69,2.7 -19.43,4.62 -19.52,4.28z"/>
      <path class="fil4" d="M286.23 160.59c0,0 -0.01,-0.05 -0.03,-0.15 -0.02,-0.09 -0.05,-0.24 -0.1,-0.43 -0.1,-0.37 -0.27,-0.92 -0.64,-1.55 -0.36,-0.63 -0.95,-1.34 -1.84,-1.87 -0.22,-0.14 -0.48,-0.23 -0.72,-0.35 -0.27,-0.08 -0.53,-0.19 -0.82,-0.24 -0.29,-0.05 -0.59,-0.13 -0.89,-0.14 -0.31,-0.02 -0.63,-0.01 -0.96,0.02 -1.3,0.12 -2.71,0.45 -4.2,0.85 -1.49,0.41 -3.07,0.92 -4.72,1.49 -3.28,1.15 -6.86,2.54 -10.51,4.23 -0.45,0.22 -0.9,0.43 -1.33,0.67 -0.44,0.23 -0.82,0.52 -1.21,0.82 -0.76,0.6 -1.44,1.28 -2.03,2.01 -1.11,1.51 -2.13,3.05 -3.11,4.49 -1.94,2.9 -3.62,5.55 -4.98,7.81 -1.36,2.26 -2.42,4.11 -3.14,5.4 -0.36,0.63 -0.64,1.12 -0.83,1.48 -0.09,0.16 -0.17,0.28 -0.22,0.38 -0.06,0.09 -0.08,0.13 -0.09,0.13 0,0 0.02,-0.05 0.06,-0.14 0.05,-0.1 0.12,-0.23 0.2,-0.4 0.18,-0.34 0.44,-0.85 0.79,-1.5 0.7,-1.3 1.73,-3.17 3.07,-5.44 1.35,-2.27 3.01,-4.94 4.95,-7.85 0.98,-1.45 1.97,-2.97 3.1,-4.52 0.61,-0.75 1.3,-1.43 2.08,-2.05 0.38,-0.3 0.79,-0.61 1.24,-0.84 0.44,-0.24 0.89,-0.46 1.35,-0.68 3.65,-1.7 7.24,-3.08 10.54,-4.22 1.65,-0.57 3.23,-1.07 4.73,-1.47 1.5,-0.4 2.92,-0.72 4.25,-0.83 0.33,-0.02 0.66,-0.03 0.98,-0.01 0.32,0.01 0.62,0.1 0.91,0.15 0.3,0.06 0.57,0.18 0.84,0.26 0.26,0.12 0.51,0.22 0.74,0.37 0.91,0.55 1.5,1.29 1.86,1.94 0.35,0.65 0.51,1.21 0.6,1.59 0.04,0.19 0.06,0.34 0.07,0.44 0.01,0.1 0.02,0.15 0.01,0.15z"/>
      <path class="fil12" d="M288.26 163.35c0.48,0.16 3.12,1.81 4.25,2.43 1.12,0.63 2.1,1.62 2.42,2.86 0.32,1.24 -0.03,2.55 -0.39,3.77 -1.15,4.02 -2.49,11.24 -3.64,15.26 -0.91,-7.28 -1.89,-19.7 -2.64,-24.32z"/>
      <path class="fil7" d="M251.99 221.15c-0.01,-0.07 7.5,-1.17 16.78,-2.45 9.29,-1.29 16.82,-2.27 16.83,-2.2 0.01,0.07 -7.51,1.17 -16.79,2.45 -9.28,1.28 -16.81,2.27 -16.82,2.2z"/>
      <path class="fil7" d="M254.38 222.99c0,-0.01 0.11,-0.03 0.32,-0.07 0.23,-0.04 0.52,-0.09 0.89,-0.14 0.78,-0.13 1.91,-0.29 3.31,-0.49 2.79,-0.38 6.66,-0.87 10.93,-1.37 4.26,-0.51 8.11,-0.97 10.94,-1.31 1.37,-0.17 2.5,-0.3 3.31,-0.4 0.37,-0.04 0.67,-0.07 0.91,-0.1 0.2,-0.02 0.31,-0.02 0.31,-0.02 0,0.01 -0.1,0.04 -0.31,0.07 -0.23,0.04 -0.52,0.09 -0.89,0.15 -0.78,0.12 -1.91,0.29 -3.31,0.48 -2.79,0.39 -6.66,0.87 -10.93,1.38 -4.26,0.51 -8.11,0.96 -10.94,1.3 -1.38,0.17 -2.5,0.3 -3.31,0.4 -0.38,0.04 -0.67,0.08 -0.91,0.1 -0.2,0.02 -0.31,0.03 -0.32,0.02z"/>
      <path class="fil7" d="M259.65 224.37c-0.02,0 0.3,-0.05 0.85,-0.12 0.6,-0.08 1.39,-0.18 2.35,-0.3 2.03,-0.24 4.76,-0.57 7.77,-0.93 3.01,-0.34 5.74,-0.65 7.77,-0.88 0.97,-0.1 1.76,-0.18 2.36,-0.24 0.56,-0.05 0.87,-0.07 0.87,-0.06 0,0.02 -0.3,0.07 -0.86,0.16 -0.59,0.08 -1.39,0.18 -2.35,0.32 -1.98,0.25 -4.73,0.59 -7.76,0.95 -3.04,0.35 -5.78,0.66 -7.78,0.86 -1.98,0.2 -3.24,0.3 -3.22,0.24z"/>
      <path class="fil7" d="M250.23 219.05c-0.01,-0.07 7.9,-1.16 17.67,-2.45 9.77,-1.28 17.69,-2.27 17.7,-2.2 0.01,0.07 -7.9,1.17 -17.67,2.45 -9.76,1.29 -17.69,2.27 -17.7,2.2z"/>
      <path class="fil7" d="M248.86 217.11c-0.01,-0.07 8.18,-1.21 18.29,-2.54 10.11,-1.33 18.32,-2.35 18.33,-2.28 0,0.07 -8.18,1.2 -18.3,2.53 -10.11,1.33 -18.31,2.36 -18.32,2.29z"/>
      <path class="fil7" d="M247.31 214.81c0,-0.07 8.42,-1.24 18.81,-2.61 10.4,-1.36 18.83,-2.41 18.84,-2.34 0.01,0.06 -8.41,1.23 -18.81,2.6 -10.39,1.36 -18.83,2.42 -18.84,2.35z"/>
      <path class="fil7" d="M246.13 212.46c-0.01,-0.07 8.56,-1.26 19.14,-2.65 10.58,-1.39 19.17,-2.46 19.17,-2.39 0.01,0.07 -8.56,1.25 -19.14,2.64 -10.58,1.4 -19.16,2.47 -19.17,2.4z"/>
      <path class="fil7" d="M244.93 210.11c-0.01,-0.07 8.63,-1.26 19.3,-2.66 10.66,-1.41 19.32,-2.49 19.33,-2.42 0.01,0.07 -8.63,1.26 -19.3,2.67 -10.66,1.4 -19.32,2.48 -19.33,2.41z"/>
      <path class="fil7" d="M272.86 204.76c0.07,-0.02 1.02,4.18 2.13,9.36 1.1,5.19 1.94,9.41 1.88,9.42 -0.07,0.02 -1.02,-4.17 -2.13,-9.36 -1.1,-5.19 -1.94,-9.41 -1.88,-9.42z"/>
      <path class="fil7" d="M276.05 204.23c0.07,-0.02 1.02,4.17 2.13,9.36 1.1,5.19 1.94,9.41 1.87,9.42 -0.07,0.02 -1.02,-4.18 -2.12,-9.36 -1.11,-5.19 -1.94,-9.41 -1.88,-9.42z"/>
      <path class="fil7" d="M279.24 203.69c0.07,-0.01 0.97,3.96 2.02,8.86 1.04,4.91 1.83,8.9 1.76,8.91 -0.06,0.02 -0.97,-3.95 -2.01,-8.86 -1.05,-4.9 -1.84,-8.89 -1.77,-8.91z"/>
      <path class="fil7" d="M282.7 204.42c0.01,-0.01 0.07,0.18 0.16,0.51 0.08,0.34 0.2,0.83 0.33,1.44 0.27,1.21 0.61,2.89 0.94,4.76 0.32,1.83 0.62,3.49 0.85,4.77 0.1,0.56 0.19,1.05 0.26,1.44 0.06,0.34 0.08,0.54 0.06,0.54 -0.01,0 -0.07,-0.18 -0.16,-0.52 -0.08,-0.33 -0.2,-0.82 -0.33,-1.43 -0.27,-1.21 -0.61,-2.89 -0.93,-4.76 -0.33,-1.83 -0.63,-3.49 -0.86,-4.77 -0.1,-0.57 -0.19,-1.05 -0.26,-1.45 -0.06,-0.34 -0.08,-0.53 -0.06,-0.53z"/>
      <path class="fil7" d="M269.18 205.42c0.07,-0.02 0.99,4.03 2.06,9.03 1.06,5.01 1.87,9.08 1.8,9.09 -0.07,0.02 -0.99,-4.03 -2.05,-9.03 -1.07,-5.01 -1.88,-9.08 -1.81,-9.09z"/>
      <path class="fil7" d="M265.51 206.16c0.07,-0.02 1,4.04 2.06,9.06 1.07,5.02 1.88,9.1 1.82,9.11 -0.07,0.02 -0.99,-4.04 -2.06,-9.06 -1.07,-5.02 -1.88,-9.1 -1.82,-9.11z"/>
      <path class="fil7" d="M261.73 206.36c0.07,-0.02 0.99,4 2.05,8.98 1.05,4.98 1.86,9.02 1.79,9.03 -0.07,0.02 -0.98,-4 -2.04,-8.98 -1.06,-4.97 -1.86,-9.02 -1.8,-9.03z"/>
      <path class="fil7" d="M258.01 206.85c0.07,-0.02 0.98,3.98 2.03,8.93 1.06,4.95 1.86,8.97 1.79,8.98 -0.07,0.02 -0.98,-3.98 -2.03,-8.93 -1.06,-4.95 -1.85,-8.97 -1.79,-8.98z"/>
      <path class="fil7" d="M254.35 207.57c0.06,-0.01 0.92,3.73 1.9,8.35 0.99,4.63 1.73,8.4 1.66,8.41 -0.07,0.02 -0.92,-3.72 -1.91,-8.35 -0.98,-4.63 -1.72,-8.39 -1.65,-8.41z"/>
      <path class="fil7" d="M250.59 207.88c0.06,-0.01 0.87,3.48 1.79,7.81 0.92,4.32 1.61,7.84 1.54,7.85 -0.07,0.02 -0.87,-3.47 -1.79,-7.8 -0.92,-4.33 -1.61,-7.84 -1.54,-7.86z"/>
      <path class="fil7" d="M246.89 208.48c0.07,-0.01 0.57,2.05 1.11,4.6 0.54,2.55 0.93,4.64 0.86,4.65 -0.07,0.01 -0.57,-2.04 -1.11,-4.6 -0.54,-2.55 -0.93,-4.63 -0.86,-4.65z"/>
      <path class="fil4" d="M125.49 222.45c0,-0.08 24.21,-0.13 54.05,-0.13 29.86,0 54.06,0.05 54.06,0.13 0,0.06 -24.2,0.12 -54.06,0.12 -29.84,0 -54.05,-0.06 -54.05,-0.12z"/>
      <path class="fil4" d="M127.62 220c0,-0.07 23.16,-0.13 51.72,-0.13 28.57,0 51.73,0.06 51.73,0.13 0,0.07 -23.16,0.12 -51.73,0.12 -28.56,0 -51.72,-0.05 -51.72,-0.12z"/>
      <path class="fil4" d="M130.84 217.49c0,-0.07 21.9,-0.12 48.92,-0.12 27.02,0 48.93,0.05 48.93,0.12 0,0.07 -21.91,0.13 -48.93,0.13 -27.02,0 -48.92,-0.06 -48.92,-0.13z"/>
      <path class="fil4" d="M132.98 214.99c0,-0.07 20.87,-0.12 46.6,-0.12 25.74,0 46.6,0.05 46.6,0.12 0,0.07 -20.86,0.13 -46.6,0.13 -25.73,0 -46.6,-0.06 -46.6,-0.13z"/>
      <path class="fil4" d="M136.56 212.61c0,-0.07 19.34,-0.13 43.2,-0.13 23.86,0 43.2,0.06 43.2,0.13 0,0.07 -19.34,0.13 -43.2,0.13 -23.86,0 -43.2,-0.06 -43.2,-0.13z"/>
      <path class="fil4" d="M140.61 210.22c0,-0.07 17.47,-0.12 39.03,-0.12 21.56,0 39.03,0.05 39.03,0.12 0,0.07 -17.47,0.13 -39.03,0.13 -21.56,0 -39.03,-0.06 -39.03,-0.13z"/>
      <polygon class="fil4" points="178.81,107.81 177.48,107.81 177.48,105.43 178.81,105.43 "/>
      <path class="fil12" d="M104.18 150.08c0,0 2.39,-0.82 1.92,-2.6 0,0 6.92,4.05 16.34,3.91 9.41,-0.14 43.91,1.97 43.91,1.97l3.96 5.46c0,0 -58.42,-1.36 -60.58,0.05l-5.55 -8.79z"/>
      <path class="fil12" d="M82.26 154.42c-0.48,0 14.89,5.28 16.88,6.95l3.14 -0.69 -10.97 -18.19 -1.26 -0.3c0,0 -3.77,12.26 -7.79,12.23z"/>
      <path class="fil12" d="M119.22 99.12c0.3,0 60.17,-2.56 60.08,-3.34 -0.1,-0.79 -26.7,-0.69 -38.38,0 -11.68,0.68 -21.7,3.34 -21.7,3.34z"/>
      <path class="fil15" d="M94.16 132.39l48.68 -12.01 9.17 -20.11 -39.36 1.64c-0.64,0.03 -0.9,0.22 -1.22,0.78l-17.27 29.7z"/>
     </g>
     <circle class="fil16 str0" cx="266.75" cy="197.67" r="36.71"/>
     <path class="fil17 str1" d="M246.33 211.47c0,1.84 2.7,3.19 4.45,3.33 0.34,-1.3 0.21,-0.64 0.98,-1.61l3.84 -4.69c0,3.09 -1.05,5.8 -1.11,8.53 2.15,0.5 4.69,2.41 7.04,2.96l4.74 -4.53c0.21,6.31 -1.75,6.13 1.92,7.88 3.35,1.6 4.7,1.88 6.32,-1.86l3.7 -8.16c0.77,-1.52 1.42,-2.58 1.86,-4.45l-13.6 -6.05c-1.64,-0.82 -12.17,-6.05 -13.84,-6.18 -0.82,3.53 -6.3,12.26 -6.3,14.83z"/>
     <path class="fil17" d="M277.47 175.87c4.43,0 3.32,4.45 0.74,4.45 -1,0 -1.02,-0.18 -1.85,-0.37 -1.13,-2.35 -0.47,-4.08 1.11,-4.08zm-7.78 12.24c0,1.6 -0.45,2.08 -1.12,3.33 -1.82,-0.15 -3.12,-0.99 -4.57,-1.73 -2.32,-1.17 -6.82,-3.9 -8.03,0.62 0.67,0.91 5.34,2.92 6.79,3.59l18 8.34c2.29,0.98 2.65,2.07 2.65,-2.29 0,-2.57 -9.27,-4.52 -9.27,-5.93 0,-1.95 1.22,-3.07 2.57,-3.73 1.96,-0.96 2.9,-0.51 3.7,-2.6 6.83,-17.73 -1.64,-18.07 -5.43,-13.59 -1.09,1.28 -1.96,2.68 -2.97,4.08 -5.33,7.38 -2.69,5.87 -2.35,9.22 0.01,0.21 0.03,0.44 0.03,0.69z"/>
    </g>
    <g style="clip-path:url(#id1)">
     <g>
      <path id="_1" class="fil18" d="M286.32 176.03c0,0 -10.24,-1.07 -16.63,12.08l-5.57 -3.95 13.98 -15.79 8.22 7.66z"/>
      <path class="fil19" d="M284.63 176.18c0,0 -7.18,-1 -15.57,12.75 0,0 5.47,-12.82 15.57,-12.75z"/>
      <path class="fil18" d="M248.8 208.41l4.32 -9.42 26.18 10.06c0,0 -21.9,-6.61 -24.32,-7.72 -2.39,-0.56 -6.18,7.08 -6.18,7.08z"/>
     </g>
    </g>
    <g style="clip-path:url(#id2)">
     <path class="fil20 str1" d="M277.47 175.87c4.43,0 3.32,4.45 0.74,4.45 -1,0 -1.02,-0.18 -1.85,-0.37 -1.13,-2.35 -0.47,-4.08 1.11,-4.08zm-7.78 12.24c0,1.6 -0.45,2.08 -1.12,3.33 -1.82,-0.15 -3.12,-0.99 -4.57,-1.73 -2.32,-1.17 -6.82,-3.9 -8.03,0.62 0.67,0.91 5.34,2.92 6.79,3.59l18 8.34c2.29,0.98 2.65,2.07 2.65,-2.29 0,-2.57 -9.27,-4.52 -9.27,-5.93 0,-1.95 1.22,-3.07 2.57,-3.73 1.96,-0.96 2.9,-0.51 3.7,-2.6 6.83,-17.73 -1.64,-18.07 -5.43,-13.59 -1.09,1.28 -1.96,2.68 -2.97,4.08 -5.33,7.38 -2.69,5.87 -2.35,9.22 0.01,0.21 0.03,0.44 0.03,0.69z"/>
     <path class="fil17 str1" d="M253.37 195.52l17.05 7.79c1.18,0.53 2.19,1.14 3.47,1.73 1.28,0.6 2.08,0.84 3.34,1.48 1.26,0.64 2.21,1.29 3.58,1.61 0.42,-1.8 1.32,-2.16 1.48,-4.08 -1.02,-0.24 -2.32,-0.9 -3.44,-1.38l-16.94 -7.89c-1.76,-0.79 -4.98,-2.79 -7.05,-2.97 -0.37,1.59 -0.82,2.45 -1.49,3.71z"/>
     <path class="fil18" d="M248.8 208.41l4.32 -9.42 26.18 10.06c0,0 -21.9,-6.61 -24.32,-7.72 -2.39,-0.56 -6.18,7.08 -6.18,7.08z"/>
    </g>
   </g>
  </g>
  <path class="fil20" d="M178.23 4.15c98.31,0 178,79.69 178,178 0,98.31 -79.69,178 -178,178 -98.31,0 -178,-79.69 -178,-178 0,-98.31 79.69,-178 178,-178z"/>
 </g>
</svg>
