<?xml version="1.0" encoding="UTF-8"?>
<!DOCTYPE svg PUBLIC "-//W3C//DTD SVG 1.0//EN" "http://www.w3.org/TR/2001/REC-SVG-20010904/DTD/svg10.dtd">
<!-- Creator: CorelDRAW -->
<svg xmlns="http://www.w3.org/2000/svg" xml:space="preserve" width="356px" height="356px" version="1.0" style="shape-rendering:geometricPrecision; text-rendering:geometricPrecision; image-rendering:optimizeQuality; fill-rule:evenodd; clip-rule:evenodd"
viewBox="0 0 356 356"
 xmlns:xlink="http://www.w3.org/1999/xlink"
 xmlns:xodm="http://www.corel.com/coreldraw/odm/2003">
 <defs>
  <style type="text/css">
   <![CDATA[
    .str0 {stroke:#043254;stroke-width:1.25;stroke-miterlimit:22.9256}
    .str2 {stroke:#FEFEFE;stroke-width:1.39;stroke-linecap:round;stroke-miterlimit:22.9256}
    .str1 {stroke:#143553;stroke-width:2.09;stroke-linecap:round;stroke-miterlimit:22.9256}
    .fil0 {fill:none}
    .fil18 {fill:#FEFEFE}
    .fil20 {fill:#143553}
    .fil19 {fill:#043254}
    .fil21 {fill:#E42127}
    .fil17 {fill:#FDFCFC}
    .fil7 {fill:#A7A7A8;fill-rule:nonzero}
    .fil1 {fill:#616060;fill-rule:nonzero}
    .fil6 {fill:black;fill-rule:nonzero}
    .fil9 {fill:#143553;fill-rule:nonzero}
    .fil5 {fill:#263138;fill-rule:nonzero}
    .fil8 {fill:#445964;fill-rule:nonzero}
    .fil14 {fill:#5B7287;fill-rule:nonzero}
    .fil3 {fill:#DFDFDF;fill-rule:nonzero}
    .fil11 {fill:#F4F4F4;fill-rule:nonzero}
    .fil4 {fill:#FF725D;fill-rule:nonzero}
    .fil12 {fill:white;fill-rule:nonzero}
    .fil16 {fill:white;fill-rule:nonzero;fill-opacity:0.200000}
    .fil2 {fill:black;fill-rule:nonzero;fill-opacity:0.301961}
    .fil15 {fill:#263138;fill-rule:nonzero;fill-opacity:0.301961}
    .fil13 {fill:white;fill-rule:nonzero;fill-opacity:0.301961}
    .fil10 {fill:black;fill-rule:nonzero;fill-opacity:0.501961}
   ]]>
  </style>
      <clipPath id="id0">
       <path d="M186.82 80.75l18.03 0 0 21.34 67.98 0 0 -21.34 18.35 0c3,0 5.45,2.45 5.45,5.45l0 170.29 -115.26 0 0 -170.29c0,-3 2.45,-5.45 5.45,-5.45z"/>
      </clipPath>
 </defs>
 <g id="Layer_x0020_1">
  <metadata id="CorelCorpID_0Corel-Layer"/>
  <rect class="fil0" width="356" height="356"/>
  <g id="_2101458574096">
   <path class="fil1" d="M178 258.51c-78.74,0 -142.58,-1.42 -142.58,-3.16 0,-0.68 10,-1.32 26.94,-1.83 0.43,0.6 0.97,1.12 1.61,1.51 0.85,0.53 2.05,1.06 3.59,1.3 3.61,0.56 17.86,0.24 17.86,0.24 0,0 6.99,0 8.07,-5.36 23.27,-0.36 53.83,1 84.51,1l3.37 0 0 4.29 76.82 0c0.64,0.11 1.3,0.18 1.96,0.2 1.47,0.02 2.95,0.04 4.45,0.06 3.13,0.03 6.22,0.04 9.27,-0.04 1.23,-0.05 2.46,-0.07 3.67,-0.22l19.09 0 0 -2.89c15.12,0.5 23.95,1.1 23.95,1.74 0,1.74 -63.83,3.16 -142.58,3.16z"/>
   <g>
    <g>
     <polygon class="fil2" points="65.64,206.34 156.47,165.77 147.04,147.33 142.55,137.27 58.98,191.43 "/>
     <polygon class="fil3" points="124.73,119.83 70.29,144.14 68.8,140.8 123.24,116.48 "/>
     <polygon class="fil3" points="135.22,143.3 80.78,167.62 79.28,164.27 133.72,139.96 "/>
     <polygon class="fil3" points="108.52,163.4 83.82,174.43 82.34,171.11 107.03,160.08 "/>
     <path class="fil4" d="M77.43 179.44l-9.28 4.15c-1.03,0.46 -2.24,-0.01 -2.7,-1.03l-4.15 -9.29c-0.45,-1.03 0.01,-2.24 1.03,-2.7l9.29 -4.14c1.03,-0.46 2.24,0 2.7,1.03l4.15 9.28c0.45,1.03 -0.01,2.24 -1.04,2.7zm-14.91 -8.44l0 0c-0.79,0.35 -1.14,1.29 -0.79,2.08l4.15 9.29c0.35,0.79 1.28,1.14 2.08,0.79l9.28 -4.15c0.8,-0.35 1.15,-1.28 0.8,-2.08l-4.15 -9.28c-0.35,-0.8 -1.28,-1.15 -2.08,-0.8l-9.29 4.15z"/>
     <path class="fil5" d="M76.81 171.85c0,0 -2.99,-3.02 -3.85,15.25 -0.81,17.25 -2,42.1 2.15,52.77 0.45,1.15 1.24,2.14 2.29,2.79 0.86,0.53 2.05,1.06 3.59,1.3 3.61,0.56 17.86,0.24 17.86,0.24 0,0 8.09,0 8.21,-6.66 0.1,-5.47 0,-17.39 0,-17.39l-30.25 -48.3z"/>
     <path class="fil6" d="M76.81 171.85c0,0 -2.99,-3.02 -3.85,15.25 -0.81,17.25 -2,42.1 2.15,52.77 0.45,1.15 1.24,2.14 2.29,2.79 0.86,0.53 2.05,1.06 3.59,1.3 3.61,0.56 17.86,0.24 17.86,0.24 0,0 8.09,0 8.21,-6.66 0.1,-5.47 0,-17.39 0,-17.39l-30.25 -48.3z"/>
     <path class="fil5" d="M241.42 171.85c0,0 -2.99,-3.02 -3.85,15.25 -0.81,17.25 -1.99,42.1 2.15,52.77 0.45,1.15 1.24,2.14 2.3,2.79 0.85,0.53 2.04,1.06 3.59,1.3 3.6,0.56 17.85,0.24 17.85,0.24 0,0 8.09,0 8.21,-6.66 0.1,-5.47 0,-17.39 0,-17.39l-30.25 -48.3z"/>
     <path class="fil6" d="M241.42 171.85c0,0 -2.99,-3.02 -3.85,15.25 -0.81,17.25 -1.99,42.1 2.15,52.77 0.45,1.15 1.24,2.14 2.3,2.79 0.85,0.53 2.04,1.06 3.59,1.3 3.6,0.56 17.85,0.24 17.85,0.24 0,0 8.09,0 8.21,-6.66 0.1,-5.47 0,-17.39 0,-17.39l-30.25 -48.3z"/>
     <path class="fil5" d="M285.43 140.25c0,0 -0.91,3.09 -2.77,3.41 -1.87,0.32 -16.57,0.77 -16.57,0.77l-1.44 2.96 -2.77 0 -2.01 -11.87 1.71 0.36c0.59,0.12 1.08,0.52 1.31,1.07l0 0c0.27,0.61 0.84,1.03 1.5,1.1l21.04 2.2z"/>
     <path class="fil7" d="M284.81 140.71c1.1,-0.09 1.89,-1.07 1.74,-2.16 -0.48,-3.39 -2.26,-9.98 -8.81,-10.95 -5.79,-0.87 -10,-0.6 -12.22,-0.32 -1.01,0.14 -1.52,1.06 -1.64,2.08 -0.56,4.66 -0.11,10.44 1.24,11.15 1.4,0.74 14.92,0.58 19.69,0.2z"/>
     <path class="fil5" d="M282.11 184.22c0,0 2.99,-3.01 3.85,15.25 0.81,17.24 1.99,42.1 -2.15,52.77 -0.45,1.15 -1.25,2.14 -2.3,2.79 -0.85,0.53 -2.04,1.06 -3.59,1.3 -3.6,0.56 -17.86,0.24 -17.86,0.24 0,0 -8.08,0 -8.2,-6.65 -0.1,-5.49 0,-17.4 0,-17.4l30.25 -48.3z"/>
     <path class="fil8" d="M282.11 184.22c0,0 -0.05,0.09 -0.14,0.24 -0.1,0.16 -0.24,0.39 -0.42,0.69 -0.38,0.61 -0.93,1.5 -1.64,2.66 -1.45,2.32 -3.56,5.71 -6.22,9.98 -5.34,8.54 -12.88,20.62 -21.74,34.79l0.02 -0.06c0,5.19 0,10.63 0.01,16.27 0,0.71 -0.03,1.42 0.08,2.11 0.11,0.69 0.33,1.36 0.67,1.97 0.68,1.24 1.87,2.15 3.19,2.7 2.67,1.19 5.71,0.84 8.68,0.95 3.13,0.03 6.22,0.03 9.27,-0.05 1.52,-0.05 3.04,-0.08 4.5,-0.35 0.73,-0.14 1.44,-0.37 2.1,-0.67 0.67,-0.31 1.31,-0.68 1.83,-1.18 0.53,-0.5 0.96,-1.09 1.25,-1.74 0.16,-0.32 0.25,-0.68 0.37,-1.02 0.12,-0.35 0.23,-0.69 0.34,-1.03 0.13,-0.34 0.22,-0.69 0.3,-1.04 0.08,-0.35 0.17,-0.7 0.25,-1.04 0.19,-0.69 0.31,-1.4 0.43,-2.1 0.28,-1.39 0.43,-2.78 0.62,-4.16 0.08,-0.68 0.13,-1.37 0.2,-2.06 0.07,-0.68 0.14,-1.36 0.18,-2.03 0.38,-5.41 0.43,-10.57 0.4,-15.39 -0.04,-4.83 -0.18,-9.32 -0.34,-13.42 -0.16,-4.1 -0.32,-7.81 -0.48,-11.07 -0.18,-3.25 -0.43,-6.05 -0.8,-8.31 -0.37,-2.26 -0.81,-4.01 -1.45,-5.04 -0.16,-0.26 -0.33,-0.46 -0.51,-0.59 -0.18,-0.14 -0.38,-0.19 -0.53,-0.18 -0.31,0.04 -0.42,0.19 -0.42,0.17 0,0 0.02,-0.03 0.09,-0.07 0.06,-0.05 0.17,-0.11 0.33,-0.12 0.15,-0.02 0.36,0.03 0.55,0.17 0.19,0.13 0.37,0.34 0.53,0.59 0.66,1.04 1.12,2.79 1.51,5.05 0.38,2.27 0.65,5.07 0.84,8.32 0.17,3.26 0.35,6.97 0.52,11.07 0.16,4.1 0.31,8.6 0.36,13.42 0.04,4.83 0,9.99 -0.38,15.41 -0.03,0.68 -0.11,1.36 -0.17,2.05 -0.07,0.68 -0.12,1.37 -0.2,2.06 -0.19,1.38 -0.34,2.78 -0.62,4.18 -0.12,0.7 -0.24,1.4 -0.43,2.1 -0.08,0.35 -0.17,0.7 -0.25,1.05 -0.08,0.35 -0.17,0.71 -0.3,1.05 -0.11,0.34 -0.23,0.69 -0.34,1.04 -0.12,0.34 -0.22,0.7 -0.38,1.04 -0.31,0.68 -0.75,1.3 -1.3,1.82 -0.55,0.52 -1.21,0.9 -1.89,1.22 -0.69,0.31 -1.42,0.54 -2.16,0.69 -1.5,0.28 -3.02,0.3 -4.54,0.36 -3.06,0.08 -6.15,0.07 -9.29,0.04 -1.49,-0.02 -2.97,-0.04 -4.45,-0.06 -1.49,-0.04 -2.96,-0.34 -4.32,-0.91 -1.35,-0.56 -2.59,-1.51 -3.3,-2.8 -0.36,-0.64 -0.59,-1.34 -0.7,-2.06 -0.12,-0.72 -0.08,-1.43 -0.09,-2.13 0.01,-5.64 0.01,-11.09 0.01,-16.28l0 -0.03 0.02 -0.03c8.89,-14.15 16.46,-26.22 21.82,-34.75 2.68,-4.26 4.81,-7.63 6.27,-9.95 0.73,-1.15 1.29,-2.03 1.67,-2.63 0.19,-0.3 0.34,-0.52 0.44,-0.68 0.09,-0.15 0.15,-0.23 0.15,-0.23z"/>
     <path class="fil5" d="M63.37 184.22c0,0 -2.99,-3.01 -3.85,15.25 -0.8,17.24 -1.99,42.1 2.15,52.77 0.45,1.15 1.25,2.14 2.3,2.79 0.86,0.53 2.04,1.06 3.59,1.3 3.61,0.56 17.86,0.24 17.86,0.24 0,0 8.08,0 8.21,-6.65 0.1,-5.49 0,-17.4 0,-17.4l-30.26 -48.3z"/>
     <path class="fil9" d="M284.88 168.49l-6.62 -4.36c-1.5,-6.76 -13.78,-20.79 -13.78,-20.79 0,0 -12.78,-30.83 -23.8,-38.09 -11.03,-7.27 -64.88,-6.35 -64.88,-6.35l-2.85 0.04c0,0 -57.07,-0.96 -68.09,6.31 -11.03,7.26 -23.81,38.09 -23.81,38.09 0,0 -12.28,14.03 -13.78,20.79l-6.62 4.36c-1.34,0.87 -2.12,2.39 -2.07,3.99 0.41,11.41 2.6,56.73 6.43,61.82 3.67,4.87 38.32,2.29 47.74,2.27 13.51,-0.02 55.59,-0.57 55.59,-0.57l61.83 -0.16c7.01,-0.75 45.59,3.97 50.35,-1.54 4.16,-4.82 6.02,-50.41 6.43,-61.82 0.06,-1.6 -0.73,-3.12 -2.07,-3.99z"/>
     <path class="fil8" d="M237.69 107.32c-0.28,-0.49 -0.79,-0.8 -1.35,-0.82l-62.61 -2.69 0 0 -0.5 -0.02 0 0.05 -64.09 2.66c-0.56,0.02 -1.07,0.33 -1.34,0.82l-16.33 28.48c-0.55,0.96 0.12,2.16 1.23,2.2 1.79,0.05 4.45,0.08 7.54,-0.05 5.02,-0.21 44.96,-0.11 66.04,-0.05l-0.01 0.05c0,0 2.44,-0.01 6.47,-0.02 4.03,0.01 6.47,0.02 6.47,0.02l-0.01 -0.05c21.09,-0.06 61.02,-0.16 66.04,0.05 3.25,0.13 6.02,0.1 7.81,0.04 0.99,-0.03 1.58,-1.1 1.09,-1.96l-16.45 -28.71z"/>
     <path class="fil5" d="M60.05 140.25c0,0 0.91,3.09 2.77,3.41 1.87,0.32 16.57,0.77 16.57,0.77l1.44 2.96 2.77 0 2.02 -11.87 -1.72 0.36c-0.59,0.12 -1.08,0.52 -1.31,1.07l0 0c-0.27,0.61 -0.84,1.03 -1.49,1.1l-21.05 2.2z"/>
     <polygon class="fil10" points="97.55,132.59 247.71,132.18 249.36,135.17 176.6,135.65 96.14,135.12 "/>
     <path class="fil5" d="M153.98 133.27c0,-1.64 -0.63,-6.29 -2.16,-7.53 -1.17,-0.96 -3.96,-1.24 -5.33,-1.32 -0.05,0 -0.09,0 -0.13,0 -0.73,0.01 -5.6,0.14 -7.06,1.32 -1.52,1.24 -2.15,5.89 -2.15,7.53 0,0.02 0,0.03 0,0.05 0,1.02 0.83,1.85 1.85,1.85l6.14 0 0.84 0 6.15 0c1.02,0 1.85,-0.83 1.85,-1.85 0,-0.02 0,-0.03 0,-0.05z"/>
     <path class="fil6" d="M153.98 133.27c0,-1.64 -0.63,-6.29 -2.16,-7.53 -1.17,-0.96 -3.96,-1.24 -5.33,-1.32 -0.05,0 -0.09,0 -0.13,0 -0.73,0.01 -5.6,0.14 -7.06,1.32 -1.52,1.24 -2.15,5.89 -2.15,7.53 0,0.02 0,0.03 0,0.05 0,1.02 0.83,1.85 1.85,1.85l6.14 0 0.84 0 6.15 0c1.02,0 1.85,-0.83 1.85,-1.85 0,-0.02 0,-0.03 0,-0.05z"/>
     <path class="fil5" d="M147.35 132.06c0,-2.69 -1.04,-10.3 -3.53,-12.32 -1.93,-1.57 -6.49,-2.04 -8.74,-2.17 -0.07,0 -0.14,0 -0.21,0 -1.19,0.01 -9.16,0.23 -11.54,2.17 -2.5,2.02 -3.54,9.63 -3.54,12.32 0,0.03 0,0.05 0,0.08 0,1.67 1.36,3.03 3.03,3.03l10.06 0 1.38 0 10.06 0c1.67,0 3.03,-1.36 3.03,-3.03 0,-0.03 0,-0.05 0,-0.08z"/>
     <path class="fil2" d="M121.02 210.7c0,0 -48.21,-6.34 -50.17,-6.58 -2.98,-0.36 -4.58,1.57 -4.58,3.87 0,1.62 -0.21,7.8 -0.34,11.31 -0.08,2.07 0.97,4.03 2.75,5.08 1.03,0.61 2.41,1.24 4.25,1.78 4.05,1.19 28.49,2.32 33.55,2.54 0.6,0.03 1.17,-0.18 1.62,-0.57 1.82,-1.61 6.7,-5.99 8.24,-8.16 5.04,-7.12 4.68,-9.27 4.68,-9.27l0 0 0 0zm-25.02 13.17l0 0 -23.31 -3.77 0.91 -12.77 31.66 2.88 -9.26 13.66z"/>
     <path class="fil2" d="M67 177.93c0,0 -2.39,7.25 12.78,10.62 15.37,3.42 38.1,9.61 38.1,9.61l-12.21 -8.71c0,0 -35.12,-5.85 -35.99,-11.22 -1,-6.15 0,-13.05 0,-13.05l-2.68 12.75z"/>
     <path class="fil5" d="M126.26 210.48c0,0 -0.05,-0.01 -0.16,-0.03 -0.12,-0.03 -0.28,-0.07 -0.48,-0.12 -0.44,-0.11 -1.06,-0.26 -1.85,-0.46 -1.6,-0.39 -3.92,-0.97 -6.8,-1.6 -5.75,-1.3 -13.76,-2.87 -22.64,-4.32 -4.45,-0.72 -8.68,-1.39 -12.55,-1.89 -1.93,-0.26 -3.77,-0.52 -5.49,-0.75 -1.72,-0.24 -3.32,-0.47 -4.79,-0.44 -1.46,0.03 -2.79,0.37 -3.72,1.07 -0.96,0.67 -1.62,1.45 -2.05,2.14 -0.89,1.4 -0.88,2.38 -0.92,2.36 0,0 0,-0.23 0.1,-0.66 0.09,-0.42 0.3,-1.04 0.73,-1.75 0.43,-0.71 1.09,-1.51 2.06,-2.2 0.95,-0.73 2.32,-1.09 3.8,-1.13 1.49,-0.05 3.1,0.17 4.81,0.41 1.73,0.22 3.57,0.47 5.5,0.73 3.87,0.49 8.11,1.15 12.56,1.87 8.89,1.45 16.89,3.05 22.64,4.39 2.88,0.65 5.19,1.26 6.79,1.68 0.78,0.21 1.4,0.38 1.83,0.51 0.2,0.05 0.35,0.1 0.47,0.13 0.11,0.04 0.16,0.06 0.16,0.06z"/>
     <path class="fil5" d="M65.07 191.73c-0.01,0 -0.01,-0.09 -0.02,-0.26 -0.01,-0.21 -0.02,-0.46 -0.02,-0.78 -0.02,-0.67 -0.02,-1.64 -0.01,-2.85 0.03,-2.4 0.16,-5.73 0.48,-9.38 0.33,-3.66 0.79,-6.95 1.18,-9.33 0.2,-1.18 0.37,-2.14 0.51,-2.8 0.06,-0.31 0.11,-0.56 0.16,-0.76 0.04,-0.17 0.06,-0.26 0.07,-0.26 0.01,0 0,0.1 -0.02,0.27 -0.04,0.2 -0.07,0.46 -0.12,0.77 -0.1,0.69 -0.25,1.65 -0.43,2.81 -0.35,2.38 -0.78,5.67 -1.1,9.32 -0.33,3.65 -0.48,6.97 -0.56,9.37 -0.03,1.17 -0.05,2.14 -0.07,2.84 -0.01,0.32 -0.02,0.57 -0.02,0.78 -0.01,0.17 -0.02,0.26 -0.03,0.26z"/>
     <path class="fil5" d="M75.62 159.08c-0.01,0 -0.02,-0.21 -0.02,-0.59 0,-0.18 0.01,-0.41 0.05,-0.68 0.03,-0.26 0.04,-0.57 0.1,-0.89 0.2,-1.33 0.65,-3.13 1.26,-5.07 0.61,-1.94 1.27,-3.67 1.77,-4.9 0.25,-0.62 0.46,-1.12 0.61,-1.46 0.16,-0.34 0.25,-0.52 0.27,-0.52 0.01,0.01 -0.05,0.21 -0.18,0.56 -0.14,0.4 -0.33,0.89 -0.54,1.48 -0.46,1.25 -1.08,2.98 -1.69,4.92 -0.62,1.93 -1.08,3.71 -1.32,5.02 -0.25,1.3 -0.26,2.13 -0.31,2.13z"/>
     <path class="fil11" d="M78.49 162.38c0,0 -7.91,-2.88 -8.92,3.25 -1.01,6.13 -0.91,12.23 0.42,14.38 1.33,2.14 13.53,5.06 13.53,5.06l21.12 4.65c0,0 1.52,0.31 0.6,-1.41 -1.02,-1.92 -6.61,-14.26 -9.85,-17.25 -5.96,-5.54 -16.9,-8.68 -16.9,-8.68z"/>
     <path class="fil2" d="M86.28 185.68c0,0 0.03,-14.45 -1.03,-16.05 -1.06,-1.61 -13.5,-7.36 -13.5,-7.36 0,0 1.21,-1.04 3.7,-0.56 2.48,0.47 6.62,1.59 10.05,3.36 3.44,1.76 8.93,4.28 10.99,7.2 0.89,1.27 2.76,4.3 4.54,7.59 2.31,4.28 4.51,8.85 4.51,9.11 0,0.52 0.12,1 -1.93,0.56 -4.76,-1.01 -17.33,-3.85 -17.33,-3.85z"/>
     <path class="fil11" d="M98.28 179.25c0,2.83 -2.29,5.12 -5.12,5.12 -2.83,0 -5.12,-2.29 -5.12,-5.12 0,-2.83 2.29,-5.12 5.12,-5.12 2.83,0 5.12,2.29 5.12,5.12z"/>
     <path class="fil5" d="M98.28 179.25c-0.03,0 0,-0.46 -0.21,-1.24 -0.19,-0.76 -0.71,-1.89 -1.87,-2.76 -0.57,-0.42 -1.29,-0.78 -2.11,-0.93 -0.83,-0.14 -1.75,-0.11 -2.64,0.23 -0.44,0.15 -0.87,0.39 -1.26,0.68 -0.4,0.29 -0.76,0.65 -1.06,1.07 -0.61,0.81 -0.96,1.87 -0.97,2.95 0.01,1.09 0.36,2.14 0.97,2.96 0.3,0.41 0.66,0.77 1.06,1.06 0.39,0.3 0.82,0.53 1.26,0.69 0.89,0.33 1.81,0.36 2.64,0.22 0.83,-0.14 1.54,-0.5 2.12,-0.93 1.15,-0.87 1.67,-1.99 1.86,-2.76 0.21,-0.78 0.18,-1.24 0.21,-1.24 0,0 0.06,0.46 -0.11,1.26 -0.18,0.79 -0.68,1.96 -1.86,2.88 -0.58,0.45 -1.33,0.83 -2.19,0.99 -0.85,0.16 -1.82,0.14 -2.74,-0.21 -0.47,-0.16 -0.92,-0.4 -1.33,-0.71 -0.42,-0.3 -0.8,-0.68 -1.11,-1.11 -0.65,-0.86 -1.02,-1.96 -1.02,-3.1 0,-1.14 0.37,-2.24 1.02,-3.1 0.31,-0.43 0.69,-0.81 1.11,-1.11 0.41,-0.3 0.86,-0.55 1.33,-0.7 0.92,-0.35 1.89,-0.37 2.74,-0.22 0.86,0.16 1.61,0.54 2.19,0.99 1.18,0.92 1.68,2.09 1.86,2.88 0.17,0.8 0.11,1.26 0.11,1.26z"/>
     <path class="fil3" d="M93.16 179.03c1.88,0 3.52,1.04 4.36,2.58 0.39,-0.71 0.62,-1.53 0.62,-2.39 0,-2.76 -2.23,-4.98 -4.98,-4.98 -2.75,0 -4.98,2.22 -4.98,4.98 0,0.86 0.22,1.68 0.62,2.39 0.84,-1.54 2.48,-2.58 4.36,-2.58z"/>
     <path class="fil12" d="M95.37 179.08c0,1.22 -0.99,2.21 -2.21,2.21 -1.22,0 -2.21,-0.99 -2.21,-2.21 0,-1.21 0.99,-2.2 2.21,-2.2 1.22,0 2.21,0.99 2.21,2.2z"/>
     <path class="fil5" d="M95.37 179.08c-0.03,0 -0.02,-0.19 -0.12,-0.52 -0.09,-0.33 -0.32,-0.8 -0.81,-1.16 -0.47,-0.36 -1.25,-0.56 -1.99,-0.28 -0.74,0.25 -1.38,1.04 -1.37,1.96 -0.01,0.92 0.62,1.71 1.37,1.97 0.74,0.28 1.52,0.08 1.99,-0.28 0.49,-0.36 0.72,-0.84 0.81,-1.16 0.1,-0.33 0.09,-0.53 0.12,-0.53 0.01,0 0.01,0.05 0.02,0.15 0,0.09 -0.01,0.23 -0.05,0.4 -0.06,0.35 -0.28,0.87 -0.79,1.28 -0.5,0.41 -1.35,0.65 -2.18,0.35 -0.83,-0.27 -1.55,-1.15 -1.54,-2.18 -0.01,-1.03 0.71,-1.9 1.54,-2.18 0.83,-0.29 1.68,-0.05 2.18,0.36 0.51,0.41 0.73,0.93 0.79,1.27 0.04,0.18 0.05,0.32 0.05,0.41 -0.01,0.09 -0.01,0.14 -0.02,0.14z"/>
     <path class="fil12" d="M95.09 175.62c-0.09,0.15 -0.55,0.02 -1.25,-0.03 -0.7,-0.05 -1.66,0.03 -2.54,0.49 -0.88,0.48 -1.49,1.24 -1.83,1.84 -0.35,0.6 -0.5,1.06 -0.68,1.05 -0.16,0 -0.33,-0.52 -0.13,-1.37 0.19,-0.82 0.84,-1.95 2.06,-2.6 1.22,-0.65 2.52,-0.56 3.31,-0.26 0.81,0.31 1.15,0.75 1.06,0.88z"/>
     <path class="fil12" d="M96.38 176.43c-0.29,0.19 -0.54,0.31 -0.59,0.26 -0.04,-0.04 0.06,-0.3 0.25,-0.59 0.18,-0.28 0.47,-0.43 0.61,-0.29 0.14,0.14 0,0.43 -0.27,0.62z"/>
     <path class="fil5" d="M173.8 163.14c0,0.01 -0.07,0.01 -0.21,0.01 -0.14,0.01 -0.34,0.01 -0.59,0.02 -0.54,0 -1.3,0.01 -2.28,0.02 -2,0 -4.87,0.01 -8.4,0.03 -7.1,0 -16.9,0 -27.71,0 -5.41,-0.01 -10.56,-0.02 -15.25,-0.03 -2.35,0 -4.57,-0.01 -6.66,-0.02 -1.04,0 -2.05,0 -3.02,-0.01 -0.96,-0.06 -1.87,0.21 -2.55,0.75 -1.36,1.13 -2.59,2.17 -3.66,3.07 -0.54,0.45 -1.05,0.87 -1.51,1.26 -0.49,0.37 -1.01,0.6 -1.5,0.72 -0.49,0.12 -0.94,0.13 -1.32,0.1 -0.38,-0.02 -0.7,-0.04 -0.96,-0.05 -0.25,-0.02 -0.45,-0.03 -0.6,-0.04 -0.13,-0.01 -0.2,-0.01 -0.2,-0.02 0,0 0.07,0 0.2,0 0.15,0 0.35,0 0.6,0.01 0.26,0.01 0.59,0.02 0.96,0.03 0.39,0.02 0.82,0 1.3,-0.12 0.47,-0.12 0.98,-0.35 1.45,-0.72 0.45,-0.39 0.95,-0.82 1.49,-1.27 1.07,-0.92 2.29,-1.96 3.64,-3.11 0.71,-0.57 1.69,-0.86 2.66,-0.8 0.97,0 1.98,0 3.02,0 2.09,0 4.31,0 6.66,0 4.69,0 9.84,0 15.25,0 10.81,0.03 20.61,0.05 27.71,0.07 3.53,0.02 6.4,0.04 8.4,0.05 0.98,0.01 1.74,0.02 2.28,0.03 0.25,0 0.45,0.01 0.59,0.01 0.14,0 0.21,0.01 0.21,0.01z"/>
     <path class="fil5" d="M272.86 230.51c-0.25,-0.54 -0.79,-0.92 -1.85,-0.8 -2.96,0.34 -33.93,1.03 -38.19,0 -4.27,-1.02 -18.49,-17.16 -24.5,-18.26 -5.05,-0.92 -29.6,-1.41 -37.38,-1.19 -7.78,-0.22 -32.32,0.27 -37.37,1.19 -6.02,1.1 -20.02,18.82 -24.29,19.84 -4.27,1.03 -35.45,-1.24 -38.4,-1.58 -1.07,-0.12 -1.61,0.26 -1.86,0.8 -0.53,1.11 0.33,2.39 1.56,2.43 6.59,0.18 32.06,0.47 36.82,0.39 5,-0.09 56.13,-1.02 64.7,-1.18 12.92,0.08 57.05,0.36 61.73,0.43 5.51,0.08 30.88,0.54 37.48,0.36 1.23,-0.04 2.08,-1.32 1.55,-2.43z"/>
     <path class="fil5" d="M162.26 105.93c0.25,0 1.02,4.44 4.61,4.36 3.59,-0.09 12.34,0 12.34,0l0 -5.56 -16.95 1.2z"/>
     <path class="fil7" d="M60.67 140.71c-1.1,-0.09 -1.89,-1.07 -1.74,-2.16 0.48,-3.39 2.26,-9.98 8.81,-10.95 5.79,-0.87 10,-0.6 12.22,-0.32 1.01,0.14 1.52,1.06 1.64,2.08 0.56,4.66 0.11,10.44 -1.24,11.15 -1.4,0.74 -14.91,0.58 -19.69,0.2z"/>
     <path class="fil5" d="M105.97 104.73c0,0 -0.02,0.04 -0.05,0.11 -0.04,0.09 -0.1,0.19 -0.16,0.32 -0.16,0.29 -0.37,0.69 -0.64,1.19 -0.57,1.06 -1.38,2.55 -2.38,4.38 -2.05,3.7 -4.86,8.79 -7.96,14.41 -2.54,4.56 -4.89,8.77 -6.76,12.13l-0.01 0.01 -0.01 0.02c-2.26,1.73 -4.11,3.15 -5.42,4.16 -0.64,0.48 -1.14,0.86 -1.5,1.14 -0.17,0.12 -0.3,0.21 -0.4,0.29 -0.09,0.06 -0.14,0.09 -0.14,0.09 -0.01,0 0.03,-0.04 0.12,-0.11 0.1,-0.09 0.22,-0.19 0.38,-0.32 0.35,-0.28 0.85,-0.68 1.47,-1.18 1.3,-1.02 3.13,-2.47 5.37,-4.23l-0.03 0.03c1.86,-3.36 4.19,-7.58 6.72,-12.15 3.12,-5.61 5.95,-10.68 8.01,-14.37 1.03,-1.82 1.87,-3.3 2.46,-4.34 0.28,-0.5 0.51,-0.89 0.67,-1.18 0.08,-0.12 0.14,-0.22 0.19,-0.3 0.04,-0.07 0.06,-0.1 0.07,-0.1z"/>
     <path class="fil2" d="M87.98 137.25l-0.46 0.32c-0.18,-0.23 10.92,23.04 16.15,29.18l3.43 -2.91c-7.41,-7.18 -12.94,-18.33 -19.12,-26.59z"/>
     <path class="fil5" d="M110 228.74c0,-0.01 0.1,-0.02 0.26,-0.12 0.17,-0.1 0.4,-0.26 0.7,-0.5 0.59,-0.46 1.42,-1.19 2.48,-2.15 2.11,-1.92 5.09,-4.77 8.68,-8.4 0.9,-0.91 1.83,-1.87 2.8,-2.87 0.97,-0.99 1.89,-2.13 3.06,-3.09 1.18,-0.95 2.56,-1.73 4.07,-2.28 1.51,-0.56 3.15,-0.88 4.85,-1.01 0.84,-0.06 1.7,-0.07 2.56,-0.07 0.87,-0.01 1.74,-0.02 2.62,-0.03 1.77,-0.02 3.57,-0.03 5.41,-0.05 3.67,-0.04 7.47,-0.07 11.37,-0.11 15.58,-0.13 29.68,-0.24 39.89,-0.33 5.1,-0.03 9.23,-0.05 12.09,-0.07 1.43,0 2.53,-0.01 3.29,-0.01 0.37,0 0.65,0.01 0.86,0.01 0.19,0 0.29,0.01 0.29,0.01 0,0 -0.1,0.01 -0.29,0.01 -0.21,0.01 -0.49,0.01 -0.86,0.02 -0.76,0.01 -1.86,0.03 -3.29,0.06 -2.86,0.03 -6.99,0.08 -12.08,0.15 -10.22,0.1 -24.32,0.24 -39.9,0.4 -3.89,0.03 -7.7,0.07 -11.37,0.1 -1.84,0.01 -3.64,0.03 -5.4,0.04 -0.89,0.01 -1.76,0.02 -2.63,0.03 -0.86,0 -1.71,0 -2.55,0.07 -1.67,0.12 -3.29,0.44 -4.78,0.98 -1.5,0.54 -2.85,1.31 -4.02,2.24 -1.15,0.94 -2.08,2.07 -3.06,3.06 -0.96,1 -1.9,1.96 -2.8,2.86 -3.61,3.61 -6.62,6.45 -8.75,8.36 -1.06,0.95 -1.91,1.66 -2.51,2.11 -0.3,0.23 -0.55,0.39 -0.72,0.48 -0.17,0.1 -0.27,0.1 -0.27,0.1z"/>
     <path class="fil13" d="M84.54 200.55c-1.46,-1.44 -2.94,-2.9 -4.67,-4 -1.74,-1.09 -4.23,-2.38 -5.8,-1.36 -0.8,0.87 -1.45,1.88 -1.9,2.96 -0.16,0.37 -0.29,0.81 -0.12,1.17 0.22,0.44 0.8,0.56 1.29,0.62 3.62,0.46 7.24,0.91 10.85,1.37 0.21,0.02 0.47,0.02 0.58,-0.16 0.11,-0.2 -0.07,-0.43 -0.23,-0.6z"/>
     <path class="fil2" d="M126.82 193.69c27.69,7.37 56.94,5.52 85.4,2.24 4.39,-0.51 9.17,-1.24 12.17,-4.49l-97.57 2.25z"/>
     <path class="fil14" d="M230.01 168.16c-10.81,-1.53 -33.55,-2.28 -56.12,-2.27 -22.57,-0.01 -45.3,0.74 -56.12,2.27 -3.39,0.48 -5.59,3.85 -4.62,7.13 0.01,0.04 0.02,0.08 0.03,0.12 1.18,3.88 5.85,16.28 13.27,18.14 3.45,0.86 22.87,1.69 43.58,1.85l0 0.03c1.29,0 2.58,0 3.86,0 1.29,0 2.58,0 3.86,0l0 -0.03c20.72,-0.16 40.13,-0.99 43.58,-1.85 7.43,-1.86 12.09,-14.26 13.27,-18.14 0.02,-0.04 0.03,-0.08 0.04,-0.12 0.96,-3.28 -1.24,-6.65 -4.63,-7.13z"/>
     <path class="fil5" d="M232.75 191.9c0,0 -0.1,0.06 -0.29,0.16 -0.2,0.1 -0.48,0.25 -0.85,0.44 -0.37,0.19 -0.84,0.42 -1.38,0.7 -0.28,0.14 -0.57,0.3 -0.89,0.44 -0.32,0.15 -0.66,0.3 -1.03,0.46 -2.89,1.35 -7.21,3.02 -12.72,4.48 -5.52,1.43 -12.23,2.65 -19.74,3.29 -7.51,0.69 -15.8,0.84 -24.5,0.81 -8.69,-0.04 -16.99,-0.44 -24.47,-1.43 -7.47,-0.97 -14.12,-2.53 -19.52,-4.35 -5.42,-1.79 -9.6,-3.8 -12.4,-5.31 -0.71,-0.37 -1.31,-0.74 -1.85,-1.04 -0.53,-0.3 -0.97,-0.58 -1.33,-0.8 -0.35,-0.22 -0.62,-0.39 -0.8,-0.51 -0.19,-0.11 -0.28,-0.18 -0.28,-0.18 0,0 0.1,0.05 0.29,0.16 0.19,0.11 0.46,0.28 0.82,0.49 0.36,0.21 0.8,0.48 1.34,0.78 0.54,0.3 1.15,0.65 1.86,1.01 2.81,1.49 6.99,3.47 12.4,5.24 5.41,1.79 12.04,3.33 19.5,4.29 7.47,0.98 15.76,1.36 24.45,1.4 8.68,0.04 16.97,-0.1 24.47,-0.79 7.51,-0.62 14.2,-1.82 19.71,-3.23 5.51,-1.44 9.84,-3.08 12.73,-4.4 0.37,-0.16 0.71,-0.3 1.04,-0.44 0.32,-0.15 0.61,-0.3 0.89,-0.43 0.55,-0.27 1.01,-0.5 1.39,-0.69 0.37,-0.18 0.66,-0.31 0.86,-0.41 0.2,-0.1 0.3,-0.14 0.3,-0.14z"/>
     <path class="fil8" d="M234.08 174.2c0,0.07 -27,0.12 -60.3,0.12 -33.31,0 -60.3,-0.05 -60.3,-0.12 0,-0.07 26.99,-0.12 60.3,-0.12 33.3,0 60.3,0.05 60.3,0.12z"/>
     <path class="fil8" d="M234.08 170.53c0,0.06 -27,0.12 -60.3,0.12 -33.31,0 -60.3,-0.06 -60.3,-0.12 0,-0.07 26.99,-0.13 60.3,-0.13 33.3,0 60.3,0.06 60.3,0.13z"/>
     <path class="fil8" d="M217.01 166.85c0,0.07 -19.32,0.13 -43.16,0.13 -23.84,0 -43.16,-0.06 -43.16,-0.13 0,-0.06 19.32,-0.12 43.16,-0.12 23.84,0 43.16,0.06 43.16,0.12z"/>
     <path class="fil8" d="M234.08 177.92c0,0.07 -27,0.13 -60.3,0.13 -33.31,0 -60.3,-0.06 -60.3,-0.13 0,-0.06 26.99,-0.12 60.3,-0.12 33.3,0 60.3,0.06 60.3,0.12z"/>
     <path class="fil8" d="M231.4 181.65c0,0.07 -25.92,0.12 -57.9,0.12 -31.98,0 -57.9,-0.05 -57.9,-0.12 0,-0.07 25.92,-0.13 57.9,-0.13 31.98,0 57.9,0.06 57.9,0.13z"/>
     <path class="fil8" d="M230.23 185.37c0,0.07 -25.23,0.12 -56.34,0.12 -31.12,0 -56.33,-0.05 -56.33,-0.12 0,-0.07 25.21,-0.12 56.33,-0.12 31.11,0 56.34,0.05 56.34,0.12z"/>
     <path class="fil8" d="M227.32 189.09c0,0.07 -23.93,0.13 -53.43,0.13 -29.51,0 -53.43,-0.06 -53.43,-0.13 0,-0.06 23.92,-0.12 53.43,-0.12 29.5,0 53.43,0.06 53.43,0.12z"/>
     <path class="fil8" d="M223.7 192.82c0,0.07 -22.17,0.12 -49.51,0.12 -27.34,0 -49.5,-0.05 -49.5,-0.12 0,-0.07 22.16,-0.12 49.5,-0.12 27.34,0 49.51,0.05 49.51,0.12z"/>
     <path class="fil8" d="M228.34 226.83c0,0.07 -25.33,0.12 -56.58,0.12 -31.25,0 -56.58,-0.05 -56.58,-0.12 0,-0.07 25.33,-0.12 56.58,-0.12 31.25,0 56.58,0.05 56.58,0.12z"/>
     <polygon class="fil8" points="140.13,230.95 136.81,230.95 136.57,226.83 140.38,226.83 "/>
     <polygon class="fil8" points="171.16,230.95 167.84,230.95 167.61,226.83 171.41,226.83 "/>
     <polygon class="fil8" points="202.2,230.95 198.88,230.95 198.65,226.83 202.45,226.83 "/>
     <path class="fil8" d="M226.59 225.34c-6.01,-5.17 -14.09,-13.13 -18.26,-13.89 -5.04,-0.92 -29.59,-1.41 -37.37,-1.19 -7.78,-0.22 -32.33,0.27 -37.37,1.19 -3.87,0.71 -11.05,8.3 -16.82,13.89 36.61,0 73.21,0 109.82,0z"/>
     <path class="fil5" d="M66.85 222.63c0,-0.01 0.09,-0.09 0.26,-0.24 0.2,-0.16 0.46,-0.37 0.79,-0.65 0.7,-0.57 1.7,-1.39 2.96,-2.4l0.02 -0.02 0.04 0c3.89,0.48 9.76,1.2 16.32,2.01 3.19,0.4 6.22,0.78 8.92,1.13l0.02 0 0.01 0.01c3.27,1.79 6.03,3.31 8,4.39 0.95,0.54 1.72,0.97 2.26,1.27 0.25,0.14 0.45,0.26 0.6,0.34 0.13,0.09 0.2,0.13 0.2,0.13 -0.01,0.01 -0.08,-0.02 -0.22,-0.09 -0.15,-0.08 -0.36,-0.19 -0.61,-0.32 -0.55,-0.29 -1.33,-0.7 -2.3,-1.21 -1.98,-1.06 -4.75,-2.55 -8.03,-4.32l0.04 0.02c-2.7,-0.34 -5.73,-0.71 -8.92,-1.11 -6.56,-0.84 -12.42,-1.59 -16.31,-2.09l0.06 -0.02c-1.27,0.99 -2.29,1.79 -3.01,2.35 -0.34,0.26 -0.61,0.47 -0.81,0.62 -0.18,0.14 -0.28,0.21 -0.29,0.2z"/>
     <path class="fil14" d="M107.25 213.61c0,0 1.6,-2.72 0,-3.4 -1.85,-0.79 -32.62,-4.48 -33.88,-4.59 -2.49,-0.22 -3.4,0.91 -3.98,3.84 -0.59,2.93 -1.88,10.2 0.58,12.31 2.47,2.11 6.34,3.05 13.96,3.52 7.62,0.47 11.63,0.72 15.38,-1.39 3.75,-2.11 7.94,-10.29 7.94,-10.29z"/>
     <path class="fil5" d="M105.67 189.45c-0.08,0.04 -0.51,-0.76 -1.26,-2.21 -0.74,-1.45 -1.8,-3.56 -3.18,-6.12 -0.7,-1.28 -1.46,-2.68 -2.34,-4.13 -0.89,-1.46 -1.86,-3 -3.03,-4.48 -0.6,-0.73 -1.21,-1.42 -1.97,-2.04 -0.75,-0.63 -1.57,-1.19 -2.46,-1.7 -0.88,-0.51 -1.84,-1 -2.79,-1.51 -0.96,-0.5 -1.93,-1.01 -2.92,-1.5 -1.98,-0.97 -3.95,-1.82 -5.92,-2.45 -0.98,-0.31 -1.96,-0.56 -2.93,-0.77 -0.96,-0.21 -1.9,-0.35 -2.79,-0.32 -0.89,0.03 -1.72,0.25 -2.36,0.71 -0.63,0.46 -1.07,1.14 -1.37,1.88 -0.31,0.74 -0.5,1.53 -0.67,2.3 -0.17,0.77 -0.33,1.53 -0.5,2.24 -0.68,2.83 -1.23,5.12 -1.61,6.72 -0.38,1.59 -0.59,2.47 -0.68,2.45 -0.08,-0.01 -0.03,-0.92 0.21,-2.54 0.23,-1.62 0.66,-3.95 1.23,-6.81 0.13,-0.72 0.27,-1.47 0.42,-2.25 0.16,-0.79 0.32,-1.63 0.65,-2.48 0.32,-0.85 0.84,-1.74 1.68,-2.38 0.85,-0.64 1.91,-0.92 2.95,-0.98 1.04,-0.05 2.08,0.1 3.08,0.31 1.01,0.2 2.03,0.46 3.06,0.77 2.04,0.64 4.08,1.5 6.09,2.5 1.01,0.5 1.99,1.01 2.95,1.52 0.96,0.51 1.9,1.01 2.83,1.55 0.93,0.54 1.82,1.16 2.61,1.84 0.8,0.67 1.5,1.47 2.1,2.24 1.21,1.57 2.16,3.16 3.02,4.66 0.86,1.5 1.58,2.94 2.23,4.25 1.29,2.63 2.23,4.81 2.85,6.32 0.61,1.52 0.9,2.38 0.82,2.41z"/>
     <path class="fil3" d="M77.9 173.96c2.39,0 4.48,1.33 5.55,3.29 0.5,-0.9 0.79,-1.94 0.79,-3.05 0,-3.5 -2.84,-6.34 -6.34,-6.34 -3.51,0 -6.35,2.84 -6.35,6.34 0,1.11 0.29,2.15 0.79,3.05 1.08,-1.96 3.16,-3.29 5.56,-3.29z"/>
     <path class="fil12" d="M80.63 173.99c0,1.51 -1.22,2.74 -2.73,2.74 -1.51,0 -2.74,-1.23 -2.74,-2.74 0,-1.51 1.23,-2.73 2.74,-2.73 1.51,0 2.73,1.22 2.73,2.73z"/>
     <path class="fil5" d="M80.63 173.99c-0.03,0 -0.02,-0.24 -0.13,-0.65 -0.11,-0.41 -0.39,-1 -1,-1.45 -0.59,-0.45 -1.56,-0.71 -2.5,-0.36 -0.92,0.32 -1.72,1.31 -1.71,2.46 -0.01,1.15 0.79,2.14 1.71,2.46 0.94,0.35 1.91,0.1 2.5,-0.36 0.61,-0.45 0.89,-1.04 1,-1.44 0.11,-0.41 0.1,-0.66 0.13,-0.66 0.01,0 0.01,0.06 0.02,0.18 0,0.11 -0.01,0.29 -0.06,0.5 -0.09,0.43 -0.35,1.06 -0.99,1.56 -0.61,0.51 -1.65,0.8 -2.67,0.44 -0.51,-0.18 -0.99,-0.52 -1.33,-0.99 -0.35,-0.47 -0.56,-1.07 -0.56,-1.69 0,-0.62 0.21,-1.22 0.56,-1.68 0.34,-0.48 0.82,-0.82 1.33,-0.99 1.02,-0.37 2.06,-0.07 2.67,0.43 0.64,0.5 0.9,1.14 0.99,1.56 0.05,0.22 0.06,0.39 0.06,0.51 -0.01,0.11 -0.01,0.17 -0.02,0.17z"/>
     <path class="fil5" d="M84.24 174.2c-0.04,0 0,-0.57 -0.25,-1.54 -0.24,-0.95 -0.88,-2.35 -2.31,-3.43 -0.71,-0.53 -1.6,-0.98 -2.63,-1.16 -1.02,-0.17 -2.18,-0.14 -3.27,0.28 -0.56,0.19 -1.09,0.48 -1.58,0.85 -0.49,0.36 -0.94,0.81 -1.31,1.32 -0.77,1.02 -1.2,2.33 -1.21,3.68 0.01,1.35 0.44,2.66 1.21,3.68 0.37,0.51 0.82,0.96 1.31,1.32 0.49,0.37 1.02,0.66 1.58,0.85 1.09,0.42 2.25,0.45 3.27,0.28 1.03,-0.18 1.92,-0.63 2.63,-1.16 1.43,-1.08 2.07,-2.48 2.31,-3.43 0.25,-0.97 0.21,-1.54 0.25,-1.54 0.01,0 0.01,0.14 0,0.41 0,0.13 0,0.29 -0.04,0.49 -0.02,0.19 -0.04,0.41 -0.11,0.66 -0.22,0.97 -0.84,2.42 -2.3,3.55 -0.73,0.55 -1.64,1.03 -2.7,1.22 -1.06,0.19 -2.25,0.16 -3.39,-0.27 -0.58,-0.19 -1.13,-0.49 -1.64,-0.87 -0.51,-0.37 -0.98,-0.83 -1.37,-1.37 -0.8,-1.06 -1.25,-2.42 -1.26,-3.82 0.01,-1.4 0.46,-2.76 1.26,-3.82 0.39,-0.54 0.86,-1 1.37,-1.37 0.51,-0.38 1.06,-0.68 1.64,-0.87 1.14,-0.43 2.33,-0.46 3.39,-0.27 1.06,0.19 1.97,0.67 2.7,1.22 1.45,1.13 2.08,2.58 2.3,3.55 0.07,0.25 0.09,0.47 0.11,0.66 0.04,0.2 0.04,0.36 0.04,0.49 0.01,0.27 0.01,0.41 0,0.41z"/>
     <path class="fil12" d="M80.29 169.7c-0.09,0.16 -0.65,-0.05 -1.53,-0.13 -0.87,-0.1 -2.11,-0.02 -3.24,0.58 -1.13,0.6 -1.88,1.59 -2.29,2.36 -0.42,0.78 -0.56,1.36 -0.74,1.35 -0.16,0 -0.34,-0.65 -0.07,-1.66 0.25,-1 1.05,-2.35 2.52,-3.14 1.47,-0.78 3.05,-0.69 4.01,-0.34 0.99,0.34 1.42,0.85 1.34,0.98z"/>
     <path class="fil12" d="M81.88 170.71c-0.28,0.19 -0.55,0.28 -0.62,0.22 -0.07,-0.07 0.02,-0.35 0.2,-0.63 0.18,-0.29 0.49,-0.42 0.66,-0.26 0.16,0.16 0.04,0.47 -0.24,0.67z"/>
     <path class="fil5" d="M117.88 198.16c-0.09,0.33 -8.57,-1.53 -18.95,-4.15 -10.38,-2.63 -18.72,-5.02 -18.64,-5.35 0.08,-0.33 8.56,1.53 18.95,4.15 10.37,2.63 18.72,5.02 18.64,5.35z"/>
     <path class="fil5" d="M67.88 163.44c-0.01,0 -0.01,-0.04 0,-0.14 0.02,-0.1 0.04,-0.24 0.08,-0.43 0.08,-0.36 0.23,-0.91 0.58,-1.54 0.35,-0.63 0.92,-1.35 1.81,-1.89 0.21,-0.13 0.46,-0.23 0.71,-0.35 0.26,-0.08 0.53,-0.2 0.81,-0.25 0.29,-0.06 0.58,-0.14 0.89,-0.15 0.31,-0.02 0.63,-0.02 0.95,0.01 1.29,0.1 2.67,0.42 4.12,0.8 1.46,0.39 3,0.88 4.6,1.43 3.2,1.11 6.68,2.45 10.23,4.1 0.44,0.21 0.88,0.42 1.31,0.65 0.43,0.23 0.83,0.53 1.2,0.82 0.75,0.6 1.43,1.27 2.01,1.99 1.1,1.51 2.07,2.98 3.02,4.39 1.87,2.82 3.49,5.41 4.8,7.61 1.3,2.21 2.3,4.02 2.98,5.28 0.34,0.63 0.59,1.13 0.77,1.46 0.07,0.16 0.14,0.29 0.19,0.39 0.04,0.09 0.06,0.13 0.05,0.13 0,0 -0.03,-0.04 -0.08,-0.12 -0.05,-0.1 -0.12,-0.22 -0.21,-0.37 -0.19,-0.35 -0.46,-0.83 -0.81,-1.44 -0.7,-1.25 -1.72,-3.05 -3.04,-5.24 -1.33,-2.19 -2.96,-4.76 -4.84,-7.57 -0.95,-1.4 -1.94,-2.89 -3.02,-4.37 -0.57,-0.71 -1.23,-1.36 -1.97,-1.95 -0.37,-0.29 -0.75,-0.57 -1.17,-0.79 -0.42,-0.23 -0.86,-0.44 -1.3,-0.65 -3.53,-1.64 -7.01,-2.98 -10.2,-4.11 -1.59,-0.55 -3.12,-1.04 -4.57,-1.44 -1.45,-0.39 -2.82,-0.71 -4.08,-0.82 -0.32,-0.03 -0.63,-0.04 -0.93,-0.02 -0.3,0 -0.58,0.08 -0.86,0.13 -0.28,0.05 -0.54,0.16 -0.8,0.23 -0.24,0.12 -0.48,0.21 -0.69,0.34 -0.87,0.51 -1.44,1.2 -1.8,1.81 -0.35,0.62 -0.52,1.15 -0.61,1.52 -0.05,0.18 -0.08,0.32 -0.1,0.41 -0.02,0.1 -0.03,0.15 -0.03,0.14z"/>
     <path class="fil13" d="M65.91 166.12c-0.47,0.16 -3.03,1.76 -4.12,2.37 -1.09,0.6 -2.04,1.57 -2.36,2.77 -0.31,1.2 0.04,2.47 0.38,3.66 1.12,3.9 2.42,10.91 3.54,14.81 0.87,-7.07 1.83,-19.12 2.56,-23.61z"/>
     <path class="fil8" d="M101.11 222.22c-0.01,0.06 -7.32,-0.89 -16.33,-2.14 -9,-1.24 -16.3,-2.31 -16.29,-2.38 0.01,-0.06 7.32,0.89 16.33,2.14 9,1.24 16.3,2.31 16.29,2.38z"/>
     <path class="fil8" d="M98.78 224c0,0.01 -0.1,0 -0.31,-0.02 -0.22,-0.02 -0.51,-0.05 -0.87,-0.09 -0.79,-0.1 -1.88,-0.23 -3.22,-0.39 -2.74,-0.33 -6.48,-0.77 -10.61,-1.26 -4.15,-0.5 -7.9,-0.97 -10.61,-1.35 -1.36,-0.18 -2.45,-0.34 -3.21,-0.46 -0.36,-0.06 -0.65,-0.11 -0.87,-0.14 -0.2,-0.04 -0.3,-0.06 -0.3,-0.07 0,-0.01 0.11,0 0.31,0.02 0.22,0.02 0.51,0.06 0.87,0.09 0.79,0.1 1.88,0.23 3.22,0.39 2.74,0.33 6.48,0.78 10.62,1.27 4.14,0.49 7.89,0.96 10.6,1.34 1.36,0.19 2.46,0.35 3.21,0.46 0.36,0.06 0.65,0.11 0.87,0.15 0.2,0.03 0.3,0.05 0.3,0.06z"/>
     <path class="fil8" d="M93.67 225.34c0.02,0.06 -1.2,-0.04 -3.12,-0.23 -1.94,-0.2 -4.61,-0.49 -7.55,-0.84 -2.95,-0.34 -5.61,-0.67 -7.54,-0.92 -0.93,-0.13 -1.7,-0.23 -2.28,-0.31 -0.53,-0.08 -0.83,-0.13 -0.83,-0.15 0,-0.02 0.3,0 0.85,0.05 0.58,0.06 1.35,0.14 2.28,0.23 1.97,0.23 4.62,0.53 7.55,0.86 2.92,0.35 5.57,0.67 7.53,0.91 0.94,0.11 1.71,0.21 2.29,0.28 0.53,0.07 0.85,0.12 0.82,0.12z"/>
     <path class="fil8" d="M102.82 220.18c-0.01,0.07 -7.7,-0.89 -17.18,-2.13 -9.48,-1.25 -17.16,-2.32 -17.15,-2.38 0.01,-0.07 7.7,0.89 17.18,2.13 9.48,1.25 17.15,2.31 17.15,2.38z"/>
     <path class="fil8" d="M104.15 218.29c-0.01,0.07 -7.97,-0.92 -17.79,-2.21 -9.81,-1.29 -17.76,-2.39 -17.75,-2.46 0.01,-0.07 7.97,0.92 17.79,2.21 9.81,1.29 17.75,2.4 17.75,2.46z"/>
     <path class="fil8" d="M105.65 216.06c-0.01,0.07 -8.2,-0.95 -18.29,-2.28 -10.09,-1.33 -18.26,-2.46 -18.25,-2.52 0.01,-0.07 8.2,0.95 18.29,2.28 10.08,1.32 18.26,2.45 18.25,2.52z"/>
     <path class="fil8" d="M106.8 213.78c-0.01,0.07 -8.34,-0.97 -18.61,-2.32 -10.27,-1.35 -18.59,-2.5 -18.58,-2.57 0.01,-0.07 8.34,0.97 18.61,2.33 10.27,1.35 18.59,2.49 18.58,2.56z"/>
     <path class="fil8" d="M107.96 211.5c-0.01,0.07 -8.41,-0.98 -18.76,-2.34 -10.35,-1.36 -18.73,-2.52 -18.73,-2.58 0.01,-0.07 8.41,0.98 18.76,2.34 10.35,1.36 18.74,2.52 18.73,2.58z"/>
     <path class="fil8" d="M80.85 206.31c0.06,0.01 -0.75,4.11 -1.82,9.14 -1.07,5.04 -2,9.1 -2.06,9.09 -0.07,-0.01 0.75,-4.11 1.82,-9.14 1.07,-5.04 1.99,-9.11 2.06,-9.09z"/>
     <path class="fil8" d="M77.75 205.79c0.07,0.02 -0.74,4.11 -1.82,9.14 -1.07,5.04 -1.99,9.11 -2.06,9.09 -0.06,-0.01 0.75,-4.1 1.82,-9.14 1.07,-5.03 2,-9.1 2.06,-9.09z"/>
     <path class="fil8" d="M74.66 205.27c0.07,0.02 -0.7,3.89 -1.71,8.65 -1.02,4.77 -1.89,8.62 -1.96,8.6 -0.07,-0.01 0.7,-3.89 1.71,-8.65 1.02,-4.76 1.89,-8.61 1.96,-8.6z"/>
     <path class="fil8" d="M71.31 205.98c0.01,0 -0.01,0.19 -0.06,0.52 -0.07,0.38 -0.16,0.85 -0.26,1.4 -0.22,1.25 -0.51,2.85 -0.83,4.63 -0.31,1.81 -0.64,3.45 -0.9,4.62 -0.13,0.59 -0.24,1.06 -0.33,1.39 -0.08,0.33 -0.14,0.51 -0.15,0.5 -0.02,0 0,-0.19 0.06,-0.52 0.07,-0.38 0.15,-0.85 0.25,-1.4 0.22,-1.24 0.51,-2.85 0.83,-4.63 0.32,-1.81 0.64,-3.45 0.91,-4.62 0.12,-0.59 0.24,-1.06 0.32,-1.39 0.09,-0.33 0.14,-0.51 0.16,-0.5z"/>
     <path class="fil8" d="M84.42 206.95c0.07,0.01 -0.71,3.96 -1.75,8.82 -1.03,4.86 -1.93,8.78 -1.99,8.77 -0.07,-0.01 0.72,-3.96 1.75,-8.82 1.03,-4.86 1.93,-8.79 1.99,-8.77z"/>
     <path class="fil8" d="M87.98 207.67c0.07,0.01 -0.72,3.97 -1.76,8.84 -1.03,4.87 -1.93,8.81 -1.99,8.8 -0.07,-0.02 0.72,-3.98 1.75,-8.85 1.04,-4.87 1.94,-8.81 2,-8.79z"/>
     <path class="fil8" d="M91.65 207.86c0.07,0.02 -0.71,3.94 -1.74,8.77 -1.03,4.83 -1.91,8.73 -1.98,8.71 -0.07,-0.01 0.71,-3.93 1.74,-8.76 1.03,-4.83 1.91,-8.73 1.98,-8.72z"/>
     <path class="fil8" d="M95.26 208.34c0.07,0.01 -0.71,3.91 -1.73,8.71 -1.02,4.81 -1.9,8.69 -1.97,8.67 -0.07,-0.01 0.71,-3.92 1.73,-8.72 1.02,-4.8 1.9,-8.68 1.97,-8.66z"/>
     <path class="fil8" d="M98.82 209.04c0.07,0.01 -0.65,3.67 -1.61,8.16 -0.96,4.49 -1.78,8.12 -1.85,8.1 -0.07,-0.01 0.65,-3.66 1.61,-8.15 0.96,-4.49 1.79,-8.12 1.85,-8.11z"/>
     <path class="fil8" d="M102.47 209.34c0.07,0.01 -0.61,3.43 -1.5,7.63 -0.89,4.19 -1.67,7.58 -1.74,7.57 -0.06,-0.01 0.61,-3.43 1.5,-7.62 0.89,-4.2 1.67,-7.59 1.74,-7.58z"/>
     <path class="fil8" d="M106.06 209.92c0.06,0.02 -0.31,2.04 -0.84,4.52 -0.53,2.48 -1.01,4.47 -1.08,4.46 -0.06,-0.02 0.31,-2.04 0.84,-4.51 0.53,-2.48 1.01,-4.48 1.08,-4.47z"/>
     <path class="fil5" d="M223.87 223.47c0,0.07 -23.49,0.13 -52.45,0.13 -28.98,0 -52.46,-0.06 -52.46,-0.13 0,-0.06 23.48,-0.12 52.46,-0.12 28.96,0 52.45,0.06 52.45,0.12z"/>
     <path class="fil5" d="M221.81 221.1c0,0.07 -22.48,0.12 -50.2,0.12 -27.73,0 -50.2,-0.05 -50.2,-0.12 0,-0.07 22.47,-0.12 50.2,-0.12 27.72,0 50.2,0.05 50.2,0.12z"/>
     <path class="fil5" d="M218.69 218.67c0,0.07 -21.26,0.12 -47.48,0.12 -26.23,0 -47.49,-0.05 -47.49,-0.12 0,-0.07 21.26,-0.12 47.49,-0.12 26.22,0 47.48,0.05 47.48,0.12z"/>
     <path class="fil5" d="M216.6 216.24c0,0.07 -20.25,0.12 -45.22,0.12 -24.98,0 -45.23,-0.05 -45.23,-0.12 0,-0.07 20.25,-0.12 45.23,-0.12 24.97,0 45.22,0.05 45.22,0.12z"/>
     <path class="fil5" d="M213.13 213.93c0,0.06 -18.77,0.12 -41.92,0.12 -23.16,0 -41.93,-0.06 -41.93,-0.12 0,-0.07 18.77,-0.13 41.93,-0.13 23.15,0 41.92,0.06 41.92,0.13z"/>
     <path class="fil15" d="M209.2 211.61c0,0.07 -16.96,0.13 -37.88,0.13 -20.92,0 -37.88,-0.06 -37.88,-0.13 0,-0.06 16.96,-0.12 37.88,-0.12 20.92,0 37.88,0.06 37.88,0.12z"/>
     <path class="fil2" d="M179.21 137.95l-87.85 -0.14c0,0 3.64,4.35 10.33,4.31 6.11,-0.03 65.53,-0.01 75.96,0l0 0c0,0 0.25,0 0.73,0 0.54,0 0.83,0 0.83,0l0 0c9.63,-0.01 60.77,-0.03 66.05,0 5.84,0.04 8.7,-4.17 8.7,-4.17l-74.75 0z"/>
     <path class="fil5" d="M254.27 136.08l-16.62 -28.82c-0.25,-0.45 -0.73,-0.74 -1.25,-0.76l-57.19 -2.45 -5.48 -0.24c-0.66,-0.02 -1.32,-0.02 -1.97,0l-5.49 0.24 -57.19 2.45c-0.52,0.02 -0.99,0.31 -1.25,0.76l-16.62 28.82c-0.54,0.92 0.03,2.1 1.09,2.26 0.23,0.03 0.49,0.07 0.75,0.1 1.45,0.16 59.47,0.05 79.69,0.01 20.22,0.04 78.24,0.15 79.69,-0.01 0.27,-0.03 0.52,-0.07 0.75,-0.1 1.06,-0.16 1.63,-1.34 1.09,-2.26zm-7.65 -1.21l0 0 -73.88 0.49 -73.88 -0.49c-1.17,-0.01 -1.89,-1.27 -1.31,-2.28 3.18,-5.51 11.19,-19.31 12.47,-20.9 2.32,-2.89 38.29,-3.27 57.43,-3.27 0.11,0.03 0.23,0.04 0.35,0.04 1.12,-0.01 2.82,-0.02 4.94,-0.03 2.13,0.01 3.82,0.02 4.94,0.03 0.12,0 0.24,-0.01 0.35,-0.04 19.14,0 55.11,0.38 57.43,3.27 1.28,1.59 9.29,15.39 12.47,20.9 0.58,1.01 -0.14,2.27 -1.31,2.28z"/>
     <path class="fil5" d="M191.5 133.27c0,-1.64 0.64,-6.29 2.16,-7.53 1.18,-0.96 3.96,-1.24 5.33,-1.32 0.05,0 0.09,0 0.13,0 0.73,0.01 5.6,0.14 7.06,1.32 1.52,1.24 2.15,5.89 2.15,7.53 0,0.02 0,0.03 0,0.05 0,1.02 -0.82,1.85 -1.85,1.85l-6.14 0 -0.84 0 -6.15 0c-1.02,0 -1.85,-0.83 -1.85,-1.85 0,-0.02 0,-0.03 0,-0.05z"/>
     <path class="fil2" d="M191.5 133.27c0,-1.64 0.64,-6.29 2.16,-7.53 1.18,-0.96 3.96,-1.24 5.33,-1.32 0.05,0 0.09,0 0.13,0 0.73,0.01 5.6,0.14 7.06,1.32 1.52,1.24 2.15,5.89 2.15,7.53 0,0.02 0,0.03 0,0.05 0,1.02 -0.82,1.85 -1.85,1.85l-6.14 0 -0.84 0 -6.15 0c-1.02,0 -1.85,-0.83 -1.85,-1.85 0,-0.02 0,-0.03 0,-0.05z"/>
     <path class="fil5" d="M198.13 132.06c0,-2.69 1.04,-10.3 3.53,-12.32 1.93,-1.57 6.49,-2.04 8.74,-2.17 0.07,0 0.14,0 0.21,0 1.19,0.01 9.16,0.23 11.55,2.17 2.49,2.02 3.53,9.63 3.53,12.32 0,0.03 0,0.05 0,0.08 0,1.67 -1.36,3.03 -3.03,3.03l-10.06 0 -1.38 0 -10.06 0c-1.67,0 -3.03,-1.36 -3.03,-3.03 0,-0.03 0,-0.05 0,-0.08z"/>
     <path class="fil2" d="M224.46 210.7l0 0c0,0 -0.35,2.15 4.68,9.27 1.54,2.17 6.42,6.55 8.24,8.16 0.45,0.39 1.03,0.6 1.62,0.57 5.06,-0.22 29.5,-1.35 33.55,-2.54 1.84,-0.54 3.22,-1.17 4.25,-1.78 1.78,-1.05 2.83,-3.01 2.75,-5.08 -0.13,-3.51 -0.34,-9.69 -0.34,-11.31 0,-2.3 -1.6,-4.23 -4.58,-3.87 -1.96,0.24 -50.17,6.58 -50.17,6.58l0 0zm15.76 -0.49l0 0 31.66 -2.88 0.91 12.77 -23.3 3.77 -9.27 -13.66z"/>
     <path class="fil2" d="M278.48 177.93c0,0 2.39,7.25 -12.78,10.62 -15.36,3.42 -38.1,9.61 -38.1,9.61l12.21 -8.71c0,0 35.12,-5.85 35.99,-11.22 1,-6.15 0.01,-13.05 0.01,-13.05l2.67 12.75z"/>
     <path class="fil5" d="M219.22 210.48c0,0 0.05,-0.02 0.16,-0.06 0.12,-0.03 0.27,-0.08 0.47,-0.13 0.44,-0.13 1.05,-0.3 1.83,-0.51 1.6,-0.42 3.91,-1.03 6.79,-1.68 5.75,-1.34 13.75,-2.94 22.64,-4.39 4.45,-0.72 8.69,-1.38 12.56,-1.87 1.94,-0.26 3.77,-0.51 5.5,-0.73 1.71,-0.24 3.32,-0.46 4.81,-0.41 1.48,0.04 2.85,0.4 3.81,1.13 0.96,0.69 1.62,1.49 2.05,2.2 0.43,0.71 0.64,1.33 0.73,1.75 0.1,0.43 0.1,0.66 0.1,0.66 -0.04,0.02 -0.03,-0.96 -0.91,-2.36 -0.44,-0.69 -1.1,-1.47 -2.05,-2.14 -0.94,-0.7 -2.27,-1.04 -3.73,-1.07 -1.47,-0.03 -3.07,0.2 -4.79,0.44 -1.72,0.23 -3.56,0.49 -5.49,0.75 -3.87,0.5 -8.1,1.17 -12.55,1.89 -8.88,1.45 -16.89,3.02 -22.64,4.32 -2.88,0.63 -5.2,1.21 -6.8,1.6 -0.79,0.2 -1.41,0.35 -1.84,0.46 -0.21,0.05 -0.36,0.09 -0.49,0.12 -0.1,0.02 -0.16,0.03 -0.16,0.03z"/>
     <path class="fil5" d="M280.41 191.73c-0.01,0 -0.02,-0.09 -0.03,-0.26 0,-0.21 -0.01,-0.46 -0.02,-0.78 -0.02,-0.7 -0.04,-1.67 -0.07,-2.84 -0.08,-2.4 -0.23,-5.72 -0.56,-9.37 -0.32,-3.65 -0.75,-6.94 -1.1,-9.32 -0.18,-1.16 -0.32,-2.12 -0.43,-2.81 -0.05,-0.31 -0.08,-0.57 -0.11,-0.77 -0.03,-0.17 -0.04,-0.27 -0.03,-0.27 0.01,0 0.04,0.09 0.08,0.26 0.04,0.2 0.09,0.45 0.15,0.76 0.14,0.66 0.31,1.62 0.51,2.8 0.4,2.38 0.85,5.67 1.18,9.33 0.32,3.65 0.45,6.98 0.48,9.38 0.02,1.21 0.01,2.18 0,2.85 -0.01,0.32 -0.02,0.57 -0.03,0.78 -0.01,0.17 -0.01,0.26 -0.02,0.26z"/>
     <path class="fil5" d="M269.86 159.08c-0.05,0 -0.06,-0.83 -0.31,-2.13 -0.23,-1.31 -0.7,-3.09 -1.32,-5.02 -0.61,-1.94 -1.23,-3.67 -1.69,-4.92 -0.21,-0.59 -0.39,-1.08 -0.54,-1.48 -0.13,-0.35 -0.19,-0.55 -0.18,-0.56 0.02,0 0.11,0.18 0.27,0.52 0.15,0.34 0.37,0.84 0.61,1.46 0.5,1.23 1.16,2.96 1.77,4.9 0.61,1.94 1.06,3.74 1.26,5.07 0.06,0.32 0.07,0.63 0.11,0.89 0.03,0.27 0.04,0.5 0.04,0.68 0,0.38 0,0.59 -0.02,0.59z"/>
     <path class="fil11" d="M266.99 162.38c0,0 7.91,-2.88 8.92,3.25 1.01,6.13 0.91,12.23 -0.42,14.38 -1.32,2.14 -13.53,5.06 -13.53,5.06l-21.12 4.65c0,0 -1.52,0.31 -0.6,-1.41 1.02,-1.92 6.61,-14.26 9.85,-17.25 5.96,-5.54 16.9,-8.68 16.9,-8.68z"/>
     <path class="fil2" d="M259.2 185.68c0,0 -0.03,-14.45 1.03,-16.05 1.06,-1.61 13.5,-7.36 13.5,-7.36 0,0 -1.21,-1.04 -3.7,-0.56 -2.48,0.47 -6.62,1.59 -10.05,3.36 -3.44,1.76 -8.93,4.28 -10.99,7.2 -0.89,1.27 -2.76,4.3 -4.54,7.59 -2.31,4.28 -4.51,8.85 -4.51,9.11 0,0.52 -0.12,1 1.93,0.56 4.76,-1.01 17.33,-3.85 17.33,-3.85z"/>
     <path class="fil11" d="M247.2 179.25c0,2.83 2.29,5.12 5.12,5.12 2.83,0 5.12,-2.29 5.12,-5.12 0,-2.83 -2.29,-5.12 -5.12,-5.12 -2.83,0 -5.12,2.29 -5.12,5.12z"/>
     <path class="fil5" d="M247.2 179.25c0,0 -0.06,-0.46 0.11,-1.26 0.18,-0.79 0.68,-1.96 1.86,-2.88 0.58,-0.45 1.33,-0.83 2.19,-0.99 0.85,-0.15 1.82,-0.13 2.75,0.22 0.46,0.15 0.91,0.4 1.32,0.7 0.42,0.3 0.8,0.68 1.11,1.11 0.65,0.86 1.02,1.96 1.03,3.1 -0.01,1.14 -0.38,2.24 -1.03,3.1 -0.31,0.43 -0.69,0.81 -1.11,1.11 -0.41,0.31 -0.86,0.55 -1.32,0.71 -0.93,0.35 -1.9,0.37 -2.75,0.21 -0.86,-0.16 -1.61,-0.54 -2.19,-0.99 -1.18,-0.92 -1.68,-2.09 -1.86,-2.88 -0.17,-0.8 -0.11,-1.26 -0.11,-1.26 0.03,0 0,0.46 0.21,1.24 0.2,0.77 0.71,1.89 1.87,2.76 0.57,0.43 1.29,0.79 2.12,0.93 0.82,0.14 1.74,0.11 2.63,-0.22 0.44,-0.16 0.87,-0.39 1.26,-0.69 0.4,-0.29 0.76,-0.65 1.06,-1.06 0.62,-0.82 0.96,-1.87 0.97,-2.96 -0.01,-1.08 -0.36,-2.14 -0.97,-2.95 -0.3,-0.42 -0.66,-0.78 -1.06,-1.07 -0.39,-0.29 -0.82,-0.53 -1.26,-0.68 -0.88,-0.34 -1.81,-0.37 -2.63,-0.23 -0.83,0.15 -1.55,0.51 -2.12,0.93 -1.16,0.87 -1.67,2 -1.87,2.76 -0.21,0.78 -0.18,1.24 -0.21,1.24z"/>
     <path class="fil3" d="M252.32 179.03c-1.88,0 -3.51,1.04 -4.36,2.58 -0.39,-0.71 -0.62,-1.53 -0.62,-2.39 0,-2.76 2.23,-4.98 4.98,-4.98 2.75,0 4.98,2.22 4.98,4.98 0,0.86 -0.22,1.68 -0.61,2.39 -0.85,-1.54 -2.49,-2.58 -4.37,-2.58z"/>
     <path class="fil12" d="M250.11 179.08c0,1.22 0.99,2.21 2.21,2.21 1.22,0 2.21,-0.99 2.21,-2.21 0,-1.21 -0.99,-2.2 -2.21,-2.2 -1.22,0 -2.21,0.99 -2.21,2.2z"/>
     <path class="fil5" d="M250.11 179.08c0,0 -0.01,-0.05 -0.01,-0.14 -0.01,-0.09 0,-0.23 0.04,-0.41 0.06,-0.34 0.28,-0.86 0.79,-1.27 0.5,-0.41 1.35,-0.65 2.18,-0.36 0.83,0.28 1.55,1.15 1.54,2.18 0.01,1.03 -0.71,1.91 -1.54,2.18 -0.83,0.3 -1.68,0.06 -2.18,-0.35 -0.51,-0.41 -0.73,-0.93 -0.79,-1.28 -0.04,-0.17 -0.05,-0.31 -0.04,-0.4 0,-0.1 0.01,-0.15 0.01,-0.15 0.03,0 0.03,0.2 0.12,0.53 0.09,0.32 0.32,0.8 0.81,1.16 0.47,0.36 1.25,0.56 1.99,0.28 0.75,-0.26 1.38,-1.05 1.38,-1.97 0,-0.92 -0.63,-1.71 -1.38,-1.96 -0.74,-0.28 -1.52,-0.08 -1.99,0.28 -0.49,0.36 -0.72,0.83 -0.81,1.16 -0.09,0.33 -0.09,0.52 -0.12,0.52z"/>
     <path class="fil12" d="M250.39 175.62c-0.09,-0.13 0.25,-0.57 1.06,-0.88 0.79,-0.3 2.09,-0.39 3.31,0.26 1.22,0.65 1.88,1.78 2.06,2.6 0.2,0.85 0.03,1.37 -0.13,1.37 -0.18,0.01 -0.32,-0.45 -0.68,-1.05 -0.34,-0.6 -0.95,-1.36 -1.83,-1.84 -0.88,-0.46 -1.84,-0.54 -2.54,-0.49 -0.7,0.05 -1.16,0.18 -1.25,0.03z"/>
     <path class="fil12" d="M249.11 176.43c-0.28,-0.19 -0.42,-0.48 -0.28,-0.62 0.14,-0.14 0.43,0.01 0.61,0.29 0.19,0.29 0.3,0.55 0.25,0.59 -0.05,0.05 -0.3,-0.07 -0.58,-0.26z"/>
     <path class="fil5" d="M171.69 163.14c0,0 0.07,-0.01 0.2,-0.01 0.14,0 0.34,-0.01 0.59,-0.01 0.54,-0.01 1.3,-0.02 2.29,-0.03 1.99,-0.01 4.86,-0.03 8.39,-0.05 7.11,-0.02 16.9,-0.04 27.71,-0.07 5.41,0 10.57,0 15.25,0 2.35,0 4.58,0 6.66,0 1.04,0 2.05,0 3.02,0 0.97,-0.06 1.95,0.23 2.66,0.8 1.35,1.15 2.57,2.19 3.64,3.11 0.54,0.45 1.04,0.88 1.5,1.27 0.46,0.37 0.97,0.6 1.44,0.72 0.48,0.12 0.92,0.14 1.3,0.12 0.38,-0.01 0.7,-0.02 0.96,-0.03 0.25,-0.01 0.45,-0.01 0.6,-0.01 0.13,0 0.2,0 0.2,0 0,0.01 -0.07,0.01 -0.2,0.02 -0.15,0.01 -0.34,0.02 -0.6,0.04 -0.26,0.01 -0.58,0.03 -0.96,0.05 -0.38,0.03 -0.83,0.02 -1.32,-0.1 -0.49,-0.12 -1.01,-0.35 -1.5,-0.72 -0.46,-0.39 -0.96,-0.81 -1.5,-1.26 -1.08,-0.9 -2.31,-1.94 -3.66,-3.07 -0.69,-0.54 -1.6,-0.81 -2.56,-0.75 -0.97,0.01 -1.98,0.01 -3.02,0.01 -2.08,0.01 -4.31,0.02 -6.66,0.02 -4.68,0.01 -9.84,0.02 -15.25,0.03 -10.81,0 -20.6,0 -27.71,0 -3.53,-0.02 -6.4,-0.03 -8.39,-0.03 -0.99,-0.01 -1.75,-0.02 -2.29,-0.02 -0.25,-0.01 -0.45,-0.01 -0.59,-0.02 -0.13,0 -0.2,0 -0.2,-0.01z"/>
     <path class="fil5" d="M72.62 230.51c0.25,-0.54 0.79,-0.92 1.86,-0.8 2.95,0.34 33.92,1.03 38.18,0 4.27,-1.02 18.49,-17.16 24.51,-18.26 5.04,-0.92 29.59,-1.41 37.37,-1.19 7.78,-0.22 32.33,0.27 37.37,1.19 6.02,1.1 20.03,18.82 24.29,19.84 4.27,1.03 35.45,-1.24 38.4,-1.58 1.07,-0.12 1.61,0.26 1.86,0.8 0.53,1.11 -0.33,2.39 -1.55,2.43 -6.6,0.18 -32.07,0.47 -36.83,0.39 -5,-0.09 -56.13,-1.02 -64.7,-1.18 -12.92,0.08 -57.05,0.36 -61.73,0.43 -5.51,0.08 -30.88,0.54 -37.47,0.36 -1.23,-0.04 -2.09,-1.32 -1.56,-2.43z"/>
     <path class="fil5" d="M183.22 105.93c-0.25,0 -0.04,4.44 -3.63,4.36 -3.59,-0.09 -10.35,0 -10.35,0l-2.97 -5.56 16.95 1.2z"/>
     <path class="fil5" d="M181.63 111.83c0.5,0 0.97,0.24 1.27,0.64 0.85,1.17 2.56,3.58 2.61,4.34 0.06,1.01 -0.51,1.83 -1.55,1.95 -0.98,0.12 -19.91,0.02 -21.87,0.01 -0.12,0 -0.24,-0.02 -0.36,-0.05 -0.52,-0.13 -1.86,-0.55 -1.76,-1.47 0.1,-0.83 1.55,-3.37 2.32,-4.66 0.28,-0.47 0.79,-0.76 1.34,-0.76l18 0z"/>
     <path class="fil5" d="M239.52 104.73c0,0 0.02,0.03 0.06,0.1 0.05,0.08 0.11,0.18 0.19,0.3 0.16,0.29 0.39,0.68 0.67,1.18 0.59,1.04 1.43,2.52 2.46,4.34 2.06,3.69 4.89,8.76 8.01,14.37 2.53,4.57 4.86,8.79 6.72,12.15l-0.03 -0.03c2.24,1.76 4.07,3.21 5.37,4.23 0.63,0.5 1.12,0.9 1.47,1.18 0.16,0.13 0.28,0.23 0.38,0.32 0.09,0.07 0.13,0.11 0.13,0.11 -0.01,0 -0.05,-0.03 -0.15,-0.09 -0.1,-0.08 -0.23,-0.17 -0.39,-0.29 -0.37,-0.28 -0.87,-0.66 -1.51,-1.14 -1.31,-1.01 -3.16,-2.43 -5.42,-4.16l-0.01 -0.02 -0.01 -0.01c-1.87,-3.36 -4.22,-7.57 -6.76,-12.13 -3.1,-5.62 -5.91,-10.71 -7.95,-14.41 -1,-1.83 -1.82,-3.32 -2.39,-4.38 -0.27,-0.5 -0.48,-0.9 -0.64,-1.19 -0.06,-0.13 -0.11,-0.23 -0.16,-0.32 -0.03,-0.07 -0.05,-0.11 -0.04,-0.11z"/>
     <path class="fil2" d="M257.5 137.25l0.46 0.32c0.18,-0.23 -10.92,23.04 -16.14,29.18l-3.44 -2.91c7.41,-7.18 12.95,-18.33 19.12,-26.59z"/>
     <path class="fil5" d="M235.48 228.74c0,0 -0.1,0 -0.27,-0.1 -0.17,-0.09 -0.41,-0.25 -0.72,-0.48 -0.6,-0.45 -1.45,-1.16 -2.51,-2.11 -2.13,-1.91 -5.14,-4.75 -8.75,-8.36 -0.9,-0.9 -1.84,-1.86 -2.8,-2.86 -0.98,-0.99 -1.91,-2.12 -3.06,-3.06 -1.17,-0.93 -2.52,-1.7 -4.02,-2.24 -1.49,-0.54 -3.11,-0.86 -4.78,-0.98 -0.84,-0.07 -1.69,-0.07 -2.55,-0.07 -0.87,-0.01 -1.74,-0.02 -2.62,-0.03 -1.77,-0.01 -3.57,-0.03 -5.41,-0.04 -3.67,-0.03 -7.47,-0.07 -11.37,-0.1 -15.58,-0.16 -29.68,-0.3 -39.89,-0.4 -5.1,-0.07 -9.23,-0.12 -12.09,-0.15 -1.42,-0.03 -2.53,-0.05 -3.29,-0.06 -0.37,-0.01 -0.65,-0.01 -0.86,-0.02 -0.19,0 -0.29,-0.01 -0.29,-0.01 0,0 0.1,-0.01 0.29,-0.01 0.21,0 0.49,-0.01 0.86,-0.01 0.76,0 1.87,0.01 3.29,0.01 2.86,0.02 6.99,0.04 12.09,0.07 10.21,0.09 24.31,0.2 39.89,0.33 3.9,0.04 7.7,0.07 11.37,0.11 1.84,0.02 3.64,0.03 5.41,0.05 0.88,0.01 1.76,0.02 2.62,0.03 0.86,0 1.72,0.01 2.57,0.07 1.69,0.13 3.33,0.45 4.84,1.01 1.51,0.55 2.89,1.33 4.07,2.28 1.17,0.96 2.09,2.1 3.06,3.09 0.97,1 1.9,1.96 2.8,2.87 3.59,3.63 6.57,6.48 8.68,8.4 1.06,0.96 1.89,1.69 2.49,2.15 0.29,0.24 0.52,0.4 0.69,0.5 0.16,0.1 0.26,0.11 0.26,0.12z"/>
     <path class="fil13" d="M260.94 200.55c1.46,-1.44 2.94,-2.9 4.67,-4 1.74,-1.09 4.23,-2.38 5.8,-1.36 0.8,0.87 1.45,1.88 1.91,2.96 0.15,0.37 0.29,0.81 0.11,1.17 -0.22,0.44 -0.8,0.56 -1.29,0.62 -3.62,0.46 -7.23,0.91 -10.85,1.37 -0.21,0.02 -0.47,0.02 -0.57,-0.16 -0.11,-0.2 0.06,-0.43 0.22,-0.6z"/>
     <path class="fil12" d="M263.71 231.41c0,0.01 -0.01,0.02 -0.01,0.03 -0.23,0.8 0.37,1.7 1.21,1.68l7.86 -0.13c0.61,-0.02 1.12,-0.63 1.2,-1.24l0.05 -0.43c0.1,-0.78 -0.62,-1.49 -1.4,-1.43l-7.79 0.57c-0.52,0.04 -0.98,0.44 -1.12,0.95z"/>
     <path class="fil8" d="M117.14 226.83c0,-0.07 25.33,-0.12 56.58,-0.12 31.25,0 56.58,0.05 56.58,0.12 0,0.07 -25.33,0.12 -56.58,0.12 -31.25,0 -56.58,-0.05 -56.58,-0.12z"/>
     <polygon class="fil8" points="205.36,230.95 208.67,230.95 208.91,226.83 205.11,226.83 "/>
     <polygon class="fil8" points="174.32,230.95 177.64,230.95 177.87,226.83 174.07,226.83 "/>
     <polygon class="fil8" points="143.28,230.95 146.6,230.95 146.83,226.83 143.03,226.83 "/>
     <path class="fil8" d="M118.9 225.34c6,-5.17 14.08,-13.13 18.25,-13.89 5.04,-0.92 29.59,-1.41 37.37,-1.19 7.78,-0.22 32.33,0.27 37.37,1.19 3.88,0.71 11.05,8.3 16.82,13.89 -36.61,0 -73.21,0 -109.81,0z"/>
     <path class="fil5" d="M278.63 222.63c-0.01,0.01 -0.1,-0.06 -0.29,-0.2 -0.2,-0.15 -0.47,-0.36 -0.81,-0.62 -0.72,-0.56 -1.73,-1.36 -3.01,-2.35l0.06 0.02c-3.89,0.5 -9.75,1.25 -16.31,2.09 -3.19,0.4 -6.22,0.77 -8.92,1.11l0.04 -0.02c-3.27,1.77 -6.05,3.26 -8.03,4.32 -0.97,0.51 -1.75,0.92 -2.3,1.21 -0.25,0.13 -0.45,0.24 -0.61,0.32 -0.14,0.07 -0.21,0.1 -0.22,0.09 0,0 0.07,-0.04 0.2,-0.13 0.15,-0.08 0.35,-0.2 0.6,-0.34 0.54,-0.3 1.31,-0.73 2.26,-1.27 1.97,-1.08 4.74,-2.6 8,-4.39l0.01 -0.01 0.03 0c2.69,-0.35 5.72,-0.73 8.91,-1.13 6.56,-0.81 12.43,-1.53 16.32,-2.01l0.04 0 0.02 0.02c1.26,1.01 2.26,1.83 2.96,2.4 0.33,0.28 0.59,0.49 0.79,0.65 0.17,0.15 0.26,0.23 0.26,0.24z"/>
     <path class="fil5" d="M238.23 213.61c0,0 -1.6,-2.72 0,-3.4 1.85,-0.79 32.62,-4.48 33.88,-4.59 2.49,-0.22 3.4,0.91 3.98,3.84 0.59,2.93 1.88,10.2 -0.58,12.31 -2.46,2.11 -6.33,3.05 -13.96,3.52 -7.62,0.47 -11.63,0.72 -15.38,-1.39 -3.75,-2.11 -7.94,-10.29 -7.94,-10.29z"/>
     <path class="fil5" d="M239.81 189.45c-0.07,-0.03 0.21,-0.89 0.82,-2.41 0.62,-1.51 1.56,-3.69 2.85,-6.32 0.65,-1.31 1.37,-2.75 2.23,-4.25 0.86,-1.5 1.81,-3.09 3.02,-4.66 0.6,-0.77 1.3,-1.57 2.1,-2.24 0.8,-0.68 1.68,-1.3 2.61,-1.84 0.93,-0.54 1.87,-1.04 2.83,-1.55 0.96,-0.51 1.94,-1.02 2.95,-1.52 2.01,-1 4.05,-1.86 6.1,-2.5 1.02,-0.31 2.04,-0.57 3.05,-0.77 1,-0.21 2.04,-0.36 3.08,-0.31 1.04,0.06 2.1,0.34 2.95,0.98 0.84,0.64 1.37,1.53 1.68,2.38 0.33,0.85 0.5,1.69 0.65,2.48 0.15,0.78 0.29,1.53 0.43,2.25 0.56,2.86 0.99,5.19 1.22,6.81 0.24,1.62 0.29,2.53 0.21,2.54 -0.09,0.02 -0.3,-0.86 -0.68,-2.45 -0.38,-1.6 -0.93,-3.89 -1.6,-6.72 -0.17,-0.71 -0.34,-1.47 -0.51,-2.24 -0.17,-0.77 -0.36,-1.56 -0.67,-2.3 -0.3,-0.74 -0.74,-1.42 -1.37,-1.88 -0.64,-0.46 -1.47,-0.68 -2.36,-0.71 -0.89,-0.03 -1.82,0.11 -2.79,0.32 -0.97,0.21 -1.95,0.46 -2.93,0.77 -1.97,0.63 -3.94,1.48 -5.92,2.45 -0.99,0.49 -1.96,1 -2.92,1.5 -0.95,0.51 -1.91,1 -2.79,1.51 -0.89,0.51 -1.71,1.07 -2.46,1.7 -0.76,0.62 -1.37,1.31 -1.97,2.04 -1.17,1.48 -2.14,3.02 -3.03,4.48 -0.88,1.45 -1.64,2.85 -2.34,4.13 -1.38,2.56 -2.43,4.67 -3.18,6.12 -0.75,1.45 -1.18,2.25 -1.26,2.21z"/>
     <path class="fil3" d="M267.59 173.96c-2.4,0 -4.49,1.33 -5.56,3.29 -0.5,-0.9 -0.79,-1.94 -0.79,-3.05 0,-3.5 2.84,-6.34 6.35,-6.34 3.5,0 6.34,2.84 6.34,6.34 0,1.11 -0.29,2.15 -0.79,3.05 -1.08,-1.96 -3.16,-3.29 -5.55,-3.29z"/>
     <path class="fil12" d="M264.85 173.99c0,1.51 1.22,2.74 2.74,2.74 1.5,0 2.73,-1.23 2.73,-2.74 0,-1.51 -1.23,-2.73 -2.73,-2.73 -1.52,0 -2.74,1.22 -2.74,2.73z"/>
     <path class="fil5" d="M264.85 173.99c-0.01,0 -0.01,-0.06 -0.01,-0.17 -0.01,-0.12 0,-0.29 0.05,-0.51 0.09,-0.42 0.35,-1.06 0.99,-1.56 0.61,-0.5 1.65,-0.8 2.67,-0.43 0.51,0.17 0.99,0.51 1.33,0.99 0.36,0.46 0.56,1.06 0.56,1.68 0,0.62 -0.2,1.22 -0.56,1.69 -0.34,0.47 -0.82,0.81 -1.33,0.99 -1.02,0.36 -2.06,0.07 -2.67,-0.44 -0.64,-0.5 -0.9,-1.13 -0.99,-1.56 -0.05,-0.21 -0.06,-0.39 -0.05,-0.5 0,-0.12 0,-0.18 0.01,-0.18 0.03,0 0.02,0.25 0.13,0.66 0.12,0.4 0.39,0.99 1,1.44 0.59,0.46 1.56,0.71 2.5,0.36 0.93,-0.32 1.73,-1.31 1.72,-2.46 0.01,-1.15 -0.79,-2.14 -1.72,-2.46 -0.94,-0.35 -1.91,-0.09 -2.5,0.36 -0.61,0.45 -0.88,1.04 -1,1.45 -0.11,0.41 -0.1,0.65 -0.13,0.65z"/>
     <path class="fil5" d="M261.24 174.2c-0.01,0 -0.01,-0.14 0,-0.41 0,-0.13 0,-0.29 0.04,-0.49 0.02,-0.19 0.05,-0.41 0.12,-0.66 0.22,-0.97 0.84,-2.42 2.29,-3.55 0.73,-0.55 1.64,-1.03 2.7,-1.22 1.06,-0.19 2.25,-0.16 3.39,0.27 0.58,0.19 1.13,0.49 1.64,0.87 0.51,0.37 0.98,0.83 1.37,1.37 0.8,1.06 1.25,2.42 1.26,3.82 -0.01,1.4 -0.46,2.76 -1.26,3.82 -0.39,0.54 -0.86,1 -1.37,1.37 -0.51,0.38 -1.06,0.68 -1.64,0.87 -1.14,0.43 -2.33,0.46 -3.39,0.27 -1.06,-0.19 -1.97,-0.67 -2.7,-1.22 -1.45,-1.13 -2.08,-2.58 -2.29,-3.55 -0.07,-0.25 -0.1,-0.47 -0.12,-0.66 -0.04,-0.2 -0.04,-0.36 -0.04,-0.49 -0.01,-0.27 -0.01,-0.41 0,-0.41 0.04,0 0,0.57 0.25,1.54 0.24,0.95 0.88,2.35 2.31,3.43 0.71,0.53 1.6,0.98 2.63,1.16 1.03,0.17 2.18,0.14 3.28,-0.28 0.55,-0.19 1.08,-0.48 1.57,-0.85 0.5,-0.36 0.95,-0.81 1.32,-1.32 0.76,-1.02 1.19,-2.33 1.2,-3.68 -0.01,-1.35 -0.44,-2.66 -1.2,-3.68 -0.38,-0.51 -0.82,-0.96 -1.32,-1.32 -0.49,-0.37 -1.02,-0.66 -1.57,-0.85 -1.1,-0.42 -2.25,-0.45 -3.28,-0.28 -1.03,0.18 -1.92,0.63 -2.63,1.16 -1.43,1.08 -2.07,2.48 -2.31,3.43 -0.25,0.97 -0.21,1.54 -0.25,1.54z"/>
     <path class="fil12" d="M265.19 169.7c-0.08,-0.13 0.35,-0.64 1.34,-0.98 0.97,-0.35 2.54,-0.44 4.01,0.34 1.47,0.79 2.27,2.14 2.52,3.14 0.27,1.01 0.09,1.66 -0.07,1.66 -0.18,0.01 -0.32,-0.57 -0.74,-1.35 -0.41,-0.77 -1.16,-1.76 -2.29,-2.36 -1.13,-0.6 -2.37,-0.68 -3.24,-0.58 -0.88,0.08 -1.44,0.29 -1.53,0.13z"/>
     <path class="fil12" d="M263.6 170.71c-0.28,-0.2 -0.4,-0.51 -0.23,-0.67 0.16,-0.16 0.47,-0.03 0.65,0.26 0.19,0.28 0.27,0.56 0.2,0.63 -0.07,0.06 -0.34,-0.03 -0.62,-0.22z"/>
     <path class="fil5" d="M227.6 198.16c-0.08,-0.33 8.27,-2.72 18.65,-5.35 10.38,-2.62 18.86,-4.48 18.94,-4.15 0.08,0.33 -8.26,2.72 -18.64,5.35 -10.38,2.62 -18.86,4.48 -18.95,4.15z"/>
     <path class="fil5" d="M277.6 163.44c0,0.01 -0.01,-0.04 -0.03,-0.14 -0.02,-0.09 -0.05,-0.23 -0.09,-0.41 -0.1,-0.37 -0.27,-0.9 -0.62,-1.52 -0.36,-0.61 -0.93,-1.3 -1.79,-1.81 -0.22,-0.13 -0.46,-0.22 -0.7,-0.34 -0.26,-0.07 -0.52,-0.18 -0.8,-0.23 -0.28,-0.05 -0.56,-0.13 -0.86,-0.13 -0.3,-0.02 -0.61,-0.01 -0.92,0.02 -1.27,0.11 -2.64,0.43 -4.09,0.82 -1.45,0.4 -2.98,0.89 -4.57,1.44 -3.19,1.13 -6.67,2.47 -10.2,4.11 -0.44,0.21 -0.88,0.42 -1.3,0.65 -0.42,0.22 -0.8,0.5 -1.17,0.79 -0.74,0.59 -1.4,1.24 -1.97,1.95 -1.08,1.48 -2.07,2.97 -3.02,4.37 -1.88,2.81 -3.51,5.38 -4.83,7.57 -1.33,2.19 -2.35,3.99 -3.05,5.24 -0.35,0.61 -0.62,1.09 -0.81,1.44 -0.09,0.15 -0.16,0.27 -0.21,0.37 -0.05,0.08 -0.08,0.12 -0.08,0.12 -0.01,0 0.01,-0.04 0.05,-0.13 0.05,-0.1 0.12,-0.23 0.2,-0.39 0.17,-0.33 0.42,-0.83 0.76,-1.46 0.68,-1.26 1.68,-3.07 2.99,-5.28 1.3,-2.2 2.92,-4.79 4.8,-7.61 0.94,-1.41 1.91,-2.88 3.01,-4.39 0.58,-0.72 1.26,-1.39 2.01,-1.99 0.37,-0.29 0.77,-0.59 1.2,-0.82 0.43,-0.23 0.87,-0.44 1.31,-0.65 3.55,-1.65 7.03,-2.99 10.23,-4.1 1.61,-0.55 3.14,-1.04 4.6,-1.43 1.46,-0.38 2.83,-0.7 4.12,-0.8 0.32,-0.03 0.64,-0.03 0.95,-0.01 0.31,0.01 0.6,0.09 0.89,0.15 0.29,0.05 0.55,0.17 0.81,0.25 0.25,0.12 0.5,0.22 0.72,0.35 0.88,0.54 1.45,1.26 1.8,1.89 0.35,0.63 0.5,1.18 0.58,1.54 0.05,0.19 0.07,0.33 0.08,0.43 0.01,0.1 0.01,0.14 0,0.14z"/>
     <path class="fil13" d="M279.57 166.12c0.47,0.16 3.03,1.76 4.12,2.37 1.09,0.6 2.04,1.57 2.36,2.77 0.31,1.2 -0.04,2.47 -0.38,3.66 -1.12,3.9 -2.42,10.91 -3.54,14.81 -0.87,-7.07 -1.83,-19.12 -2.56,-23.61z"/>
     <path class="fil8" d="M244.37 222.22c-0.01,-0.07 7.29,-1.14 16.29,-2.38 9.01,-1.25 16.32,-2.2 16.33,-2.14 0.01,0.07 -7.29,1.14 -16.29,2.38 -9.01,1.25 -16.32,2.2 -16.33,2.14z"/>
     <path class="fil8" d="M246.7 224c0,-0.01 0.1,-0.03 0.3,-0.06 0.22,-0.04 0.51,-0.09 0.87,-0.15 0.76,-0.11 1.85,-0.27 3.21,-0.46 2.71,-0.38 6.46,-0.85 10.61,-1.34 4.13,-0.49 7.87,-0.94 10.61,-1.27 1.34,-0.16 2.43,-0.29 3.22,-0.39 0.36,-0.03 0.65,-0.07 0.88,-0.09 0.2,-0.02 0.3,-0.03 0.3,-0.02 0,0.01 -0.1,0.03 -0.3,0.07 -0.22,0.03 -0.51,0.08 -0.87,0.14 -0.75,0.12 -1.85,0.28 -3.2,0.46 -2.72,0.38 -6.47,0.85 -10.61,1.35 -4.14,0.49 -7.88,0.93 -10.62,1.26 -1.34,0.16 -2.43,0.29 -3.22,0.39 -0.36,0.04 -0.65,0.07 -0.87,0.09 -0.21,0.02 -0.31,0.03 -0.31,0.02z"/>
     <path class="fil8" d="M251.81 225.34c-0.02,0 0.29,-0.05 0.82,-0.12 0.58,-0.07 1.35,-0.17 2.29,-0.28 1.96,-0.24 4.61,-0.56 7.53,-0.91 2.93,-0.33 5.58,-0.63 7.55,-0.86 0.93,-0.09 1.7,-0.17 2.29,-0.23 0.54,-0.05 0.84,-0.07 0.84,-0.05 0,0.02 -0.3,0.07 -0.83,0.15 -0.58,0.08 -1.35,0.18 -2.28,0.31 -1.93,0.25 -4.59,0.58 -7.54,0.92 -2.94,0.35 -5.61,0.64 -7.54,0.84 -1.93,0.19 -3.15,0.29 -3.13,0.23z"/>
     <path class="fil8" d="M242.67 220.18c-0.01,-0.07 7.66,-1.13 17.14,-2.38 9.48,-1.24 17.17,-2.2 17.18,-2.13 0.01,0.06 -7.67,1.13 -17.15,2.38 -9.47,1.24 -17.16,2.2 -17.17,2.13z"/>
     <path class="fil8" d="M241.34 218.29c-0.01,-0.07 7.94,-1.17 17.75,-2.46 9.81,-1.29 17.77,-2.28 17.78,-2.21 0.01,0.07 -7.94,1.17 -17.75,2.46 -9.81,1.29 -17.77,2.28 -17.78,2.21z"/>
     <path class="fil8" d="M239.84 216.06c-0.01,-0.07 8.16,-1.2 18.25,-2.52 10.09,-1.33 18.27,-2.35 18.28,-2.28 0.01,0.06 -8.16,1.19 -18.25,2.52 -10.09,1.33 -18.27,2.35 -18.28,2.28z"/>
     <path class="fil8" d="M238.69 213.78c-0.01,-0.07 8.31,-1.22 18.57,-2.57 10.27,-1.35 18.6,-2.39 18.61,-2.32 0.01,0.07 -8.31,1.22 -18.58,2.57 -10.26,1.35 -18.59,2.39 -18.6,2.32z"/>
     <path class="fil8" d="M237.52 211.5c0,-0.06 8.38,-1.22 18.73,-2.58 10.35,-1.36 18.75,-2.41 18.76,-2.34 0.01,0.06 -8.38,1.22 -18.73,2.58 -10.35,1.36 -18.75,2.41 -18.76,2.34z"/>
     <path class="fil8" d="M264.63 206.31c0.07,-0.02 0.99,4.05 2.06,9.09 1.08,5.03 1.89,9.13 1.83,9.14 -0.07,0.01 -1,-4.05 -2.07,-9.09 -1.07,-5.03 -1.88,-9.13 -1.82,-9.14z"/>
     <path class="fil8" d="M267.73 205.79c0.06,-0.01 0.99,4.06 2.06,9.09 1.07,5.04 1.89,9.13 1.82,9.14 -0.07,0.02 -0.99,-4.05 -2.06,-9.09 -1.07,-5.03 -1.89,-9.12 -1.82,-9.14z"/>
     <path class="fil8" d="M270.82 205.27c0.07,-0.01 0.94,3.84 1.96,8.6 1.01,4.76 1.78,8.64 1.71,8.65 -0.06,0.02 -0.94,-3.83 -1.95,-8.6 -1.02,-4.76 -1.79,-8.63 -1.72,-8.65z"/>
     <path class="fil8" d="M274.18 205.98c0.01,-0.01 0.07,0.17 0.15,0.5 0.08,0.33 0.2,0.8 0.33,1.39 0.26,1.17 0.58,2.81 0.9,4.62 0.32,1.78 0.61,3.39 0.83,4.63 0.1,0.55 0.18,1.02 0.25,1.4 0.06,0.33 0.08,0.52 0.06,0.52 -0.01,0.01 -0.07,-0.17 -0.15,-0.5 -0.09,-0.33 -0.2,-0.8 -0.33,-1.39 -0.26,-1.17 -0.59,-2.81 -0.9,-4.62 -0.32,-1.78 -0.61,-3.38 -0.83,-4.63 -0.1,-0.55 -0.19,-1.02 -0.25,-1.4 -0.06,-0.33 -0.08,-0.52 -0.06,-0.52z"/>
     <path class="fil8" d="M261.06 206.95c0.06,-0.02 0.96,3.91 1.99,8.77 1.04,4.86 1.82,8.81 1.75,8.82 -0.06,0.01 -0.96,-3.91 -1.99,-8.77 -1.03,-4.86 -1.82,-8.81 -1.75,-8.82z"/>
     <path class="fil8" d="M257.5 207.67c0.07,-0.02 0.96,3.92 2,8.79 1.04,4.87 1.82,8.83 1.76,8.85 -0.07,0.01 -0.97,-3.93 -2,-8.8 -1.04,-4.87 -1.83,-8.83 -1.76,-8.84z"/>
     <path class="fil8" d="M253.83 207.86c0.07,-0.01 0.95,3.89 1.98,8.72 1.03,4.83 1.81,8.75 1.74,8.76 -0.06,0.02 -0.95,-3.88 -1.98,-8.71 -1.03,-4.83 -1.81,-8.75 -1.74,-8.77z"/>
     <path class="fil8" d="M250.22 208.34c0.07,-0.02 0.95,3.86 1.97,8.66 1.02,4.8 1.8,8.71 1.73,8.72 -0.06,0.02 -0.95,-3.86 -1.97,-8.67 -1.02,-4.8 -1.8,-8.7 -1.73,-8.71z"/>
     <path class="fil8" d="M246.66 209.04c0.07,-0.01 0.9,3.62 1.85,8.11 0.96,4.49 1.68,8.14 1.61,8.15 -0.06,0.02 -0.89,-3.61 -1.85,-8.1 -0.96,-4.49 -1.68,-8.15 -1.61,-8.16z"/>
     <path class="fil8" d="M243.01 209.34c0.07,-0.01 0.85,3.38 1.74,7.58 0.89,4.19 1.57,7.61 1.5,7.62 -0.07,0.01 -0.85,-3.38 -1.74,-7.57 -0.89,-4.2 -1.56,-7.62 -1.5,-7.63z"/>
     <path class="fil8" d="M239.43 209.92c0.06,-0.01 0.54,1.99 1.07,4.47 0.53,2.47 0.9,4.49 0.84,4.51 -0.07,0.01 -0.55,-1.98 -1.08,-4.46 -0.53,-2.48 -0.9,-4.5 -0.83,-4.52z"/>
     <path class="fil5" d="M121.61 223.47c0,-0.06 23.49,-0.12 52.46,-0.12 28.97,0 52.45,0.06 52.45,0.12 0,0.07 -23.48,0.13 -52.45,0.13 -28.97,0 -52.46,-0.06 -52.46,-0.13z"/>
     <path class="fil5" d="M123.67 221.1c0,-0.07 22.48,-0.12 50.2,-0.12 27.73,0 50.2,0.05 50.2,0.12 0,0.07 -22.47,0.12 -50.2,0.12 -27.72,0 -50.2,-0.05 -50.2,-0.12z"/>
     <path class="fil5" d="M126.8 218.67c0,-0.07 21.26,-0.12 47.47,-0.12 26.23,0 47.49,0.05 47.49,0.12 0,0.07 -21.26,0.12 -47.49,0.12 -26.21,0 -47.47,-0.05 -47.47,-0.12z"/>
     <path class="fil5" d="M128.88 216.24c0,-0.07 20.25,-0.12 45.22,-0.12 24.98,0 45.23,0.05 45.23,0.12 0,0.07 -20.25,0.12 -45.23,0.12 -24.97,0 -45.22,-0.05 -45.22,-0.12z"/>
     <path class="fil5" d="M132.35 213.93c0,-0.07 18.77,-0.13 41.92,-0.13 23.17,0 41.94,0.06 41.94,0.13 0,0.06 -18.77,0.12 -41.94,0.12 -23.15,0 -41.92,-0.06 -41.92,-0.12z"/>
     <path class="fil5" d="M136.28 211.61c0,-0.06 16.96,-0.12 37.88,-0.12 20.92,0 37.88,0.06 37.88,0.12 0,0.07 -16.96,0.13 -37.88,0.13 -20.92,0 -37.88,-0.06 -37.88,-0.13z"/>
     <polygon class="fil5" points="173.35,112.22 172.07,112.22 172.07,109.91 173.35,109.91 "/>
     <path class="fil13" d="M100.93 153.24c0,0 2.32,-0.79 1.86,-2.52 0,0 6.72,3.93 15.86,3.79 9.13,-0.13 42.61,1.91 42.61,1.91l3.84 5.3c0,0 -56.69,-1.31 -58.79,0.06l-5.38 -8.54z"/>
     <path class="fil13" d="M79.66 157.46c-0.47,0 14.44,5.12 16.38,6.74l3.04 -0.67 -10.64 -17.65 -1.23 -0.29c0,0 -3.65,11.89 -7.55,11.87z"/>
     <path class="fil13" d="M115.53 103.79c0.28,0 58.39,-2.48 58.3,-3.25 -0.1,-0.76 -25.92,-0.66 -37.25,0 -11.34,0.67 -21.05,3.25 -21.05,3.25z"/>
     <path class="fil16" d="M91.21 136.08l47.24 -11.66 8.9 -19.51 -38.21 1.59c-0.62,0.02 -0.86,0.21 -1.18,0.75l-16.75 28.83z"/>
     <path class="fil12" d="M81.77 231.41c0.01,0.01 0.01,0.02 0.01,0.03 0.23,0.8 -0.37,1.7 -1.21,1.68l-7.86 -0.13c-0.61,-0.02 -1.12,-0.63 -1.2,-1.24l-0.05 -0.43c-0.1,-0.78 0.62,-1.49 1.4,-1.43l7.79 0.57c0.52,0.04 0.98,0.44 1.12,0.95z"/>
    </g>
    <g>
     <path class="fil17" d="M221.43 151.17c-1.53,-2.02 -3.34,-2.79 -2.59,-6.53 0.46,-2.3 2.04,-4.46 3.04,-5.51 -8.28,2.33 -12.47,14.05 -1.1,14.05 0.42,-1.58 0.03,-0.7 0.65,-2.01z"/>
     <path class="fil18" d="M186.82 80.75l18.03 0 0 21.34 67.98 0 0 -21.34 18.35 0c3,0 5.45,2.45 5.45,5.45l0 170.29 -115.26 0 0 -170.29c0,-3 2.45,-5.45 5.45,-5.45z"/>
     <g style="clip-path:url(#id0)">
      <g>
       <rect class="fil19" x="178.47" y="80.72" width="121.06" height="31.5"/>
      </g>
     </g>
     <path class="fil0 str0" d="M186.82 80.75l18.03 0 0 21.34 67.98 0 0 -21.34 18.35 0c3,0 5.45,2.45 5.45,5.45l0 170.29 -115.26 0 0 -170.29c0,-3 2.45,-5.45 5.45,-5.45z"/>
     <path class="fil20" d="M211.52 81.31l13.61 0c-0.07,-0.25 -0.12,-0.51 -0.12,-0.79l0 -1.25c0,-1.5 1.22,-2.72 2.72,-2.72l22.54 0c1.5,0 2.72,1.22 2.72,2.72l0 1.25c0,0.28 -0.04,0.54 -0.12,0.79l13.62 0c1.28,0 2.33,1.05 2.33,2.33l0 12.04c0,1.29 -1.05,2.33 -2.33,2.33l-54.97 0c-1.29,0 -2.34,-1.04 -2.34,-2.33l0 -12.04c0,-1.28 1.05,-2.33 2.34,-2.33z"/>
     <rect class="fil21" x="191.31" y="127.28" width="14.65" height="15.58"/>
     <rect class="fil21" x="191.31" y="149.64" width="14.65" height="15.58"/>
     <rect class="fil21" x="191.31" y="173.76" width="14.65" height="15.58"/>
     <rect class="fil21" x="191.31" y="197.88" width="14.65" height="15.58"/>
     <rect class="fil21" x="191.31" y="222" width="14.65" height="15.58"/>
     <line class="fil0 str1" x1="212.89" y1="136.58" x2="286.42" y2= "136.58" />
     <line class="fil0 str1" x1="213.95" y1="160.29" x2="285.09" y2= "160.29" />
     <line class="fil0 str1" x1="213.69" y1="182.41" x2="286.69" y2= "182.41" />
     <line class="fil0 str1" x1="213.15" y1="207.72" x2="286.69" y2= "207.72" />
     <line class="fil0 str1" x1="212.89" y1="232.23" x2="285.89" y2= "232.23" />
     <polyline class="fil0 str2" points="194.1,135.09 197.65,137.85 207.54,129.36 "/>
     <polyline class="fil0 str2" points="193.95,158.1 197.5,160.86 207.39,152.38 "/>
     <polyline class="fil0 str2" points="194.39,181.48 197.94,184.24 207.84,175.76 "/>
     <polyline class="fil0 str2" points="195.37,206.14 198.93,208.9 208.82,200.42 "/>
     <polyline class="fil0 str2" points="195.22,229.16 198.77,231.92 208.67,223.44 "/>
    </g>
   </g>
  </g>
 </g>
</svg>
