<?xml version="1.0" encoding="UTF-8"?>
<!DOCTYPE svg PUBLIC "-//W3C//DTD SVG 1.0//EN" "http://www.w3.org/TR/2001/REC-SVG-20010904/DTD/svg10.dtd">
<!-- Creator: CorelDRAW -->
<svg xmlns="http://www.w3.org/2000/svg" xml:space="preserve" width="256px" height="256px" version="1.0" style="shape-rendering:geometricPrecision; text-rendering:geometricPrecision; image-rendering:optimizeQuality; fill-rule:evenodd; clip-rule:evenodd"
viewBox="0 0 256 256"
 xmlns:xlink="http://www.w3.org/1999/xlink"
 xmlns:xodm="http://www.corel.com/coreldraw/odm/2003">
 <defs>
  <style type="text/css">
   <![CDATA[
    .fil0 {fill:none}
    .fil1 {fill:#E42127}
    .fil2 {fill:black}
    .fil3 {fill:#143553}
   ]]>
  </style>
 </defs>
 <g id="Layer_x0020_1">
  <metadata id="CorelCorpID_0Corel-Layer"/>
  <rect class="fil0" width="256" height="256"/>
  <path class="fil1" d="M116.3 112.13l0 23.67c0,2.83 0.57,3.08 3.26,3.08l23.7 0c2.51,0 2.91,-0.54 2.91,-3.08l0 -23.67c0,-2.54 -0.4,-3.07 -2.91,-3.07l-24.05 0c-2.51,0 -2.91,0.53 -2.91,3.07zm13.23 10.67l7.75 0 -4.58 12.18c0,0 -0.44,1.99 -2.41,0.97 0,0 -0.94,-0.66 -0.33,-2.05 0.61,-1.38 3.17,-8.3 3.17,-8.3l-8.24 0 5.26 -12.59c0,0 0.51,-1.53 2.11,-0.9 1.6,0.64 0.24,3.02 0.24,3.02l-2.97 7.67z"/>
  <path class="fil2" d="M82.3 108.64c1.65,1.01 2.44,0.93 3.42,-0.96 0.7,-1.33 3.06,-5.65 -0.35,-5.27 -1.07,0.12 -1.23,0.68 -1.67,1.54 -0.8,1.56 -1.74,2.79 -1.4,4.69z"/>
  <path class="fil2" d="M185.3 139.12c-1.66,0.89 -0.6,2.77 0.06,3.99 0.71,1.31 1.29,3.6 3.32,2.58 1.67,-0.84 0.34,-2.84 -0.22,-3.94 -0.63,-1.25 -1.36,-3.59 -3.16,-2.63z"/>
  <path class="fil2" d="M77.19 109.16c1.64,-1.34 0.82,-2.36 -0.05,-3.99 -0.69,-1.28 -1.32,-3.58 -3.32,-2.58 -1.67,0.83 -0.34,2.84 0.22,3.94 0.79,1.57 1.03,3.26 3.15,2.63z"/>
  <path class="fil2" d="M180.2 139.64c-3.93,-2.42 -4.95,5.04 -4.86,5.25 0.3,0.72 2.07,2.21 3.46,-0.55 0.79,-1.59 1.74,-2.78 1.4,-4.7z"/>
  <path class="fil3" d="M126.27 107.41c0,0 -2.62,-22.93 13.42,-34.01 16.04,-11.07 32.22,-1.56 32.22,-1.56 0,0 12.92,8.09 15.19,21.86 2.27,13.77 0.57,29.53 0.57,29.53l-11.64 0 1.14 -17.6c0,0 2.55,-19.88 -12.78,-24.99 -15.33,-5.11 -25.27,4.54 -26.83,12.78 -1.56,8.23 -1.14,14.05 -1.14,14.05l-10.15 -0.06z"/>
  <path class="fil3" d="M136.13 141.04c0,0 2.62,22.93 -13.42,34 -16.04,11.08 -32.22,1.56 -32.22,1.56 0,0 -12.92,-8.09 -15.19,-21.86 -2.27,-13.77 -0.57,-29.52 -0.57,-29.52l11.64 0 -1.14 17.6c0,0 -2.55,19.87 12.78,24.98 15.33,5.11 25.27,-4.54 26.83,-12.77 1.56,-8.24 1.14,-14.06 1.14,-14.06l10.15 0.07z"/>
  <circle class="fil1" cx="80.11" cy="110.77" r="5.49"/>
  <circle class="fil1" cx="182.29" cy="137.67" r="5.49"/>
  <path class="fil2" d="M116.51 112.45c0,-2.51 0.4,-3.04 2.87,-3.04l23.74 0c2.47,0 2.87,0.53 2.87,3.04l0 23.39c0,2.5 -0.4,3.04 -2.87,3.04l-23.39 0c-2.65,0 -3.22,-0.25 -3.22,-3.04l0 -23.39zm-3.33 -2.41c-0.38,7.06 -0.08,14.87 -0.08,22.01 0,3.49 -0.39,7.14 1.8,8.96 2.65,2.21 5.66,0.7 9.15,1.48 0.05,7.37 0.46,12.15 -3.14,17.57 -8.45,12.74 -27.35,9.7 -32.25,-3.83 -1.07,-2.95 -1.02,-6.4 -1.82,-8.46 -0.92,-0.21 -1.68,-0.16 -2.49,0.16 -1.02,2.66 0.3,7.75 1.38,10.22 7.15,16.37 28.17,17.74 37.62,4.35 4.35,-6.16 4.09,-11.38 4.11,-20.15l7.57 -0.04c0.05,6.22 0.19,11.48 -1.85,16.94 -3.18,8.5 -9.77,15.47 -18.67,18.49 -5.1,1.73 -10.89,1.85 -16.19,0.48 -9.45,-2.45 -16.34,-9.13 -19.78,-17.36 -2.22,-5.31 -2.16,-10.24 -2.16,-16.43 0,-5.99 -0.27,-12.64 0.06,-18.58l7.46 0.04c0.2,3.87 0.05,8.1 0.05,12.01 -0.01,1.59 -0.44,4.38 0.7,5.19 2.02,1.44 2.68,-0.73 2.71,-2.42 0.08,-3.98 -0.03,-8.06 -0.01,-12.06 0.02,-4.91 -0.41,-6.09 -5.41,-6.2 -0.11,-2.25 -0.06,-4.61 -0.04,-6.88 0.02,-2.85 0.3,-4.04 -2.57,-3.98 -1.55,2.11 -0.71,6.43 -0.91,10.87 -6.99,0.06 -5.47,2.74 -5.47,15.82 0,6.76 -0.46,13.8 1.17,20.16 2.73,10.67 11.02,18.8 20.69,22.3 14.56,5.28 29.63,-1.21 37.32,-12.17 6.07,-8.64 6.25,-15.25 6.32,-26.04 4.94,-1.1 9.01,1.2 10.62,-3.79 0.55,-1.69 0.57,-27.08 0.08,-28.85 -1.45,-5.34 -5.53,-2.91 -10.7,-4.06 -0.04,-7.08 -0.44,-12.06 3.01,-17.36 8.47,-13.05 27.33,-9.83 32.28,3.37 1.11,2.95 1.1,6.62 1.92,8.71 0.92,0.22 1.68,0.17 2.49,-0.16 2.34,-6.08 -4.93,-25.1 -23.6,-23.55 -7.03,0.58 -12.42,4.88 -15.26,8.78 -4.5,6.16 -4.23,11.52 -4.26,20.19l-7.55 0.22c-0.09,-9.47 -0.02,-15.36 4.93,-23.16 1.54,-2.42 2.35,-3.25 4.19,-5.1 14.75,-14.9 39.25,-9.71 47.36,9.7 2.22,5.3 2.15,10.22 2.15,16.42 0,6 0.27,12.64 -0.05,18.56l-7.46 0.01c-0.1,-2.07 0.46,-16.04 -0.56,-17.07 -1.74,-1.76 -2.87,0.2 -2.91,2.26 -0.07,3.87 0.03,7.83 0.02,11.71 -0.02,5.05 0.15,6.45 5.41,6.55 0.16,3.48 -0.45,7.96 0.63,10.7 4.24,0.8 2.53,-2.49 2.89,-10.71 4.34,-0.03 5.47,-0.7 5.48,-5.15 0.01,-8.38 0.57,-24.01 -1.18,-30.83 -6.57,-25.62 -41.61,-33.6 -58.01,-10.12 -1.54,2.21 -2.68,4.28 -3.78,6.88 -2.58,6.07 -2.49,11.99 -2.54,19.15 -2.31,0.51 -4.84,-0.24 -7.13,0.43 -2.89,0.83 -2.45,1.88 -3.74,3.82z"/>
 </g>
</svg>
